%
M48
M72
T01C0.01575
T02C0.03200
T03C0.04000
T04C0.11024
T05C0.12598
%
T01
X66000Y66000
X86000Y61000
X93500Y66000
X102000Y67000
X103500Y71000
X98000Y78000
X103500Y86000
X103500Y91000
X110000Y82000
X117000Y78000
X121000Y73500
X123500Y70000
X143500Y76000
X148500Y73500
X153500Y76000
X154500Y68500
X168500Y76000
X178500Y66000
X161000Y42000
X138500Y41000
X93500Y46000
X88500Y46000
X118500Y91000
X138500Y106000
X148500Y106000
X158500Y91000
X153500Y123500
X171000Y123500
X171000Y128500
X148500Y141000
X131000Y151000
X118500Y138500
X113000Y135000
X108500Y143500
X108500Y148500
X108500Y153500
X103500Y158500
X106000Y168500
X81000Y146000
X73500Y146000
X61000Y131000
X56000Y131000
X66000Y128500
X68500Y123500
X61000Y118500
X53500Y111000
X73500Y101000
X78500Y111000
X93500Y96000
X95500Y108500
X31000Y91000
X168500Y151000
X193500Y151000
X206000Y142850
T02
X173500Y111000
X163500Y111000
X153500Y111000
X143500Y111000
X133500Y111000
X128500Y101000
X118500Y101000
X113500Y111000
X123500Y111000
X138500Y101000
X148500Y101000
X158500Y101000
X168500Y101000
X178500Y101000
X188500Y86000
X198500Y86000
X208500Y86000
X203500Y76000
X193500Y76000
X183500Y76000
X153500Y36000
X143500Y36000
X133500Y36000
X123500Y36000
X113500Y36000
X103500Y36000
X93500Y36000
X83500Y36000
X88500Y26000
X98500Y26000
X108500Y26000
X118500Y26000
X128500Y26000
X138500Y26000
X148500Y26000
X158500Y26000
X91000Y113500
X86000Y121000
X96000Y121000
X48500Y161000
X38500Y161000
X33500Y151000
X43500Y151000
T03
X171000Y161000
X181000Y161000
X191000Y161000
X201000Y161000
X211000Y161000
T04
X217500Y81000
X104500Y106000
X57300Y156000
X74500Y31000
T05
X36433Y36433
X26591Y119110
X36433Y201787
X201787Y201787
X211630Y119110
X201787Y36433
M30
