G75*
%MOIN*%
%OFA0B0*%
%FSLAX25Y25*%
%IPPOS*%
%LPD*%
%AMOC8*
5,1,8,0,0,1.08239X$1,22.5*
%
%ADD10C,0.00000*%
%ADD11C,0.01400*%
%ADD12C,0.06000*%
%ADD13R,0.03543X0.02756*%
%ADD14R,0.02756X0.03543*%
%ADD15C,0.04800*%
%ADD16R,0.05800X0.01400*%
%ADD17OC8,0.05000*%
%ADD18C,0.00600*%
%ADD19OC8,0.02775*%
%ADD20C,0.01600*%
D10*
X0001000Y0001000D02*
X0001000Y0237220D01*
X0237220Y0237220D01*
X0237220Y0001000D01*
X0001000Y0001000D01*
X0030134Y0036433D02*
X0030136Y0036591D01*
X0030142Y0036749D01*
X0030152Y0036907D01*
X0030166Y0037065D01*
X0030184Y0037222D01*
X0030205Y0037379D01*
X0030231Y0037535D01*
X0030261Y0037691D01*
X0030294Y0037846D01*
X0030332Y0037999D01*
X0030373Y0038152D01*
X0030418Y0038304D01*
X0030467Y0038455D01*
X0030520Y0038604D01*
X0030576Y0038752D01*
X0030636Y0038898D01*
X0030700Y0039043D01*
X0030768Y0039186D01*
X0030839Y0039328D01*
X0030913Y0039468D01*
X0030991Y0039605D01*
X0031073Y0039741D01*
X0031157Y0039875D01*
X0031246Y0040006D01*
X0031337Y0040135D01*
X0031432Y0040262D01*
X0031529Y0040387D01*
X0031630Y0040509D01*
X0031734Y0040628D01*
X0031841Y0040745D01*
X0031951Y0040859D01*
X0032064Y0040970D01*
X0032179Y0041079D01*
X0032297Y0041184D01*
X0032418Y0041286D01*
X0032541Y0041386D01*
X0032667Y0041482D01*
X0032795Y0041575D01*
X0032925Y0041665D01*
X0033058Y0041751D01*
X0033193Y0041835D01*
X0033329Y0041914D01*
X0033468Y0041991D01*
X0033609Y0042063D01*
X0033751Y0042133D01*
X0033895Y0042198D01*
X0034041Y0042260D01*
X0034188Y0042318D01*
X0034337Y0042373D01*
X0034487Y0042424D01*
X0034638Y0042471D01*
X0034790Y0042514D01*
X0034943Y0042553D01*
X0035098Y0042589D01*
X0035253Y0042620D01*
X0035409Y0042648D01*
X0035565Y0042672D01*
X0035722Y0042692D01*
X0035880Y0042708D01*
X0036037Y0042720D01*
X0036196Y0042728D01*
X0036354Y0042732D01*
X0036512Y0042732D01*
X0036670Y0042728D01*
X0036829Y0042720D01*
X0036986Y0042708D01*
X0037144Y0042692D01*
X0037301Y0042672D01*
X0037457Y0042648D01*
X0037613Y0042620D01*
X0037768Y0042589D01*
X0037923Y0042553D01*
X0038076Y0042514D01*
X0038228Y0042471D01*
X0038379Y0042424D01*
X0038529Y0042373D01*
X0038678Y0042318D01*
X0038825Y0042260D01*
X0038971Y0042198D01*
X0039115Y0042133D01*
X0039257Y0042063D01*
X0039398Y0041991D01*
X0039537Y0041914D01*
X0039673Y0041835D01*
X0039808Y0041751D01*
X0039941Y0041665D01*
X0040071Y0041575D01*
X0040199Y0041482D01*
X0040325Y0041386D01*
X0040448Y0041286D01*
X0040569Y0041184D01*
X0040687Y0041079D01*
X0040802Y0040970D01*
X0040915Y0040859D01*
X0041025Y0040745D01*
X0041132Y0040628D01*
X0041236Y0040509D01*
X0041337Y0040387D01*
X0041434Y0040262D01*
X0041529Y0040135D01*
X0041620Y0040006D01*
X0041709Y0039875D01*
X0041793Y0039741D01*
X0041875Y0039605D01*
X0041953Y0039468D01*
X0042027Y0039328D01*
X0042098Y0039186D01*
X0042166Y0039043D01*
X0042230Y0038898D01*
X0042290Y0038752D01*
X0042346Y0038604D01*
X0042399Y0038455D01*
X0042448Y0038304D01*
X0042493Y0038152D01*
X0042534Y0037999D01*
X0042572Y0037846D01*
X0042605Y0037691D01*
X0042635Y0037535D01*
X0042661Y0037379D01*
X0042682Y0037222D01*
X0042700Y0037065D01*
X0042714Y0036907D01*
X0042724Y0036749D01*
X0042730Y0036591D01*
X0042732Y0036433D01*
X0042730Y0036275D01*
X0042724Y0036117D01*
X0042714Y0035959D01*
X0042700Y0035801D01*
X0042682Y0035644D01*
X0042661Y0035487D01*
X0042635Y0035331D01*
X0042605Y0035175D01*
X0042572Y0035020D01*
X0042534Y0034867D01*
X0042493Y0034714D01*
X0042448Y0034562D01*
X0042399Y0034411D01*
X0042346Y0034262D01*
X0042290Y0034114D01*
X0042230Y0033968D01*
X0042166Y0033823D01*
X0042098Y0033680D01*
X0042027Y0033538D01*
X0041953Y0033398D01*
X0041875Y0033261D01*
X0041793Y0033125D01*
X0041709Y0032991D01*
X0041620Y0032860D01*
X0041529Y0032731D01*
X0041434Y0032604D01*
X0041337Y0032479D01*
X0041236Y0032357D01*
X0041132Y0032238D01*
X0041025Y0032121D01*
X0040915Y0032007D01*
X0040802Y0031896D01*
X0040687Y0031787D01*
X0040569Y0031682D01*
X0040448Y0031580D01*
X0040325Y0031480D01*
X0040199Y0031384D01*
X0040071Y0031291D01*
X0039941Y0031201D01*
X0039808Y0031115D01*
X0039673Y0031031D01*
X0039537Y0030952D01*
X0039398Y0030875D01*
X0039257Y0030803D01*
X0039115Y0030733D01*
X0038971Y0030668D01*
X0038825Y0030606D01*
X0038678Y0030548D01*
X0038529Y0030493D01*
X0038379Y0030442D01*
X0038228Y0030395D01*
X0038076Y0030352D01*
X0037923Y0030313D01*
X0037768Y0030277D01*
X0037613Y0030246D01*
X0037457Y0030218D01*
X0037301Y0030194D01*
X0037144Y0030174D01*
X0036986Y0030158D01*
X0036829Y0030146D01*
X0036670Y0030138D01*
X0036512Y0030134D01*
X0036354Y0030134D01*
X0036196Y0030138D01*
X0036037Y0030146D01*
X0035880Y0030158D01*
X0035722Y0030174D01*
X0035565Y0030194D01*
X0035409Y0030218D01*
X0035253Y0030246D01*
X0035098Y0030277D01*
X0034943Y0030313D01*
X0034790Y0030352D01*
X0034638Y0030395D01*
X0034487Y0030442D01*
X0034337Y0030493D01*
X0034188Y0030548D01*
X0034041Y0030606D01*
X0033895Y0030668D01*
X0033751Y0030733D01*
X0033609Y0030803D01*
X0033468Y0030875D01*
X0033329Y0030952D01*
X0033193Y0031031D01*
X0033058Y0031115D01*
X0032925Y0031201D01*
X0032795Y0031291D01*
X0032667Y0031384D01*
X0032541Y0031480D01*
X0032418Y0031580D01*
X0032297Y0031682D01*
X0032179Y0031787D01*
X0032064Y0031896D01*
X0031951Y0032007D01*
X0031841Y0032121D01*
X0031734Y0032238D01*
X0031630Y0032357D01*
X0031529Y0032479D01*
X0031432Y0032604D01*
X0031337Y0032731D01*
X0031246Y0032860D01*
X0031157Y0032991D01*
X0031073Y0033125D01*
X0030991Y0033261D01*
X0030913Y0033398D01*
X0030839Y0033538D01*
X0030768Y0033680D01*
X0030700Y0033823D01*
X0030636Y0033968D01*
X0030576Y0034114D01*
X0030520Y0034262D01*
X0030467Y0034411D01*
X0030418Y0034562D01*
X0030373Y0034714D01*
X0030332Y0034867D01*
X0030294Y0035020D01*
X0030261Y0035175D01*
X0030231Y0035331D01*
X0030205Y0035487D01*
X0030184Y0035644D01*
X0030166Y0035801D01*
X0030152Y0035959D01*
X0030142Y0036117D01*
X0030136Y0036275D01*
X0030134Y0036433D01*
X0068988Y0031000D02*
X0068990Y0031148D01*
X0068996Y0031296D01*
X0069006Y0031444D01*
X0069020Y0031591D01*
X0069038Y0031738D01*
X0069059Y0031884D01*
X0069085Y0032030D01*
X0069115Y0032175D01*
X0069148Y0032319D01*
X0069186Y0032462D01*
X0069227Y0032604D01*
X0069272Y0032745D01*
X0069320Y0032885D01*
X0069373Y0033024D01*
X0069429Y0033161D01*
X0069489Y0033296D01*
X0069552Y0033430D01*
X0069619Y0033562D01*
X0069690Y0033692D01*
X0069764Y0033820D01*
X0069841Y0033946D01*
X0069922Y0034070D01*
X0070006Y0034192D01*
X0070093Y0034311D01*
X0070184Y0034428D01*
X0070278Y0034543D01*
X0070374Y0034655D01*
X0070474Y0034765D01*
X0070576Y0034871D01*
X0070682Y0034975D01*
X0070790Y0035076D01*
X0070901Y0035174D01*
X0071014Y0035270D01*
X0071130Y0035362D01*
X0071248Y0035451D01*
X0071369Y0035536D01*
X0071492Y0035619D01*
X0071617Y0035698D01*
X0071744Y0035774D01*
X0071873Y0035846D01*
X0072004Y0035915D01*
X0072137Y0035980D01*
X0072272Y0036041D01*
X0072408Y0036099D01*
X0072545Y0036154D01*
X0072684Y0036204D01*
X0072825Y0036251D01*
X0072966Y0036294D01*
X0073109Y0036334D01*
X0073253Y0036369D01*
X0073397Y0036401D01*
X0073543Y0036428D01*
X0073689Y0036452D01*
X0073836Y0036472D01*
X0073983Y0036488D01*
X0074130Y0036500D01*
X0074278Y0036508D01*
X0074426Y0036512D01*
X0074574Y0036512D01*
X0074722Y0036508D01*
X0074870Y0036500D01*
X0075017Y0036488D01*
X0075164Y0036472D01*
X0075311Y0036452D01*
X0075457Y0036428D01*
X0075603Y0036401D01*
X0075747Y0036369D01*
X0075891Y0036334D01*
X0076034Y0036294D01*
X0076175Y0036251D01*
X0076316Y0036204D01*
X0076455Y0036154D01*
X0076592Y0036099D01*
X0076728Y0036041D01*
X0076863Y0035980D01*
X0076996Y0035915D01*
X0077127Y0035846D01*
X0077256Y0035774D01*
X0077383Y0035698D01*
X0077508Y0035619D01*
X0077631Y0035536D01*
X0077752Y0035451D01*
X0077870Y0035362D01*
X0077986Y0035270D01*
X0078099Y0035174D01*
X0078210Y0035076D01*
X0078318Y0034975D01*
X0078424Y0034871D01*
X0078526Y0034765D01*
X0078626Y0034655D01*
X0078722Y0034543D01*
X0078816Y0034428D01*
X0078907Y0034311D01*
X0078994Y0034192D01*
X0079078Y0034070D01*
X0079159Y0033946D01*
X0079236Y0033820D01*
X0079310Y0033692D01*
X0079381Y0033562D01*
X0079448Y0033430D01*
X0079511Y0033296D01*
X0079571Y0033161D01*
X0079627Y0033024D01*
X0079680Y0032885D01*
X0079728Y0032745D01*
X0079773Y0032604D01*
X0079814Y0032462D01*
X0079852Y0032319D01*
X0079885Y0032175D01*
X0079915Y0032030D01*
X0079941Y0031884D01*
X0079962Y0031738D01*
X0079980Y0031591D01*
X0079994Y0031444D01*
X0080004Y0031296D01*
X0080010Y0031148D01*
X0080012Y0031000D01*
X0080010Y0030852D01*
X0080004Y0030704D01*
X0079994Y0030556D01*
X0079980Y0030409D01*
X0079962Y0030262D01*
X0079941Y0030116D01*
X0079915Y0029970D01*
X0079885Y0029825D01*
X0079852Y0029681D01*
X0079814Y0029538D01*
X0079773Y0029396D01*
X0079728Y0029255D01*
X0079680Y0029115D01*
X0079627Y0028976D01*
X0079571Y0028839D01*
X0079511Y0028704D01*
X0079448Y0028570D01*
X0079381Y0028438D01*
X0079310Y0028308D01*
X0079236Y0028180D01*
X0079159Y0028054D01*
X0079078Y0027930D01*
X0078994Y0027808D01*
X0078907Y0027689D01*
X0078816Y0027572D01*
X0078722Y0027457D01*
X0078626Y0027345D01*
X0078526Y0027235D01*
X0078424Y0027129D01*
X0078318Y0027025D01*
X0078210Y0026924D01*
X0078099Y0026826D01*
X0077986Y0026730D01*
X0077870Y0026638D01*
X0077752Y0026549D01*
X0077631Y0026464D01*
X0077508Y0026381D01*
X0077383Y0026302D01*
X0077256Y0026226D01*
X0077127Y0026154D01*
X0076996Y0026085D01*
X0076863Y0026020D01*
X0076728Y0025959D01*
X0076592Y0025901D01*
X0076455Y0025846D01*
X0076316Y0025796D01*
X0076175Y0025749D01*
X0076034Y0025706D01*
X0075891Y0025666D01*
X0075747Y0025631D01*
X0075603Y0025599D01*
X0075457Y0025572D01*
X0075311Y0025548D01*
X0075164Y0025528D01*
X0075017Y0025512D01*
X0074870Y0025500D01*
X0074722Y0025492D01*
X0074574Y0025488D01*
X0074426Y0025488D01*
X0074278Y0025492D01*
X0074130Y0025500D01*
X0073983Y0025512D01*
X0073836Y0025528D01*
X0073689Y0025548D01*
X0073543Y0025572D01*
X0073397Y0025599D01*
X0073253Y0025631D01*
X0073109Y0025666D01*
X0072966Y0025706D01*
X0072825Y0025749D01*
X0072684Y0025796D01*
X0072545Y0025846D01*
X0072408Y0025901D01*
X0072272Y0025959D01*
X0072137Y0026020D01*
X0072004Y0026085D01*
X0071873Y0026154D01*
X0071744Y0026226D01*
X0071617Y0026302D01*
X0071492Y0026381D01*
X0071369Y0026464D01*
X0071248Y0026549D01*
X0071130Y0026638D01*
X0071014Y0026730D01*
X0070901Y0026826D01*
X0070790Y0026924D01*
X0070682Y0027025D01*
X0070576Y0027129D01*
X0070474Y0027235D01*
X0070374Y0027345D01*
X0070278Y0027457D01*
X0070184Y0027572D01*
X0070093Y0027689D01*
X0070006Y0027808D01*
X0069922Y0027930D01*
X0069841Y0028054D01*
X0069764Y0028180D01*
X0069690Y0028308D01*
X0069619Y0028438D01*
X0069552Y0028570D01*
X0069489Y0028704D01*
X0069429Y0028839D01*
X0069373Y0028976D01*
X0069320Y0029115D01*
X0069272Y0029255D01*
X0069227Y0029396D01*
X0069186Y0029538D01*
X0069148Y0029681D01*
X0069115Y0029825D01*
X0069085Y0029970D01*
X0069059Y0030116D01*
X0069038Y0030262D01*
X0069020Y0030409D01*
X0069006Y0030556D01*
X0068996Y0030704D01*
X0068990Y0030852D01*
X0068988Y0031000D01*
X0098988Y0106000D02*
X0098990Y0106148D01*
X0098996Y0106296D01*
X0099006Y0106444D01*
X0099020Y0106591D01*
X0099038Y0106738D01*
X0099059Y0106884D01*
X0099085Y0107030D01*
X0099115Y0107175D01*
X0099148Y0107319D01*
X0099186Y0107462D01*
X0099227Y0107604D01*
X0099272Y0107745D01*
X0099320Y0107885D01*
X0099373Y0108024D01*
X0099429Y0108161D01*
X0099489Y0108296D01*
X0099552Y0108430D01*
X0099619Y0108562D01*
X0099690Y0108692D01*
X0099764Y0108820D01*
X0099841Y0108946D01*
X0099922Y0109070D01*
X0100006Y0109192D01*
X0100093Y0109311D01*
X0100184Y0109428D01*
X0100278Y0109543D01*
X0100374Y0109655D01*
X0100474Y0109765D01*
X0100576Y0109871D01*
X0100682Y0109975D01*
X0100790Y0110076D01*
X0100901Y0110174D01*
X0101014Y0110270D01*
X0101130Y0110362D01*
X0101248Y0110451D01*
X0101369Y0110536D01*
X0101492Y0110619D01*
X0101617Y0110698D01*
X0101744Y0110774D01*
X0101873Y0110846D01*
X0102004Y0110915D01*
X0102137Y0110980D01*
X0102272Y0111041D01*
X0102408Y0111099D01*
X0102545Y0111154D01*
X0102684Y0111204D01*
X0102825Y0111251D01*
X0102966Y0111294D01*
X0103109Y0111334D01*
X0103253Y0111369D01*
X0103397Y0111401D01*
X0103543Y0111428D01*
X0103689Y0111452D01*
X0103836Y0111472D01*
X0103983Y0111488D01*
X0104130Y0111500D01*
X0104278Y0111508D01*
X0104426Y0111512D01*
X0104574Y0111512D01*
X0104722Y0111508D01*
X0104870Y0111500D01*
X0105017Y0111488D01*
X0105164Y0111472D01*
X0105311Y0111452D01*
X0105457Y0111428D01*
X0105603Y0111401D01*
X0105747Y0111369D01*
X0105891Y0111334D01*
X0106034Y0111294D01*
X0106175Y0111251D01*
X0106316Y0111204D01*
X0106455Y0111154D01*
X0106592Y0111099D01*
X0106728Y0111041D01*
X0106863Y0110980D01*
X0106996Y0110915D01*
X0107127Y0110846D01*
X0107256Y0110774D01*
X0107383Y0110698D01*
X0107508Y0110619D01*
X0107631Y0110536D01*
X0107752Y0110451D01*
X0107870Y0110362D01*
X0107986Y0110270D01*
X0108099Y0110174D01*
X0108210Y0110076D01*
X0108318Y0109975D01*
X0108424Y0109871D01*
X0108526Y0109765D01*
X0108626Y0109655D01*
X0108722Y0109543D01*
X0108816Y0109428D01*
X0108907Y0109311D01*
X0108994Y0109192D01*
X0109078Y0109070D01*
X0109159Y0108946D01*
X0109236Y0108820D01*
X0109310Y0108692D01*
X0109381Y0108562D01*
X0109448Y0108430D01*
X0109511Y0108296D01*
X0109571Y0108161D01*
X0109627Y0108024D01*
X0109680Y0107885D01*
X0109728Y0107745D01*
X0109773Y0107604D01*
X0109814Y0107462D01*
X0109852Y0107319D01*
X0109885Y0107175D01*
X0109915Y0107030D01*
X0109941Y0106884D01*
X0109962Y0106738D01*
X0109980Y0106591D01*
X0109994Y0106444D01*
X0110004Y0106296D01*
X0110010Y0106148D01*
X0110012Y0106000D01*
X0110010Y0105852D01*
X0110004Y0105704D01*
X0109994Y0105556D01*
X0109980Y0105409D01*
X0109962Y0105262D01*
X0109941Y0105116D01*
X0109915Y0104970D01*
X0109885Y0104825D01*
X0109852Y0104681D01*
X0109814Y0104538D01*
X0109773Y0104396D01*
X0109728Y0104255D01*
X0109680Y0104115D01*
X0109627Y0103976D01*
X0109571Y0103839D01*
X0109511Y0103704D01*
X0109448Y0103570D01*
X0109381Y0103438D01*
X0109310Y0103308D01*
X0109236Y0103180D01*
X0109159Y0103054D01*
X0109078Y0102930D01*
X0108994Y0102808D01*
X0108907Y0102689D01*
X0108816Y0102572D01*
X0108722Y0102457D01*
X0108626Y0102345D01*
X0108526Y0102235D01*
X0108424Y0102129D01*
X0108318Y0102025D01*
X0108210Y0101924D01*
X0108099Y0101826D01*
X0107986Y0101730D01*
X0107870Y0101638D01*
X0107752Y0101549D01*
X0107631Y0101464D01*
X0107508Y0101381D01*
X0107383Y0101302D01*
X0107256Y0101226D01*
X0107127Y0101154D01*
X0106996Y0101085D01*
X0106863Y0101020D01*
X0106728Y0100959D01*
X0106592Y0100901D01*
X0106455Y0100846D01*
X0106316Y0100796D01*
X0106175Y0100749D01*
X0106034Y0100706D01*
X0105891Y0100666D01*
X0105747Y0100631D01*
X0105603Y0100599D01*
X0105457Y0100572D01*
X0105311Y0100548D01*
X0105164Y0100528D01*
X0105017Y0100512D01*
X0104870Y0100500D01*
X0104722Y0100492D01*
X0104574Y0100488D01*
X0104426Y0100488D01*
X0104278Y0100492D01*
X0104130Y0100500D01*
X0103983Y0100512D01*
X0103836Y0100528D01*
X0103689Y0100548D01*
X0103543Y0100572D01*
X0103397Y0100599D01*
X0103253Y0100631D01*
X0103109Y0100666D01*
X0102966Y0100706D01*
X0102825Y0100749D01*
X0102684Y0100796D01*
X0102545Y0100846D01*
X0102408Y0100901D01*
X0102272Y0100959D01*
X0102137Y0101020D01*
X0102004Y0101085D01*
X0101873Y0101154D01*
X0101744Y0101226D01*
X0101617Y0101302D01*
X0101492Y0101381D01*
X0101369Y0101464D01*
X0101248Y0101549D01*
X0101130Y0101638D01*
X0101014Y0101730D01*
X0100901Y0101826D01*
X0100790Y0101924D01*
X0100682Y0102025D01*
X0100576Y0102129D01*
X0100474Y0102235D01*
X0100374Y0102345D01*
X0100278Y0102457D01*
X0100184Y0102572D01*
X0100093Y0102689D01*
X0100006Y0102808D01*
X0099922Y0102930D01*
X0099841Y0103054D01*
X0099764Y0103180D01*
X0099690Y0103308D01*
X0099619Y0103438D01*
X0099552Y0103570D01*
X0099489Y0103704D01*
X0099429Y0103839D01*
X0099373Y0103976D01*
X0099320Y0104115D01*
X0099272Y0104255D01*
X0099227Y0104396D01*
X0099186Y0104538D01*
X0099148Y0104681D01*
X0099115Y0104825D01*
X0099085Y0104970D01*
X0099059Y0105116D01*
X0099038Y0105262D01*
X0099020Y0105409D01*
X0099006Y0105556D01*
X0098996Y0105704D01*
X0098990Y0105852D01*
X0098988Y0106000D01*
X0051788Y0156000D02*
X0051790Y0156148D01*
X0051796Y0156296D01*
X0051806Y0156444D01*
X0051820Y0156591D01*
X0051838Y0156738D01*
X0051859Y0156884D01*
X0051885Y0157030D01*
X0051915Y0157175D01*
X0051948Y0157319D01*
X0051986Y0157462D01*
X0052027Y0157604D01*
X0052072Y0157745D01*
X0052120Y0157885D01*
X0052173Y0158024D01*
X0052229Y0158161D01*
X0052289Y0158296D01*
X0052352Y0158430D01*
X0052419Y0158562D01*
X0052490Y0158692D01*
X0052564Y0158820D01*
X0052641Y0158946D01*
X0052722Y0159070D01*
X0052806Y0159192D01*
X0052893Y0159311D01*
X0052984Y0159428D01*
X0053078Y0159543D01*
X0053174Y0159655D01*
X0053274Y0159765D01*
X0053376Y0159871D01*
X0053482Y0159975D01*
X0053590Y0160076D01*
X0053701Y0160174D01*
X0053814Y0160270D01*
X0053930Y0160362D01*
X0054048Y0160451D01*
X0054169Y0160536D01*
X0054292Y0160619D01*
X0054417Y0160698D01*
X0054544Y0160774D01*
X0054673Y0160846D01*
X0054804Y0160915D01*
X0054937Y0160980D01*
X0055072Y0161041D01*
X0055208Y0161099D01*
X0055345Y0161154D01*
X0055484Y0161204D01*
X0055625Y0161251D01*
X0055766Y0161294D01*
X0055909Y0161334D01*
X0056053Y0161369D01*
X0056197Y0161401D01*
X0056343Y0161428D01*
X0056489Y0161452D01*
X0056636Y0161472D01*
X0056783Y0161488D01*
X0056930Y0161500D01*
X0057078Y0161508D01*
X0057226Y0161512D01*
X0057374Y0161512D01*
X0057522Y0161508D01*
X0057670Y0161500D01*
X0057817Y0161488D01*
X0057964Y0161472D01*
X0058111Y0161452D01*
X0058257Y0161428D01*
X0058403Y0161401D01*
X0058547Y0161369D01*
X0058691Y0161334D01*
X0058834Y0161294D01*
X0058975Y0161251D01*
X0059116Y0161204D01*
X0059255Y0161154D01*
X0059392Y0161099D01*
X0059528Y0161041D01*
X0059663Y0160980D01*
X0059796Y0160915D01*
X0059927Y0160846D01*
X0060056Y0160774D01*
X0060183Y0160698D01*
X0060308Y0160619D01*
X0060431Y0160536D01*
X0060552Y0160451D01*
X0060670Y0160362D01*
X0060786Y0160270D01*
X0060899Y0160174D01*
X0061010Y0160076D01*
X0061118Y0159975D01*
X0061224Y0159871D01*
X0061326Y0159765D01*
X0061426Y0159655D01*
X0061522Y0159543D01*
X0061616Y0159428D01*
X0061707Y0159311D01*
X0061794Y0159192D01*
X0061878Y0159070D01*
X0061959Y0158946D01*
X0062036Y0158820D01*
X0062110Y0158692D01*
X0062181Y0158562D01*
X0062248Y0158430D01*
X0062311Y0158296D01*
X0062371Y0158161D01*
X0062427Y0158024D01*
X0062480Y0157885D01*
X0062528Y0157745D01*
X0062573Y0157604D01*
X0062614Y0157462D01*
X0062652Y0157319D01*
X0062685Y0157175D01*
X0062715Y0157030D01*
X0062741Y0156884D01*
X0062762Y0156738D01*
X0062780Y0156591D01*
X0062794Y0156444D01*
X0062804Y0156296D01*
X0062810Y0156148D01*
X0062812Y0156000D01*
X0062810Y0155852D01*
X0062804Y0155704D01*
X0062794Y0155556D01*
X0062780Y0155409D01*
X0062762Y0155262D01*
X0062741Y0155116D01*
X0062715Y0154970D01*
X0062685Y0154825D01*
X0062652Y0154681D01*
X0062614Y0154538D01*
X0062573Y0154396D01*
X0062528Y0154255D01*
X0062480Y0154115D01*
X0062427Y0153976D01*
X0062371Y0153839D01*
X0062311Y0153704D01*
X0062248Y0153570D01*
X0062181Y0153438D01*
X0062110Y0153308D01*
X0062036Y0153180D01*
X0061959Y0153054D01*
X0061878Y0152930D01*
X0061794Y0152808D01*
X0061707Y0152689D01*
X0061616Y0152572D01*
X0061522Y0152457D01*
X0061426Y0152345D01*
X0061326Y0152235D01*
X0061224Y0152129D01*
X0061118Y0152025D01*
X0061010Y0151924D01*
X0060899Y0151826D01*
X0060786Y0151730D01*
X0060670Y0151638D01*
X0060552Y0151549D01*
X0060431Y0151464D01*
X0060308Y0151381D01*
X0060183Y0151302D01*
X0060056Y0151226D01*
X0059927Y0151154D01*
X0059796Y0151085D01*
X0059663Y0151020D01*
X0059528Y0150959D01*
X0059392Y0150901D01*
X0059255Y0150846D01*
X0059116Y0150796D01*
X0058975Y0150749D01*
X0058834Y0150706D01*
X0058691Y0150666D01*
X0058547Y0150631D01*
X0058403Y0150599D01*
X0058257Y0150572D01*
X0058111Y0150548D01*
X0057964Y0150528D01*
X0057817Y0150512D01*
X0057670Y0150500D01*
X0057522Y0150492D01*
X0057374Y0150488D01*
X0057226Y0150488D01*
X0057078Y0150492D01*
X0056930Y0150500D01*
X0056783Y0150512D01*
X0056636Y0150528D01*
X0056489Y0150548D01*
X0056343Y0150572D01*
X0056197Y0150599D01*
X0056053Y0150631D01*
X0055909Y0150666D01*
X0055766Y0150706D01*
X0055625Y0150749D01*
X0055484Y0150796D01*
X0055345Y0150846D01*
X0055208Y0150901D01*
X0055072Y0150959D01*
X0054937Y0151020D01*
X0054804Y0151085D01*
X0054673Y0151154D01*
X0054544Y0151226D01*
X0054417Y0151302D01*
X0054292Y0151381D01*
X0054169Y0151464D01*
X0054048Y0151549D01*
X0053930Y0151638D01*
X0053814Y0151730D01*
X0053701Y0151826D01*
X0053590Y0151924D01*
X0053482Y0152025D01*
X0053376Y0152129D01*
X0053274Y0152235D01*
X0053174Y0152345D01*
X0053078Y0152457D01*
X0052984Y0152572D01*
X0052893Y0152689D01*
X0052806Y0152808D01*
X0052722Y0152930D01*
X0052641Y0153054D01*
X0052564Y0153180D01*
X0052490Y0153308D01*
X0052419Y0153438D01*
X0052352Y0153570D01*
X0052289Y0153704D01*
X0052229Y0153839D01*
X0052173Y0153976D01*
X0052120Y0154115D01*
X0052072Y0154255D01*
X0052027Y0154396D01*
X0051986Y0154538D01*
X0051948Y0154681D01*
X0051915Y0154825D01*
X0051885Y0154970D01*
X0051859Y0155116D01*
X0051838Y0155262D01*
X0051820Y0155409D01*
X0051806Y0155556D01*
X0051796Y0155704D01*
X0051790Y0155852D01*
X0051788Y0156000D01*
X0020292Y0119110D02*
X0020294Y0119268D01*
X0020300Y0119426D01*
X0020310Y0119584D01*
X0020324Y0119742D01*
X0020342Y0119899D01*
X0020363Y0120056D01*
X0020389Y0120212D01*
X0020419Y0120368D01*
X0020452Y0120523D01*
X0020490Y0120676D01*
X0020531Y0120829D01*
X0020576Y0120981D01*
X0020625Y0121132D01*
X0020678Y0121281D01*
X0020734Y0121429D01*
X0020794Y0121575D01*
X0020858Y0121720D01*
X0020926Y0121863D01*
X0020997Y0122005D01*
X0021071Y0122145D01*
X0021149Y0122282D01*
X0021231Y0122418D01*
X0021315Y0122552D01*
X0021404Y0122683D01*
X0021495Y0122812D01*
X0021590Y0122939D01*
X0021687Y0123064D01*
X0021788Y0123186D01*
X0021892Y0123305D01*
X0021999Y0123422D01*
X0022109Y0123536D01*
X0022222Y0123647D01*
X0022337Y0123756D01*
X0022455Y0123861D01*
X0022576Y0123963D01*
X0022699Y0124063D01*
X0022825Y0124159D01*
X0022953Y0124252D01*
X0023083Y0124342D01*
X0023216Y0124428D01*
X0023351Y0124512D01*
X0023487Y0124591D01*
X0023626Y0124668D01*
X0023767Y0124740D01*
X0023909Y0124810D01*
X0024053Y0124875D01*
X0024199Y0124937D01*
X0024346Y0124995D01*
X0024495Y0125050D01*
X0024645Y0125101D01*
X0024796Y0125148D01*
X0024948Y0125191D01*
X0025101Y0125230D01*
X0025256Y0125266D01*
X0025411Y0125297D01*
X0025567Y0125325D01*
X0025723Y0125349D01*
X0025880Y0125369D01*
X0026038Y0125385D01*
X0026195Y0125397D01*
X0026354Y0125405D01*
X0026512Y0125409D01*
X0026670Y0125409D01*
X0026828Y0125405D01*
X0026987Y0125397D01*
X0027144Y0125385D01*
X0027302Y0125369D01*
X0027459Y0125349D01*
X0027615Y0125325D01*
X0027771Y0125297D01*
X0027926Y0125266D01*
X0028081Y0125230D01*
X0028234Y0125191D01*
X0028386Y0125148D01*
X0028537Y0125101D01*
X0028687Y0125050D01*
X0028836Y0124995D01*
X0028983Y0124937D01*
X0029129Y0124875D01*
X0029273Y0124810D01*
X0029415Y0124740D01*
X0029556Y0124668D01*
X0029695Y0124591D01*
X0029831Y0124512D01*
X0029966Y0124428D01*
X0030099Y0124342D01*
X0030229Y0124252D01*
X0030357Y0124159D01*
X0030483Y0124063D01*
X0030606Y0123963D01*
X0030727Y0123861D01*
X0030845Y0123756D01*
X0030960Y0123647D01*
X0031073Y0123536D01*
X0031183Y0123422D01*
X0031290Y0123305D01*
X0031394Y0123186D01*
X0031495Y0123064D01*
X0031592Y0122939D01*
X0031687Y0122812D01*
X0031778Y0122683D01*
X0031867Y0122552D01*
X0031951Y0122418D01*
X0032033Y0122282D01*
X0032111Y0122145D01*
X0032185Y0122005D01*
X0032256Y0121863D01*
X0032324Y0121720D01*
X0032388Y0121575D01*
X0032448Y0121429D01*
X0032504Y0121281D01*
X0032557Y0121132D01*
X0032606Y0120981D01*
X0032651Y0120829D01*
X0032692Y0120676D01*
X0032730Y0120523D01*
X0032763Y0120368D01*
X0032793Y0120212D01*
X0032819Y0120056D01*
X0032840Y0119899D01*
X0032858Y0119742D01*
X0032872Y0119584D01*
X0032882Y0119426D01*
X0032888Y0119268D01*
X0032890Y0119110D01*
X0032888Y0118952D01*
X0032882Y0118794D01*
X0032872Y0118636D01*
X0032858Y0118478D01*
X0032840Y0118321D01*
X0032819Y0118164D01*
X0032793Y0118008D01*
X0032763Y0117852D01*
X0032730Y0117697D01*
X0032692Y0117544D01*
X0032651Y0117391D01*
X0032606Y0117239D01*
X0032557Y0117088D01*
X0032504Y0116939D01*
X0032448Y0116791D01*
X0032388Y0116645D01*
X0032324Y0116500D01*
X0032256Y0116357D01*
X0032185Y0116215D01*
X0032111Y0116075D01*
X0032033Y0115938D01*
X0031951Y0115802D01*
X0031867Y0115668D01*
X0031778Y0115537D01*
X0031687Y0115408D01*
X0031592Y0115281D01*
X0031495Y0115156D01*
X0031394Y0115034D01*
X0031290Y0114915D01*
X0031183Y0114798D01*
X0031073Y0114684D01*
X0030960Y0114573D01*
X0030845Y0114464D01*
X0030727Y0114359D01*
X0030606Y0114257D01*
X0030483Y0114157D01*
X0030357Y0114061D01*
X0030229Y0113968D01*
X0030099Y0113878D01*
X0029966Y0113792D01*
X0029831Y0113708D01*
X0029695Y0113629D01*
X0029556Y0113552D01*
X0029415Y0113480D01*
X0029273Y0113410D01*
X0029129Y0113345D01*
X0028983Y0113283D01*
X0028836Y0113225D01*
X0028687Y0113170D01*
X0028537Y0113119D01*
X0028386Y0113072D01*
X0028234Y0113029D01*
X0028081Y0112990D01*
X0027926Y0112954D01*
X0027771Y0112923D01*
X0027615Y0112895D01*
X0027459Y0112871D01*
X0027302Y0112851D01*
X0027144Y0112835D01*
X0026987Y0112823D01*
X0026828Y0112815D01*
X0026670Y0112811D01*
X0026512Y0112811D01*
X0026354Y0112815D01*
X0026195Y0112823D01*
X0026038Y0112835D01*
X0025880Y0112851D01*
X0025723Y0112871D01*
X0025567Y0112895D01*
X0025411Y0112923D01*
X0025256Y0112954D01*
X0025101Y0112990D01*
X0024948Y0113029D01*
X0024796Y0113072D01*
X0024645Y0113119D01*
X0024495Y0113170D01*
X0024346Y0113225D01*
X0024199Y0113283D01*
X0024053Y0113345D01*
X0023909Y0113410D01*
X0023767Y0113480D01*
X0023626Y0113552D01*
X0023487Y0113629D01*
X0023351Y0113708D01*
X0023216Y0113792D01*
X0023083Y0113878D01*
X0022953Y0113968D01*
X0022825Y0114061D01*
X0022699Y0114157D01*
X0022576Y0114257D01*
X0022455Y0114359D01*
X0022337Y0114464D01*
X0022222Y0114573D01*
X0022109Y0114684D01*
X0021999Y0114798D01*
X0021892Y0114915D01*
X0021788Y0115034D01*
X0021687Y0115156D01*
X0021590Y0115281D01*
X0021495Y0115408D01*
X0021404Y0115537D01*
X0021315Y0115668D01*
X0021231Y0115802D01*
X0021149Y0115938D01*
X0021071Y0116075D01*
X0020997Y0116215D01*
X0020926Y0116357D01*
X0020858Y0116500D01*
X0020794Y0116645D01*
X0020734Y0116791D01*
X0020678Y0116939D01*
X0020625Y0117088D01*
X0020576Y0117239D01*
X0020531Y0117391D01*
X0020490Y0117544D01*
X0020452Y0117697D01*
X0020419Y0117852D01*
X0020389Y0118008D01*
X0020363Y0118164D01*
X0020342Y0118321D01*
X0020324Y0118478D01*
X0020310Y0118636D01*
X0020300Y0118794D01*
X0020294Y0118952D01*
X0020292Y0119110D01*
X0030134Y0201787D02*
X0030136Y0201945D01*
X0030142Y0202103D01*
X0030152Y0202261D01*
X0030166Y0202419D01*
X0030184Y0202576D01*
X0030205Y0202733D01*
X0030231Y0202889D01*
X0030261Y0203045D01*
X0030294Y0203200D01*
X0030332Y0203353D01*
X0030373Y0203506D01*
X0030418Y0203658D01*
X0030467Y0203809D01*
X0030520Y0203958D01*
X0030576Y0204106D01*
X0030636Y0204252D01*
X0030700Y0204397D01*
X0030768Y0204540D01*
X0030839Y0204682D01*
X0030913Y0204822D01*
X0030991Y0204959D01*
X0031073Y0205095D01*
X0031157Y0205229D01*
X0031246Y0205360D01*
X0031337Y0205489D01*
X0031432Y0205616D01*
X0031529Y0205741D01*
X0031630Y0205863D01*
X0031734Y0205982D01*
X0031841Y0206099D01*
X0031951Y0206213D01*
X0032064Y0206324D01*
X0032179Y0206433D01*
X0032297Y0206538D01*
X0032418Y0206640D01*
X0032541Y0206740D01*
X0032667Y0206836D01*
X0032795Y0206929D01*
X0032925Y0207019D01*
X0033058Y0207105D01*
X0033193Y0207189D01*
X0033329Y0207268D01*
X0033468Y0207345D01*
X0033609Y0207417D01*
X0033751Y0207487D01*
X0033895Y0207552D01*
X0034041Y0207614D01*
X0034188Y0207672D01*
X0034337Y0207727D01*
X0034487Y0207778D01*
X0034638Y0207825D01*
X0034790Y0207868D01*
X0034943Y0207907D01*
X0035098Y0207943D01*
X0035253Y0207974D01*
X0035409Y0208002D01*
X0035565Y0208026D01*
X0035722Y0208046D01*
X0035880Y0208062D01*
X0036037Y0208074D01*
X0036196Y0208082D01*
X0036354Y0208086D01*
X0036512Y0208086D01*
X0036670Y0208082D01*
X0036829Y0208074D01*
X0036986Y0208062D01*
X0037144Y0208046D01*
X0037301Y0208026D01*
X0037457Y0208002D01*
X0037613Y0207974D01*
X0037768Y0207943D01*
X0037923Y0207907D01*
X0038076Y0207868D01*
X0038228Y0207825D01*
X0038379Y0207778D01*
X0038529Y0207727D01*
X0038678Y0207672D01*
X0038825Y0207614D01*
X0038971Y0207552D01*
X0039115Y0207487D01*
X0039257Y0207417D01*
X0039398Y0207345D01*
X0039537Y0207268D01*
X0039673Y0207189D01*
X0039808Y0207105D01*
X0039941Y0207019D01*
X0040071Y0206929D01*
X0040199Y0206836D01*
X0040325Y0206740D01*
X0040448Y0206640D01*
X0040569Y0206538D01*
X0040687Y0206433D01*
X0040802Y0206324D01*
X0040915Y0206213D01*
X0041025Y0206099D01*
X0041132Y0205982D01*
X0041236Y0205863D01*
X0041337Y0205741D01*
X0041434Y0205616D01*
X0041529Y0205489D01*
X0041620Y0205360D01*
X0041709Y0205229D01*
X0041793Y0205095D01*
X0041875Y0204959D01*
X0041953Y0204822D01*
X0042027Y0204682D01*
X0042098Y0204540D01*
X0042166Y0204397D01*
X0042230Y0204252D01*
X0042290Y0204106D01*
X0042346Y0203958D01*
X0042399Y0203809D01*
X0042448Y0203658D01*
X0042493Y0203506D01*
X0042534Y0203353D01*
X0042572Y0203200D01*
X0042605Y0203045D01*
X0042635Y0202889D01*
X0042661Y0202733D01*
X0042682Y0202576D01*
X0042700Y0202419D01*
X0042714Y0202261D01*
X0042724Y0202103D01*
X0042730Y0201945D01*
X0042732Y0201787D01*
X0042730Y0201629D01*
X0042724Y0201471D01*
X0042714Y0201313D01*
X0042700Y0201155D01*
X0042682Y0200998D01*
X0042661Y0200841D01*
X0042635Y0200685D01*
X0042605Y0200529D01*
X0042572Y0200374D01*
X0042534Y0200221D01*
X0042493Y0200068D01*
X0042448Y0199916D01*
X0042399Y0199765D01*
X0042346Y0199616D01*
X0042290Y0199468D01*
X0042230Y0199322D01*
X0042166Y0199177D01*
X0042098Y0199034D01*
X0042027Y0198892D01*
X0041953Y0198752D01*
X0041875Y0198615D01*
X0041793Y0198479D01*
X0041709Y0198345D01*
X0041620Y0198214D01*
X0041529Y0198085D01*
X0041434Y0197958D01*
X0041337Y0197833D01*
X0041236Y0197711D01*
X0041132Y0197592D01*
X0041025Y0197475D01*
X0040915Y0197361D01*
X0040802Y0197250D01*
X0040687Y0197141D01*
X0040569Y0197036D01*
X0040448Y0196934D01*
X0040325Y0196834D01*
X0040199Y0196738D01*
X0040071Y0196645D01*
X0039941Y0196555D01*
X0039808Y0196469D01*
X0039673Y0196385D01*
X0039537Y0196306D01*
X0039398Y0196229D01*
X0039257Y0196157D01*
X0039115Y0196087D01*
X0038971Y0196022D01*
X0038825Y0195960D01*
X0038678Y0195902D01*
X0038529Y0195847D01*
X0038379Y0195796D01*
X0038228Y0195749D01*
X0038076Y0195706D01*
X0037923Y0195667D01*
X0037768Y0195631D01*
X0037613Y0195600D01*
X0037457Y0195572D01*
X0037301Y0195548D01*
X0037144Y0195528D01*
X0036986Y0195512D01*
X0036829Y0195500D01*
X0036670Y0195492D01*
X0036512Y0195488D01*
X0036354Y0195488D01*
X0036196Y0195492D01*
X0036037Y0195500D01*
X0035880Y0195512D01*
X0035722Y0195528D01*
X0035565Y0195548D01*
X0035409Y0195572D01*
X0035253Y0195600D01*
X0035098Y0195631D01*
X0034943Y0195667D01*
X0034790Y0195706D01*
X0034638Y0195749D01*
X0034487Y0195796D01*
X0034337Y0195847D01*
X0034188Y0195902D01*
X0034041Y0195960D01*
X0033895Y0196022D01*
X0033751Y0196087D01*
X0033609Y0196157D01*
X0033468Y0196229D01*
X0033329Y0196306D01*
X0033193Y0196385D01*
X0033058Y0196469D01*
X0032925Y0196555D01*
X0032795Y0196645D01*
X0032667Y0196738D01*
X0032541Y0196834D01*
X0032418Y0196934D01*
X0032297Y0197036D01*
X0032179Y0197141D01*
X0032064Y0197250D01*
X0031951Y0197361D01*
X0031841Y0197475D01*
X0031734Y0197592D01*
X0031630Y0197711D01*
X0031529Y0197833D01*
X0031432Y0197958D01*
X0031337Y0198085D01*
X0031246Y0198214D01*
X0031157Y0198345D01*
X0031073Y0198479D01*
X0030991Y0198615D01*
X0030913Y0198752D01*
X0030839Y0198892D01*
X0030768Y0199034D01*
X0030700Y0199177D01*
X0030636Y0199322D01*
X0030576Y0199468D01*
X0030520Y0199616D01*
X0030467Y0199765D01*
X0030418Y0199916D01*
X0030373Y0200068D01*
X0030332Y0200221D01*
X0030294Y0200374D01*
X0030261Y0200529D01*
X0030231Y0200685D01*
X0030205Y0200841D01*
X0030184Y0200998D01*
X0030166Y0201155D01*
X0030152Y0201313D01*
X0030142Y0201471D01*
X0030136Y0201629D01*
X0030134Y0201787D01*
X0195488Y0201787D02*
X0195490Y0201945D01*
X0195496Y0202103D01*
X0195506Y0202261D01*
X0195520Y0202419D01*
X0195538Y0202576D01*
X0195559Y0202733D01*
X0195585Y0202889D01*
X0195615Y0203045D01*
X0195648Y0203200D01*
X0195686Y0203353D01*
X0195727Y0203506D01*
X0195772Y0203658D01*
X0195821Y0203809D01*
X0195874Y0203958D01*
X0195930Y0204106D01*
X0195990Y0204252D01*
X0196054Y0204397D01*
X0196122Y0204540D01*
X0196193Y0204682D01*
X0196267Y0204822D01*
X0196345Y0204959D01*
X0196427Y0205095D01*
X0196511Y0205229D01*
X0196600Y0205360D01*
X0196691Y0205489D01*
X0196786Y0205616D01*
X0196883Y0205741D01*
X0196984Y0205863D01*
X0197088Y0205982D01*
X0197195Y0206099D01*
X0197305Y0206213D01*
X0197418Y0206324D01*
X0197533Y0206433D01*
X0197651Y0206538D01*
X0197772Y0206640D01*
X0197895Y0206740D01*
X0198021Y0206836D01*
X0198149Y0206929D01*
X0198279Y0207019D01*
X0198412Y0207105D01*
X0198547Y0207189D01*
X0198683Y0207268D01*
X0198822Y0207345D01*
X0198963Y0207417D01*
X0199105Y0207487D01*
X0199249Y0207552D01*
X0199395Y0207614D01*
X0199542Y0207672D01*
X0199691Y0207727D01*
X0199841Y0207778D01*
X0199992Y0207825D01*
X0200144Y0207868D01*
X0200297Y0207907D01*
X0200452Y0207943D01*
X0200607Y0207974D01*
X0200763Y0208002D01*
X0200919Y0208026D01*
X0201076Y0208046D01*
X0201234Y0208062D01*
X0201391Y0208074D01*
X0201550Y0208082D01*
X0201708Y0208086D01*
X0201866Y0208086D01*
X0202024Y0208082D01*
X0202183Y0208074D01*
X0202340Y0208062D01*
X0202498Y0208046D01*
X0202655Y0208026D01*
X0202811Y0208002D01*
X0202967Y0207974D01*
X0203122Y0207943D01*
X0203277Y0207907D01*
X0203430Y0207868D01*
X0203582Y0207825D01*
X0203733Y0207778D01*
X0203883Y0207727D01*
X0204032Y0207672D01*
X0204179Y0207614D01*
X0204325Y0207552D01*
X0204469Y0207487D01*
X0204611Y0207417D01*
X0204752Y0207345D01*
X0204891Y0207268D01*
X0205027Y0207189D01*
X0205162Y0207105D01*
X0205295Y0207019D01*
X0205425Y0206929D01*
X0205553Y0206836D01*
X0205679Y0206740D01*
X0205802Y0206640D01*
X0205923Y0206538D01*
X0206041Y0206433D01*
X0206156Y0206324D01*
X0206269Y0206213D01*
X0206379Y0206099D01*
X0206486Y0205982D01*
X0206590Y0205863D01*
X0206691Y0205741D01*
X0206788Y0205616D01*
X0206883Y0205489D01*
X0206974Y0205360D01*
X0207063Y0205229D01*
X0207147Y0205095D01*
X0207229Y0204959D01*
X0207307Y0204822D01*
X0207381Y0204682D01*
X0207452Y0204540D01*
X0207520Y0204397D01*
X0207584Y0204252D01*
X0207644Y0204106D01*
X0207700Y0203958D01*
X0207753Y0203809D01*
X0207802Y0203658D01*
X0207847Y0203506D01*
X0207888Y0203353D01*
X0207926Y0203200D01*
X0207959Y0203045D01*
X0207989Y0202889D01*
X0208015Y0202733D01*
X0208036Y0202576D01*
X0208054Y0202419D01*
X0208068Y0202261D01*
X0208078Y0202103D01*
X0208084Y0201945D01*
X0208086Y0201787D01*
X0208084Y0201629D01*
X0208078Y0201471D01*
X0208068Y0201313D01*
X0208054Y0201155D01*
X0208036Y0200998D01*
X0208015Y0200841D01*
X0207989Y0200685D01*
X0207959Y0200529D01*
X0207926Y0200374D01*
X0207888Y0200221D01*
X0207847Y0200068D01*
X0207802Y0199916D01*
X0207753Y0199765D01*
X0207700Y0199616D01*
X0207644Y0199468D01*
X0207584Y0199322D01*
X0207520Y0199177D01*
X0207452Y0199034D01*
X0207381Y0198892D01*
X0207307Y0198752D01*
X0207229Y0198615D01*
X0207147Y0198479D01*
X0207063Y0198345D01*
X0206974Y0198214D01*
X0206883Y0198085D01*
X0206788Y0197958D01*
X0206691Y0197833D01*
X0206590Y0197711D01*
X0206486Y0197592D01*
X0206379Y0197475D01*
X0206269Y0197361D01*
X0206156Y0197250D01*
X0206041Y0197141D01*
X0205923Y0197036D01*
X0205802Y0196934D01*
X0205679Y0196834D01*
X0205553Y0196738D01*
X0205425Y0196645D01*
X0205295Y0196555D01*
X0205162Y0196469D01*
X0205027Y0196385D01*
X0204891Y0196306D01*
X0204752Y0196229D01*
X0204611Y0196157D01*
X0204469Y0196087D01*
X0204325Y0196022D01*
X0204179Y0195960D01*
X0204032Y0195902D01*
X0203883Y0195847D01*
X0203733Y0195796D01*
X0203582Y0195749D01*
X0203430Y0195706D01*
X0203277Y0195667D01*
X0203122Y0195631D01*
X0202967Y0195600D01*
X0202811Y0195572D01*
X0202655Y0195548D01*
X0202498Y0195528D01*
X0202340Y0195512D01*
X0202183Y0195500D01*
X0202024Y0195492D01*
X0201866Y0195488D01*
X0201708Y0195488D01*
X0201550Y0195492D01*
X0201391Y0195500D01*
X0201234Y0195512D01*
X0201076Y0195528D01*
X0200919Y0195548D01*
X0200763Y0195572D01*
X0200607Y0195600D01*
X0200452Y0195631D01*
X0200297Y0195667D01*
X0200144Y0195706D01*
X0199992Y0195749D01*
X0199841Y0195796D01*
X0199691Y0195847D01*
X0199542Y0195902D01*
X0199395Y0195960D01*
X0199249Y0196022D01*
X0199105Y0196087D01*
X0198963Y0196157D01*
X0198822Y0196229D01*
X0198683Y0196306D01*
X0198547Y0196385D01*
X0198412Y0196469D01*
X0198279Y0196555D01*
X0198149Y0196645D01*
X0198021Y0196738D01*
X0197895Y0196834D01*
X0197772Y0196934D01*
X0197651Y0197036D01*
X0197533Y0197141D01*
X0197418Y0197250D01*
X0197305Y0197361D01*
X0197195Y0197475D01*
X0197088Y0197592D01*
X0196984Y0197711D01*
X0196883Y0197833D01*
X0196786Y0197958D01*
X0196691Y0198085D01*
X0196600Y0198214D01*
X0196511Y0198345D01*
X0196427Y0198479D01*
X0196345Y0198615D01*
X0196267Y0198752D01*
X0196193Y0198892D01*
X0196122Y0199034D01*
X0196054Y0199177D01*
X0195990Y0199322D01*
X0195930Y0199468D01*
X0195874Y0199616D01*
X0195821Y0199765D01*
X0195772Y0199916D01*
X0195727Y0200068D01*
X0195686Y0200221D01*
X0195648Y0200374D01*
X0195615Y0200529D01*
X0195585Y0200685D01*
X0195559Y0200841D01*
X0195538Y0200998D01*
X0195520Y0201155D01*
X0195506Y0201313D01*
X0195496Y0201471D01*
X0195490Y0201629D01*
X0195488Y0201787D01*
X0205331Y0119110D02*
X0205333Y0119268D01*
X0205339Y0119426D01*
X0205349Y0119584D01*
X0205363Y0119742D01*
X0205381Y0119899D01*
X0205402Y0120056D01*
X0205428Y0120212D01*
X0205458Y0120368D01*
X0205491Y0120523D01*
X0205529Y0120676D01*
X0205570Y0120829D01*
X0205615Y0120981D01*
X0205664Y0121132D01*
X0205717Y0121281D01*
X0205773Y0121429D01*
X0205833Y0121575D01*
X0205897Y0121720D01*
X0205965Y0121863D01*
X0206036Y0122005D01*
X0206110Y0122145D01*
X0206188Y0122282D01*
X0206270Y0122418D01*
X0206354Y0122552D01*
X0206443Y0122683D01*
X0206534Y0122812D01*
X0206629Y0122939D01*
X0206726Y0123064D01*
X0206827Y0123186D01*
X0206931Y0123305D01*
X0207038Y0123422D01*
X0207148Y0123536D01*
X0207261Y0123647D01*
X0207376Y0123756D01*
X0207494Y0123861D01*
X0207615Y0123963D01*
X0207738Y0124063D01*
X0207864Y0124159D01*
X0207992Y0124252D01*
X0208122Y0124342D01*
X0208255Y0124428D01*
X0208390Y0124512D01*
X0208526Y0124591D01*
X0208665Y0124668D01*
X0208806Y0124740D01*
X0208948Y0124810D01*
X0209092Y0124875D01*
X0209238Y0124937D01*
X0209385Y0124995D01*
X0209534Y0125050D01*
X0209684Y0125101D01*
X0209835Y0125148D01*
X0209987Y0125191D01*
X0210140Y0125230D01*
X0210295Y0125266D01*
X0210450Y0125297D01*
X0210606Y0125325D01*
X0210762Y0125349D01*
X0210919Y0125369D01*
X0211077Y0125385D01*
X0211234Y0125397D01*
X0211393Y0125405D01*
X0211551Y0125409D01*
X0211709Y0125409D01*
X0211867Y0125405D01*
X0212026Y0125397D01*
X0212183Y0125385D01*
X0212341Y0125369D01*
X0212498Y0125349D01*
X0212654Y0125325D01*
X0212810Y0125297D01*
X0212965Y0125266D01*
X0213120Y0125230D01*
X0213273Y0125191D01*
X0213425Y0125148D01*
X0213576Y0125101D01*
X0213726Y0125050D01*
X0213875Y0124995D01*
X0214022Y0124937D01*
X0214168Y0124875D01*
X0214312Y0124810D01*
X0214454Y0124740D01*
X0214595Y0124668D01*
X0214734Y0124591D01*
X0214870Y0124512D01*
X0215005Y0124428D01*
X0215138Y0124342D01*
X0215268Y0124252D01*
X0215396Y0124159D01*
X0215522Y0124063D01*
X0215645Y0123963D01*
X0215766Y0123861D01*
X0215884Y0123756D01*
X0215999Y0123647D01*
X0216112Y0123536D01*
X0216222Y0123422D01*
X0216329Y0123305D01*
X0216433Y0123186D01*
X0216534Y0123064D01*
X0216631Y0122939D01*
X0216726Y0122812D01*
X0216817Y0122683D01*
X0216906Y0122552D01*
X0216990Y0122418D01*
X0217072Y0122282D01*
X0217150Y0122145D01*
X0217224Y0122005D01*
X0217295Y0121863D01*
X0217363Y0121720D01*
X0217427Y0121575D01*
X0217487Y0121429D01*
X0217543Y0121281D01*
X0217596Y0121132D01*
X0217645Y0120981D01*
X0217690Y0120829D01*
X0217731Y0120676D01*
X0217769Y0120523D01*
X0217802Y0120368D01*
X0217832Y0120212D01*
X0217858Y0120056D01*
X0217879Y0119899D01*
X0217897Y0119742D01*
X0217911Y0119584D01*
X0217921Y0119426D01*
X0217927Y0119268D01*
X0217929Y0119110D01*
X0217927Y0118952D01*
X0217921Y0118794D01*
X0217911Y0118636D01*
X0217897Y0118478D01*
X0217879Y0118321D01*
X0217858Y0118164D01*
X0217832Y0118008D01*
X0217802Y0117852D01*
X0217769Y0117697D01*
X0217731Y0117544D01*
X0217690Y0117391D01*
X0217645Y0117239D01*
X0217596Y0117088D01*
X0217543Y0116939D01*
X0217487Y0116791D01*
X0217427Y0116645D01*
X0217363Y0116500D01*
X0217295Y0116357D01*
X0217224Y0116215D01*
X0217150Y0116075D01*
X0217072Y0115938D01*
X0216990Y0115802D01*
X0216906Y0115668D01*
X0216817Y0115537D01*
X0216726Y0115408D01*
X0216631Y0115281D01*
X0216534Y0115156D01*
X0216433Y0115034D01*
X0216329Y0114915D01*
X0216222Y0114798D01*
X0216112Y0114684D01*
X0215999Y0114573D01*
X0215884Y0114464D01*
X0215766Y0114359D01*
X0215645Y0114257D01*
X0215522Y0114157D01*
X0215396Y0114061D01*
X0215268Y0113968D01*
X0215138Y0113878D01*
X0215005Y0113792D01*
X0214870Y0113708D01*
X0214734Y0113629D01*
X0214595Y0113552D01*
X0214454Y0113480D01*
X0214312Y0113410D01*
X0214168Y0113345D01*
X0214022Y0113283D01*
X0213875Y0113225D01*
X0213726Y0113170D01*
X0213576Y0113119D01*
X0213425Y0113072D01*
X0213273Y0113029D01*
X0213120Y0112990D01*
X0212965Y0112954D01*
X0212810Y0112923D01*
X0212654Y0112895D01*
X0212498Y0112871D01*
X0212341Y0112851D01*
X0212183Y0112835D01*
X0212026Y0112823D01*
X0211867Y0112815D01*
X0211709Y0112811D01*
X0211551Y0112811D01*
X0211393Y0112815D01*
X0211234Y0112823D01*
X0211077Y0112835D01*
X0210919Y0112851D01*
X0210762Y0112871D01*
X0210606Y0112895D01*
X0210450Y0112923D01*
X0210295Y0112954D01*
X0210140Y0112990D01*
X0209987Y0113029D01*
X0209835Y0113072D01*
X0209684Y0113119D01*
X0209534Y0113170D01*
X0209385Y0113225D01*
X0209238Y0113283D01*
X0209092Y0113345D01*
X0208948Y0113410D01*
X0208806Y0113480D01*
X0208665Y0113552D01*
X0208526Y0113629D01*
X0208390Y0113708D01*
X0208255Y0113792D01*
X0208122Y0113878D01*
X0207992Y0113968D01*
X0207864Y0114061D01*
X0207738Y0114157D01*
X0207615Y0114257D01*
X0207494Y0114359D01*
X0207376Y0114464D01*
X0207261Y0114573D01*
X0207148Y0114684D01*
X0207038Y0114798D01*
X0206931Y0114915D01*
X0206827Y0115034D01*
X0206726Y0115156D01*
X0206629Y0115281D01*
X0206534Y0115408D01*
X0206443Y0115537D01*
X0206354Y0115668D01*
X0206270Y0115802D01*
X0206188Y0115938D01*
X0206110Y0116075D01*
X0206036Y0116215D01*
X0205965Y0116357D01*
X0205897Y0116500D01*
X0205833Y0116645D01*
X0205773Y0116791D01*
X0205717Y0116939D01*
X0205664Y0117088D01*
X0205615Y0117239D01*
X0205570Y0117391D01*
X0205529Y0117544D01*
X0205491Y0117697D01*
X0205458Y0117852D01*
X0205428Y0118008D01*
X0205402Y0118164D01*
X0205381Y0118321D01*
X0205363Y0118478D01*
X0205349Y0118636D01*
X0205339Y0118794D01*
X0205333Y0118952D01*
X0205331Y0119110D01*
X0211988Y0081000D02*
X0211990Y0081148D01*
X0211996Y0081296D01*
X0212006Y0081444D01*
X0212020Y0081591D01*
X0212038Y0081738D01*
X0212059Y0081884D01*
X0212085Y0082030D01*
X0212115Y0082175D01*
X0212148Y0082319D01*
X0212186Y0082462D01*
X0212227Y0082604D01*
X0212272Y0082745D01*
X0212320Y0082885D01*
X0212373Y0083024D01*
X0212429Y0083161D01*
X0212489Y0083296D01*
X0212552Y0083430D01*
X0212619Y0083562D01*
X0212690Y0083692D01*
X0212764Y0083820D01*
X0212841Y0083946D01*
X0212922Y0084070D01*
X0213006Y0084192D01*
X0213093Y0084311D01*
X0213184Y0084428D01*
X0213278Y0084543D01*
X0213374Y0084655D01*
X0213474Y0084765D01*
X0213576Y0084871D01*
X0213682Y0084975D01*
X0213790Y0085076D01*
X0213901Y0085174D01*
X0214014Y0085270D01*
X0214130Y0085362D01*
X0214248Y0085451D01*
X0214369Y0085536D01*
X0214492Y0085619D01*
X0214617Y0085698D01*
X0214744Y0085774D01*
X0214873Y0085846D01*
X0215004Y0085915D01*
X0215137Y0085980D01*
X0215272Y0086041D01*
X0215408Y0086099D01*
X0215545Y0086154D01*
X0215684Y0086204D01*
X0215825Y0086251D01*
X0215966Y0086294D01*
X0216109Y0086334D01*
X0216253Y0086369D01*
X0216397Y0086401D01*
X0216543Y0086428D01*
X0216689Y0086452D01*
X0216836Y0086472D01*
X0216983Y0086488D01*
X0217130Y0086500D01*
X0217278Y0086508D01*
X0217426Y0086512D01*
X0217574Y0086512D01*
X0217722Y0086508D01*
X0217870Y0086500D01*
X0218017Y0086488D01*
X0218164Y0086472D01*
X0218311Y0086452D01*
X0218457Y0086428D01*
X0218603Y0086401D01*
X0218747Y0086369D01*
X0218891Y0086334D01*
X0219034Y0086294D01*
X0219175Y0086251D01*
X0219316Y0086204D01*
X0219455Y0086154D01*
X0219592Y0086099D01*
X0219728Y0086041D01*
X0219863Y0085980D01*
X0219996Y0085915D01*
X0220127Y0085846D01*
X0220256Y0085774D01*
X0220383Y0085698D01*
X0220508Y0085619D01*
X0220631Y0085536D01*
X0220752Y0085451D01*
X0220870Y0085362D01*
X0220986Y0085270D01*
X0221099Y0085174D01*
X0221210Y0085076D01*
X0221318Y0084975D01*
X0221424Y0084871D01*
X0221526Y0084765D01*
X0221626Y0084655D01*
X0221722Y0084543D01*
X0221816Y0084428D01*
X0221907Y0084311D01*
X0221994Y0084192D01*
X0222078Y0084070D01*
X0222159Y0083946D01*
X0222236Y0083820D01*
X0222310Y0083692D01*
X0222381Y0083562D01*
X0222448Y0083430D01*
X0222511Y0083296D01*
X0222571Y0083161D01*
X0222627Y0083024D01*
X0222680Y0082885D01*
X0222728Y0082745D01*
X0222773Y0082604D01*
X0222814Y0082462D01*
X0222852Y0082319D01*
X0222885Y0082175D01*
X0222915Y0082030D01*
X0222941Y0081884D01*
X0222962Y0081738D01*
X0222980Y0081591D01*
X0222994Y0081444D01*
X0223004Y0081296D01*
X0223010Y0081148D01*
X0223012Y0081000D01*
X0223010Y0080852D01*
X0223004Y0080704D01*
X0222994Y0080556D01*
X0222980Y0080409D01*
X0222962Y0080262D01*
X0222941Y0080116D01*
X0222915Y0079970D01*
X0222885Y0079825D01*
X0222852Y0079681D01*
X0222814Y0079538D01*
X0222773Y0079396D01*
X0222728Y0079255D01*
X0222680Y0079115D01*
X0222627Y0078976D01*
X0222571Y0078839D01*
X0222511Y0078704D01*
X0222448Y0078570D01*
X0222381Y0078438D01*
X0222310Y0078308D01*
X0222236Y0078180D01*
X0222159Y0078054D01*
X0222078Y0077930D01*
X0221994Y0077808D01*
X0221907Y0077689D01*
X0221816Y0077572D01*
X0221722Y0077457D01*
X0221626Y0077345D01*
X0221526Y0077235D01*
X0221424Y0077129D01*
X0221318Y0077025D01*
X0221210Y0076924D01*
X0221099Y0076826D01*
X0220986Y0076730D01*
X0220870Y0076638D01*
X0220752Y0076549D01*
X0220631Y0076464D01*
X0220508Y0076381D01*
X0220383Y0076302D01*
X0220256Y0076226D01*
X0220127Y0076154D01*
X0219996Y0076085D01*
X0219863Y0076020D01*
X0219728Y0075959D01*
X0219592Y0075901D01*
X0219455Y0075846D01*
X0219316Y0075796D01*
X0219175Y0075749D01*
X0219034Y0075706D01*
X0218891Y0075666D01*
X0218747Y0075631D01*
X0218603Y0075599D01*
X0218457Y0075572D01*
X0218311Y0075548D01*
X0218164Y0075528D01*
X0218017Y0075512D01*
X0217870Y0075500D01*
X0217722Y0075492D01*
X0217574Y0075488D01*
X0217426Y0075488D01*
X0217278Y0075492D01*
X0217130Y0075500D01*
X0216983Y0075512D01*
X0216836Y0075528D01*
X0216689Y0075548D01*
X0216543Y0075572D01*
X0216397Y0075599D01*
X0216253Y0075631D01*
X0216109Y0075666D01*
X0215966Y0075706D01*
X0215825Y0075749D01*
X0215684Y0075796D01*
X0215545Y0075846D01*
X0215408Y0075901D01*
X0215272Y0075959D01*
X0215137Y0076020D01*
X0215004Y0076085D01*
X0214873Y0076154D01*
X0214744Y0076226D01*
X0214617Y0076302D01*
X0214492Y0076381D01*
X0214369Y0076464D01*
X0214248Y0076549D01*
X0214130Y0076638D01*
X0214014Y0076730D01*
X0213901Y0076826D01*
X0213790Y0076924D01*
X0213682Y0077025D01*
X0213576Y0077129D01*
X0213474Y0077235D01*
X0213374Y0077345D01*
X0213278Y0077457D01*
X0213184Y0077572D01*
X0213093Y0077689D01*
X0213006Y0077808D01*
X0212922Y0077930D01*
X0212841Y0078054D01*
X0212764Y0078180D01*
X0212690Y0078308D01*
X0212619Y0078438D01*
X0212552Y0078570D01*
X0212489Y0078704D01*
X0212429Y0078839D01*
X0212373Y0078976D01*
X0212320Y0079115D01*
X0212272Y0079255D01*
X0212227Y0079396D01*
X0212186Y0079538D01*
X0212148Y0079681D01*
X0212115Y0079825D01*
X0212085Y0079970D01*
X0212059Y0080116D01*
X0212038Y0080262D01*
X0212020Y0080409D01*
X0212006Y0080556D01*
X0211996Y0080704D01*
X0211990Y0080852D01*
X0211988Y0081000D01*
X0195488Y0036433D02*
X0195490Y0036591D01*
X0195496Y0036749D01*
X0195506Y0036907D01*
X0195520Y0037065D01*
X0195538Y0037222D01*
X0195559Y0037379D01*
X0195585Y0037535D01*
X0195615Y0037691D01*
X0195648Y0037846D01*
X0195686Y0037999D01*
X0195727Y0038152D01*
X0195772Y0038304D01*
X0195821Y0038455D01*
X0195874Y0038604D01*
X0195930Y0038752D01*
X0195990Y0038898D01*
X0196054Y0039043D01*
X0196122Y0039186D01*
X0196193Y0039328D01*
X0196267Y0039468D01*
X0196345Y0039605D01*
X0196427Y0039741D01*
X0196511Y0039875D01*
X0196600Y0040006D01*
X0196691Y0040135D01*
X0196786Y0040262D01*
X0196883Y0040387D01*
X0196984Y0040509D01*
X0197088Y0040628D01*
X0197195Y0040745D01*
X0197305Y0040859D01*
X0197418Y0040970D01*
X0197533Y0041079D01*
X0197651Y0041184D01*
X0197772Y0041286D01*
X0197895Y0041386D01*
X0198021Y0041482D01*
X0198149Y0041575D01*
X0198279Y0041665D01*
X0198412Y0041751D01*
X0198547Y0041835D01*
X0198683Y0041914D01*
X0198822Y0041991D01*
X0198963Y0042063D01*
X0199105Y0042133D01*
X0199249Y0042198D01*
X0199395Y0042260D01*
X0199542Y0042318D01*
X0199691Y0042373D01*
X0199841Y0042424D01*
X0199992Y0042471D01*
X0200144Y0042514D01*
X0200297Y0042553D01*
X0200452Y0042589D01*
X0200607Y0042620D01*
X0200763Y0042648D01*
X0200919Y0042672D01*
X0201076Y0042692D01*
X0201234Y0042708D01*
X0201391Y0042720D01*
X0201550Y0042728D01*
X0201708Y0042732D01*
X0201866Y0042732D01*
X0202024Y0042728D01*
X0202183Y0042720D01*
X0202340Y0042708D01*
X0202498Y0042692D01*
X0202655Y0042672D01*
X0202811Y0042648D01*
X0202967Y0042620D01*
X0203122Y0042589D01*
X0203277Y0042553D01*
X0203430Y0042514D01*
X0203582Y0042471D01*
X0203733Y0042424D01*
X0203883Y0042373D01*
X0204032Y0042318D01*
X0204179Y0042260D01*
X0204325Y0042198D01*
X0204469Y0042133D01*
X0204611Y0042063D01*
X0204752Y0041991D01*
X0204891Y0041914D01*
X0205027Y0041835D01*
X0205162Y0041751D01*
X0205295Y0041665D01*
X0205425Y0041575D01*
X0205553Y0041482D01*
X0205679Y0041386D01*
X0205802Y0041286D01*
X0205923Y0041184D01*
X0206041Y0041079D01*
X0206156Y0040970D01*
X0206269Y0040859D01*
X0206379Y0040745D01*
X0206486Y0040628D01*
X0206590Y0040509D01*
X0206691Y0040387D01*
X0206788Y0040262D01*
X0206883Y0040135D01*
X0206974Y0040006D01*
X0207063Y0039875D01*
X0207147Y0039741D01*
X0207229Y0039605D01*
X0207307Y0039468D01*
X0207381Y0039328D01*
X0207452Y0039186D01*
X0207520Y0039043D01*
X0207584Y0038898D01*
X0207644Y0038752D01*
X0207700Y0038604D01*
X0207753Y0038455D01*
X0207802Y0038304D01*
X0207847Y0038152D01*
X0207888Y0037999D01*
X0207926Y0037846D01*
X0207959Y0037691D01*
X0207989Y0037535D01*
X0208015Y0037379D01*
X0208036Y0037222D01*
X0208054Y0037065D01*
X0208068Y0036907D01*
X0208078Y0036749D01*
X0208084Y0036591D01*
X0208086Y0036433D01*
X0208084Y0036275D01*
X0208078Y0036117D01*
X0208068Y0035959D01*
X0208054Y0035801D01*
X0208036Y0035644D01*
X0208015Y0035487D01*
X0207989Y0035331D01*
X0207959Y0035175D01*
X0207926Y0035020D01*
X0207888Y0034867D01*
X0207847Y0034714D01*
X0207802Y0034562D01*
X0207753Y0034411D01*
X0207700Y0034262D01*
X0207644Y0034114D01*
X0207584Y0033968D01*
X0207520Y0033823D01*
X0207452Y0033680D01*
X0207381Y0033538D01*
X0207307Y0033398D01*
X0207229Y0033261D01*
X0207147Y0033125D01*
X0207063Y0032991D01*
X0206974Y0032860D01*
X0206883Y0032731D01*
X0206788Y0032604D01*
X0206691Y0032479D01*
X0206590Y0032357D01*
X0206486Y0032238D01*
X0206379Y0032121D01*
X0206269Y0032007D01*
X0206156Y0031896D01*
X0206041Y0031787D01*
X0205923Y0031682D01*
X0205802Y0031580D01*
X0205679Y0031480D01*
X0205553Y0031384D01*
X0205425Y0031291D01*
X0205295Y0031201D01*
X0205162Y0031115D01*
X0205027Y0031031D01*
X0204891Y0030952D01*
X0204752Y0030875D01*
X0204611Y0030803D01*
X0204469Y0030733D01*
X0204325Y0030668D01*
X0204179Y0030606D01*
X0204032Y0030548D01*
X0203883Y0030493D01*
X0203733Y0030442D01*
X0203582Y0030395D01*
X0203430Y0030352D01*
X0203277Y0030313D01*
X0203122Y0030277D01*
X0202967Y0030246D01*
X0202811Y0030218D01*
X0202655Y0030194D01*
X0202498Y0030174D01*
X0202340Y0030158D01*
X0202183Y0030146D01*
X0202024Y0030138D01*
X0201866Y0030134D01*
X0201708Y0030134D01*
X0201550Y0030138D01*
X0201391Y0030146D01*
X0201234Y0030158D01*
X0201076Y0030174D01*
X0200919Y0030194D01*
X0200763Y0030218D01*
X0200607Y0030246D01*
X0200452Y0030277D01*
X0200297Y0030313D01*
X0200144Y0030352D01*
X0199992Y0030395D01*
X0199841Y0030442D01*
X0199691Y0030493D01*
X0199542Y0030548D01*
X0199395Y0030606D01*
X0199249Y0030668D01*
X0199105Y0030733D01*
X0198963Y0030803D01*
X0198822Y0030875D01*
X0198683Y0030952D01*
X0198547Y0031031D01*
X0198412Y0031115D01*
X0198279Y0031201D01*
X0198149Y0031291D01*
X0198021Y0031384D01*
X0197895Y0031480D01*
X0197772Y0031580D01*
X0197651Y0031682D01*
X0197533Y0031787D01*
X0197418Y0031896D01*
X0197305Y0032007D01*
X0197195Y0032121D01*
X0197088Y0032238D01*
X0196984Y0032357D01*
X0196883Y0032479D01*
X0196786Y0032604D01*
X0196691Y0032731D01*
X0196600Y0032860D01*
X0196511Y0032991D01*
X0196427Y0033125D01*
X0196345Y0033261D01*
X0196267Y0033398D01*
X0196193Y0033538D01*
X0196122Y0033680D01*
X0196054Y0033823D01*
X0195990Y0033968D01*
X0195930Y0034114D01*
X0195874Y0034262D01*
X0195821Y0034411D01*
X0195772Y0034562D01*
X0195727Y0034714D01*
X0195686Y0034867D01*
X0195648Y0035020D01*
X0195615Y0035175D01*
X0195585Y0035331D01*
X0195559Y0035487D01*
X0195538Y0035644D01*
X0195520Y0035801D01*
X0195506Y0035959D01*
X0195496Y0036117D01*
X0195490Y0036275D01*
X0195488Y0036433D01*
D11*
X0050300Y0222700D02*
X0047498Y0222700D01*
X0046563Y0223634D01*
X0046563Y0224568D01*
X0047498Y0225502D01*
X0050300Y0225502D01*
X0050300Y0222700D02*
X0050300Y0228305D01*
X0047498Y0228305D01*
X0046563Y0227371D01*
X0046563Y0226437D01*
X0047498Y0225502D01*
X0043855Y0223634D02*
X0042920Y0222700D01*
X0041052Y0222700D01*
X0040118Y0223634D01*
X0040118Y0227371D01*
X0041052Y0228305D01*
X0042920Y0228305D01*
X0043855Y0227371D01*
X0043855Y0223634D01*
X0037409Y0228305D02*
X0033672Y0228305D01*
X0035541Y0228305D02*
X0035541Y0222700D01*
X0029095Y0222700D02*
X0029095Y0228305D01*
X0027227Y0228305D02*
X0030964Y0228305D01*
X0024518Y0227371D02*
X0024518Y0223634D01*
X0023584Y0222700D01*
X0021716Y0222700D01*
X0020781Y0223634D01*
X0020781Y0227371D01*
X0021716Y0228305D01*
X0023584Y0228305D01*
X0024518Y0227371D01*
X0018073Y0228305D02*
X0018073Y0222700D01*
X0014336Y0222700D02*
X0014336Y0228305D01*
X0016204Y0226437D01*
X0018073Y0228305D01*
D12*
X0171000Y0164000D02*
X0171000Y0158000D01*
X0181000Y0158000D02*
X0181000Y0164000D01*
X0191000Y0164000D02*
X0191000Y0158000D01*
X0201000Y0158000D02*
X0201000Y0164000D01*
X0211000Y0164000D02*
X0211000Y0158000D01*
D13*
X0146000Y0158441D03*
X0146000Y0163559D03*
X0136000Y0163559D03*
X0136000Y0158441D03*
X0106000Y0173441D03*
X0106000Y0178559D03*
X0076000Y0123559D03*
X0076000Y0118441D03*
X0151000Y0053559D03*
X0151000Y0048441D03*
X0161000Y0048441D03*
X0161000Y0053559D03*
D14*
X0163441Y0081000D03*
X0163441Y0086000D03*
X0163441Y0091000D03*
X0168559Y0091000D03*
X0168559Y0086000D03*
X0168559Y0081000D03*
X0143559Y0081000D03*
X0143559Y0086000D03*
X0143559Y0091000D03*
X0138441Y0091000D03*
X0138441Y0086000D03*
X0138441Y0081000D03*
X0128559Y0091000D03*
X0123441Y0091000D03*
D15*
X0118500Y0101000D03*
X0128500Y0101000D03*
X0123500Y0111000D03*
X0113500Y0111000D03*
X0133500Y0111000D03*
X0143500Y0111000D03*
X0153500Y0111000D03*
X0163500Y0111000D03*
X0173500Y0111000D03*
X0168500Y0101000D03*
X0158500Y0101000D03*
X0148500Y0101000D03*
X0138500Y0101000D03*
X0178500Y0101000D03*
X0188500Y0086000D03*
X0198500Y0086000D03*
X0208500Y0086000D03*
X0203500Y0076000D03*
X0193500Y0076000D03*
X0183500Y0076000D03*
X0153500Y0036000D03*
X0143500Y0036000D03*
X0133500Y0036000D03*
X0123500Y0036000D03*
X0113500Y0036000D03*
X0103500Y0036000D03*
X0093500Y0036000D03*
X0083500Y0036000D03*
X0088500Y0026000D03*
X0098500Y0026000D03*
X0108500Y0026000D03*
X0118500Y0026000D03*
X0128500Y0026000D03*
X0138500Y0026000D03*
X0148500Y0026000D03*
X0158500Y0026000D03*
X0043500Y0151000D03*
X0033500Y0151000D03*
X0038500Y0161000D03*
X0048500Y0161000D03*
D16*
X0114500Y0075100D03*
X0114500Y0072500D03*
X0114500Y0070000D03*
X0114500Y0067400D03*
X0114500Y0064800D03*
X0114500Y0062300D03*
X0114500Y0059700D03*
X0114500Y0057200D03*
X0114500Y0054600D03*
X0114500Y0052000D03*
X0114500Y0049500D03*
X0114500Y0046900D03*
X0137500Y0046900D03*
X0137500Y0049500D03*
X0137500Y0052000D03*
X0137500Y0054600D03*
X0137500Y0057200D03*
X0137500Y0059700D03*
X0137500Y0062300D03*
X0137500Y0064800D03*
X0137500Y0067400D03*
X0137500Y0070000D03*
X0137500Y0072500D03*
X0137500Y0075100D03*
D17*
X0091000Y0113500D03*
X0086000Y0121000D03*
X0096000Y0121000D03*
D18*
X0103500Y0128500D01*
X0171000Y0128500D01*
X0178500Y0128500D01*
X0193500Y0143500D01*
X0205350Y0143500D01*
X0206000Y0142850D01*
X0201000Y0146000D02*
X0123500Y0146000D01*
X0116000Y0153500D01*
X0108500Y0153500D01*
X0108500Y0148500D02*
X0096000Y0136000D01*
X0056000Y0136000D01*
X0051000Y0131000D01*
X0051000Y0123500D01*
X0068500Y0106000D01*
X0093000Y0106000D01*
X0098500Y0100500D01*
X0098500Y0083500D01*
X0109500Y0072500D01*
X0114500Y0072500D01*
X0120000Y0072500D01*
X0121000Y0073500D01*
X0123500Y0070000D02*
X0114500Y0070000D01*
X0109500Y0070000D01*
X0096000Y0083500D01*
X0096000Y0098500D01*
X0091000Y0103500D01*
X0066000Y0103500D01*
X0048500Y0121000D01*
X0048500Y0133500D01*
X0053500Y0138500D01*
X0093500Y0138500D01*
X0103500Y0148500D01*
X0103500Y0158500D01*
X0106000Y0168500D02*
X0106000Y0173441D01*
X0131000Y0161000D02*
X0131000Y0151000D01*
X0136000Y0158441D02*
X0146000Y0158441D01*
X0161059Y0158441D01*
X0168500Y0151000D01*
X0171000Y0148500D01*
X0198500Y0148500D01*
X0201000Y0151000D01*
X0201000Y0161000D01*
X0211000Y0161000D02*
X0211000Y0156000D01*
X0201000Y0146000D01*
X0193500Y0151000D02*
X0186000Y0151000D01*
X0181000Y0156000D01*
X0181000Y0161000D01*
X0148500Y0141000D02*
X0146000Y0143500D01*
X0108500Y0143500D01*
X0106000Y0138500D02*
X0118500Y0138500D01*
X0113000Y0135000D02*
X0108000Y0135000D01*
X0101500Y0128500D01*
X0066000Y0128500D01*
X0061000Y0131000D02*
X0098500Y0131000D01*
X0106000Y0138500D01*
X0118000Y0116000D02*
X0093500Y0116000D01*
X0091000Y0113500D01*
X0081000Y0113500D01*
X0076059Y0118441D01*
X0076000Y0118441D01*
X0075941Y0118500D01*
X0068500Y0118500D01*
X0056000Y0131000D01*
X0046000Y0136000D02*
X0038500Y0143500D01*
X0038500Y0161000D01*
X0053500Y0146000D01*
X0073500Y0146000D01*
X0076000Y0141000D02*
X0053500Y0141000D01*
X0043500Y0151000D01*
X0046000Y0136000D02*
X0046000Y0118500D01*
X0053500Y0111000D01*
X0053500Y0103500D01*
X0041000Y0091000D01*
X0066000Y0066000D01*
X0093500Y0066000D01*
X0101000Y0067000D02*
X0101000Y0075000D01*
X0098000Y0078000D01*
X0103500Y0081500D02*
X0103500Y0086000D01*
X0106000Y0088500D02*
X0103500Y0091000D01*
X0106000Y0088500D02*
X0106000Y0082500D01*
X0109500Y0079000D01*
X0111000Y0079000D01*
X0115000Y0083000D01*
X0119000Y0083000D01*
X0129500Y0072500D01*
X0137500Y0072500D01*
X0137500Y0070000D02*
X0129500Y0070000D01*
X0118500Y0081000D01*
X0116000Y0081000D01*
X0112000Y0077000D01*
X0108000Y0077000D01*
X0103500Y0081500D01*
X0110000Y0082000D02*
X0112000Y0082000D01*
X0114000Y0084000D01*
X0114000Y0102000D01*
X0118000Y0106000D01*
X0118000Y0116000D01*
X0161000Y0116000D01*
X0163500Y0113500D01*
X0163500Y0111000D01*
X0168500Y0101000D02*
X0168559Y0100941D01*
X0163441Y0091000D02*
X0158500Y0091000D01*
X0143559Y0091000D01*
X0143559Y0086000D02*
X0153500Y0086000D01*
X0163441Y0086000D01*
X0163441Y0081000D02*
X0161000Y0081000D01*
X0158500Y0078500D01*
X0158500Y0073500D01*
X0156000Y0071000D01*
X0151000Y0071000D01*
X0148500Y0073500D01*
X0148500Y0078500D01*
X0146000Y0081000D01*
X0143559Y0081000D01*
X0143441Y0076000D02*
X0138441Y0081000D01*
X0138441Y0086000D01*
X0138441Y0091000D01*
X0138441Y0093441D01*
X0143500Y0098500D01*
X0143500Y0103500D01*
X0146000Y0106000D01*
X0148500Y0106000D01*
X0138500Y0106000D02*
X0136000Y0106000D01*
X0133500Y0103500D01*
X0133500Y0091000D01*
X0128559Y0091000D01*
X0133500Y0091000D02*
X0133500Y0076000D01*
X0134400Y0075100D01*
X0137500Y0075100D01*
X0139900Y0075100D01*
X0146500Y0068500D01*
X0154500Y0068500D01*
X0153500Y0076000D02*
X0153500Y0086000D01*
X0143500Y0076000D02*
X0143441Y0076000D01*
X0143100Y0067400D02*
X0137500Y0067400D01*
X0137500Y0064800D02*
X0143200Y0064800D01*
X0143500Y0064500D01*
X0164500Y0064500D01*
X0181000Y0081000D01*
X0193500Y0081000D01*
X0198500Y0086000D01*
X0188500Y0086000D02*
X0176000Y0086000D01*
X0173500Y0083500D01*
X0173500Y0076000D01*
X0163500Y0066000D01*
X0144500Y0066000D01*
X0143100Y0067400D01*
X0137500Y0062300D02*
X0164800Y0062300D01*
X0173500Y0071000D01*
X0188500Y0071000D01*
X0193500Y0076000D01*
X0193500Y0071000D02*
X0198500Y0071000D01*
X0203500Y0076000D01*
X0193500Y0071000D02*
X0191000Y0068500D01*
X0173500Y0068500D01*
X0164700Y0059700D01*
X0137500Y0059700D01*
X0137500Y0057200D02*
X0134700Y0057200D01*
X0123500Y0046000D01*
X0123500Y0036000D01*
X0131000Y0038500D02*
X0133500Y0036000D01*
X0131000Y0038500D02*
X0131000Y0048500D01*
X0134500Y0052000D01*
X0137500Y0052000D01*
X0137500Y0049500D02*
X0134500Y0049500D01*
X0133500Y0048500D01*
X0133500Y0041000D01*
X0138500Y0036000D01*
X0138500Y0026000D01*
X0128500Y0026000D02*
X0128500Y0048500D01*
X0134600Y0054600D01*
X0137500Y0054600D01*
X0137500Y0046900D02*
X0137500Y0042000D01*
X0138500Y0041000D01*
X0137500Y0046900D02*
X0144400Y0046900D01*
X0146000Y0048500D01*
X0146000Y0051000D01*
X0148500Y0053500D01*
X0150941Y0053500D01*
X0151000Y0053559D01*
X0161000Y0053559D01*
X0166059Y0053559D01*
X0178500Y0066000D01*
X0168500Y0080941D02*
X0168559Y0081000D01*
X0161000Y0053559D02*
X0160941Y0053500D01*
X0161000Y0048441D02*
X0151000Y0048441D01*
X0118500Y0043500D02*
X0118500Y0026000D01*
X0108500Y0026000D02*
X0108500Y0043500D01*
X0103500Y0048500D01*
X0103500Y0051000D01*
X0109700Y0057200D01*
X0114500Y0057200D01*
X0114500Y0059700D02*
X0109700Y0059700D01*
X0101000Y0051000D01*
X0101000Y0038500D01*
X0103500Y0036000D01*
X0096000Y0038500D02*
X0093500Y0036000D01*
X0096000Y0038500D02*
X0096000Y0051000D01*
X0109800Y0064800D01*
X0114500Y0064800D01*
X0114500Y0062300D02*
X0109800Y0062300D01*
X0098500Y0051000D01*
X0098500Y0026000D01*
X0083500Y0036000D02*
X0083500Y0041000D01*
X0088500Y0046000D01*
X0106000Y0048500D02*
X0113500Y0041000D01*
X0113500Y0036000D01*
X0118500Y0043500D02*
X0115100Y0046900D01*
X0114500Y0046900D01*
X0114500Y0054600D02*
X0109600Y0054600D01*
X0106000Y0051000D01*
X0106000Y0048500D01*
X0102000Y0067000D02*
X0101000Y0067000D01*
X0103500Y0071000D02*
X0107100Y0067400D01*
X0114500Y0067400D01*
X0114500Y0075100D02*
X0116100Y0075100D01*
X0117000Y0076000D01*
X0117000Y0078000D01*
X0095500Y0108500D02*
X0101000Y0114000D01*
X0110500Y0114000D01*
X0113500Y0111000D01*
X0081000Y0146000D02*
X0076000Y0141000D01*
X0076000Y0123559D02*
X0075941Y0123500D01*
X0076000Y0123559D02*
X0076059Y0123500D01*
X0041000Y0091000D02*
X0031000Y0091000D01*
X0131000Y0161000D02*
X0133559Y0163559D01*
X0136000Y0163559D01*
X0153500Y0123500D02*
X0171000Y0123500D01*
D19*
X0171000Y0123500D03*
X0171000Y0128500D03*
X0153500Y0123500D03*
X0148500Y0106000D03*
X0138500Y0106000D03*
X0158500Y0091000D03*
X0153500Y0076000D03*
X0148500Y0073500D03*
X0143500Y0076000D03*
X0154500Y0068500D03*
X0168500Y0076000D03*
X0178500Y0066000D03*
X0161000Y0042000D03*
X0138500Y0041000D03*
X0123500Y0070000D03*
X0121000Y0073500D03*
X0117000Y0078000D03*
X0110000Y0082000D03*
X0103500Y0086000D03*
X0103500Y0091000D03*
X0093500Y0096000D03*
X0095500Y0108500D03*
X0078500Y0111000D03*
X0073500Y0101000D03*
X0061000Y0118500D03*
X0068500Y0123500D03*
X0066000Y0128500D03*
X0061000Y0131000D03*
X0056000Y0131000D03*
X0073500Y0146000D03*
X0081000Y0146000D03*
X0103500Y0158500D03*
X0108500Y0153500D03*
X0108500Y0148500D03*
X0108500Y0143500D03*
X0113000Y0135000D03*
X0118500Y0138500D03*
X0131000Y0151000D03*
X0148500Y0141000D03*
X0168500Y0151000D03*
X0193500Y0151000D03*
X0206000Y0142850D03*
X0118500Y0091000D03*
X0098000Y0078000D03*
X0103500Y0071000D03*
X0102000Y0067000D03*
X0093500Y0066000D03*
X0086000Y0061000D03*
X0088500Y0046000D03*
X0093500Y0046000D03*
X0066000Y0066000D03*
X0031000Y0091000D03*
X0053500Y0111000D03*
X0106000Y0168500D03*
D20*
X0109387Y0168844D02*
X0141697Y0168844D01*
X0143200Y0167340D02*
X0143200Y0166737D01*
X0142228Y0165765D01*
X0142228Y0161353D01*
X0142581Y0161000D01*
X0142322Y0160741D01*
X0139678Y0160741D01*
X0139260Y0161159D01*
X0139449Y0161486D01*
X0139572Y0161944D01*
X0139572Y0163559D01*
X0136000Y0163559D01*
X0136000Y0163559D01*
X0132428Y0163559D01*
X0132428Y0161944D01*
X0132551Y0161486D01*
X0132740Y0161159D01*
X0132228Y0160647D01*
X0132228Y0156235D01*
X0133400Y0155063D01*
X0138600Y0155063D01*
X0139678Y0156141D01*
X0142322Y0156141D01*
X0143400Y0155063D01*
X0148600Y0155063D01*
X0149678Y0156141D01*
X0160106Y0156141D01*
X0165113Y0151135D01*
X0165113Y0149597D01*
X0166410Y0148300D01*
X0124453Y0148300D01*
X0118300Y0154453D01*
X0116953Y0155800D01*
X0110991Y0155800D01*
X0109903Y0156887D01*
X0107097Y0156887D01*
X0105800Y0155590D01*
X0105800Y0156009D01*
X0106887Y0157097D01*
X0106887Y0159903D01*
X0104903Y0161887D01*
X0102097Y0161887D01*
X0100113Y0159903D01*
X0100113Y0157097D01*
X0101200Y0156009D01*
X0101200Y0149453D01*
X0092547Y0140800D01*
X0079053Y0140800D01*
X0080865Y0142613D01*
X0082403Y0142613D01*
X0084387Y0144597D01*
X0084387Y0147403D01*
X0082403Y0149387D01*
X0079597Y0149387D01*
X0077613Y0147403D01*
X0077613Y0145865D01*
X0075047Y0143300D01*
X0054453Y0143300D01*
X0047820Y0149932D01*
X0047900Y0150125D01*
X0047900Y0151875D01*
X0047230Y0153492D01*
X0045992Y0154730D01*
X0044375Y0155400D01*
X0042625Y0155400D01*
X0041008Y0154730D01*
X0039770Y0153492D01*
X0039100Y0151875D01*
X0039100Y0150125D01*
X0039770Y0148508D01*
X0041008Y0147270D01*
X0042625Y0146600D01*
X0044375Y0146600D01*
X0044568Y0146680D01*
X0051200Y0140047D01*
X0051497Y0139750D01*
X0046200Y0134453D01*
X0046200Y0120047D01*
X0047547Y0118700D01*
X0065047Y0101200D01*
X0070113Y0101200D01*
X0070113Y0099597D01*
X0072097Y0097613D01*
X0074903Y0097613D01*
X0075491Y0098200D01*
X0087340Y0098200D01*
X0090113Y0095428D01*
X0090113Y0094597D01*
X0092097Y0092613D01*
X0093700Y0092613D01*
X0093700Y0082547D01*
X0095047Y0081200D01*
X0095728Y0080519D01*
X0094613Y0079403D01*
X0094613Y0076597D01*
X0096597Y0074613D01*
X0098135Y0074613D01*
X0098700Y0074047D01*
X0098700Y0068490D01*
X0098613Y0068403D01*
X0098613Y0065597D01*
X0100597Y0063613D01*
X0103403Y0063613D01*
X0105387Y0065597D01*
X0105387Y0065860D01*
X0106147Y0065100D01*
X0106847Y0065100D01*
X0095047Y0053300D01*
X0093859Y0052112D01*
X0093859Y0057884D01*
X0093859Y0058998D01*
X0093433Y0060027D01*
X0090874Y0062586D01*
X0090086Y0063374D01*
X0089057Y0063800D01*
X0087991Y0063800D01*
X0087403Y0064387D01*
X0084597Y0064387D01*
X0082613Y0062403D01*
X0082613Y0059597D01*
X0084597Y0057613D01*
X0087403Y0057613D01*
X0087665Y0057875D01*
X0088259Y0057281D01*
X0088259Y0049387D01*
X0087097Y0049387D01*
X0085113Y0047403D01*
X0085113Y0045865D01*
X0082547Y0043300D01*
X0081200Y0041953D01*
X0081200Y0039810D01*
X0081008Y0039730D01*
X0079770Y0038492D01*
X0079475Y0037780D01*
X0079208Y0038046D01*
X0076153Y0039312D01*
X0072847Y0039312D01*
X0071000Y0038547D01*
X0071000Y0051000D01*
X0051000Y0071000D01*
X0026000Y0071000D01*
X0011000Y0121000D01*
X0026000Y0166000D01*
X0049540Y0166000D01*
X0048940Y0165400D01*
X0047625Y0165400D01*
X0046008Y0164730D01*
X0044770Y0163492D01*
X0044100Y0161875D01*
X0044100Y0160125D01*
X0044770Y0158508D01*
X0046008Y0157270D01*
X0047625Y0156600D01*
X0048988Y0156600D01*
X0048988Y0154347D01*
X0050254Y0151292D01*
X0052592Y0148954D01*
X0055647Y0147688D01*
X0058953Y0147688D01*
X0062008Y0148954D01*
X0064346Y0151292D01*
X0065612Y0154347D01*
X0065612Y0157653D01*
X0064346Y0160708D01*
X0062008Y0163046D01*
X0061637Y0163200D01*
X0091557Y0163200D01*
X0092586Y0163626D01*
X0102228Y0173269D01*
X0102228Y0171235D01*
X0103086Y0170377D01*
X0102613Y0169903D01*
X0102613Y0167097D01*
X0104597Y0165113D01*
X0107403Y0165113D01*
X0109387Y0167097D01*
X0109387Y0169903D01*
X0108914Y0170377D01*
X0109772Y0171235D01*
X0109772Y0175647D01*
X0109660Y0175759D01*
X0134781Y0175759D01*
X0143200Y0167340D01*
X0143200Y0167245D02*
X0109387Y0167245D01*
X0107937Y0165647D02*
X0132560Y0165647D01*
X0132551Y0165632D02*
X0132428Y0165174D01*
X0132428Y0163559D01*
X0136000Y0163559D01*
X0136000Y0163559D01*
X0139572Y0163559D01*
X0139572Y0165174D01*
X0139449Y0165632D01*
X0139212Y0166042D01*
X0138877Y0166377D01*
X0138466Y0166614D01*
X0138009Y0166737D01*
X0136000Y0166737D01*
X0136000Y0163559D01*
X0136000Y0163559D01*
X0136000Y0166737D01*
X0133991Y0166737D01*
X0133534Y0166614D01*
X0133123Y0166377D01*
X0132788Y0166042D01*
X0132551Y0165632D01*
X0132428Y0164048D02*
X0093008Y0164048D01*
X0094606Y0165647D02*
X0104063Y0165647D01*
X0102613Y0167245D02*
X0096205Y0167245D01*
X0097803Y0168844D02*
X0102613Y0168844D01*
X0103021Y0170442D02*
X0099402Y0170442D01*
X0101000Y0172041D02*
X0102228Y0172041D01*
X0103559Y0178559D02*
X0091000Y0166000D01*
X0053500Y0166000D01*
X0048500Y0161000D01*
X0045326Y0164048D02*
X0041392Y0164048D01*
X0041236Y0164204D02*
X0040701Y0164592D01*
X0040112Y0164892D01*
X0039484Y0165097D01*
X0038831Y0165200D01*
X0038500Y0165200D01*
X0038500Y0161000D01*
X0042700Y0161000D01*
X0042700Y0161331D01*
X0042597Y0161984D01*
X0042392Y0162612D01*
X0042092Y0163201D01*
X0041704Y0163736D01*
X0041236Y0164204D01*
X0042445Y0162450D02*
X0044338Y0162450D01*
X0044100Y0160851D02*
X0042700Y0160851D01*
X0042700Y0161000D02*
X0038500Y0161000D01*
X0038500Y0161000D01*
X0038500Y0161000D01*
X0038500Y0156800D01*
X0038831Y0156800D01*
X0039484Y0156903D01*
X0040112Y0157108D01*
X0040701Y0157408D01*
X0041236Y0157796D01*
X0041704Y0158264D01*
X0042092Y0158799D01*
X0042392Y0159388D01*
X0042597Y0160016D01*
X0042700Y0160669D01*
X0042700Y0161000D01*
X0042323Y0159253D02*
X0044461Y0159253D01*
X0045623Y0157654D02*
X0041040Y0157654D01*
X0038500Y0157654D02*
X0038500Y0157654D01*
X0038500Y0156800D02*
X0038500Y0161000D01*
X0038500Y0161000D01*
X0038500Y0161000D01*
X0034300Y0161000D01*
X0034300Y0161331D01*
X0034403Y0161984D01*
X0034608Y0162612D01*
X0034908Y0163201D01*
X0035296Y0163736D01*
X0035764Y0164204D01*
X0036299Y0164592D01*
X0036888Y0164892D01*
X0037516Y0165097D01*
X0038169Y0165200D01*
X0038500Y0165200D01*
X0038500Y0161000D01*
X0034300Y0161000D01*
X0034300Y0160669D01*
X0034403Y0160016D01*
X0034608Y0159388D01*
X0034908Y0158799D01*
X0035296Y0158264D01*
X0035764Y0157796D01*
X0036299Y0157408D01*
X0036888Y0157108D01*
X0037516Y0156903D01*
X0038169Y0156800D01*
X0038500Y0156800D01*
X0038500Y0159253D02*
X0038500Y0159253D01*
X0038500Y0160851D02*
X0038500Y0160851D01*
X0038500Y0162450D02*
X0038500Y0162450D01*
X0038500Y0164048D02*
X0038500Y0164048D01*
X0035608Y0164048D02*
X0025349Y0164048D01*
X0024817Y0162450D02*
X0034555Y0162450D01*
X0034300Y0160851D02*
X0024284Y0160851D01*
X0023751Y0159253D02*
X0034677Y0159253D01*
X0035960Y0157654D02*
X0023218Y0157654D01*
X0022685Y0156056D02*
X0048988Y0156056D01*
X0048988Y0154457D02*
X0046265Y0154457D01*
X0047493Y0152859D02*
X0049605Y0152859D01*
X0050285Y0151260D02*
X0047900Y0151260D01*
X0048091Y0149662D02*
X0051884Y0149662D01*
X0049690Y0148063D02*
X0054742Y0148063D01*
X0051288Y0146465D02*
X0077613Y0146465D01*
X0078273Y0148063D02*
X0059858Y0148063D01*
X0062716Y0149662D02*
X0101200Y0149662D01*
X0101200Y0151260D02*
X0064315Y0151260D01*
X0064995Y0152859D02*
X0101200Y0152859D01*
X0101200Y0154457D02*
X0065612Y0154457D01*
X0065612Y0156056D02*
X0101154Y0156056D01*
X0100113Y0157654D02*
X0065611Y0157654D01*
X0064949Y0159253D02*
X0100113Y0159253D01*
X0101061Y0160851D02*
X0064204Y0160851D01*
X0062605Y0162450D02*
X0132428Y0162450D01*
X0132432Y0160851D02*
X0105939Y0160851D01*
X0106887Y0159253D02*
X0132228Y0159253D01*
X0132228Y0157654D02*
X0106887Y0157654D01*
X0106265Y0156056D02*
X0105846Y0156056D01*
X0110735Y0156056D02*
X0132407Y0156056D01*
X0139593Y0156056D02*
X0142407Y0156056D01*
X0142432Y0160851D02*
X0139568Y0160851D01*
X0139572Y0162450D02*
X0142228Y0162450D01*
X0142228Y0164048D02*
X0139572Y0164048D01*
X0139440Y0165647D02*
X0142228Y0165647D01*
X0146000Y0163559D02*
X0146000Y0168500D01*
X0135941Y0178559D01*
X0106000Y0178559D01*
X0103559Y0178559D01*
X0109772Y0175238D02*
X0135302Y0175238D01*
X0136901Y0173639D02*
X0109772Y0173639D01*
X0109772Y0172041D02*
X0138499Y0172041D01*
X0140098Y0170442D02*
X0108979Y0170442D01*
X0118296Y0154457D02*
X0161790Y0154457D01*
X0160192Y0156056D02*
X0149593Y0156056D01*
X0149678Y0160741D02*
X0149419Y0161000D01*
X0149772Y0161353D01*
X0149772Y0165765D01*
X0148800Y0166737D01*
X0148800Y0169057D01*
X0148374Y0170086D01*
X0147586Y0170874D01*
X0142460Y0176000D01*
X0176000Y0176000D01*
X0181000Y0171000D01*
X0188665Y0168445D01*
X0188168Y0168239D01*
X0186761Y0166832D01*
X0186000Y0164995D01*
X0186000Y0157005D01*
X0186761Y0155168D01*
X0188168Y0153761D01*
X0190005Y0153000D01*
X0191995Y0153000D01*
X0193832Y0153761D01*
X0195239Y0155168D01*
X0196000Y0157005D01*
X0196761Y0155168D01*
X0198168Y0153761D01*
X0198700Y0153541D01*
X0198700Y0151953D01*
X0197547Y0150800D01*
X0171953Y0150800D01*
X0171887Y0150865D01*
X0171887Y0152403D01*
X0171290Y0153000D01*
X0171995Y0153000D01*
X0173832Y0153761D01*
X0175239Y0155168D01*
X0176000Y0157005D01*
X0176000Y0164995D01*
X0175239Y0166832D01*
X0173832Y0168239D01*
X0171995Y0169000D01*
X0170005Y0169000D01*
X0168168Y0168239D01*
X0166761Y0166832D01*
X0166000Y0164995D01*
X0166000Y0157005D01*
X0166179Y0156574D01*
X0162012Y0160741D01*
X0149678Y0160741D01*
X0149568Y0160851D02*
X0166000Y0160851D01*
X0166000Y0159253D02*
X0163500Y0159253D01*
X0165099Y0157654D02*
X0166000Y0157654D01*
X0166000Y0162450D02*
X0149772Y0162450D01*
X0149772Y0164048D02*
X0166000Y0164048D01*
X0166270Y0165647D02*
X0149772Y0165647D01*
X0148800Y0167245D02*
X0167174Y0167245D01*
X0169628Y0168844D02*
X0148800Y0168844D01*
X0148018Y0170442D02*
X0182673Y0170442D01*
X0182124Y0168682D02*
X0181378Y0168800D01*
X0181200Y0168800D01*
X0181200Y0161200D01*
X0180800Y0161200D01*
X0180800Y0168800D01*
X0180622Y0168800D01*
X0179876Y0168682D01*
X0179157Y0168448D01*
X0178484Y0168105D01*
X0177873Y0167661D01*
X0177339Y0167127D01*
X0176895Y0166516D01*
X0176552Y0165843D01*
X0176318Y0165124D01*
X0176200Y0164378D01*
X0176200Y0161200D01*
X0180800Y0161200D01*
X0180800Y0160800D01*
X0176200Y0160800D01*
X0176200Y0157622D01*
X0176318Y0156876D01*
X0176552Y0156157D01*
X0176895Y0155484D01*
X0177339Y0154873D01*
X0177873Y0154339D01*
X0178484Y0153895D01*
X0179157Y0153552D01*
X0179876Y0153318D01*
X0180622Y0153200D01*
X0180800Y0153200D01*
X0180800Y0160800D01*
X0181200Y0160800D01*
X0181200Y0161200D01*
X0185800Y0161200D01*
X0185800Y0164378D01*
X0185682Y0165124D01*
X0185448Y0165843D01*
X0185105Y0166516D01*
X0184661Y0167127D01*
X0184127Y0167661D01*
X0183516Y0168105D01*
X0182843Y0168448D01*
X0182124Y0168682D01*
X0181200Y0167245D02*
X0180800Y0167245D01*
X0180800Y0165647D02*
X0181200Y0165647D01*
X0181200Y0164048D02*
X0180800Y0164048D01*
X0180800Y0162450D02*
X0181200Y0162450D01*
X0181200Y0160851D02*
X0186000Y0160851D01*
X0185800Y0160800D02*
X0185800Y0157622D01*
X0185682Y0156876D01*
X0185448Y0156157D01*
X0185105Y0155484D01*
X0184661Y0154873D01*
X0184127Y0154339D01*
X0183516Y0153895D01*
X0182843Y0153552D01*
X0182124Y0153318D01*
X0181378Y0153200D01*
X0181200Y0153200D01*
X0181200Y0160800D01*
X0185800Y0160800D01*
X0185800Y0159253D02*
X0186000Y0159253D01*
X0186000Y0157654D02*
X0185800Y0157654D01*
X0185396Y0156056D02*
X0186393Y0156056D01*
X0187472Y0154457D02*
X0184245Y0154457D01*
X0181200Y0154457D02*
X0180800Y0154457D01*
X0180800Y0156056D02*
X0181200Y0156056D01*
X0181200Y0157654D02*
X0180800Y0157654D01*
X0180800Y0159253D02*
X0181200Y0159253D01*
X0180800Y0160851D02*
X0176000Y0160851D01*
X0176000Y0159253D02*
X0176200Y0159253D01*
X0176200Y0157654D02*
X0176000Y0157654D01*
X0175607Y0156056D02*
X0176604Y0156056D01*
X0177755Y0154457D02*
X0174528Y0154457D01*
X0171887Y0151260D02*
X0198007Y0151260D01*
X0198700Y0152859D02*
X0171432Y0152859D01*
X0164987Y0151260D02*
X0121493Y0151260D01*
X0123091Y0149662D02*
X0165113Y0149662D01*
X0163389Y0152859D02*
X0119894Y0152859D01*
X0120590Y0141200D02*
X0145047Y0141200D01*
X0145113Y0141135D01*
X0145113Y0139597D01*
X0147097Y0137613D01*
X0149903Y0137613D01*
X0151887Y0139597D01*
X0151887Y0142403D01*
X0150590Y0143700D01*
X0201953Y0143700D01*
X0203300Y0145047D01*
X0211253Y0153000D01*
X0211995Y0153000D01*
X0213832Y0153761D01*
X0215239Y0155168D01*
X0216000Y0157005D01*
X0216000Y0164995D01*
X0215584Y0166000D01*
X0216000Y0166000D01*
X0226000Y0121000D01*
X0216494Y0089312D01*
X0215847Y0089312D01*
X0212792Y0088046D01*
X0212525Y0087780D01*
X0212230Y0088492D01*
X0210992Y0089730D01*
X0209375Y0090400D01*
X0208060Y0090400D01*
X0205874Y0092586D01*
X0205086Y0093374D01*
X0204057Y0093800D01*
X0171737Y0093800D01*
X0171359Y0094178D01*
X0171359Y0097637D01*
X0172230Y0098508D01*
X0172900Y0100125D01*
X0172900Y0101875D01*
X0172230Y0103492D01*
X0170992Y0104730D01*
X0169375Y0105400D01*
X0167625Y0105400D01*
X0166008Y0104730D01*
X0164770Y0103492D01*
X0164100Y0101875D01*
X0164100Y0100125D01*
X0164770Y0098508D01*
X0165759Y0097518D01*
X0165759Y0094660D01*
X0165647Y0094772D01*
X0161235Y0094772D01*
X0160377Y0093914D01*
X0159903Y0094387D01*
X0157097Y0094387D01*
X0156009Y0093300D01*
X0146937Y0093300D01*
X0146937Y0093600D01*
X0145765Y0094772D01*
X0141353Y0094772D01*
X0140841Y0094260D01*
X0140514Y0094449D01*
X0140056Y0094572D01*
X0138441Y0094572D01*
X0138441Y0091000D01*
X0138441Y0091000D01*
X0138441Y0086000D01*
X0138441Y0086000D01*
X0138441Y0081000D01*
X0138441Y0081000D01*
X0138441Y0084572D01*
X0138441Y0086000D01*
X0138441Y0086000D01*
X0138441Y0089572D01*
X0138441Y0091000D01*
X0138441Y0091000D01*
X0138441Y0094572D01*
X0136826Y0094572D01*
X0136368Y0094449D01*
X0135958Y0094212D01*
X0135800Y0094054D01*
X0135800Y0097477D01*
X0136008Y0097270D01*
X0137625Y0096600D01*
X0139375Y0096600D01*
X0140992Y0097270D01*
X0142230Y0098508D01*
X0142900Y0100125D01*
X0142900Y0101875D01*
X0142230Y0103492D01*
X0141507Y0104216D01*
X0141887Y0104597D01*
X0141887Y0106905D01*
X0142625Y0106600D01*
X0144375Y0106600D01*
X0145992Y0107270D01*
X0147230Y0108508D01*
X0147900Y0110125D01*
X0147900Y0111875D01*
X0147230Y0113492D01*
X0147023Y0113700D01*
X0149977Y0113700D01*
X0149770Y0113492D01*
X0149100Y0111875D01*
X0149100Y0110125D01*
X0149770Y0108508D01*
X0151008Y0107270D01*
X0152625Y0106600D01*
X0154375Y0106600D01*
X0155992Y0107270D01*
X0157230Y0108508D01*
X0157900Y0110125D01*
X0157900Y0111875D01*
X0157230Y0113492D01*
X0157023Y0113700D01*
X0159977Y0113700D01*
X0159770Y0113492D01*
X0159100Y0111875D01*
X0159100Y0110125D01*
X0159770Y0108508D01*
X0161008Y0107270D01*
X0162625Y0106600D01*
X0164375Y0106600D01*
X0165992Y0107270D01*
X0167230Y0108508D01*
X0167900Y0110125D01*
X0167900Y0111875D01*
X0167230Y0113492D01*
X0165992Y0114730D01*
X0165190Y0115062D01*
X0164453Y0115800D01*
X0161953Y0118300D01*
X0099381Y0118300D01*
X0100300Y0119219D01*
X0100300Y0121000D01*
X0100300Y0122781D01*
X0097781Y0125300D01*
X0096000Y0125300D01*
X0096000Y0121000D01*
X0096000Y0121000D01*
X0100300Y0121000D01*
X0096000Y0121000D01*
X0096000Y0121000D01*
X0096000Y0121000D01*
X0091700Y0121000D01*
X0091700Y0122781D01*
X0094219Y0125300D01*
X0096000Y0125300D01*
X0096000Y0121000D01*
X0091700Y0121000D01*
X0091700Y0119219D01*
X0092619Y0118300D01*
X0092547Y0118300D01*
X0092247Y0118000D01*
X0089364Y0118000D01*
X0090500Y0119136D01*
X0090500Y0122864D01*
X0087864Y0125500D01*
X0084136Y0125500D01*
X0081500Y0122864D01*
X0081500Y0119136D01*
X0084136Y0116500D01*
X0087636Y0116500D01*
X0086936Y0115800D01*
X0081953Y0115800D01*
X0079772Y0117981D01*
X0079772Y0120647D01*
X0079419Y0121000D01*
X0079772Y0121353D01*
X0079772Y0125765D01*
X0079337Y0126200D01*
X0102453Y0126200D01*
X0108953Y0132700D01*
X0110509Y0132700D01*
X0111597Y0131613D01*
X0114403Y0131613D01*
X0116387Y0133597D01*
X0116387Y0135822D01*
X0117097Y0135113D01*
X0119903Y0135113D01*
X0121887Y0137097D01*
X0121887Y0139903D01*
X0120590Y0141200D01*
X0121720Y0140070D02*
X0145113Y0140070D01*
X0146238Y0138472D02*
X0121887Y0138472D01*
X0121664Y0136873D02*
X0222473Y0136873D01*
X0222828Y0135275D02*
X0120065Y0135275D01*
X0116935Y0135275D02*
X0116387Y0135275D01*
X0116387Y0133676D02*
X0223183Y0133676D01*
X0223538Y0132078D02*
X0114868Y0132078D01*
X0111132Y0132078D02*
X0108331Y0132078D01*
X0106732Y0130479D02*
X0223893Y0130479D01*
X0224249Y0128881D02*
X0105134Y0128881D01*
X0103535Y0127282D02*
X0207582Y0127282D01*
X0206476Y0126824D02*
X0203916Y0124265D01*
X0202531Y0120920D01*
X0202531Y0117300D01*
X0203916Y0113956D01*
X0206476Y0111396D01*
X0209820Y0110011D01*
X0213440Y0110011D01*
X0216784Y0111396D01*
X0219344Y0113956D01*
X0220729Y0117300D01*
X0220729Y0120920D01*
X0219344Y0124265D01*
X0216784Y0126824D01*
X0213440Y0128209D01*
X0209820Y0128209D01*
X0206476Y0126824D01*
X0205335Y0125684D02*
X0173607Y0125684D01*
X0174387Y0124903D02*
X0172403Y0126887D01*
X0169597Y0126887D01*
X0168509Y0125800D01*
X0155991Y0125800D01*
X0154903Y0126887D01*
X0152097Y0126887D01*
X0150113Y0124903D01*
X0150113Y0122097D01*
X0152097Y0120113D01*
X0154903Y0120113D01*
X0155991Y0121200D01*
X0168509Y0121200D01*
X0169597Y0120113D01*
X0172403Y0120113D01*
X0174387Y0122097D01*
X0174387Y0124903D01*
X0174387Y0124085D02*
X0203842Y0124085D01*
X0203180Y0122487D02*
X0174387Y0122487D01*
X0173179Y0120888D02*
X0202531Y0120888D01*
X0202531Y0119290D02*
X0100300Y0119290D01*
X0100300Y0120888D02*
X0151321Y0120888D01*
X0150113Y0122487D02*
X0100300Y0122487D01*
X0098996Y0124085D02*
X0150113Y0124085D01*
X0150893Y0125684D02*
X0079772Y0125684D01*
X0079772Y0124085D02*
X0082721Y0124085D01*
X0081500Y0122487D02*
X0079772Y0122487D01*
X0079531Y0120888D02*
X0081500Y0120888D01*
X0081500Y0119290D02*
X0079772Y0119290D01*
X0080061Y0117691D02*
X0082945Y0117691D01*
X0081660Y0116093D02*
X0087229Y0116093D01*
X0090500Y0119290D02*
X0091700Y0119290D01*
X0091700Y0120888D02*
X0090500Y0120888D01*
X0090500Y0122487D02*
X0091700Y0122487D01*
X0093004Y0124085D02*
X0089279Y0124085D01*
X0096000Y0124085D02*
X0096000Y0124085D01*
X0096000Y0122487D02*
X0096000Y0122487D01*
X0093416Y0141669D02*
X0079922Y0141669D01*
X0083058Y0143268D02*
X0095015Y0143268D01*
X0096613Y0144866D02*
X0084387Y0144866D01*
X0084387Y0146465D02*
X0098212Y0146465D01*
X0099810Y0148063D02*
X0083727Y0148063D01*
X0076613Y0144866D02*
X0052887Y0144866D01*
X0049578Y0141669D02*
X0017890Y0141669D01*
X0018423Y0143268D02*
X0047980Y0143268D01*
X0046381Y0144866D02*
X0018955Y0144866D01*
X0019488Y0146465D02*
X0044783Y0146465D01*
X0040214Y0148063D02*
X0036503Y0148063D01*
X0036704Y0148264D02*
X0037092Y0148799D01*
X0037392Y0149388D01*
X0037597Y0150016D01*
X0037700Y0150669D01*
X0037700Y0151000D01*
X0037700Y0151331D01*
X0037597Y0151984D01*
X0037392Y0152612D01*
X0037092Y0153201D01*
X0036704Y0153736D01*
X0036236Y0154204D01*
X0035701Y0154592D01*
X0035112Y0154892D01*
X0034484Y0155097D01*
X0033831Y0155200D01*
X0033500Y0155200D01*
X0033500Y0151000D01*
X0037700Y0151000D01*
X0033500Y0151000D01*
X0033500Y0151000D01*
X0033500Y0151000D01*
X0033500Y0146800D01*
X0033831Y0146800D01*
X0034484Y0146903D01*
X0035112Y0147108D01*
X0035701Y0147408D01*
X0036236Y0147796D01*
X0036704Y0148264D01*
X0037481Y0149662D02*
X0039292Y0149662D01*
X0039100Y0151260D02*
X0037700Y0151260D01*
X0037267Y0152859D02*
X0039507Y0152859D01*
X0040735Y0154457D02*
X0035887Y0154457D01*
X0033500Y0154457D02*
X0033500Y0154457D01*
X0033500Y0155200D02*
X0033169Y0155200D01*
X0032516Y0155097D01*
X0031888Y0154892D01*
X0031299Y0154592D01*
X0030764Y0154204D01*
X0030296Y0153736D01*
X0029908Y0153201D01*
X0029608Y0152612D01*
X0029403Y0151984D01*
X0029300Y0151331D01*
X0029300Y0151000D01*
X0033500Y0151000D01*
X0033500Y0151000D01*
X0033500Y0151000D01*
X0033500Y0155200D01*
X0033500Y0152859D02*
X0033500Y0152859D01*
X0033500Y0151260D02*
X0033500Y0151260D01*
X0033500Y0151000D02*
X0029300Y0151000D01*
X0029300Y0150669D01*
X0029403Y0150016D01*
X0029608Y0149388D01*
X0029908Y0148799D01*
X0030296Y0148264D01*
X0030764Y0147796D01*
X0031299Y0147408D01*
X0031888Y0147108D01*
X0032516Y0146903D01*
X0033169Y0146800D01*
X0033500Y0146800D01*
X0033500Y0151000D01*
X0033500Y0149662D02*
X0033500Y0149662D01*
X0033500Y0148063D02*
X0033500Y0148063D01*
X0030497Y0148063D02*
X0020021Y0148063D01*
X0020554Y0149662D02*
X0029519Y0149662D01*
X0029300Y0151260D02*
X0021087Y0151260D01*
X0021620Y0152859D02*
X0029733Y0152859D01*
X0031113Y0154457D02*
X0022152Y0154457D01*
X0025882Y0165647D02*
X0049187Y0165647D01*
X0051177Y0140070D02*
X0017357Y0140070D01*
X0016824Y0138472D02*
X0050219Y0138472D01*
X0051200Y0140047D02*
X0051200Y0140047D01*
X0048621Y0136873D02*
X0016291Y0136873D01*
X0015758Y0135275D02*
X0047022Y0135275D01*
X0046200Y0133676D02*
X0015225Y0133676D01*
X0014693Y0132078D02*
X0046200Y0132078D01*
X0046200Y0130479D02*
X0014160Y0130479D01*
X0013627Y0128881D02*
X0046200Y0128881D01*
X0046200Y0127282D02*
X0030639Y0127282D01*
X0031745Y0126824D02*
X0028400Y0128209D01*
X0024781Y0128209D01*
X0021436Y0126824D01*
X0018877Y0124265D01*
X0017491Y0120920D01*
X0017491Y0117300D01*
X0018877Y0113956D01*
X0021436Y0111396D01*
X0024781Y0110011D01*
X0028400Y0110011D01*
X0031745Y0111396D01*
X0034304Y0113956D01*
X0035690Y0117300D01*
X0035690Y0120920D01*
X0034304Y0124265D01*
X0031745Y0126824D01*
X0032885Y0125684D02*
X0046200Y0125684D01*
X0046200Y0124085D02*
X0034379Y0124085D01*
X0035041Y0122487D02*
X0046200Y0122487D01*
X0046200Y0120888D02*
X0035690Y0120888D01*
X0035690Y0119290D02*
X0046957Y0119290D01*
X0048556Y0117691D02*
X0035690Y0117691D01*
X0035190Y0116093D02*
X0050154Y0116093D01*
X0051753Y0114494D02*
X0034527Y0114494D01*
X0033244Y0112896D02*
X0053352Y0112896D01*
X0054950Y0111297D02*
X0031506Y0111297D01*
X0021675Y0111297D02*
X0013911Y0111297D01*
X0014390Y0109699D02*
X0056549Y0109699D01*
X0058147Y0108100D02*
X0014870Y0108100D01*
X0015349Y0106502D02*
X0059746Y0106502D01*
X0061344Y0104903D02*
X0015829Y0104903D01*
X0016309Y0103305D02*
X0062943Y0103305D01*
X0064541Y0101706D02*
X0016788Y0101706D01*
X0017268Y0100108D02*
X0070113Y0100108D01*
X0071200Y0098509D02*
X0017747Y0098509D01*
X0018227Y0096911D02*
X0088630Y0096911D01*
X0090113Y0095312D02*
X0018706Y0095312D01*
X0019186Y0093714D02*
X0090996Y0093714D01*
X0093700Y0092115D02*
X0019665Y0092115D01*
X0020145Y0090517D02*
X0093700Y0090517D01*
X0093700Y0088918D02*
X0020625Y0088918D01*
X0021104Y0087320D02*
X0093700Y0087320D01*
X0093700Y0085721D02*
X0021584Y0085721D01*
X0022063Y0084123D02*
X0093700Y0084123D01*
X0093723Y0082524D02*
X0022543Y0082524D01*
X0023022Y0080926D02*
X0095322Y0080926D01*
X0094613Y0079327D02*
X0023502Y0079327D01*
X0023981Y0077729D02*
X0094613Y0077729D01*
X0095079Y0076130D02*
X0024461Y0076130D01*
X0024941Y0074532D02*
X0098216Y0074532D01*
X0098700Y0072933D02*
X0025420Y0072933D01*
X0025900Y0071334D02*
X0098700Y0071334D01*
X0098700Y0069736D02*
X0052264Y0069736D01*
X0053863Y0068137D02*
X0098613Y0068137D01*
X0098613Y0066539D02*
X0055461Y0066539D01*
X0057060Y0064940D02*
X0099269Y0064940D01*
X0103491Y0061743D02*
X0091716Y0061743D01*
X0093315Y0060145D02*
X0101892Y0060145D01*
X0100294Y0058546D02*
X0093859Y0058546D01*
X0093859Y0056948D02*
X0098695Y0056948D01*
X0097097Y0055349D02*
X0093859Y0055349D01*
X0093859Y0053751D02*
X0095498Y0053751D01*
X0093900Y0052152D02*
X0093859Y0052152D01*
X0091059Y0048441D02*
X0091059Y0058441D01*
X0088500Y0061000D01*
X0086000Y0061000D01*
X0083551Y0063342D02*
X0058658Y0063342D01*
X0060257Y0061743D02*
X0082613Y0061743D01*
X0082613Y0060145D02*
X0061855Y0060145D01*
X0063454Y0058546D02*
X0083663Y0058546D01*
X0088259Y0056948D02*
X0065052Y0056948D01*
X0066651Y0055349D02*
X0088259Y0055349D01*
X0088259Y0053751D02*
X0068249Y0053751D01*
X0069848Y0052152D02*
X0088259Y0052152D01*
X0088259Y0050554D02*
X0071000Y0050554D01*
X0071000Y0048955D02*
X0086665Y0048955D01*
X0085113Y0047357D02*
X0071000Y0047357D01*
X0071000Y0045758D02*
X0085006Y0045758D01*
X0083407Y0044160D02*
X0071000Y0044160D01*
X0071000Y0042561D02*
X0081809Y0042561D01*
X0081200Y0040963D02*
X0071000Y0040963D01*
X0071000Y0039364D02*
X0080642Y0039364D01*
X0085800Y0039810D02*
X0085800Y0040047D01*
X0088365Y0042613D01*
X0089903Y0042613D01*
X0091000Y0043709D01*
X0092097Y0042613D01*
X0093700Y0042613D01*
X0093700Y0040400D01*
X0092625Y0040400D01*
X0091008Y0039730D01*
X0089770Y0038492D01*
X0089100Y0036875D01*
X0089100Y0035125D01*
X0089770Y0033508D01*
X0091008Y0032270D01*
X0092625Y0031600D01*
X0094375Y0031600D01*
X0095992Y0032270D01*
X0096200Y0032477D01*
X0096200Y0029810D01*
X0096008Y0029730D01*
X0094770Y0028492D01*
X0094100Y0026875D01*
X0094100Y0025125D01*
X0094770Y0023508D01*
X0096008Y0022270D01*
X0097625Y0021600D01*
X0099375Y0021600D01*
X0100992Y0022270D01*
X0102230Y0023508D01*
X0102900Y0025125D01*
X0102900Y0026875D01*
X0102230Y0028492D01*
X0100992Y0029730D01*
X0100800Y0029810D01*
X0100800Y0032477D01*
X0101008Y0032270D01*
X0102625Y0031600D01*
X0104375Y0031600D01*
X0105992Y0032270D01*
X0106200Y0032477D01*
X0106200Y0029810D01*
X0106008Y0029730D01*
X0104770Y0028492D01*
X0104100Y0026875D01*
X0104100Y0025125D01*
X0104770Y0023508D01*
X0106008Y0022270D01*
X0107625Y0021600D01*
X0109375Y0021600D01*
X0110992Y0022270D01*
X0112230Y0023508D01*
X0112900Y0025125D01*
X0112900Y0026875D01*
X0112230Y0028492D01*
X0110992Y0029730D01*
X0110800Y0029810D01*
X0110800Y0032477D01*
X0111008Y0032270D01*
X0112625Y0031600D01*
X0114375Y0031600D01*
X0115992Y0032270D01*
X0116200Y0032477D01*
X0116200Y0029810D01*
X0116008Y0029730D01*
X0114770Y0028492D01*
X0114100Y0026875D01*
X0114100Y0025125D01*
X0114770Y0023508D01*
X0116008Y0022270D01*
X0117625Y0021600D01*
X0119375Y0021600D01*
X0120992Y0022270D01*
X0122230Y0023508D01*
X0122900Y0025125D01*
X0122900Y0026875D01*
X0122230Y0028492D01*
X0120992Y0029730D01*
X0120800Y0029810D01*
X0120800Y0032477D01*
X0121008Y0032270D01*
X0122625Y0031600D01*
X0124375Y0031600D01*
X0125992Y0032270D01*
X0126200Y0032477D01*
X0126200Y0029810D01*
X0126008Y0029730D01*
X0124770Y0028492D01*
X0124100Y0026875D01*
X0124100Y0025125D01*
X0124770Y0023508D01*
X0126008Y0022270D01*
X0127625Y0021600D01*
X0129375Y0021600D01*
X0130992Y0022270D01*
X0132230Y0023508D01*
X0132900Y0025125D01*
X0132900Y0026875D01*
X0132230Y0028492D01*
X0130992Y0029730D01*
X0130800Y0029810D01*
X0130800Y0032477D01*
X0131008Y0032270D01*
X0132625Y0031600D01*
X0134375Y0031600D01*
X0135992Y0032270D01*
X0136200Y0032477D01*
X0136200Y0029810D01*
X0136008Y0029730D01*
X0134770Y0028492D01*
X0134100Y0026875D01*
X0134100Y0025125D01*
X0134770Y0023508D01*
X0136008Y0022270D01*
X0137625Y0021600D01*
X0139375Y0021600D01*
X0140992Y0022270D01*
X0142230Y0023508D01*
X0142900Y0025125D01*
X0142900Y0026875D01*
X0142230Y0028492D01*
X0140992Y0029730D01*
X0140800Y0029810D01*
X0140800Y0032477D01*
X0141008Y0032270D01*
X0142625Y0031600D01*
X0144375Y0031600D01*
X0145992Y0032270D01*
X0147230Y0033508D01*
X0147900Y0035125D01*
X0147900Y0036875D01*
X0147230Y0038492D01*
X0145992Y0039730D01*
X0144375Y0040400D01*
X0142625Y0040400D01*
X0141008Y0039730D01*
X0139770Y0038492D01*
X0139621Y0038132D01*
X0139453Y0038300D01*
X0135800Y0041953D01*
X0135800Y0044400D01*
X0137500Y0044400D01*
X0140637Y0044400D01*
X0141095Y0044523D01*
X0141505Y0044760D01*
X0141840Y0045095D01*
X0142077Y0045505D01*
X0142200Y0045963D01*
X0142200Y0046900D01*
X0142200Y0047772D01*
X0142400Y0047972D01*
X0142400Y0057400D01*
X0165653Y0057400D01*
X0174453Y0066200D01*
X0181200Y0066200D01*
X0166000Y0051000D01*
X0166000Y0026000D01*
X0162824Y0024941D01*
X0162900Y0025125D01*
X0162900Y0026875D01*
X0162230Y0028492D01*
X0161091Y0029631D01*
X0162586Y0031126D01*
X0163374Y0031914D01*
X0163800Y0032943D01*
X0163800Y0040009D01*
X0164387Y0040597D01*
X0164387Y0043403D01*
X0163800Y0043991D01*
X0163800Y0045263D01*
X0164772Y0046235D01*
X0164772Y0050647D01*
X0164260Y0051159D01*
X0164449Y0051486D01*
X0164572Y0051944D01*
X0164572Y0053559D01*
X0161000Y0053559D01*
X0161000Y0053559D01*
X0157428Y0053559D01*
X0157428Y0051944D01*
X0157551Y0051486D01*
X0157740Y0051159D01*
X0157322Y0050741D01*
X0154678Y0050741D01*
X0154260Y0051159D01*
X0154449Y0051486D01*
X0154572Y0051944D01*
X0154572Y0053559D01*
X0151000Y0053559D01*
X0151000Y0053559D01*
X0147428Y0053559D01*
X0147428Y0051944D01*
X0147551Y0051486D01*
X0147740Y0051159D01*
X0147228Y0050647D01*
X0147228Y0046235D01*
X0148400Y0045063D01*
X0153600Y0045063D01*
X0154678Y0046141D01*
X0157322Y0046141D01*
X0158200Y0045263D01*
X0158200Y0043991D01*
X0157613Y0043403D01*
X0157613Y0040597D01*
X0158200Y0040009D01*
X0158200Y0034660D01*
X0157359Y0033819D01*
X0157900Y0035125D01*
X0157900Y0036875D01*
X0157230Y0038492D01*
X0155992Y0039730D01*
X0154375Y0040400D01*
X0152625Y0040400D01*
X0151008Y0039730D01*
X0149770Y0038492D01*
X0149100Y0036875D01*
X0149100Y0035125D01*
X0149770Y0033508D01*
X0150909Y0032369D01*
X0148940Y0030400D01*
X0147625Y0030400D01*
X0146008Y0029730D01*
X0144770Y0028492D01*
X0144100Y0026875D01*
X0144100Y0025125D01*
X0144770Y0023508D01*
X0146008Y0022270D01*
X0147625Y0021600D01*
X0149375Y0021600D01*
X0150992Y0022270D01*
X0152230Y0023508D01*
X0152900Y0025125D01*
X0152900Y0026440D01*
X0154641Y0028181D01*
X0154100Y0026875D01*
X0154100Y0025125D01*
X0154770Y0023508D01*
X0155708Y0022569D01*
X0121000Y0011000D01*
X0078626Y0023712D01*
X0079208Y0023954D01*
X0081546Y0026292D01*
X0082812Y0029347D01*
X0082812Y0031600D01*
X0084375Y0031600D01*
X0085992Y0032270D01*
X0087230Y0033508D01*
X0087900Y0035125D01*
X0087900Y0036875D01*
X0087230Y0038492D01*
X0085992Y0039730D01*
X0085800Y0039810D01*
X0086358Y0039364D02*
X0090642Y0039364D01*
X0089469Y0037766D02*
X0087531Y0037766D01*
X0087900Y0036167D02*
X0089100Y0036167D01*
X0089330Y0034569D02*
X0087670Y0034569D01*
X0086693Y0032970D02*
X0090307Y0032970D01*
X0089484Y0030097D02*
X0088831Y0030200D01*
X0088500Y0030200D01*
X0088500Y0026000D01*
X0092700Y0026000D01*
X0092700Y0026331D01*
X0092597Y0026984D01*
X0092392Y0027612D01*
X0092092Y0028201D01*
X0091704Y0028736D01*
X0091236Y0029204D01*
X0090701Y0029592D01*
X0090112Y0029892D01*
X0089484Y0030097D01*
X0090346Y0029773D02*
X0096112Y0029773D01*
X0096200Y0031372D02*
X0082812Y0031372D01*
X0082812Y0029773D02*
X0086654Y0029773D01*
X0086888Y0029892D02*
X0086299Y0029592D01*
X0085764Y0029204D01*
X0085296Y0028736D01*
X0084908Y0028201D01*
X0084608Y0027612D01*
X0084403Y0026984D01*
X0084300Y0026331D01*
X0084300Y0026000D01*
X0088500Y0026000D01*
X0088500Y0026000D01*
X0088500Y0026000D01*
X0092700Y0026000D01*
X0092700Y0025669D01*
X0092597Y0025016D01*
X0092392Y0024388D01*
X0092092Y0023799D01*
X0091704Y0023264D01*
X0091236Y0022796D01*
X0090701Y0022408D01*
X0090112Y0022108D01*
X0089484Y0021903D01*
X0088831Y0021800D01*
X0088500Y0021800D01*
X0088500Y0026000D01*
X0088500Y0026000D01*
X0088500Y0026000D01*
X0088500Y0030200D01*
X0088169Y0030200D01*
X0087516Y0030097D01*
X0086888Y0029892D01*
X0088500Y0029773D02*
X0088500Y0029773D01*
X0088500Y0028175D02*
X0088500Y0028175D01*
X0088500Y0026576D02*
X0088500Y0026576D01*
X0088500Y0026000D02*
X0084300Y0026000D01*
X0084300Y0025669D01*
X0084403Y0025016D01*
X0084608Y0024388D01*
X0084908Y0023799D01*
X0085296Y0023264D01*
X0085764Y0022796D01*
X0086299Y0022408D01*
X0086888Y0022108D01*
X0087516Y0021903D01*
X0088169Y0021800D01*
X0088500Y0021800D01*
X0088500Y0026000D01*
X0088500Y0024978D02*
X0088500Y0024978D01*
X0088500Y0023379D02*
X0088500Y0023379D01*
X0091787Y0023379D02*
X0094898Y0023379D01*
X0094161Y0024978D02*
X0092584Y0024978D01*
X0092661Y0026576D02*
X0094100Y0026576D01*
X0094638Y0028175D02*
X0092106Y0028175D01*
X0097189Y0021781D02*
X0085064Y0021781D01*
X0085213Y0023379D02*
X0079736Y0023379D01*
X0080232Y0024978D02*
X0084416Y0024978D01*
X0084339Y0026576D02*
X0081664Y0026576D01*
X0082326Y0028175D02*
X0084894Y0028175D01*
X0090393Y0020182D02*
X0148546Y0020182D01*
X0149811Y0021781D02*
X0153342Y0021781D01*
X0152102Y0023379D02*
X0154898Y0023379D01*
X0154161Y0024978D02*
X0152839Y0024978D01*
X0153036Y0026576D02*
X0154100Y0026576D01*
X0154634Y0028175D02*
X0154638Y0028175D01*
X0153500Y0031000D02*
X0158500Y0031000D01*
X0161000Y0033500D01*
X0161000Y0042000D01*
X0161000Y0048441D01*
X0164295Y0045758D02*
X0166000Y0045758D01*
X0166000Y0044160D02*
X0163800Y0044160D01*
X0164387Y0042561D02*
X0166000Y0042561D01*
X0166000Y0040963D02*
X0164387Y0040963D01*
X0163800Y0039364D02*
X0166000Y0039364D01*
X0166000Y0037766D02*
X0163800Y0037766D01*
X0163800Y0036167D02*
X0166000Y0036167D01*
X0166000Y0034569D02*
X0163800Y0034569D01*
X0163800Y0032970D02*
X0166000Y0032970D01*
X0166000Y0031372D02*
X0162832Y0031372D01*
X0161233Y0029773D02*
X0166000Y0029773D01*
X0166000Y0028175D02*
X0162362Y0028175D01*
X0162900Y0026576D02*
X0166000Y0026576D01*
X0162933Y0024978D02*
X0162839Y0024978D01*
X0158109Y0034569D02*
X0157670Y0034569D01*
X0157900Y0036167D02*
X0158200Y0036167D01*
X0158200Y0037766D02*
X0157531Y0037766D01*
X0158200Y0039364D02*
X0156358Y0039364D01*
X0157613Y0040963D02*
X0136790Y0040963D01*
X0135800Y0042561D02*
X0157613Y0042561D01*
X0158200Y0044160D02*
X0135800Y0044160D01*
X0137500Y0044400D02*
X0137500Y0046800D01*
X0137500Y0044400D01*
X0137500Y0045758D02*
X0137500Y0045758D01*
X0137500Y0046800D02*
X0137500Y0046800D01*
X0141328Y0046900D02*
X0141328Y0046900D01*
X0142200Y0046900D01*
X0141328Y0046900D01*
X0142200Y0047357D02*
X0147228Y0047357D01*
X0147228Y0048955D02*
X0142400Y0048955D01*
X0142400Y0050554D02*
X0147228Y0050554D01*
X0147428Y0052152D02*
X0142400Y0052152D01*
X0142400Y0053751D02*
X0147428Y0053751D01*
X0147428Y0053559D02*
X0151000Y0053559D01*
X0151000Y0053559D01*
X0154572Y0053559D01*
X0154572Y0055174D01*
X0154449Y0055632D01*
X0154212Y0056042D01*
X0153877Y0056377D01*
X0153466Y0056614D01*
X0153009Y0056737D01*
X0151000Y0056737D01*
X0151000Y0053559D01*
X0151000Y0053559D01*
X0151000Y0056737D01*
X0148991Y0056737D01*
X0148534Y0056614D01*
X0148123Y0056377D01*
X0147788Y0056042D01*
X0147551Y0055632D01*
X0147428Y0055174D01*
X0147428Y0053559D01*
X0147475Y0055349D02*
X0142400Y0055349D01*
X0142400Y0056948D02*
X0171948Y0056948D01*
X0173546Y0058546D02*
X0166799Y0058546D01*
X0168398Y0060145D02*
X0175145Y0060145D01*
X0176743Y0061743D02*
X0169996Y0061743D01*
X0171595Y0063342D02*
X0178342Y0063342D01*
X0179940Y0064940D02*
X0173193Y0064940D01*
X0176553Y0073300D02*
X0179300Y0076047D01*
X0179300Y0076000D01*
X0183500Y0076000D01*
X0187700Y0076000D01*
X0187700Y0076331D01*
X0187597Y0076984D01*
X0187392Y0077612D01*
X0187092Y0078201D01*
X0186730Y0078700D01*
X0189977Y0078700D01*
X0189770Y0078492D01*
X0189100Y0076875D01*
X0189100Y0075125D01*
X0189180Y0074932D01*
X0187547Y0073300D01*
X0186730Y0073300D01*
X0187092Y0073799D01*
X0187392Y0074388D01*
X0187597Y0075016D01*
X0187700Y0075669D01*
X0187700Y0076000D01*
X0183500Y0076000D01*
X0183500Y0076000D01*
X0183500Y0076000D01*
X0179300Y0076000D01*
X0179300Y0075669D01*
X0179403Y0075016D01*
X0179608Y0074388D01*
X0179908Y0073799D01*
X0180270Y0073300D01*
X0176553Y0073300D01*
X0177784Y0074532D02*
X0179561Y0074532D01*
X0187439Y0074532D02*
X0188779Y0074532D01*
X0189100Y0076130D02*
X0187700Y0076130D01*
X0187333Y0077729D02*
X0189453Y0077729D01*
X0203500Y0091000D02*
X0168559Y0091000D01*
X0168559Y0100941D01*
X0164769Y0098509D02*
X0162231Y0098509D01*
X0162230Y0098508D02*
X0162900Y0100125D01*
X0162900Y0101875D01*
X0162230Y0103492D01*
X0160992Y0104730D01*
X0159375Y0105400D01*
X0157625Y0105400D01*
X0156008Y0104730D01*
X0154770Y0103492D01*
X0154100Y0101875D01*
X0154100Y0100125D01*
X0154770Y0098508D01*
X0156008Y0097270D01*
X0157625Y0096600D01*
X0159375Y0096600D01*
X0160992Y0097270D01*
X0162230Y0098508D01*
X0162893Y0100108D02*
X0164107Y0100108D01*
X0164100Y0101706D02*
X0162900Y0101706D01*
X0162308Y0103305D02*
X0164692Y0103305D01*
X0166426Y0104903D02*
X0160574Y0104903D01*
X0160177Y0108100D02*
X0156823Y0108100D01*
X0157724Y0109699D02*
X0159276Y0109699D01*
X0159100Y0111297D02*
X0157900Y0111297D01*
X0157477Y0112896D02*
X0159523Y0112896D01*
X0164160Y0116093D02*
X0203031Y0116093D01*
X0202531Y0117691D02*
X0162561Y0117691D01*
X0166228Y0114494D02*
X0170772Y0114494D01*
X0171008Y0114730D02*
X0169770Y0113492D01*
X0169100Y0111875D01*
X0169100Y0110125D01*
X0169770Y0108508D01*
X0171008Y0107270D01*
X0172625Y0106600D01*
X0174375Y0106600D01*
X0175992Y0107270D01*
X0177230Y0108508D01*
X0177900Y0110125D01*
X0177900Y0111875D01*
X0177230Y0113492D01*
X0175992Y0114730D01*
X0174375Y0115400D01*
X0172625Y0115400D01*
X0171008Y0114730D01*
X0169523Y0112896D02*
X0167477Y0112896D01*
X0167900Y0111297D02*
X0169100Y0111297D01*
X0169276Y0109699D02*
X0167724Y0109699D01*
X0166823Y0108100D02*
X0170177Y0108100D01*
X0170574Y0104903D02*
X0176426Y0104903D01*
X0176008Y0104730D02*
X0177625Y0105400D01*
X0179375Y0105400D01*
X0180992Y0104730D01*
X0182230Y0103492D01*
X0182900Y0101875D01*
X0182900Y0100125D01*
X0182230Y0098508D01*
X0180992Y0097270D01*
X0179375Y0096600D01*
X0177625Y0096600D01*
X0176008Y0097270D01*
X0174770Y0098508D01*
X0174100Y0100125D01*
X0174100Y0101875D01*
X0174770Y0103492D01*
X0176008Y0104730D01*
X0174692Y0103305D02*
X0172308Y0103305D01*
X0172900Y0101706D02*
X0174100Y0101706D01*
X0174107Y0100108D02*
X0172893Y0100108D01*
X0172231Y0098509D02*
X0174769Y0098509D01*
X0176875Y0096911D02*
X0171359Y0096911D01*
X0171359Y0095312D02*
X0218294Y0095312D01*
X0217814Y0093714D02*
X0204265Y0093714D01*
X0206345Y0092115D02*
X0217335Y0092115D01*
X0216855Y0090517D02*
X0207943Y0090517D01*
X0211804Y0088918D02*
X0214896Y0088918D01*
X0208500Y0086000D02*
X0203500Y0091000D01*
X0218773Y0096911D02*
X0180125Y0096911D01*
X0182231Y0098509D02*
X0219253Y0098509D01*
X0219732Y0100108D02*
X0182893Y0100108D01*
X0182900Y0101706D02*
X0220212Y0101706D01*
X0220691Y0103305D02*
X0182308Y0103305D01*
X0180574Y0104903D02*
X0221171Y0104903D01*
X0221651Y0106502D02*
X0141887Y0106502D01*
X0141887Y0104903D02*
X0146426Y0104903D01*
X0146008Y0104730D02*
X0147625Y0105400D01*
X0149375Y0105400D01*
X0150992Y0104730D01*
X0152230Y0103492D01*
X0152900Y0101875D01*
X0152900Y0100125D01*
X0152230Y0098508D01*
X0150992Y0097270D01*
X0149375Y0096600D01*
X0147625Y0096600D01*
X0146008Y0097270D01*
X0144770Y0098508D01*
X0144100Y0100125D01*
X0144100Y0101875D01*
X0144770Y0103492D01*
X0146008Y0104730D01*
X0144692Y0103305D02*
X0142308Y0103305D01*
X0142900Y0101706D02*
X0144100Y0101706D01*
X0144107Y0100108D02*
X0142893Y0100108D01*
X0142231Y0098509D02*
X0144769Y0098509D01*
X0146875Y0096911D02*
X0140125Y0096911D01*
X0136875Y0096911D02*
X0135800Y0096911D01*
X0135800Y0095312D02*
X0165759Y0095312D01*
X0165759Y0096911D02*
X0160125Y0096911D01*
X0156875Y0096911D02*
X0150125Y0096911D01*
X0152231Y0098509D02*
X0154769Y0098509D01*
X0154107Y0100108D02*
X0152893Y0100108D01*
X0152900Y0101706D02*
X0154100Y0101706D01*
X0154692Y0103305D02*
X0152308Y0103305D01*
X0150574Y0104903D02*
X0156426Y0104903D01*
X0150177Y0108100D02*
X0146823Y0108100D01*
X0147724Y0109699D02*
X0149276Y0109699D01*
X0149100Y0111297D02*
X0147900Y0111297D01*
X0147477Y0112896D02*
X0149523Y0112896D01*
X0155679Y0120888D02*
X0168821Y0120888D01*
X0176228Y0114494D02*
X0203693Y0114494D01*
X0204976Y0112896D02*
X0177477Y0112896D01*
X0177900Y0111297D02*
X0206715Y0111297D01*
X0216545Y0111297D02*
X0223089Y0111297D01*
X0222610Y0109699D02*
X0177724Y0109699D01*
X0176823Y0108100D02*
X0222130Y0108100D01*
X0223569Y0112896D02*
X0218284Y0112896D01*
X0219567Y0114494D02*
X0224048Y0114494D01*
X0224528Y0116093D02*
X0220229Y0116093D01*
X0220729Y0117691D02*
X0225007Y0117691D01*
X0225487Y0119290D02*
X0220729Y0119290D01*
X0220729Y0120888D02*
X0225967Y0120888D01*
X0225670Y0122487D02*
X0220080Y0122487D01*
X0219418Y0124085D02*
X0225314Y0124085D01*
X0224959Y0125684D02*
X0217924Y0125684D01*
X0215678Y0127282D02*
X0224604Y0127282D01*
X0222117Y0138472D02*
X0150762Y0138472D01*
X0151887Y0140070D02*
X0221762Y0140070D01*
X0221407Y0141669D02*
X0151887Y0141669D01*
X0151023Y0143268D02*
X0221052Y0143268D01*
X0220696Y0144866D02*
X0203119Y0144866D01*
X0204717Y0146465D02*
X0220341Y0146465D01*
X0219986Y0148063D02*
X0206316Y0148063D01*
X0207914Y0149662D02*
X0219631Y0149662D01*
X0219276Y0151260D02*
X0209513Y0151260D01*
X0211111Y0152859D02*
X0218920Y0152859D01*
X0218565Y0154457D02*
X0214528Y0154457D01*
X0215607Y0156056D02*
X0218210Y0156056D01*
X0217855Y0157654D02*
X0216000Y0157654D01*
X0216000Y0159253D02*
X0217499Y0159253D01*
X0217144Y0160851D02*
X0216000Y0160851D01*
X0216000Y0162450D02*
X0216789Y0162450D01*
X0216434Y0164048D02*
X0216000Y0164048D01*
X0216079Y0165647D02*
X0215730Y0165647D01*
X0196416Y0166000D02*
X0196000Y0164995D01*
X0196000Y0157005D01*
X0196000Y0164995D01*
X0195517Y0166161D01*
X0196000Y0166000D01*
X0196416Y0166000D01*
X0196270Y0165647D02*
X0195730Y0165647D01*
X0196000Y0164048D02*
X0196000Y0164048D01*
X0196000Y0162450D02*
X0196000Y0162450D01*
X0196000Y0160851D02*
X0196000Y0160851D01*
X0196000Y0159253D02*
X0196000Y0159253D01*
X0196000Y0157654D02*
X0196000Y0157654D01*
X0195607Y0156056D02*
X0196393Y0156056D01*
X0197472Y0154457D02*
X0194528Y0154457D01*
X0186000Y0162450D02*
X0185800Y0162450D01*
X0185800Y0164048D02*
X0186000Y0164048D01*
X0186270Y0165647D02*
X0185512Y0165647D01*
X0184543Y0167245D02*
X0187174Y0167245D01*
X0187469Y0168844D02*
X0172372Y0168844D01*
X0174826Y0167245D02*
X0177457Y0167245D01*
X0176488Y0165647D02*
X0175730Y0165647D01*
X0176000Y0164048D02*
X0176200Y0164048D01*
X0176200Y0162450D02*
X0176000Y0162450D01*
X0179959Y0172041D02*
X0146419Y0172041D01*
X0144821Y0173639D02*
X0178361Y0173639D01*
X0176762Y0175238D02*
X0143222Y0175238D01*
X0136000Y0165647D02*
X0136000Y0165647D01*
X0136000Y0164048D02*
X0136000Y0164048D01*
X0129977Y0113700D02*
X0127023Y0113700D01*
X0127230Y0113492D01*
X0127900Y0111875D01*
X0127900Y0110125D01*
X0127230Y0108508D01*
X0125992Y0107270D01*
X0124375Y0106600D01*
X0122625Y0106600D01*
X0121008Y0107270D01*
X0120300Y0107977D01*
X0120300Y0105047D01*
X0120134Y0104881D01*
X0120701Y0104592D01*
X0121236Y0104204D01*
X0121704Y0103736D01*
X0122092Y0103201D01*
X0122392Y0102612D01*
X0122597Y0101984D01*
X0122700Y0101331D01*
X0122700Y0101000D01*
X0118500Y0101000D01*
X0118500Y0101000D01*
X0122700Y0101000D01*
X0122700Y0100669D01*
X0122597Y0100016D01*
X0122392Y0099388D01*
X0122092Y0098799D01*
X0121704Y0098264D01*
X0121236Y0097796D01*
X0120701Y0097408D01*
X0120112Y0097108D01*
X0119484Y0096903D01*
X0118831Y0096800D01*
X0118500Y0096800D01*
X0118500Y0101000D01*
X0118500Y0101000D01*
X0118500Y0096800D01*
X0118169Y0096800D01*
X0117516Y0096903D01*
X0116888Y0097108D01*
X0116300Y0097407D01*
X0116300Y0093590D01*
X0117097Y0094387D01*
X0119903Y0094387D01*
X0120377Y0093914D01*
X0121235Y0094772D01*
X0125647Y0094772D01*
X0126000Y0094419D01*
X0126353Y0094772D01*
X0130765Y0094772D01*
X0131200Y0094337D01*
X0131200Y0097477D01*
X0130992Y0097270D01*
X0129375Y0096600D01*
X0127625Y0096600D01*
X0126008Y0097270D01*
X0124770Y0098508D01*
X0124100Y0100125D01*
X0124100Y0101875D01*
X0124770Y0103492D01*
X0126008Y0104730D01*
X0127625Y0105400D01*
X0129375Y0105400D01*
X0130992Y0104730D01*
X0131235Y0104488D01*
X0133347Y0106600D01*
X0132625Y0106600D01*
X0131008Y0107270D01*
X0129770Y0108508D01*
X0129100Y0110125D01*
X0129100Y0111875D01*
X0129770Y0113492D01*
X0129977Y0113700D01*
X0129523Y0112896D02*
X0127477Y0112896D01*
X0127900Y0111297D02*
X0129100Y0111297D01*
X0129276Y0109699D02*
X0127724Y0109699D01*
X0126823Y0108100D02*
X0130177Y0108100D01*
X0130574Y0104903D02*
X0131651Y0104903D01*
X0133249Y0106502D02*
X0120300Y0106502D01*
X0120156Y0104903D02*
X0126426Y0104903D01*
X0124692Y0103305D02*
X0122017Y0103305D01*
X0122640Y0101706D02*
X0124100Y0101706D01*
X0124107Y0100108D02*
X0122611Y0100108D01*
X0121882Y0098509D02*
X0124769Y0098509D01*
X0126875Y0096911D02*
X0119506Y0096911D01*
X0118500Y0096911D02*
X0118500Y0096911D01*
X0117494Y0096911D02*
X0116300Y0096911D01*
X0116300Y0095312D02*
X0131200Y0095312D01*
X0131200Y0096911D02*
X0130125Y0096911D01*
X0123441Y0091000D02*
X0118500Y0091000D01*
X0116423Y0093714D02*
X0116300Y0093714D01*
X0118500Y0098509D02*
X0118500Y0098509D01*
X0118500Y0100108D02*
X0118500Y0100108D01*
X0138441Y0093714D02*
X0138441Y0093714D01*
X0138441Y0092115D02*
X0138441Y0092115D01*
X0138441Y0090517D02*
X0138441Y0090517D01*
X0138441Y0088918D02*
X0138441Y0088918D01*
X0138441Y0087320D02*
X0138441Y0087320D01*
X0138441Y0085721D02*
X0138441Y0085721D01*
X0138441Y0084123D02*
X0138441Y0084123D01*
X0138441Y0082524D02*
X0138441Y0082524D01*
X0141800Y0077228D02*
X0145765Y0077228D01*
X0146142Y0077605D01*
X0146200Y0077547D01*
X0146200Y0075991D01*
X0145113Y0074903D01*
X0145113Y0073140D01*
X0142400Y0075853D01*
X0142400Y0076628D01*
X0141800Y0077228D01*
X0142400Y0076130D02*
X0146200Y0076130D01*
X0145113Y0074532D02*
X0143721Y0074532D01*
X0146823Y0093714D02*
X0156423Y0093714D01*
X0168559Y0091000D02*
X0168559Y0086000D01*
X0168559Y0081000D01*
X0168500Y0080941D02*
X0168500Y0076000D01*
X0163466Y0056614D02*
X0163009Y0056737D01*
X0161000Y0056737D01*
X0161000Y0053559D01*
X0161000Y0053559D01*
X0164572Y0053559D01*
X0164572Y0055174D01*
X0164449Y0055632D01*
X0164212Y0056042D01*
X0163877Y0056377D01*
X0163466Y0056614D01*
X0164525Y0055349D02*
X0170349Y0055349D01*
X0168751Y0053751D02*
X0164572Y0053751D01*
X0164572Y0052152D02*
X0167152Y0052152D01*
X0166000Y0050554D02*
X0164772Y0050554D01*
X0164772Y0048955D02*
X0166000Y0048955D01*
X0166000Y0047357D02*
X0164772Y0047357D01*
X0157705Y0045758D02*
X0154295Y0045758D01*
X0154572Y0052152D02*
X0157428Y0052152D01*
X0157428Y0053559D02*
X0161000Y0053559D01*
X0161000Y0053559D01*
X0161000Y0056737D01*
X0158991Y0056737D01*
X0158534Y0056614D01*
X0158123Y0056377D01*
X0157788Y0056042D01*
X0157551Y0055632D01*
X0157428Y0055174D01*
X0157428Y0053559D01*
X0157428Y0053751D02*
X0154572Y0053751D01*
X0154525Y0055349D02*
X0157475Y0055349D01*
X0161000Y0055349D02*
X0161000Y0055349D01*
X0161000Y0053751D02*
X0161000Y0053751D01*
X0151000Y0053751D02*
X0151000Y0053751D01*
X0151000Y0055349D02*
X0151000Y0055349D01*
X0147705Y0045758D02*
X0142145Y0045758D01*
X0140642Y0039364D02*
X0138388Y0039364D01*
X0146358Y0039364D02*
X0150642Y0039364D01*
X0149469Y0037766D02*
X0147531Y0037766D01*
X0147900Y0036167D02*
X0149100Y0036167D01*
X0149330Y0034569D02*
X0147670Y0034569D01*
X0146693Y0032970D02*
X0150307Y0032970D01*
X0149912Y0031372D02*
X0140800Y0031372D01*
X0140888Y0029773D02*
X0146112Y0029773D01*
X0144638Y0028175D02*
X0142362Y0028175D01*
X0142900Y0026576D02*
X0144100Y0026576D01*
X0144161Y0024978D02*
X0142839Y0024978D01*
X0142102Y0023379D02*
X0144898Y0023379D01*
X0147189Y0021781D02*
X0139811Y0021781D01*
X0137189Y0021781D02*
X0129811Y0021781D01*
X0127189Y0021781D02*
X0119811Y0021781D01*
X0117189Y0021781D02*
X0109811Y0021781D01*
X0112102Y0023379D02*
X0114898Y0023379D01*
X0114161Y0024978D02*
X0112839Y0024978D01*
X0112900Y0026576D02*
X0114100Y0026576D01*
X0114638Y0028175D02*
X0112362Y0028175D01*
X0110888Y0029773D02*
X0116112Y0029773D01*
X0116200Y0031372D02*
X0110800Y0031372D01*
X0106200Y0031372D02*
X0100800Y0031372D01*
X0100888Y0029773D02*
X0106112Y0029773D01*
X0104638Y0028175D02*
X0102362Y0028175D01*
X0102900Y0026576D02*
X0104100Y0026576D01*
X0104161Y0024978D02*
X0102839Y0024978D01*
X0102102Y0023379D02*
X0104898Y0023379D01*
X0107189Y0021781D02*
X0099811Y0021781D01*
X0101050Y0016985D02*
X0138955Y0016985D01*
X0134160Y0015387D02*
X0106378Y0015387D01*
X0111706Y0013788D02*
X0129364Y0013788D01*
X0124569Y0012190D02*
X0117035Y0012190D01*
X0122102Y0023379D02*
X0124898Y0023379D01*
X0124161Y0024978D02*
X0122839Y0024978D01*
X0122900Y0026576D02*
X0124100Y0026576D01*
X0124638Y0028175D02*
X0122362Y0028175D01*
X0120888Y0029773D02*
X0126112Y0029773D01*
X0126200Y0031372D02*
X0120800Y0031372D01*
X0130800Y0031372D02*
X0136200Y0031372D01*
X0136112Y0029773D02*
X0130888Y0029773D01*
X0132362Y0028175D02*
X0134638Y0028175D01*
X0134100Y0026576D02*
X0132900Y0026576D01*
X0132839Y0024978D02*
X0134161Y0024978D01*
X0134898Y0023379D02*
X0132102Y0023379D01*
X0143751Y0018584D02*
X0095721Y0018584D01*
X0093700Y0040963D02*
X0086715Y0040963D01*
X0088314Y0042561D02*
X0093700Y0042561D01*
X0093500Y0046000D02*
X0091059Y0048441D01*
X0090118Y0063342D02*
X0105089Y0063342D01*
X0104731Y0064940D02*
X0106688Y0064940D01*
X0093500Y0096000D02*
X0088500Y0101000D01*
X0073500Y0101000D01*
X0068500Y0111000D02*
X0061000Y0118500D01*
X0068500Y0123500D02*
X0075941Y0123500D01*
X0078500Y0111000D02*
X0068500Y0111000D01*
X0022543Y0127282D02*
X0013094Y0127282D01*
X0012561Y0125684D02*
X0020296Y0125684D01*
X0018802Y0124085D02*
X0012028Y0124085D01*
X0011496Y0122487D02*
X0018140Y0122487D01*
X0017491Y0120888D02*
X0011034Y0120888D01*
X0011513Y0119290D02*
X0017491Y0119290D01*
X0017491Y0117691D02*
X0011993Y0117691D01*
X0012472Y0116093D02*
X0017991Y0116093D01*
X0018654Y0114494D02*
X0012952Y0114494D01*
X0013431Y0112896D02*
X0019937Y0112896D01*
X0148500Y0026000D02*
X0153500Y0031000D01*
M02*
