G75*
%MOIN*%
%OFA0B0*%
%FSLAX25Y25*%
%IPPOS*%
%LPD*%
%AMOC8*
5,1,8,0,0,1.08239X$1,22.5*
%
%ADD10C,0.00000*%
%ADD11C,0.01400*%
%ADD12R,0.05906X0.05118*%
%ADD13C,0.06000*%
%ADD14R,0.03543X0.02756*%
%ADD15R,0.02756X0.03543*%
%ADD16R,0.03937X0.03937*%
%ADD17R,0.11811X0.04724*%
%ADD18R,0.04724X0.11811*%
%ADD19C,0.04800*%
%ADD20R,0.02362X0.08661*%
%ADD21R,0.03150X0.03150*%
%ADD22OC8,0.05000*%
%ADD23R,0.08000X0.02600*%
%ADD24R,0.03937X0.05512*%
%ADD25R,0.01600X0.04800*%
%ADD26C,0.00600*%
%ADD27OC8,0.02775*%
%ADD28C,0.01600*%
D10*
X0001000Y0001000D02*
X0001000Y0237220D01*
X0237220Y0237220D01*
X0237220Y0001000D01*
X0001000Y0001000D01*
X0030134Y0036433D02*
X0030136Y0036591D01*
X0030142Y0036749D01*
X0030152Y0036907D01*
X0030166Y0037065D01*
X0030184Y0037222D01*
X0030205Y0037379D01*
X0030231Y0037535D01*
X0030261Y0037691D01*
X0030294Y0037846D01*
X0030332Y0037999D01*
X0030373Y0038152D01*
X0030418Y0038304D01*
X0030467Y0038455D01*
X0030520Y0038604D01*
X0030576Y0038752D01*
X0030636Y0038898D01*
X0030700Y0039043D01*
X0030768Y0039186D01*
X0030839Y0039328D01*
X0030913Y0039468D01*
X0030991Y0039605D01*
X0031073Y0039741D01*
X0031157Y0039875D01*
X0031246Y0040006D01*
X0031337Y0040135D01*
X0031432Y0040262D01*
X0031529Y0040387D01*
X0031630Y0040509D01*
X0031734Y0040628D01*
X0031841Y0040745D01*
X0031951Y0040859D01*
X0032064Y0040970D01*
X0032179Y0041079D01*
X0032297Y0041184D01*
X0032418Y0041286D01*
X0032541Y0041386D01*
X0032667Y0041482D01*
X0032795Y0041575D01*
X0032925Y0041665D01*
X0033058Y0041751D01*
X0033193Y0041835D01*
X0033329Y0041914D01*
X0033468Y0041991D01*
X0033609Y0042063D01*
X0033751Y0042133D01*
X0033895Y0042198D01*
X0034041Y0042260D01*
X0034188Y0042318D01*
X0034337Y0042373D01*
X0034487Y0042424D01*
X0034638Y0042471D01*
X0034790Y0042514D01*
X0034943Y0042553D01*
X0035098Y0042589D01*
X0035253Y0042620D01*
X0035409Y0042648D01*
X0035565Y0042672D01*
X0035722Y0042692D01*
X0035880Y0042708D01*
X0036037Y0042720D01*
X0036196Y0042728D01*
X0036354Y0042732D01*
X0036512Y0042732D01*
X0036670Y0042728D01*
X0036829Y0042720D01*
X0036986Y0042708D01*
X0037144Y0042692D01*
X0037301Y0042672D01*
X0037457Y0042648D01*
X0037613Y0042620D01*
X0037768Y0042589D01*
X0037923Y0042553D01*
X0038076Y0042514D01*
X0038228Y0042471D01*
X0038379Y0042424D01*
X0038529Y0042373D01*
X0038678Y0042318D01*
X0038825Y0042260D01*
X0038971Y0042198D01*
X0039115Y0042133D01*
X0039257Y0042063D01*
X0039398Y0041991D01*
X0039537Y0041914D01*
X0039673Y0041835D01*
X0039808Y0041751D01*
X0039941Y0041665D01*
X0040071Y0041575D01*
X0040199Y0041482D01*
X0040325Y0041386D01*
X0040448Y0041286D01*
X0040569Y0041184D01*
X0040687Y0041079D01*
X0040802Y0040970D01*
X0040915Y0040859D01*
X0041025Y0040745D01*
X0041132Y0040628D01*
X0041236Y0040509D01*
X0041337Y0040387D01*
X0041434Y0040262D01*
X0041529Y0040135D01*
X0041620Y0040006D01*
X0041709Y0039875D01*
X0041793Y0039741D01*
X0041875Y0039605D01*
X0041953Y0039468D01*
X0042027Y0039328D01*
X0042098Y0039186D01*
X0042166Y0039043D01*
X0042230Y0038898D01*
X0042290Y0038752D01*
X0042346Y0038604D01*
X0042399Y0038455D01*
X0042448Y0038304D01*
X0042493Y0038152D01*
X0042534Y0037999D01*
X0042572Y0037846D01*
X0042605Y0037691D01*
X0042635Y0037535D01*
X0042661Y0037379D01*
X0042682Y0037222D01*
X0042700Y0037065D01*
X0042714Y0036907D01*
X0042724Y0036749D01*
X0042730Y0036591D01*
X0042732Y0036433D01*
X0042730Y0036275D01*
X0042724Y0036117D01*
X0042714Y0035959D01*
X0042700Y0035801D01*
X0042682Y0035644D01*
X0042661Y0035487D01*
X0042635Y0035331D01*
X0042605Y0035175D01*
X0042572Y0035020D01*
X0042534Y0034867D01*
X0042493Y0034714D01*
X0042448Y0034562D01*
X0042399Y0034411D01*
X0042346Y0034262D01*
X0042290Y0034114D01*
X0042230Y0033968D01*
X0042166Y0033823D01*
X0042098Y0033680D01*
X0042027Y0033538D01*
X0041953Y0033398D01*
X0041875Y0033261D01*
X0041793Y0033125D01*
X0041709Y0032991D01*
X0041620Y0032860D01*
X0041529Y0032731D01*
X0041434Y0032604D01*
X0041337Y0032479D01*
X0041236Y0032357D01*
X0041132Y0032238D01*
X0041025Y0032121D01*
X0040915Y0032007D01*
X0040802Y0031896D01*
X0040687Y0031787D01*
X0040569Y0031682D01*
X0040448Y0031580D01*
X0040325Y0031480D01*
X0040199Y0031384D01*
X0040071Y0031291D01*
X0039941Y0031201D01*
X0039808Y0031115D01*
X0039673Y0031031D01*
X0039537Y0030952D01*
X0039398Y0030875D01*
X0039257Y0030803D01*
X0039115Y0030733D01*
X0038971Y0030668D01*
X0038825Y0030606D01*
X0038678Y0030548D01*
X0038529Y0030493D01*
X0038379Y0030442D01*
X0038228Y0030395D01*
X0038076Y0030352D01*
X0037923Y0030313D01*
X0037768Y0030277D01*
X0037613Y0030246D01*
X0037457Y0030218D01*
X0037301Y0030194D01*
X0037144Y0030174D01*
X0036986Y0030158D01*
X0036829Y0030146D01*
X0036670Y0030138D01*
X0036512Y0030134D01*
X0036354Y0030134D01*
X0036196Y0030138D01*
X0036037Y0030146D01*
X0035880Y0030158D01*
X0035722Y0030174D01*
X0035565Y0030194D01*
X0035409Y0030218D01*
X0035253Y0030246D01*
X0035098Y0030277D01*
X0034943Y0030313D01*
X0034790Y0030352D01*
X0034638Y0030395D01*
X0034487Y0030442D01*
X0034337Y0030493D01*
X0034188Y0030548D01*
X0034041Y0030606D01*
X0033895Y0030668D01*
X0033751Y0030733D01*
X0033609Y0030803D01*
X0033468Y0030875D01*
X0033329Y0030952D01*
X0033193Y0031031D01*
X0033058Y0031115D01*
X0032925Y0031201D01*
X0032795Y0031291D01*
X0032667Y0031384D01*
X0032541Y0031480D01*
X0032418Y0031580D01*
X0032297Y0031682D01*
X0032179Y0031787D01*
X0032064Y0031896D01*
X0031951Y0032007D01*
X0031841Y0032121D01*
X0031734Y0032238D01*
X0031630Y0032357D01*
X0031529Y0032479D01*
X0031432Y0032604D01*
X0031337Y0032731D01*
X0031246Y0032860D01*
X0031157Y0032991D01*
X0031073Y0033125D01*
X0030991Y0033261D01*
X0030913Y0033398D01*
X0030839Y0033538D01*
X0030768Y0033680D01*
X0030700Y0033823D01*
X0030636Y0033968D01*
X0030576Y0034114D01*
X0030520Y0034262D01*
X0030467Y0034411D01*
X0030418Y0034562D01*
X0030373Y0034714D01*
X0030332Y0034867D01*
X0030294Y0035020D01*
X0030261Y0035175D01*
X0030231Y0035331D01*
X0030205Y0035487D01*
X0030184Y0035644D01*
X0030166Y0035801D01*
X0030152Y0035959D01*
X0030142Y0036117D01*
X0030136Y0036275D01*
X0030134Y0036433D01*
X0068988Y0031000D02*
X0068990Y0031148D01*
X0068996Y0031296D01*
X0069006Y0031444D01*
X0069020Y0031591D01*
X0069038Y0031738D01*
X0069059Y0031884D01*
X0069085Y0032030D01*
X0069115Y0032175D01*
X0069148Y0032319D01*
X0069186Y0032462D01*
X0069227Y0032604D01*
X0069272Y0032745D01*
X0069320Y0032885D01*
X0069373Y0033024D01*
X0069429Y0033161D01*
X0069489Y0033296D01*
X0069552Y0033430D01*
X0069619Y0033562D01*
X0069690Y0033692D01*
X0069764Y0033820D01*
X0069841Y0033946D01*
X0069922Y0034070D01*
X0070006Y0034192D01*
X0070093Y0034311D01*
X0070184Y0034428D01*
X0070278Y0034543D01*
X0070374Y0034655D01*
X0070474Y0034765D01*
X0070576Y0034871D01*
X0070682Y0034975D01*
X0070790Y0035076D01*
X0070901Y0035174D01*
X0071014Y0035270D01*
X0071130Y0035362D01*
X0071248Y0035451D01*
X0071369Y0035536D01*
X0071492Y0035619D01*
X0071617Y0035698D01*
X0071744Y0035774D01*
X0071873Y0035846D01*
X0072004Y0035915D01*
X0072137Y0035980D01*
X0072272Y0036041D01*
X0072408Y0036099D01*
X0072545Y0036154D01*
X0072684Y0036204D01*
X0072825Y0036251D01*
X0072966Y0036294D01*
X0073109Y0036334D01*
X0073253Y0036369D01*
X0073397Y0036401D01*
X0073543Y0036428D01*
X0073689Y0036452D01*
X0073836Y0036472D01*
X0073983Y0036488D01*
X0074130Y0036500D01*
X0074278Y0036508D01*
X0074426Y0036512D01*
X0074574Y0036512D01*
X0074722Y0036508D01*
X0074870Y0036500D01*
X0075017Y0036488D01*
X0075164Y0036472D01*
X0075311Y0036452D01*
X0075457Y0036428D01*
X0075603Y0036401D01*
X0075747Y0036369D01*
X0075891Y0036334D01*
X0076034Y0036294D01*
X0076175Y0036251D01*
X0076316Y0036204D01*
X0076455Y0036154D01*
X0076592Y0036099D01*
X0076728Y0036041D01*
X0076863Y0035980D01*
X0076996Y0035915D01*
X0077127Y0035846D01*
X0077256Y0035774D01*
X0077383Y0035698D01*
X0077508Y0035619D01*
X0077631Y0035536D01*
X0077752Y0035451D01*
X0077870Y0035362D01*
X0077986Y0035270D01*
X0078099Y0035174D01*
X0078210Y0035076D01*
X0078318Y0034975D01*
X0078424Y0034871D01*
X0078526Y0034765D01*
X0078626Y0034655D01*
X0078722Y0034543D01*
X0078816Y0034428D01*
X0078907Y0034311D01*
X0078994Y0034192D01*
X0079078Y0034070D01*
X0079159Y0033946D01*
X0079236Y0033820D01*
X0079310Y0033692D01*
X0079381Y0033562D01*
X0079448Y0033430D01*
X0079511Y0033296D01*
X0079571Y0033161D01*
X0079627Y0033024D01*
X0079680Y0032885D01*
X0079728Y0032745D01*
X0079773Y0032604D01*
X0079814Y0032462D01*
X0079852Y0032319D01*
X0079885Y0032175D01*
X0079915Y0032030D01*
X0079941Y0031884D01*
X0079962Y0031738D01*
X0079980Y0031591D01*
X0079994Y0031444D01*
X0080004Y0031296D01*
X0080010Y0031148D01*
X0080012Y0031000D01*
X0080010Y0030852D01*
X0080004Y0030704D01*
X0079994Y0030556D01*
X0079980Y0030409D01*
X0079962Y0030262D01*
X0079941Y0030116D01*
X0079915Y0029970D01*
X0079885Y0029825D01*
X0079852Y0029681D01*
X0079814Y0029538D01*
X0079773Y0029396D01*
X0079728Y0029255D01*
X0079680Y0029115D01*
X0079627Y0028976D01*
X0079571Y0028839D01*
X0079511Y0028704D01*
X0079448Y0028570D01*
X0079381Y0028438D01*
X0079310Y0028308D01*
X0079236Y0028180D01*
X0079159Y0028054D01*
X0079078Y0027930D01*
X0078994Y0027808D01*
X0078907Y0027689D01*
X0078816Y0027572D01*
X0078722Y0027457D01*
X0078626Y0027345D01*
X0078526Y0027235D01*
X0078424Y0027129D01*
X0078318Y0027025D01*
X0078210Y0026924D01*
X0078099Y0026826D01*
X0077986Y0026730D01*
X0077870Y0026638D01*
X0077752Y0026549D01*
X0077631Y0026464D01*
X0077508Y0026381D01*
X0077383Y0026302D01*
X0077256Y0026226D01*
X0077127Y0026154D01*
X0076996Y0026085D01*
X0076863Y0026020D01*
X0076728Y0025959D01*
X0076592Y0025901D01*
X0076455Y0025846D01*
X0076316Y0025796D01*
X0076175Y0025749D01*
X0076034Y0025706D01*
X0075891Y0025666D01*
X0075747Y0025631D01*
X0075603Y0025599D01*
X0075457Y0025572D01*
X0075311Y0025548D01*
X0075164Y0025528D01*
X0075017Y0025512D01*
X0074870Y0025500D01*
X0074722Y0025492D01*
X0074574Y0025488D01*
X0074426Y0025488D01*
X0074278Y0025492D01*
X0074130Y0025500D01*
X0073983Y0025512D01*
X0073836Y0025528D01*
X0073689Y0025548D01*
X0073543Y0025572D01*
X0073397Y0025599D01*
X0073253Y0025631D01*
X0073109Y0025666D01*
X0072966Y0025706D01*
X0072825Y0025749D01*
X0072684Y0025796D01*
X0072545Y0025846D01*
X0072408Y0025901D01*
X0072272Y0025959D01*
X0072137Y0026020D01*
X0072004Y0026085D01*
X0071873Y0026154D01*
X0071744Y0026226D01*
X0071617Y0026302D01*
X0071492Y0026381D01*
X0071369Y0026464D01*
X0071248Y0026549D01*
X0071130Y0026638D01*
X0071014Y0026730D01*
X0070901Y0026826D01*
X0070790Y0026924D01*
X0070682Y0027025D01*
X0070576Y0027129D01*
X0070474Y0027235D01*
X0070374Y0027345D01*
X0070278Y0027457D01*
X0070184Y0027572D01*
X0070093Y0027689D01*
X0070006Y0027808D01*
X0069922Y0027930D01*
X0069841Y0028054D01*
X0069764Y0028180D01*
X0069690Y0028308D01*
X0069619Y0028438D01*
X0069552Y0028570D01*
X0069489Y0028704D01*
X0069429Y0028839D01*
X0069373Y0028976D01*
X0069320Y0029115D01*
X0069272Y0029255D01*
X0069227Y0029396D01*
X0069186Y0029538D01*
X0069148Y0029681D01*
X0069115Y0029825D01*
X0069085Y0029970D01*
X0069059Y0030116D01*
X0069038Y0030262D01*
X0069020Y0030409D01*
X0069006Y0030556D01*
X0068996Y0030704D01*
X0068990Y0030852D01*
X0068988Y0031000D01*
X0098988Y0106000D02*
X0098990Y0106148D01*
X0098996Y0106296D01*
X0099006Y0106444D01*
X0099020Y0106591D01*
X0099038Y0106738D01*
X0099059Y0106884D01*
X0099085Y0107030D01*
X0099115Y0107175D01*
X0099148Y0107319D01*
X0099186Y0107462D01*
X0099227Y0107604D01*
X0099272Y0107745D01*
X0099320Y0107885D01*
X0099373Y0108024D01*
X0099429Y0108161D01*
X0099489Y0108296D01*
X0099552Y0108430D01*
X0099619Y0108562D01*
X0099690Y0108692D01*
X0099764Y0108820D01*
X0099841Y0108946D01*
X0099922Y0109070D01*
X0100006Y0109192D01*
X0100093Y0109311D01*
X0100184Y0109428D01*
X0100278Y0109543D01*
X0100374Y0109655D01*
X0100474Y0109765D01*
X0100576Y0109871D01*
X0100682Y0109975D01*
X0100790Y0110076D01*
X0100901Y0110174D01*
X0101014Y0110270D01*
X0101130Y0110362D01*
X0101248Y0110451D01*
X0101369Y0110536D01*
X0101492Y0110619D01*
X0101617Y0110698D01*
X0101744Y0110774D01*
X0101873Y0110846D01*
X0102004Y0110915D01*
X0102137Y0110980D01*
X0102272Y0111041D01*
X0102408Y0111099D01*
X0102545Y0111154D01*
X0102684Y0111204D01*
X0102825Y0111251D01*
X0102966Y0111294D01*
X0103109Y0111334D01*
X0103253Y0111369D01*
X0103397Y0111401D01*
X0103543Y0111428D01*
X0103689Y0111452D01*
X0103836Y0111472D01*
X0103983Y0111488D01*
X0104130Y0111500D01*
X0104278Y0111508D01*
X0104426Y0111512D01*
X0104574Y0111512D01*
X0104722Y0111508D01*
X0104870Y0111500D01*
X0105017Y0111488D01*
X0105164Y0111472D01*
X0105311Y0111452D01*
X0105457Y0111428D01*
X0105603Y0111401D01*
X0105747Y0111369D01*
X0105891Y0111334D01*
X0106034Y0111294D01*
X0106175Y0111251D01*
X0106316Y0111204D01*
X0106455Y0111154D01*
X0106592Y0111099D01*
X0106728Y0111041D01*
X0106863Y0110980D01*
X0106996Y0110915D01*
X0107127Y0110846D01*
X0107256Y0110774D01*
X0107383Y0110698D01*
X0107508Y0110619D01*
X0107631Y0110536D01*
X0107752Y0110451D01*
X0107870Y0110362D01*
X0107986Y0110270D01*
X0108099Y0110174D01*
X0108210Y0110076D01*
X0108318Y0109975D01*
X0108424Y0109871D01*
X0108526Y0109765D01*
X0108626Y0109655D01*
X0108722Y0109543D01*
X0108816Y0109428D01*
X0108907Y0109311D01*
X0108994Y0109192D01*
X0109078Y0109070D01*
X0109159Y0108946D01*
X0109236Y0108820D01*
X0109310Y0108692D01*
X0109381Y0108562D01*
X0109448Y0108430D01*
X0109511Y0108296D01*
X0109571Y0108161D01*
X0109627Y0108024D01*
X0109680Y0107885D01*
X0109728Y0107745D01*
X0109773Y0107604D01*
X0109814Y0107462D01*
X0109852Y0107319D01*
X0109885Y0107175D01*
X0109915Y0107030D01*
X0109941Y0106884D01*
X0109962Y0106738D01*
X0109980Y0106591D01*
X0109994Y0106444D01*
X0110004Y0106296D01*
X0110010Y0106148D01*
X0110012Y0106000D01*
X0110010Y0105852D01*
X0110004Y0105704D01*
X0109994Y0105556D01*
X0109980Y0105409D01*
X0109962Y0105262D01*
X0109941Y0105116D01*
X0109915Y0104970D01*
X0109885Y0104825D01*
X0109852Y0104681D01*
X0109814Y0104538D01*
X0109773Y0104396D01*
X0109728Y0104255D01*
X0109680Y0104115D01*
X0109627Y0103976D01*
X0109571Y0103839D01*
X0109511Y0103704D01*
X0109448Y0103570D01*
X0109381Y0103438D01*
X0109310Y0103308D01*
X0109236Y0103180D01*
X0109159Y0103054D01*
X0109078Y0102930D01*
X0108994Y0102808D01*
X0108907Y0102689D01*
X0108816Y0102572D01*
X0108722Y0102457D01*
X0108626Y0102345D01*
X0108526Y0102235D01*
X0108424Y0102129D01*
X0108318Y0102025D01*
X0108210Y0101924D01*
X0108099Y0101826D01*
X0107986Y0101730D01*
X0107870Y0101638D01*
X0107752Y0101549D01*
X0107631Y0101464D01*
X0107508Y0101381D01*
X0107383Y0101302D01*
X0107256Y0101226D01*
X0107127Y0101154D01*
X0106996Y0101085D01*
X0106863Y0101020D01*
X0106728Y0100959D01*
X0106592Y0100901D01*
X0106455Y0100846D01*
X0106316Y0100796D01*
X0106175Y0100749D01*
X0106034Y0100706D01*
X0105891Y0100666D01*
X0105747Y0100631D01*
X0105603Y0100599D01*
X0105457Y0100572D01*
X0105311Y0100548D01*
X0105164Y0100528D01*
X0105017Y0100512D01*
X0104870Y0100500D01*
X0104722Y0100492D01*
X0104574Y0100488D01*
X0104426Y0100488D01*
X0104278Y0100492D01*
X0104130Y0100500D01*
X0103983Y0100512D01*
X0103836Y0100528D01*
X0103689Y0100548D01*
X0103543Y0100572D01*
X0103397Y0100599D01*
X0103253Y0100631D01*
X0103109Y0100666D01*
X0102966Y0100706D01*
X0102825Y0100749D01*
X0102684Y0100796D01*
X0102545Y0100846D01*
X0102408Y0100901D01*
X0102272Y0100959D01*
X0102137Y0101020D01*
X0102004Y0101085D01*
X0101873Y0101154D01*
X0101744Y0101226D01*
X0101617Y0101302D01*
X0101492Y0101381D01*
X0101369Y0101464D01*
X0101248Y0101549D01*
X0101130Y0101638D01*
X0101014Y0101730D01*
X0100901Y0101826D01*
X0100790Y0101924D01*
X0100682Y0102025D01*
X0100576Y0102129D01*
X0100474Y0102235D01*
X0100374Y0102345D01*
X0100278Y0102457D01*
X0100184Y0102572D01*
X0100093Y0102689D01*
X0100006Y0102808D01*
X0099922Y0102930D01*
X0099841Y0103054D01*
X0099764Y0103180D01*
X0099690Y0103308D01*
X0099619Y0103438D01*
X0099552Y0103570D01*
X0099489Y0103704D01*
X0099429Y0103839D01*
X0099373Y0103976D01*
X0099320Y0104115D01*
X0099272Y0104255D01*
X0099227Y0104396D01*
X0099186Y0104538D01*
X0099148Y0104681D01*
X0099115Y0104825D01*
X0099085Y0104970D01*
X0099059Y0105116D01*
X0099038Y0105262D01*
X0099020Y0105409D01*
X0099006Y0105556D01*
X0098996Y0105704D01*
X0098990Y0105852D01*
X0098988Y0106000D01*
X0051788Y0156000D02*
X0051790Y0156148D01*
X0051796Y0156296D01*
X0051806Y0156444D01*
X0051820Y0156591D01*
X0051838Y0156738D01*
X0051859Y0156884D01*
X0051885Y0157030D01*
X0051915Y0157175D01*
X0051948Y0157319D01*
X0051986Y0157462D01*
X0052027Y0157604D01*
X0052072Y0157745D01*
X0052120Y0157885D01*
X0052173Y0158024D01*
X0052229Y0158161D01*
X0052289Y0158296D01*
X0052352Y0158430D01*
X0052419Y0158562D01*
X0052490Y0158692D01*
X0052564Y0158820D01*
X0052641Y0158946D01*
X0052722Y0159070D01*
X0052806Y0159192D01*
X0052893Y0159311D01*
X0052984Y0159428D01*
X0053078Y0159543D01*
X0053174Y0159655D01*
X0053274Y0159765D01*
X0053376Y0159871D01*
X0053482Y0159975D01*
X0053590Y0160076D01*
X0053701Y0160174D01*
X0053814Y0160270D01*
X0053930Y0160362D01*
X0054048Y0160451D01*
X0054169Y0160536D01*
X0054292Y0160619D01*
X0054417Y0160698D01*
X0054544Y0160774D01*
X0054673Y0160846D01*
X0054804Y0160915D01*
X0054937Y0160980D01*
X0055072Y0161041D01*
X0055208Y0161099D01*
X0055345Y0161154D01*
X0055484Y0161204D01*
X0055625Y0161251D01*
X0055766Y0161294D01*
X0055909Y0161334D01*
X0056053Y0161369D01*
X0056197Y0161401D01*
X0056343Y0161428D01*
X0056489Y0161452D01*
X0056636Y0161472D01*
X0056783Y0161488D01*
X0056930Y0161500D01*
X0057078Y0161508D01*
X0057226Y0161512D01*
X0057374Y0161512D01*
X0057522Y0161508D01*
X0057670Y0161500D01*
X0057817Y0161488D01*
X0057964Y0161472D01*
X0058111Y0161452D01*
X0058257Y0161428D01*
X0058403Y0161401D01*
X0058547Y0161369D01*
X0058691Y0161334D01*
X0058834Y0161294D01*
X0058975Y0161251D01*
X0059116Y0161204D01*
X0059255Y0161154D01*
X0059392Y0161099D01*
X0059528Y0161041D01*
X0059663Y0160980D01*
X0059796Y0160915D01*
X0059927Y0160846D01*
X0060056Y0160774D01*
X0060183Y0160698D01*
X0060308Y0160619D01*
X0060431Y0160536D01*
X0060552Y0160451D01*
X0060670Y0160362D01*
X0060786Y0160270D01*
X0060899Y0160174D01*
X0061010Y0160076D01*
X0061118Y0159975D01*
X0061224Y0159871D01*
X0061326Y0159765D01*
X0061426Y0159655D01*
X0061522Y0159543D01*
X0061616Y0159428D01*
X0061707Y0159311D01*
X0061794Y0159192D01*
X0061878Y0159070D01*
X0061959Y0158946D01*
X0062036Y0158820D01*
X0062110Y0158692D01*
X0062181Y0158562D01*
X0062248Y0158430D01*
X0062311Y0158296D01*
X0062371Y0158161D01*
X0062427Y0158024D01*
X0062480Y0157885D01*
X0062528Y0157745D01*
X0062573Y0157604D01*
X0062614Y0157462D01*
X0062652Y0157319D01*
X0062685Y0157175D01*
X0062715Y0157030D01*
X0062741Y0156884D01*
X0062762Y0156738D01*
X0062780Y0156591D01*
X0062794Y0156444D01*
X0062804Y0156296D01*
X0062810Y0156148D01*
X0062812Y0156000D01*
X0062810Y0155852D01*
X0062804Y0155704D01*
X0062794Y0155556D01*
X0062780Y0155409D01*
X0062762Y0155262D01*
X0062741Y0155116D01*
X0062715Y0154970D01*
X0062685Y0154825D01*
X0062652Y0154681D01*
X0062614Y0154538D01*
X0062573Y0154396D01*
X0062528Y0154255D01*
X0062480Y0154115D01*
X0062427Y0153976D01*
X0062371Y0153839D01*
X0062311Y0153704D01*
X0062248Y0153570D01*
X0062181Y0153438D01*
X0062110Y0153308D01*
X0062036Y0153180D01*
X0061959Y0153054D01*
X0061878Y0152930D01*
X0061794Y0152808D01*
X0061707Y0152689D01*
X0061616Y0152572D01*
X0061522Y0152457D01*
X0061426Y0152345D01*
X0061326Y0152235D01*
X0061224Y0152129D01*
X0061118Y0152025D01*
X0061010Y0151924D01*
X0060899Y0151826D01*
X0060786Y0151730D01*
X0060670Y0151638D01*
X0060552Y0151549D01*
X0060431Y0151464D01*
X0060308Y0151381D01*
X0060183Y0151302D01*
X0060056Y0151226D01*
X0059927Y0151154D01*
X0059796Y0151085D01*
X0059663Y0151020D01*
X0059528Y0150959D01*
X0059392Y0150901D01*
X0059255Y0150846D01*
X0059116Y0150796D01*
X0058975Y0150749D01*
X0058834Y0150706D01*
X0058691Y0150666D01*
X0058547Y0150631D01*
X0058403Y0150599D01*
X0058257Y0150572D01*
X0058111Y0150548D01*
X0057964Y0150528D01*
X0057817Y0150512D01*
X0057670Y0150500D01*
X0057522Y0150492D01*
X0057374Y0150488D01*
X0057226Y0150488D01*
X0057078Y0150492D01*
X0056930Y0150500D01*
X0056783Y0150512D01*
X0056636Y0150528D01*
X0056489Y0150548D01*
X0056343Y0150572D01*
X0056197Y0150599D01*
X0056053Y0150631D01*
X0055909Y0150666D01*
X0055766Y0150706D01*
X0055625Y0150749D01*
X0055484Y0150796D01*
X0055345Y0150846D01*
X0055208Y0150901D01*
X0055072Y0150959D01*
X0054937Y0151020D01*
X0054804Y0151085D01*
X0054673Y0151154D01*
X0054544Y0151226D01*
X0054417Y0151302D01*
X0054292Y0151381D01*
X0054169Y0151464D01*
X0054048Y0151549D01*
X0053930Y0151638D01*
X0053814Y0151730D01*
X0053701Y0151826D01*
X0053590Y0151924D01*
X0053482Y0152025D01*
X0053376Y0152129D01*
X0053274Y0152235D01*
X0053174Y0152345D01*
X0053078Y0152457D01*
X0052984Y0152572D01*
X0052893Y0152689D01*
X0052806Y0152808D01*
X0052722Y0152930D01*
X0052641Y0153054D01*
X0052564Y0153180D01*
X0052490Y0153308D01*
X0052419Y0153438D01*
X0052352Y0153570D01*
X0052289Y0153704D01*
X0052229Y0153839D01*
X0052173Y0153976D01*
X0052120Y0154115D01*
X0052072Y0154255D01*
X0052027Y0154396D01*
X0051986Y0154538D01*
X0051948Y0154681D01*
X0051915Y0154825D01*
X0051885Y0154970D01*
X0051859Y0155116D01*
X0051838Y0155262D01*
X0051820Y0155409D01*
X0051806Y0155556D01*
X0051796Y0155704D01*
X0051790Y0155852D01*
X0051788Y0156000D01*
X0020292Y0119110D02*
X0020294Y0119268D01*
X0020300Y0119426D01*
X0020310Y0119584D01*
X0020324Y0119742D01*
X0020342Y0119899D01*
X0020363Y0120056D01*
X0020389Y0120212D01*
X0020419Y0120368D01*
X0020452Y0120523D01*
X0020490Y0120676D01*
X0020531Y0120829D01*
X0020576Y0120981D01*
X0020625Y0121132D01*
X0020678Y0121281D01*
X0020734Y0121429D01*
X0020794Y0121575D01*
X0020858Y0121720D01*
X0020926Y0121863D01*
X0020997Y0122005D01*
X0021071Y0122145D01*
X0021149Y0122282D01*
X0021231Y0122418D01*
X0021315Y0122552D01*
X0021404Y0122683D01*
X0021495Y0122812D01*
X0021590Y0122939D01*
X0021687Y0123064D01*
X0021788Y0123186D01*
X0021892Y0123305D01*
X0021999Y0123422D01*
X0022109Y0123536D01*
X0022222Y0123647D01*
X0022337Y0123756D01*
X0022455Y0123861D01*
X0022576Y0123963D01*
X0022699Y0124063D01*
X0022825Y0124159D01*
X0022953Y0124252D01*
X0023083Y0124342D01*
X0023216Y0124428D01*
X0023351Y0124512D01*
X0023487Y0124591D01*
X0023626Y0124668D01*
X0023767Y0124740D01*
X0023909Y0124810D01*
X0024053Y0124875D01*
X0024199Y0124937D01*
X0024346Y0124995D01*
X0024495Y0125050D01*
X0024645Y0125101D01*
X0024796Y0125148D01*
X0024948Y0125191D01*
X0025101Y0125230D01*
X0025256Y0125266D01*
X0025411Y0125297D01*
X0025567Y0125325D01*
X0025723Y0125349D01*
X0025880Y0125369D01*
X0026038Y0125385D01*
X0026195Y0125397D01*
X0026354Y0125405D01*
X0026512Y0125409D01*
X0026670Y0125409D01*
X0026828Y0125405D01*
X0026987Y0125397D01*
X0027144Y0125385D01*
X0027302Y0125369D01*
X0027459Y0125349D01*
X0027615Y0125325D01*
X0027771Y0125297D01*
X0027926Y0125266D01*
X0028081Y0125230D01*
X0028234Y0125191D01*
X0028386Y0125148D01*
X0028537Y0125101D01*
X0028687Y0125050D01*
X0028836Y0124995D01*
X0028983Y0124937D01*
X0029129Y0124875D01*
X0029273Y0124810D01*
X0029415Y0124740D01*
X0029556Y0124668D01*
X0029695Y0124591D01*
X0029831Y0124512D01*
X0029966Y0124428D01*
X0030099Y0124342D01*
X0030229Y0124252D01*
X0030357Y0124159D01*
X0030483Y0124063D01*
X0030606Y0123963D01*
X0030727Y0123861D01*
X0030845Y0123756D01*
X0030960Y0123647D01*
X0031073Y0123536D01*
X0031183Y0123422D01*
X0031290Y0123305D01*
X0031394Y0123186D01*
X0031495Y0123064D01*
X0031592Y0122939D01*
X0031687Y0122812D01*
X0031778Y0122683D01*
X0031867Y0122552D01*
X0031951Y0122418D01*
X0032033Y0122282D01*
X0032111Y0122145D01*
X0032185Y0122005D01*
X0032256Y0121863D01*
X0032324Y0121720D01*
X0032388Y0121575D01*
X0032448Y0121429D01*
X0032504Y0121281D01*
X0032557Y0121132D01*
X0032606Y0120981D01*
X0032651Y0120829D01*
X0032692Y0120676D01*
X0032730Y0120523D01*
X0032763Y0120368D01*
X0032793Y0120212D01*
X0032819Y0120056D01*
X0032840Y0119899D01*
X0032858Y0119742D01*
X0032872Y0119584D01*
X0032882Y0119426D01*
X0032888Y0119268D01*
X0032890Y0119110D01*
X0032888Y0118952D01*
X0032882Y0118794D01*
X0032872Y0118636D01*
X0032858Y0118478D01*
X0032840Y0118321D01*
X0032819Y0118164D01*
X0032793Y0118008D01*
X0032763Y0117852D01*
X0032730Y0117697D01*
X0032692Y0117544D01*
X0032651Y0117391D01*
X0032606Y0117239D01*
X0032557Y0117088D01*
X0032504Y0116939D01*
X0032448Y0116791D01*
X0032388Y0116645D01*
X0032324Y0116500D01*
X0032256Y0116357D01*
X0032185Y0116215D01*
X0032111Y0116075D01*
X0032033Y0115938D01*
X0031951Y0115802D01*
X0031867Y0115668D01*
X0031778Y0115537D01*
X0031687Y0115408D01*
X0031592Y0115281D01*
X0031495Y0115156D01*
X0031394Y0115034D01*
X0031290Y0114915D01*
X0031183Y0114798D01*
X0031073Y0114684D01*
X0030960Y0114573D01*
X0030845Y0114464D01*
X0030727Y0114359D01*
X0030606Y0114257D01*
X0030483Y0114157D01*
X0030357Y0114061D01*
X0030229Y0113968D01*
X0030099Y0113878D01*
X0029966Y0113792D01*
X0029831Y0113708D01*
X0029695Y0113629D01*
X0029556Y0113552D01*
X0029415Y0113480D01*
X0029273Y0113410D01*
X0029129Y0113345D01*
X0028983Y0113283D01*
X0028836Y0113225D01*
X0028687Y0113170D01*
X0028537Y0113119D01*
X0028386Y0113072D01*
X0028234Y0113029D01*
X0028081Y0112990D01*
X0027926Y0112954D01*
X0027771Y0112923D01*
X0027615Y0112895D01*
X0027459Y0112871D01*
X0027302Y0112851D01*
X0027144Y0112835D01*
X0026987Y0112823D01*
X0026828Y0112815D01*
X0026670Y0112811D01*
X0026512Y0112811D01*
X0026354Y0112815D01*
X0026195Y0112823D01*
X0026038Y0112835D01*
X0025880Y0112851D01*
X0025723Y0112871D01*
X0025567Y0112895D01*
X0025411Y0112923D01*
X0025256Y0112954D01*
X0025101Y0112990D01*
X0024948Y0113029D01*
X0024796Y0113072D01*
X0024645Y0113119D01*
X0024495Y0113170D01*
X0024346Y0113225D01*
X0024199Y0113283D01*
X0024053Y0113345D01*
X0023909Y0113410D01*
X0023767Y0113480D01*
X0023626Y0113552D01*
X0023487Y0113629D01*
X0023351Y0113708D01*
X0023216Y0113792D01*
X0023083Y0113878D01*
X0022953Y0113968D01*
X0022825Y0114061D01*
X0022699Y0114157D01*
X0022576Y0114257D01*
X0022455Y0114359D01*
X0022337Y0114464D01*
X0022222Y0114573D01*
X0022109Y0114684D01*
X0021999Y0114798D01*
X0021892Y0114915D01*
X0021788Y0115034D01*
X0021687Y0115156D01*
X0021590Y0115281D01*
X0021495Y0115408D01*
X0021404Y0115537D01*
X0021315Y0115668D01*
X0021231Y0115802D01*
X0021149Y0115938D01*
X0021071Y0116075D01*
X0020997Y0116215D01*
X0020926Y0116357D01*
X0020858Y0116500D01*
X0020794Y0116645D01*
X0020734Y0116791D01*
X0020678Y0116939D01*
X0020625Y0117088D01*
X0020576Y0117239D01*
X0020531Y0117391D01*
X0020490Y0117544D01*
X0020452Y0117697D01*
X0020419Y0117852D01*
X0020389Y0118008D01*
X0020363Y0118164D01*
X0020342Y0118321D01*
X0020324Y0118478D01*
X0020310Y0118636D01*
X0020300Y0118794D01*
X0020294Y0118952D01*
X0020292Y0119110D01*
X0030134Y0201787D02*
X0030136Y0201945D01*
X0030142Y0202103D01*
X0030152Y0202261D01*
X0030166Y0202419D01*
X0030184Y0202576D01*
X0030205Y0202733D01*
X0030231Y0202889D01*
X0030261Y0203045D01*
X0030294Y0203200D01*
X0030332Y0203353D01*
X0030373Y0203506D01*
X0030418Y0203658D01*
X0030467Y0203809D01*
X0030520Y0203958D01*
X0030576Y0204106D01*
X0030636Y0204252D01*
X0030700Y0204397D01*
X0030768Y0204540D01*
X0030839Y0204682D01*
X0030913Y0204822D01*
X0030991Y0204959D01*
X0031073Y0205095D01*
X0031157Y0205229D01*
X0031246Y0205360D01*
X0031337Y0205489D01*
X0031432Y0205616D01*
X0031529Y0205741D01*
X0031630Y0205863D01*
X0031734Y0205982D01*
X0031841Y0206099D01*
X0031951Y0206213D01*
X0032064Y0206324D01*
X0032179Y0206433D01*
X0032297Y0206538D01*
X0032418Y0206640D01*
X0032541Y0206740D01*
X0032667Y0206836D01*
X0032795Y0206929D01*
X0032925Y0207019D01*
X0033058Y0207105D01*
X0033193Y0207189D01*
X0033329Y0207268D01*
X0033468Y0207345D01*
X0033609Y0207417D01*
X0033751Y0207487D01*
X0033895Y0207552D01*
X0034041Y0207614D01*
X0034188Y0207672D01*
X0034337Y0207727D01*
X0034487Y0207778D01*
X0034638Y0207825D01*
X0034790Y0207868D01*
X0034943Y0207907D01*
X0035098Y0207943D01*
X0035253Y0207974D01*
X0035409Y0208002D01*
X0035565Y0208026D01*
X0035722Y0208046D01*
X0035880Y0208062D01*
X0036037Y0208074D01*
X0036196Y0208082D01*
X0036354Y0208086D01*
X0036512Y0208086D01*
X0036670Y0208082D01*
X0036829Y0208074D01*
X0036986Y0208062D01*
X0037144Y0208046D01*
X0037301Y0208026D01*
X0037457Y0208002D01*
X0037613Y0207974D01*
X0037768Y0207943D01*
X0037923Y0207907D01*
X0038076Y0207868D01*
X0038228Y0207825D01*
X0038379Y0207778D01*
X0038529Y0207727D01*
X0038678Y0207672D01*
X0038825Y0207614D01*
X0038971Y0207552D01*
X0039115Y0207487D01*
X0039257Y0207417D01*
X0039398Y0207345D01*
X0039537Y0207268D01*
X0039673Y0207189D01*
X0039808Y0207105D01*
X0039941Y0207019D01*
X0040071Y0206929D01*
X0040199Y0206836D01*
X0040325Y0206740D01*
X0040448Y0206640D01*
X0040569Y0206538D01*
X0040687Y0206433D01*
X0040802Y0206324D01*
X0040915Y0206213D01*
X0041025Y0206099D01*
X0041132Y0205982D01*
X0041236Y0205863D01*
X0041337Y0205741D01*
X0041434Y0205616D01*
X0041529Y0205489D01*
X0041620Y0205360D01*
X0041709Y0205229D01*
X0041793Y0205095D01*
X0041875Y0204959D01*
X0041953Y0204822D01*
X0042027Y0204682D01*
X0042098Y0204540D01*
X0042166Y0204397D01*
X0042230Y0204252D01*
X0042290Y0204106D01*
X0042346Y0203958D01*
X0042399Y0203809D01*
X0042448Y0203658D01*
X0042493Y0203506D01*
X0042534Y0203353D01*
X0042572Y0203200D01*
X0042605Y0203045D01*
X0042635Y0202889D01*
X0042661Y0202733D01*
X0042682Y0202576D01*
X0042700Y0202419D01*
X0042714Y0202261D01*
X0042724Y0202103D01*
X0042730Y0201945D01*
X0042732Y0201787D01*
X0042730Y0201629D01*
X0042724Y0201471D01*
X0042714Y0201313D01*
X0042700Y0201155D01*
X0042682Y0200998D01*
X0042661Y0200841D01*
X0042635Y0200685D01*
X0042605Y0200529D01*
X0042572Y0200374D01*
X0042534Y0200221D01*
X0042493Y0200068D01*
X0042448Y0199916D01*
X0042399Y0199765D01*
X0042346Y0199616D01*
X0042290Y0199468D01*
X0042230Y0199322D01*
X0042166Y0199177D01*
X0042098Y0199034D01*
X0042027Y0198892D01*
X0041953Y0198752D01*
X0041875Y0198615D01*
X0041793Y0198479D01*
X0041709Y0198345D01*
X0041620Y0198214D01*
X0041529Y0198085D01*
X0041434Y0197958D01*
X0041337Y0197833D01*
X0041236Y0197711D01*
X0041132Y0197592D01*
X0041025Y0197475D01*
X0040915Y0197361D01*
X0040802Y0197250D01*
X0040687Y0197141D01*
X0040569Y0197036D01*
X0040448Y0196934D01*
X0040325Y0196834D01*
X0040199Y0196738D01*
X0040071Y0196645D01*
X0039941Y0196555D01*
X0039808Y0196469D01*
X0039673Y0196385D01*
X0039537Y0196306D01*
X0039398Y0196229D01*
X0039257Y0196157D01*
X0039115Y0196087D01*
X0038971Y0196022D01*
X0038825Y0195960D01*
X0038678Y0195902D01*
X0038529Y0195847D01*
X0038379Y0195796D01*
X0038228Y0195749D01*
X0038076Y0195706D01*
X0037923Y0195667D01*
X0037768Y0195631D01*
X0037613Y0195600D01*
X0037457Y0195572D01*
X0037301Y0195548D01*
X0037144Y0195528D01*
X0036986Y0195512D01*
X0036829Y0195500D01*
X0036670Y0195492D01*
X0036512Y0195488D01*
X0036354Y0195488D01*
X0036196Y0195492D01*
X0036037Y0195500D01*
X0035880Y0195512D01*
X0035722Y0195528D01*
X0035565Y0195548D01*
X0035409Y0195572D01*
X0035253Y0195600D01*
X0035098Y0195631D01*
X0034943Y0195667D01*
X0034790Y0195706D01*
X0034638Y0195749D01*
X0034487Y0195796D01*
X0034337Y0195847D01*
X0034188Y0195902D01*
X0034041Y0195960D01*
X0033895Y0196022D01*
X0033751Y0196087D01*
X0033609Y0196157D01*
X0033468Y0196229D01*
X0033329Y0196306D01*
X0033193Y0196385D01*
X0033058Y0196469D01*
X0032925Y0196555D01*
X0032795Y0196645D01*
X0032667Y0196738D01*
X0032541Y0196834D01*
X0032418Y0196934D01*
X0032297Y0197036D01*
X0032179Y0197141D01*
X0032064Y0197250D01*
X0031951Y0197361D01*
X0031841Y0197475D01*
X0031734Y0197592D01*
X0031630Y0197711D01*
X0031529Y0197833D01*
X0031432Y0197958D01*
X0031337Y0198085D01*
X0031246Y0198214D01*
X0031157Y0198345D01*
X0031073Y0198479D01*
X0030991Y0198615D01*
X0030913Y0198752D01*
X0030839Y0198892D01*
X0030768Y0199034D01*
X0030700Y0199177D01*
X0030636Y0199322D01*
X0030576Y0199468D01*
X0030520Y0199616D01*
X0030467Y0199765D01*
X0030418Y0199916D01*
X0030373Y0200068D01*
X0030332Y0200221D01*
X0030294Y0200374D01*
X0030261Y0200529D01*
X0030231Y0200685D01*
X0030205Y0200841D01*
X0030184Y0200998D01*
X0030166Y0201155D01*
X0030152Y0201313D01*
X0030142Y0201471D01*
X0030136Y0201629D01*
X0030134Y0201787D01*
X0195488Y0201787D02*
X0195490Y0201945D01*
X0195496Y0202103D01*
X0195506Y0202261D01*
X0195520Y0202419D01*
X0195538Y0202576D01*
X0195559Y0202733D01*
X0195585Y0202889D01*
X0195615Y0203045D01*
X0195648Y0203200D01*
X0195686Y0203353D01*
X0195727Y0203506D01*
X0195772Y0203658D01*
X0195821Y0203809D01*
X0195874Y0203958D01*
X0195930Y0204106D01*
X0195990Y0204252D01*
X0196054Y0204397D01*
X0196122Y0204540D01*
X0196193Y0204682D01*
X0196267Y0204822D01*
X0196345Y0204959D01*
X0196427Y0205095D01*
X0196511Y0205229D01*
X0196600Y0205360D01*
X0196691Y0205489D01*
X0196786Y0205616D01*
X0196883Y0205741D01*
X0196984Y0205863D01*
X0197088Y0205982D01*
X0197195Y0206099D01*
X0197305Y0206213D01*
X0197418Y0206324D01*
X0197533Y0206433D01*
X0197651Y0206538D01*
X0197772Y0206640D01*
X0197895Y0206740D01*
X0198021Y0206836D01*
X0198149Y0206929D01*
X0198279Y0207019D01*
X0198412Y0207105D01*
X0198547Y0207189D01*
X0198683Y0207268D01*
X0198822Y0207345D01*
X0198963Y0207417D01*
X0199105Y0207487D01*
X0199249Y0207552D01*
X0199395Y0207614D01*
X0199542Y0207672D01*
X0199691Y0207727D01*
X0199841Y0207778D01*
X0199992Y0207825D01*
X0200144Y0207868D01*
X0200297Y0207907D01*
X0200452Y0207943D01*
X0200607Y0207974D01*
X0200763Y0208002D01*
X0200919Y0208026D01*
X0201076Y0208046D01*
X0201234Y0208062D01*
X0201391Y0208074D01*
X0201550Y0208082D01*
X0201708Y0208086D01*
X0201866Y0208086D01*
X0202024Y0208082D01*
X0202183Y0208074D01*
X0202340Y0208062D01*
X0202498Y0208046D01*
X0202655Y0208026D01*
X0202811Y0208002D01*
X0202967Y0207974D01*
X0203122Y0207943D01*
X0203277Y0207907D01*
X0203430Y0207868D01*
X0203582Y0207825D01*
X0203733Y0207778D01*
X0203883Y0207727D01*
X0204032Y0207672D01*
X0204179Y0207614D01*
X0204325Y0207552D01*
X0204469Y0207487D01*
X0204611Y0207417D01*
X0204752Y0207345D01*
X0204891Y0207268D01*
X0205027Y0207189D01*
X0205162Y0207105D01*
X0205295Y0207019D01*
X0205425Y0206929D01*
X0205553Y0206836D01*
X0205679Y0206740D01*
X0205802Y0206640D01*
X0205923Y0206538D01*
X0206041Y0206433D01*
X0206156Y0206324D01*
X0206269Y0206213D01*
X0206379Y0206099D01*
X0206486Y0205982D01*
X0206590Y0205863D01*
X0206691Y0205741D01*
X0206788Y0205616D01*
X0206883Y0205489D01*
X0206974Y0205360D01*
X0207063Y0205229D01*
X0207147Y0205095D01*
X0207229Y0204959D01*
X0207307Y0204822D01*
X0207381Y0204682D01*
X0207452Y0204540D01*
X0207520Y0204397D01*
X0207584Y0204252D01*
X0207644Y0204106D01*
X0207700Y0203958D01*
X0207753Y0203809D01*
X0207802Y0203658D01*
X0207847Y0203506D01*
X0207888Y0203353D01*
X0207926Y0203200D01*
X0207959Y0203045D01*
X0207989Y0202889D01*
X0208015Y0202733D01*
X0208036Y0202576D01*
X0208054Y0202419D01*
X0208068Y0202261D01*
X0208078Y0202103D01*
X0208084Y0201945D01*
X0208086Y0201787D01*
X0208084Y0201629D01*
X0208078Y0201471D01*
X0208068Y0201313D01*
X0208054Y0201155D01*
X0208036Y0200998D01*
X0208015Y0200841D01*
X0207989Y0200685D01*
X0207959Y0200529D01*
X0207926Y0200374D01*
X0207888Y0200221D01*
X0207847Y0200068D01*
X0207802Y0199916D01*
X0207753Y0199765D01*
X0207700Y0199616D01*
X0207644Y0199468D01*
X0207584Y0199322D01*
X0207520Y0199177D01*
X0207452Y0199034D01*
X0207381Y0198892D01*
X0207307Y0198752D01*
X0207229Y0198615D01*
X0207147Y0198479D01*
X0207063Y0198345D01*
X0206974Y0198214D01*
X0206883Y0198085D01*
X0206788Y0197958D01*
X0206691Y0197833D01*
X0206590Y0197711D01*
X0206486Y0197592D01*
X0206379Y0197475D01*
X0206269Y0197361D01*
X0206156Y0197250D01*
X0206041Y0197141D01*
X0205923Y0197036D01*
X0205802Y0196934D01*
X0205679Y0196834D01*
X0205553Y0196738D01*
X0205425Y0196645D01*
X0205295Y0196555D01*
X0205162Y0196469D01*
X0205027Y0196385D01*
X0204891Y0196306D01*
X0204752Y0196229D01*
X0204611Y0196157D01*
X0204469Y0196087D01*
X0204325Y0196022D01*
X0204179Y0195960D01*
X0204032Y0195902D01*
X0203883Y0195847D01*
X0203733Y0195796D01*
X0203582Y0195749D01*
X0203430Y0195706D01*
X0203277Y0195667D01*
X0203122Y0195631D01*
X0202967Y0195600D01*
X0202811Y0195572D01*
X0202655Y0195548D01*
X0202498Y0195528D01*
X0202340Y0195512D01*
X0202183Y0195500D01*
X0202024Y0195492D01*
X0201866Y0195488D01*
X0201708Y0195488D01*
X0201550Y0195492D01*
X0201391Y0195500D01*
X0201234Y0195512D01*
X0201076Y0195528D01*
X0200919Y0195548D01*
X0200763Y0195572D01*
X0200607Y0195600D01*
X0200452Y0195631D01*
X0200297Y0195667D01*
X0200144Y0195706D01*
X0199992Y0195749D01*
X0199841Y0195796D01*
X0199691Y0195847D01*
X0199542Y0195902D01*
X0199395Y0195960D01*
X0199249Y0196022D01*
X0199105Y0196087D01*
X0198963Y0196157D01*
X0198822Y0196229D01*
X0198683Y0196306D01*
X0198547Y0196385D01*
X0198412Y0196469D01*
X0198279Y0196555D01*
X0198149Y0196645D01*
X0198021Y0196738D01*
X0197895Y0196834D01*
X0197772Y0196934D01*
X0197651Y0197036D01*
X0197533Y0197141D01*
X0197418Y0197250D01*
X0197305Y0197361D01*
X0197195Y0197475D01*
X0197088Y0197592D01*
X0196984Y0197711D01*
X0196883Y0197833D01*
X0196786Y0197958D01*
X0196691Y0198085D01*
X0196600Y0198214D01*
X0196511Y0198345D01*
X0196427Y0198479D01*
X0196345Y0198615D01*
X0196267Y0198752D01*
X0196193Y0198892D01*
X0196122Y0199034D01*
X0196054Y0199177D01*
X0195990Y0199322D01*
X0195930Y0199468D01*
X0195874Y0199616D01*
X0195821Y0199765D01*
X0195772Y0199916D01*
X0195727Y0200068D01*
X0195686Y0200221D01*
X0195648Y0200374D01*
X0195615Y0200529D01*
X0195585Y0200685D01*
X0195559Y0200841D01*
X0195538Y0200998D01*
X0195520Y0201155D01*
X0195506Y0201313D01*
X0195496Y0201471D01*
X0195490Y0201629D01*
X0195488Y0201787D01*
X0205331Y0119110D02*
X0205333Y0119268D01*
X0205339Y0119426D01*
X0205349Y0119584D01*
X0205363Y0119742D01*
X0205381Y0119899D01*
X0205402Y0120056D01*
X0205428Y0120212D01*
X0205458Y0120368D01*
X0205491Y0120523D01*
X0205529Y0120676D01*
X0205570Y0120829D01*
X0205615Y0120981D01*
X0205664Y0121132D01*
X0205717Y0121281D01*
X0205773Y0121429D01*
X0205833Y0121575D01*
X0205897Y0121720D01*
X0205965Y0121863D01*
X0206036Y0122005D01*
X0206110Y0122145D01*
X0206188Y0122282D01*
X0206270Y0122418D01*
X0206354Y0122552D01*
X0206443Y0122683D01*
X0206534Y0122812D01*
X0206629Y0122939D01*
X0206726Y0123064D01*
X0206827Y0123186D01*
X0206931Y0123305D01*
X0207038Y0123422D01*
X0207148Y0123536D01*
X0207261Y0123647D01*
X0207376Y0123756D01*
X0207494Y0123861D01*
X0207615Y0123963D01*
X0207738Y0124063D01*
X0207864Y0124159D01*
X0207992Y0124252D01*
X0208122Y0124342D01*
X0208255Y0124428D01*
X0208390Y0124512D01*
X0208526Y0124591D01*
X0208665Y0124668D01*
X0208806Y0124740D01*
X0208948Y0124810D01*
X0209092Y0124875D01*
X0209238Y0124937D01*
X0209385Y0124995D01*
X0209534Y0125050D01*
X0209684Y0125101D01*
X0209835Y0125148D01*
X0209987Y0125191D01*
X0210140Y0125230D01*
X0210295Y0125266D01*
X0210450Y0125297D01*
X0210606Y0125325D01*
X0210762Y0125349D01*
X0210919Y0125369D01*
X0211077Y0125385D01*
X0211234Y0125397D01*
X0211393Y0125405D01*
X0211551Y0125409D01*
X0211709Y0125409D01*
X0211867Y0125405D01*
X0212026Y0125397D01*
X0212183Y0125385D01*
X0212341Y0125369D01*
X0212498Y0125349D01*
X0212654Y0125325D01*
X0212810Y0125297D01*
X0212965Y0125266D01*
X0213120Y0125230D01*
X0213273Y0125191D01*
X0213425Y0125148D01*
X0213576Y0125101D01*
X0213726Y0125050D01*
X0213875Y0124995D01*
X0214022Y0124937D01*
X0214168Y0124875D01*
X0214312Y0124810D01*
X0214454Y0124740D01*
X0214595Y0124668D01*
X0214734Y0124591D01*
X0214870Y0124512D01*
X0215005Y0124428D01*
X0215138Y0124342D01*
X0215268Y0124252D01*
X0215396Y0124159D01*
X0215522Y0124063D01*
X0215645Y0123963D01*
X0215766Y0123861D01*
X0215884Y0123756D01*
X0215999Y0123647D01*
X0216112Y0123536D01*
X0216222Y0123422D01*
X0216329Y0123305D01*
X0216433Y0123186D01*
X0216534Y0123064D01*
X0216631Y0122939D01*
X0216726Y0122812D01*
X0216817Y0122683D01*
X0216906Y0122552D01*
X0216990Y0122418D01*
X0217072Y0122282D01*
X0217150Y0122145D01*
X0217224Y0122005D01*
X0217295Y0121863D01*
X0217363Y0121720D01*
X0217427Y0121575D01*
X0217487Y0121429D01*
X0217543Y0121281D01*
X0217596Y0121132D01*
X0217645Y0120981D01*
X0217690Y0120829D01*
X0217731Y0120676D01*
X0217769Y0120523D01*
X0217802Y0120368D01*
X0217832Y0120212D01*
X0217858Y0120056D01*
X0217879Y0119899D01*
X0217897Y0119742D01*
X0217911Y0119584D01*
X0217921Y0119426D01*
X0217927Y0119268D01*
X0217929Y0119110D01*
X0217927Y0118952D01*
X0217921Y0118794D01*
X0217911Y0118636D01*
X0217897Y0118478D01*
X0217879Y0118321D01*
X0217858Y0118164D01*
X0217832Y0118008D01*
X0217802Y0117852D01*
X0217769Y0117697D01*
X0217731Y0117544D01*
X0217690Y0117391D01*
X0217645Y0117239D01*
X0217596Y0117088D01*
X0217543Y0116939D01*
X0217487Y0116791D01*
X0217427Y0116645D01*
X0217363Y0116500D01*
X0217295Y0116357D01*
X0217224Y0116215D01*
X0217150Y0116075D01*
X0217072Y0115938D01*
X0216990Y0115802D01*
X0216906Y0115668D01*
X0216817Y0115537D01*
X0216726Y0115408D01*
X0216631Y0115281D01*
X0216534Y0115156D01*
X0216433Y0115034D01*
X0216329Y0114915D01*
X0216222Y0114798D01*
X0216112Y0114684D01*
X0215999Y0114573D01*
X0215884Y0114464D01*
X0215766Y0114359D01*
X0215645Y0114257D01*
X0215522Y0114157D01*
X0215396Y0114061D01*
X0215268Y0113968D01*
X0215138Y0113878D01*
X0215005Y0113792D01*
X0214870Y0113708D01*
X0214734Y0113629D01*
X0214595Y0113552D01*
X0214454Y0113480D01*
X0214312Y0113410D01*
X0214168Y0113345D01*
X0214022Y0113283D01*
X0213875Y0113225D01*
X0213726Y0113170D01*
X0213576Y0113119D01*
X0213425Y0113072D01*
X0213273Y0113029D01*
X0213120Y0112990D01*
X0212965Y0112954D01*
X0212810Y0112923D01*
X0212654Y0112895D01*
X0212498Y0112871D01*
X0212341Y0112851D01*
X0212183Y0112835D01*
X0212026Y0112823D01*
X0211867Y0112815D01*
X0211709Y0112811D01*
X0211551Y0112811D01*
X0211393Y0112815D01*
X0211234Y0112823D01*
X0211077Y0112835D01*
X0210919Y0112851D01*
X0210762Y0112871D01*
X0210606Y0112895D01*
X0210450Y0112923D01*
X0210295Y0112954D01*
X0210140Y0112990D01*
X0209987Y0113029D01*
X0209835Y0113072D01*
X0209684Y0113119D01*
X0209534Y0113170D01*
X0209385Y0113225D01*
X0209238Y0113283D01*
X0209092Y0113345D01*
X0208948Y0113410D01*
X0208806Y0113480D01*
X0208665Y0113552D01*
X0208526Y0113629D01*
X0208390Y0113708D01*
X0208255Y0113792D01*
X0208122Y0113878D01*
X0207992Y0113968D01*
X0207864Y0114061D01*
X0207738Y0114157D01*
X0207615Y0114257D01*
X0207494Y0114359D01*
X0207376Y0114464D01*
X0207261Y0114573D01*
X0207148Y0114684D01*
X0207038Y0114798D01*
X0206931Y0114915D01*
X0206827Y0115034D01*
X0206726Y0115156D01*
X0206629Y0115281D01*
X0206534Y0115408D01*
X0206443Y0115537D01*
X0206354Y0115668D01*
X0206270Y0115802D01*
X0206188Y0115938D01*
X0206110Y0116075D01*
X0206036Y0116215D01*
X0205965Y0116357D01*
X0205897Y0116500D01*
X0205833Y0116645D01*
X0205773Y0116791D01*
X0205717Y0116939D01*
X0205664Y0117088D01*
X0205615Y0117239D01*
X0205570Y0117391D01*
X0205529Y0117544D01*
X0205491Y0117697D01*
X0205458Y0117852D01*
X0205428Y0118008D01*
X0205402Y0118164D01*
X0205381Y0118321D01*
X0205363Y0118478D01*
X0205349Y0118636D01*
X0205339Y0118794D01*
X0205333Y0118952D01*
X0205331Y0119110D01*
X0211988Y0081000D02*
X0211990Y0081148D01*
X0211996Y0081296D01*
X0212006Y0081444D01*
X0212020Y0081591D01*
X0212038Y0081738D01*
X0212059Y0081884D01*
X0212085Y0082030D01*
X0212115Y0082175D01*
X0212148Y0082319D01*
X0212186Y0082462D01*
X0212227Y0082604D01*
X0212272Y0082745D01*
X0212320Y0082885D01*
X0212373Y0083024D01*
X0212429Y0083161D01*
X0212489Y0083296D01*
X0212552Y0083430D01*
X0212619Y0083562D01*
X0212690Y0083692D01*
X0212764Y0083820D01*
X0212841Y0083946D01*
X0212922Y0084070D01*
X0213006Y0084192D01*
X0213093Y0084311D01*
X0213184Y0084428D01*
X0213278Y0084543D01*
X0213374Y0084655D01*
X0213474Y0084765D01*
X0213576Y0084871D01*
X0213682Y0084975D01*
X0213790Y0085076D01*
X0213901Y0085174D01*
X0214014Y0085270D01*
X0214130Y0085362D01*
X0214248Y0085451D01*
X0214369Y0085536D01*
X0214492Y0085619D01*
X0214617Y0085698D01*
X0214744Y0085774D01*
X0214873Y0085846D01*
X0215004Y0085915D01*
X0215137Y0085980D01*
X0215272Y0086041D01*
X0215408Y0086099D01*
X0215545Y0086154D01*
X0215684Y0086204D01*
X0215825Y0086251D01*
X0215966Y0086294D01*
X0216109Y0086334D01*
X0216253Y0086369D01*
X0216397Y0086401D01*
X0216543Y0086428D01*
X0216689Y0086452D01*
X0216836Y0086472D01*
X0216983Y0086488D01*
X0217130Y0086500D01*
X0217278Y0086508D01*
X0217426Y0086512D01*
X0217574Y0086512D01*
X0217722Y0086508D01*
X0217870Y0086500D01*
X0218017Y0086488D01*
X0218164Y0086472D01*
X0218311Y0086452D01*
X0218457Y0086428D01*
X0218603Y0086401D01*
X0218747Y0086369D01*
X0218891Y0086334D01*
X0219034Y0086294D01*
X0219175Y0086251D01*
X0219316Y0086204D01*
X0219455Y0086154D01*
X0219592Y0086099D01*
X0219728Y0086041D01*
X0219863Y0085980D01*
X0219996Y0085915D01*
X0220127Y0085846D01*
X0220256Y0085774D01*
X0220383Y0085698D01*
X0220508Y0085619D01*
X0220631Y0085536D01*
X0220752Y0085451D01*
X0220870Y0085362D01*
X0220986Y0085270D01*
X0221099Y0085174D01*
X0221210Y0085076D01*
X0221318Y0084975D01*
X0221424Y0084871D01*
X0221526Y0084765D01*
X0221626Y0084655D01*
X0221722Y0084543D01*
X0221816Y0084428D01*
X0221907Y0084311D01*
X0221994Y0084192D01*
X0222078Y0084070D01*
X0222159Y0083946D01*
X0222236Y0083820D01*
X0222310Y0083692D01*
X0222381Y0083562D01*
X0222448Y0083430D01*
X0222511Y0083296D01*
X0222571Y0083161D01*
X0222627Y0083024D01*
X0222680Y0082885D01*
X0222728Y0082745D01*
X0222773Y0082604D01*
X0222814Y0082462D01*
X0222852Y0082319D01*
X0222885Y0082175D01*
X0222915Y0082030D01*
X0222941Y0081884D01*
X0222962Y0081738D01*
X0222980Y0081591D01*
X0222994Y0081444D01*
X0223004Y0081296D01*
X0223010Y0081148D01*
X0223012Y0081000D01*
X0223010Y0080852D01*
X0223004Y0080704D01*
X0222994Y0080556D01*
X0222980Y0080409D01*
X0222962Y0080262D01*
X0222941Y0080116D01*
X0222915Y0079970D01*
X0222885Y0079825D01*
X0222852Y0079681D01*
X0222814Y0079538D01*
X0222773Y0079396D01*
X0222728Y0079255D01*
X0222680Y0079115D01*
X0222627Y0078976D01*
X0222571Y0078839D01*
X0222511Y0078704D01*
X0222448Y0078570D01*
X0222381Y0078438D01*
X0222310Y0078308D01*
X0222236Y0078180D01*
X0222159Y0078054D01*
X0222078Y0077930D01*
X0221994Y0077808D01*
X0221907Y0077689D01*
X0221816Y0077572D01*
X0221722Y0077457D01*
X0221626Y0077345D01*
X0221526Y0077235D01*
X0221424Y0077129D01*
X0221318Y0077025D01*
X0221210Y0076924D01*
X0221099Y0076826D01*
X0220986Y0076730D01*
X0220870Y0076638D01*
X0220752Y0076549D01*
X0220631Y0076464D01*
X0220508Y0076381D01*
X0220383Y0076302D01*
X0220256Y0076226D01*
X0220127Y0076154D01*
X0219996Y0076085D01*
X0219863Y0076020D01*
X0219728Y0075959D01*
X0219592Y0075901D01*
X0219455Y0075846D01*
X0219316Y0075796D01*
X0219175Y0075749D01*
X0219034Y0075706D01*
X0218891Y0075666D01*
X0218747Y0075631D01*
X0218603Y0075599D01*
X0218457Y0075572D01*
X0218311Y0075548D01*
X0218164Y0075528D01*
X0218017Y0075512D01*
X0217870Y0075500D01*
X0217722Y0075492D01*
X0217574Y0075488D01*
X0217426Y0075488D01*
X0217278Y0075492D01*
X0217130Y0075500D01*
X0216983Y0075512D01*
X0216836Y0075528D01*
X0216689Y0075548D01*
X0216543Y0075572D01*
X0216397Y0075599D01*
X0216253Y0075631D01*
X0216109Y0075666D01*
X0215966Y0075706D01*
X0215825Y0075749D01*
X0215684Y0075796D01*
X0215545Y0075846D01*
X0215408Y0075901D01*
X0215272Y0075959D01*
X0215137Y0076020D01*
X0215004Y0076085D01*
X0214873Y0076154D01*
X0214744Y0076226D01*
X0214617Y0076302D01*
X0214492Y0076381D01*
X0214369Y0076464D01*
X0214248Y0076549D01*
X0214130Y0076638D01*
X0214014Y0076730D01*
X0213901Y0076826D01*
X0213790Y0076924D01*
X0213682Y0077025D01*
X0213576Y0077129D01*
X0213474Y0077235D01*
X0213374Y0077345D01*
X0213278Y0077457D01*
X0213184Y0077572D01*
X0213093Y0077689D01*
X0213006Y0077808D01*
X0212922Y0077930D01*
X0212841Y0078054D01*
X0212764Y0078180D01*
X0212690Y0078308D01*
X0212619Y0078438D01*
X0212552Y0078570D01*
X0212489Y0078704D01*
X0212429Y0078839D01*
X0212373Y0078976D01*
X0212320Y0079115D01*
X0212272Y0079255D01*
X0212227Y0079396D01*
X0212186Y0079538D01*
X0212148Y0079681D01*
X0212115Y0079825D01*
X0212085Y0079970D01*
X0212059Y0080116D01*
X0212038Y0080262D01*
X0212020Y0080409D01*
X0212006Y0080556D01*
X0211996Y0080704D01*
X0211990Y0080852D01*
X0211988Y0081000D01*
X0195488Y0036433D02*
X0195490Y0036591D01*
X0195496Y0036749D01*
X0195506Y0036907D01*
X0195520Y0037065D01*
X0195538Y0037222D01*
X0195559Y0037379D01*
X0195585Y0037535D01*
X0195615Y0037691D01*
X0195648Y0037846D01*
X0195686Y0037999D01*
X0195727Y0038152D01*
X0195772Y0038304D01*
X0195821Y0038455D01*
X0195874Y0038604D01*
X0195930Y0038752D01*
X0195990Y0038898D01*
X0196054Y0039043D01*
X0196122Y0039186D01*
X0196193Y0039328D01*
X0196267Y0039468D01*
X0196345Y0039605D01*
X0196427Y0039741D01*
X0196511Y0039875D01*
X0196600Y0040006D01*
X0196691Y0040135D01*
X0196786Y0040262D01*
X0196883Y0040387D01*
X0196984Y0040509D01*
X0197088Y0040628D01*
X0197195Y0040745D01*
X0197305Y0040859D01*
X0197418Y0040970D01*
X0197533Y0041079D01*
X0197651Y0041184D01*
X0197772Y0041286D01*
X0197895Y0041386D01*
X0198021Y0041482D01*
X0198149Y0041575D01*
X0198279Y0041665D01*
X0198412Y0041751D01*
X0198547Y0041835D01*
X0198683Y0041914D01*
X0198822Y0041991D01*
X0198963Y0042063D01*
X0199105Y0042133D01*
X0199249Y0042198D01*
X0199395Y0042260D01*
X0199542Y0042318D01*
X0199691Y0042373D01*
X0199841Y0042424D01*
X0199992Y0042471D01*
X0200144Y0042514D01*
X0200297Y0042553D01*
X0200452Y0042589D01*
X0200607Y0042620D01*
X0200763Y0042648D01*
X0200919Y0042672D01*
X0201076Y0042692D01*
X0201234Y0042708D01*
X0201391Y0042720D01*
X0201550Y0042728D01*
X0201708Y0042732D01*
X0201866Y0042732D01*
X0202024Y0042728D01*
X0202183Y0042720D01*
X0202340Y0042708D01*
X0202498Y0042692D01*
X0202655Y0042672D01*
X0202811Y0042648D01*
X0202967Y0042620D01*
X0203122Y0042589D01*
X0203277Y0042553D01*
X0203430Y0042514D01*
X0203582Y0042471D01*
X0203733Y0042424D01*
X0203883Y0042373D01*
X0204032Y0042318D01*
X0204179Y0042260D01*
X0204325Y0042198D01*
X0204469Y0042133D01*
X0204611Y0042063D01*
X0204752Y0041991D01*
X0204891Y0041914D01*
X0205027Y0041835D01*
X0205162Y0041751D01*
X0205295Y0041665D01*
X0205425Y0041575D01*
X0205553Y0041482D01*
X0205679Y0041386D01*
X0205802Y0041286D01*
X0205923Y0041184D01*
X0206041Y0041079D01*
X0206156Y0040970D01*
X0206269Y0040859D01*
X0206379Y0040745D01*
X0206486Y0040628D01*
X0206590Y0040509D01*
X0206691Y0040387D01*
X0206788Y0040262D01*
X0206883Y0040135D01*
X0206974Y0040006D01*
X0207063Y0039875D01*
X0207147Y0039741D01*
X0207229Y0039605D01*
X0207307Y0039468D01*
X0207381Y0039328D01*
X0207452Y0039186D01*
X0207520Y0039043D01*
X0207584Y0038898D01*
X0207644Y0038752D01*
X0207700Y0038604D01*
X0207753Y0038455D01*
X0207802Y0038304D01*
X0207847Y0038152D01*
X0207888Y0037999D01*
X0207926Y0037846D01*
X0207959Y0037691D01*
X0207989Y0037535D01*
X0208015Y0037379D01*
X0208036Y0037222D01*
X0208054Y0037065D01*
X0208068Y0036907D01*
X0208078Y0036749D01*
X0208084Y0036591D01*
X0208086Y0036433D01*
X0208084Y0036275D01*
X0208078Y0036117D01*
X0208068Y0035959D01*
X0208054Y0035801D01*
X0208036Y0035644D01*
X0208015Y0035487D01*
X0207989Y0035331D01*
X0207959Y0035175D01*
X0207926Y0035020D01*
X0207888Y0034867D01*
X0207847Y0034714D01*
X0207802Y0034562D01*
X0207753Y0034411D01*
X0207700Y0034262D01*
X0207644Y0034114D01*
X0207584Y0033968D01*
X0207520Y0033823D01*
X0207452Y0033680D01*
X0207381Y0033538D01*
X0207307Y0033398D01*
X0207229Y0033261D01*
X0207147Y0033125D01*
X0207063Y0032991D01*
X0206974Y0032860D01*
X0206883Y0032731D01*
X0206788Y0032604D01*
X0206691Y0032479D01*
X0206590Y0032357D01*
X0206486Y0032238D01*
X0206379Y0032121D01*
X0206269Y0032007D01*
X0206156Y0031896D01*
X0206041Y0031787D01*
X0205923Y0031682D01*
X0205802Y0031580D01*
X0205679Y0031480D01*
X0205553Y0031384D01*
X0205425Y0031291D01*
X0205295Y0031201D01*
X0205162Y0031115D01*
X0205027Y0031031D01*
X0204891Y0030952D01*
X0204752Y0030875D01*
X0204611Y0030803D01*
X0204469Y0030733D01*
X0204325Y0030668D01*
X0204179Y0030606D01*
X0204032Y0030548D01*
X0203883Y0030493D01*
X0203733Y0030442D01*
X0203582Y0030395D01*
X0203430Y0030352D01*
X0203277Y0030313D01*
X0203122Y0030277D01*
X0202967Y0030246D01*
X0202811Y0030218D01*
X0202655Y0030194D01*
X0202498Y0030174D01*
X0202340Y0030158D01*
X0202183Y0030146D01*
X0202024Y0030138D01*
X0201866Y0030134D01*
X0201708Y0030134D01*
X0201550Y0030138D01*
X0201391Y0030146D01*
X0201234Y0030158D01*
X0201076Y0030174D01*
X0200919Y0030194D01*
X0200763Y0030218D01*
X0200607Y0030246D01*
X0200452Y0030277D01*
X0200297Y0030313D01*
X0200144Y0030352D01*
X0199992Y0030395D01*
X0199841Y0030442D01*
X0199691Y0030493D01*
X0199542Y0030548D01*
X0199395Y0030606D01*
X0199249Y0030668D01*
X0199105Y0030733D01*
X0198963Y0030803D01*
X0198822Y0030875D01*
X0198683Y0030952D01*
X0198547Y0031031D01*
X0198412Y0031115D01*
X0198279Y0031201D01*
X0198149Y0031291D01*
X0198021Y0031384D01*
X0197895Y0031480D01*
X0197772Y0031580D01*
X0197651Y0031682D01*
X0197533Y0031787D01*
X0197418Y0031896D01*
X0197305Y0032007D01*
X0197195Y0032121D01*
X0197088Y0032238D01*
X0196984Y0032357D01*
X0196883Y0032479D01*
X0196786Y0032604D01*
X0196691Y0032731D01*
X0196600Y0032860D01*
X0196511Y0032991D01*
X0196427Y0033125D01*
X0196345Y0033261D01*
X0196267Y0033398D01*
X0196193Y0033538D01*
X0196122Y0033680D01*
X0196054Y0033823D01*
X0195990Y0033968D01*
X0195930Y0034114D01*
X0195874Y0034262D01*
X0195821Y0034411D01*
X0195772Y0034562D01*
X0195727Y0034714D01*
X0195686Y0034867D01*
X0195648Y0035020D01*
X0195615Y0035175D01*
X0195585Y0035331D01*
X0195559Y0035487D01*
X0195538Y0035644D01*
X0195520Y0035801D01*
X0195506Y0035959D01*
X0195496Y0036117D01*
X0195490Y0036275D01*
X0195488Y0036433D01*
D11*
X0036591Y0222700D02*
X0036591Y0228305D01*
X0039393Y0228305D01*
X0040328Y0227371D01*
X0040328Y0225502D01*
X0039393Y0224568D01*
X0036591Y0224568D01*
X0033882Y0223634D02*
X0033882Y0227371D01*
X0032948Y0228305D01*
X0031080Y0228305D01*
X0030145Y0227371D01*
X0030145Y0223634D01*
X0031080Y0222700D01*
X0032948Y0222700D01*
X0033882Y0223634D01*
X0027437Y0228305D02*
X0023700Y0228305D01*
X0025568Y0228305D02*
X0025568Y0222700D01*
D12*
X0076000Y0139740D03*
X0076000Y0132260D03*
D13*
X0171000Y0158000D02*
X0171000Y0164000D01*
X0181000Y0164000D02*
X0181000Y0158000D01*
X0191000Y0158000D02*
X0191000Y0164000D01*
X0201000Y0164000D02*
X0201000Y0158000D01*
X0211000Y0158000D02*
X0211000Y0164000D01*
D14*
X0191000Y0138559D03*
X0191000Y0133441D03*
X0181000Y0133441D03*
X0181000Y0138559D03*
X0171000Y0138559D03*
X0171000Y0133441D03*
X0086000Y0056059D03*
X0086000Y0050941D03*
X0046000Y0088441D03*
X0046000Y0093559D03*
X0081000Y0158441D03*
X0081000Y0163559D03*
D15*
X0075559Y0156000D03*
X0070441Y0156000D03*
X0068441Y0166000D03*
X0073559Y0166000D03*
X0071441Y0123500D03*
X0076559Y0123500D03*
X0073559Y0111000D03*
X0068441Y0111000D03*
X0093441Y0091000D03*
X0093441Y0086000D03*
X0098559Y0086000D03*
X0098559Y0091000D03*
X0108441Y0091000D03*
X0108441Y0086000D03*
X0113559Y0086000D03*
X0113559Y0091000D03*
X0113559Y0071000D03*
X0108441Y0071000D03*
X0098559Y0071000D03*
X0093441Y0071000D03*
X0043559Y0081000D03*
X0038441Y0081000D03*
X0165941Y0071000D03*
X0165941Y0066000D03*
X0171059Y0066000D03*
X0171059Y0071000D03*
D16*
X0198126Y0142850D03*
X0198126Y0149150D03*
X0213874Y0149150D03*
X0213874Y0142850D03*
X0079150Y0173126D03*
X0072850Y0173126D03*
X0072850Y0188874D03*
X0079150Y0188874D03*
X0038874Y0094150D03*
X0038874Y0087850D03*
X0023126Y0087850D03*
X0023126Y0094150D03*
D17*
X0093323Y0133717D03*
X0093323Y0141591D03*
X0093323Y0149465D03*
X0093323Y0157339D03*
X0093323Y0165213D03*
X0093323Y0173087D03*
X0093323Y0180961D03*
X0093323Y0188835D03*
X0157890Y0188835D03*
X0157890Y0180961D03*
X0157890Y0173087D03*
X0157890Y0165213D03*
X0157890Y0157339D03*
X0157890Y0149465D03*
X0157890Y0141591D03*
X0157890Y0133717D03*
D18*
X0146472Y0125449D03*
X0138598Y0125449D03*
X0130724Y0125449D03*
X0122850Y0125449D03*
X0114976Y0125449D03*
X0107102Y0125449D03*
D19*
X0113500Y0111000D03*
X0123500Y0111000D03*
X0118500Y0101000D03*
X0128500Y0101000D03*
X0133500Y0111000D03*
X0143500Y0111000D03*
X0153500Y0111000D03*
X0163500Y0111000D03*
X0173500Y0111000D03*
X0168500Y0101000D03*
X0158500Y0101000D03*
X0148500Y0101000D03*
X0138500Y0101000D03*
X0178500Y0101000D03*
X0188500Y0086000D03*
X0198500Y0086000D03*
X0208500Y0086000D03*
X0203500Y0076000D03*
X0193500Y0076000D03*
X0183500Y0076000D03*
X0153500Y0036000D03*
X0143500Y0036000D03*
X0133500Y0036000D03*
X0123500Y0036000D03*
X0113500Y0036000D03*
X0103500Y0036000D03*
X0093500Y0036000D03*
X0083500Y0036000D03*
X0088500Y0026000D03*
X0098500Y0026000D03*
X0108500Y0026000D03*
X0118500Y0026000D03*
X0128500Y0026000D03*
X0138500Y0026000D03*
X0148500Y0026000D03*
X0158500Y0026000D03*
X0043500Y0151000D03*
X0033500Y0151000D03*
X0038500Y0161000D03*
X0048500Y0161000D03*
D20*
X0123500Y0084110D03*
X0128500Y0084110D03*
X0133500Y0084110D03*
X0138500Y0084110D03*
X0143500Y0084110D03*
X0148500Y0084110D03*
X0153500Y0084110D03*
X0158500Y0084110D03*
X0158500Y0047890D03*
X0153500Y0047890D03*
X0148500Y0047890D03*
X0143500Y0047890D03*
X0138500Y0047890D03*
X0133500Y0047890D03*
X0128500Y0047890D03*
X0123500Y0047890D03*
D21*
X0028953Y0081000D03*
X0023047Y0081000D03*
D22*
X0086000Y0121000D03*
X0091000Y0113500D03*
X0096000Y0121000D03*
D23*
X0080600Y0101000D03*
X0080600Y0096000D03*
X0080600Y0091000D03*
X0080600Y0086000D03*
X0080600Y0081000D03*
X0080600Y0076000D03*
X0080600Y0071000D03*
X0056400Y0071000D03*
X0056400Y0076000D03*
X0056400Y0081000D03*
X0056400Y0086000D03*
X0056400Y0091000D03*
X0056400Y0096000D03*
X0056400Y0101000D03*
D24*
X0072260Y0060331D03*
X0079740Y0060331D03*
X0076000Y0051669D03*
D25*
X0098000Y0050700D03*
X0103000Y0050700D03*
X0108000Y0050700D03*
X0108000Y0063300D03*
X0103000Y0063300D03*
X0098000Y0063300D03*
D26*
X0103000Y0063300D02*
X0103000Y0066000D01*
X0102000Y0067000D01*
X0103500Y0071000D02*
X0098559Y0071000D01*
X0103500Y0071000D02*
X0108441Y0071000D01*
X0106000Y0078000D02*
X0110000Y0082000D01*
X0108441Y0086000D02*
X0103500Y0086000D01*
X0098559Y0086000D01*
X0098559Y0091000D02*
X0103500Y0091000D01*
X0108441Y0091000D01*
X0110000Y0098000D02*
X0101000Y0098000D01*
X0098000Y0101000D01*
X0093500Y0101000D01*
X0091000Y0098500D01*
X0091000Y0083500D01*
X0088500Y0081000D01*
X0080600Y0081000D01*
X0080600Y0076000D01*
X0080600Y0071000D02*
X0083100Y0071000D01*
X0091000Y0063100D01*
X0091000Y0048500D01*
X0088500Y0046000D01*
X0086000Y0043500D02*
X0088500Y0041000D01*
X0088500Y0026000D01*
X0086000Y0043500D02*
X0076000Y0043500D01*
X0072260Y0047240D01*
X0072260Y0060331D01*
X0069569Y0060331D01*
X0064950Y0064950D01*
X0066000Y0066000D01*
X0063900Y0066000D01*
X0064950Y0064950D02*
X0058900Y0071000D01*
X0056400Y0071000D01*
X0056400Y0076000D02*
X0063500Y0076000D01*
X0076000Y0063500D01*
X0076000Y0051669D01*
X0076669Y0051000D01*
X0085941Y0051000D01*
X0086000Y0050941D01*
X0079740Y0060331D02*
X0079740Y0064760D01*
X0073500Y0071000D01*
X0073500Y0088500D01*
X0076000Y0091000D01*
X0080600Y0091000D01*
X0086000Y0091000D01*
X0086000Y0103500D01*
X0101000Y0118500D01*
X0101000Y0136000D01*
X0108500Y0143500D01*
X0111000Y0141000D02*
X0111000Y0176000D01*
X0106039Y0180961D01*
X0093323Y0180961D01*
X0093736Y0173500D02*
X0093323Y0173087D01*
X0093736Y0173500D02*
X0101000Y0173500D01*
X0106000Y0168500D01*
X0103500Y0158500D02*
X0102339Y0157339D01*
X0093323Y0157339D01*
X0093323Y0165213D02*
X0082654Y0165213D01*
X0081000Y0163559D01*
X0081000Y0158441D02*
X0076000Y0158441D01*
X0075559Y0158000D01*
X0075559Y0156000D01*
X0075559Y0164000D01*
X0073559Y0166000D01*
X0079150Y0171591D01*
X0079150Y0173126D01*
X0079150Y0188874D01*
X0079189Y0188835D01*
X0093323Y0188835D01*
X0072850Y0188874D02*
X0072850Y0173126D01*
X0068126Y0173126D01*
X0063500Y0168500D01*
X0051000Y0168500D01*
X0048500Y0166000D01*
X0041000Y0166000D01*
X0038500Y0163500D01*
X0038500Y0161000D01*
X0038500Y0156000D01*
X0033500Y0151000D01*
X0043500Y0151000D02*
X0046000Y0151000D01*
X0056000Y0141000D01*
X0056000Y0131000D01*
X0061000Y0131000D02*
X0061000Y0126000D01*
X0033500Y0098500D01*
X0021000Y0098500D01*
X0018500Y0096000D01*
X0018500Y0086000D01*
X0023047Y0081453D01*
X0023047Y0081000D01*
X0023126Y0087850D02*
X0038874Y0087850D01*
X0034150Y0087850D01*
X0031000Y0091000D01*
X0036000Y0096000D02*
X0024976Y0096000D01*
X0023126Y0094150D01*
X0028953Y0081000D02*
X0038441Y0081000D01*
X0043559Y0081000D02*
X0043559Y0081059D01*
X0046000Y0093559D02*
X0046000Y0108500D01*
X0066000Y0128500D01*
X0076000Y0131000D02*
X0076000Y0132260D01*
X0076000Y0139740D02*
X0076000Y0143500D01*
X0073500Y0146000D01*
X0073000Y0151000D02*
X0070441Y0153559D01*
X0070441Y0156000D01*
X0073000Y0151000D02*
X0081000Y0151000D01*
X0083500Y0153500D01*
X0108500Y0153500D01*
X0107535Y0149465D02*
X0093323Y0149465D01*
X0093323Y0141591D02*
X0092732Y0141000D01*
X0083500Y0141000D01*
X0081000Y0143500D01*
X0081000Y0146000D01*
X0093323Y0133717D02*
X0091866Y0132260D01*
X0081500Y0123000D02*
X0083559Y0121000D01*
X0086000Y0121000D01*
X0081500Y0123000D02*
X0081000Y0123500D01*
X0076559Y0123500D01*
X0068500Y0116000D02*
X0068500Y0111059D01*
X0068441Y0111000D01*
X0068500Y0116000D02*
X0063500Y0116000D01*
X0058500Y0111000D01*
X0053500Y0111000D01*
X0068500Y0116000D02*
X0086000Y0116000D01*
X0091000Y0121000D01*
X0096000Y0121000D01*
X0103500Y0118500D02*
X0106000Y0116000D01*
X0116000Y0116000D01*
X0118000Y0114000D01*
X0118000Y0106000D01*
X0110000Y0098000D01*
X0118500Y0098500D02*
X0123500Y0093500D01*
X0123500Y0084110D01*
X0128500Y0084110D02*
X0128500Y0093500D01*
X0123500Y0098500D01*
X0123500Y0111000D01*
X0120000Y0114000D02*
X0122000Y0116000D01*
X0125000Y0116000D01*
X0127000Y0118000D01*
X0127000Y0133500D01*
X0127000Y0147000D01*
X0131000Y0151000D01*
X0118500Y0143500D02*
X0118500Y0138500D01*
X0118500Y0143500D02*
X0140213Y0165213D01*
X0157890Y0165213D01*
X0157890Y0173087D02*
X0145587Y0173087D01*
X0113000Y0140500D01*
X0113000Y0135000D01*
X0111000Y0141000D02*
X0103500Y0133500D01*
X0103500Y0118500D01*
X0095500Y0108500D02*
X0088500Y0101500D01*
X0088500Y0088500D01*
X0086000Y0086000D01*
X0080600Y0086000D01*
X0093441Y0086000D02*
X0093441Y0071000D01*
X0093500Y0070941D01*
X0093500Y0066000D01*
X0098000Y0078000D02*
X0106000Y0078000D01*
X0093441Y0086000D02*
X0093441Y0091000D01*
X0083500Y0101400D02*
X0080600Y0101000D01*
X0073500Y0101000D01*
X0073500Y0106000D02*
X0073559Y0106059D01*
X0046000Y0093559D02*
X0045291Y0094150D01*
X0038874Y0094150D01*
X0037850Y0094150D01*
X0036000Y0096000D01*
X0107535Y0149465D02*
X0108500Y0148500D01*
X0127000Y0133500D02*
X0157673Y0133500D01*
X0157890Y0133717D01*
X0158500Y0133106D01*
X0158500Y0123500D01*
X0148500Y0113500D01*
X0148500Y0106000D01*
X0148500Y0101000D02*
X0148500Y0098500D01*
X0143500Y0093500D01*
X0143500Y0084110D01*
X0138500Y0084110D02*
X0138500Y0101000D01*
X0138500Y0106000D02*
X0138500Y0113500D01*
X0141000Y0116000D01*
X0148500Y0116000D01*
X0153500Y0121000D01*
X0153500Y0123500D01*
X0157890Y0133717D02*
X0170724Y0133717D01*
X0171000Y0133441D01*
X0171000Y0128500D01*
X0176000Y0128500D02*
X0171000Y0123500D01*
X0173500Y0118500D02*
X0181000Y0126000D01*
X0181000Y0133441D01*
X0181000Y0138559D02*
X0181000Y0148500D01*
X0171000Y0158500D01*
X0171000Y0161000D01*
X0171000Y0168500D01*
X0166000Y0173500D01*
X0166000Y0178500D01*
X0163500Y0181000D01*
X0157929Y0181000D01*
X0157890Y0180961D01*
X0158224Y0188500D02*
X0157890Y0188835D01*
X0158224Y0188500D02*
X0166000Y0188500D01*
X0168500Y0186000D01*
X0168500Y0176000D01*
X0176000Y0168500D01*
X0183500Y0168500D01*
X0191000Y0161000D01*
X0191000Y0158500D01*
X0188500Y0156000D01*
X0188500Y0146000D01*
X0191000Y0143500D01*
X0191000Y0138559D01*
X0191000Y0133441D02*
X0191000Y0131000D01*
X0178500Y0118500D01*
X0178500Y0101000D01*
X0178500Y0096000D01*
X0174500Y0092000D01*
X0174500Y0064500D01*
X0164000Y0054000D01*
X0164000Y0031500D01*
X0158500Y0026000D01*
X0157000Y0030000D02*
X0159500Y0032500D01*
X0159500Y0039500D01*
X0157000Y0042000D01*
X0154500Y0042000D01*
X0153500Y0043000D01*
X0153500Y0047890D01*
X0153500Y0053500D01*
X0156059Y0056059D01*
X0156059Y0056118D01*
X0165941Y0066000D01*
X0165941Y0071000D02*
X0163500Y0071000D01*
X0148500Y0056000D01*
X0148500Y0047890D01*
X0148500Y0042500D01*
X0151000Y0040000D01*
X0155500Y0040000D01*
X0157500Y0038000D01*
X0157500Y0034000D01*
X0155500Y0032000D01*
X0121000Y0032000D01*
X0119500Y0033500D01*
X0119500Y0057000D01*
X0123500Y0061000D01*
X0123500Y0070000D01*
X0121000Y0073500D02*
X0121000Y0061000D01*
X0117500Y0057500D01*
X0117500Y0032500D01*
X0120000Y0030000D01*
X0157000Y0030000D01*
X0153500Y0036000D02*
X0151000Y0036000D01*
X0146000Y0041000D01*
X0146000Y0056000D01*
X0161000Y0071000D01*
X0161000Y0091000D01*
X0166000Y0096000D01*
X0171000Y0096000D01*
X0173500Y0098500D01*
X0173500Y0111000D01*
X0173500Y0118500D01*
X0176000Y0128500D02*
X0176000Y0141000D01*
X0171000Y0146000D01*
X0161354Y0146000D01*
X0157890Y0149465D01*
X0157890Y0141591D02*
X0149091Y0141591D01*
X0148500Y0141000D01*
X0157890Y0141591D02*
X0158480Y0141000D01*
X0168500Y0141000D01*
X0170941Y0138559D01*
X0171000Y0138559D01*
X0168500Y0151000D02*
X0162161Y0157339D01*
X0157890Y0157339D01*
X0193500Y0151000D02*
X0193500Y0146000D01*
X0196000Y0143500D01*
X0197476Y0143500D01*
X0198126Y0142850D01*
X0206000Y0142850D01*
X0213874Y0142850D01*
X0213874Y0149150D02*
X0198126Y0149150D01*
X0198126Y0158126D01*
X0201000Y0161000D01*
X0163500Y0111000D02*
X0163500Y0098500D01*
X0161000Y0096000D01*
X0158500Y0096000D01*
X0156000Y0093500D01*
X0156000Y0073500D01*
X0141000Y0058500D01*
X0141000Y0041000D01*
X0143500Y0038500D01*
X0143500Y0036000D01*
X0138500Y0041000D02*
X0133500Y0041000D01*
X0131000Y0043500D01*
X0131000Y0056000D01*
X0143500Y0068500D01*
X0143500Y0076000D01*
X0148500Y0073500D02*
X0148500Y0084110D01*
X0153500Y0084110D02*
X0153500Y0076000D01*
X0151000Y0071000D02*
X0138500Y0058500D01*
X0138500Y0047890D01*
X0133500Y0047890D02*
X0133500Y0056000D01*
X0146000Y0068500D01*
X0146000Y0091000D01*
X0153500Y0098500D01*
X0153500Y0111000D01*
X0143500Y0111000D02*
X0143500Y0098500D01*
X0141000Y0096000D01*
X0141000Y0068500D01*
X0128500Y0056000D01*
X0128500Y0047890D01*
X0123500Y0047890D02*
X0123500Y0056000D01*
X0136000Y0068500D01*
X0136000Y0096000D01*
X0133500Y0098500D01*
X0133500Y0111000D01*
X0128500Y0101000D02*
X0128500Y0098500D01*
X0133500Y0093500D01*
X0133500Y0084110D01*
X0151000Y0091000D02*
X0151000Y0071000D01*
X0153500Y0068500D02*
X0154500Y0068500D01*
X0153500Y0068500D02*
X0143500Y0058500D01*
X0143500Y0047890D01*
X0158500Y0047890D02*
X0158500Y0051000D01*
X0171000Y0065941D02*
X0171059Y0066000D01*
X0178500Y0066000D02*
X0178500Y0071000D01*
X0183500Y0076000D01*
X0158500Y0084110D02*
X0158500Y0091000D01*
X0158500Y0098500D02*
X0151000Y0091000D01*
X0158500Y0098500D02*
X0158500Y0101000D01*
X0120000Y0102500D02*
X0120000Y0114000D01*
X0120000Y0102500D02*
X0118500Y0101000D01*
X0118500Y0098500D01*
D27*
X0118500Y0091000D03*
X0110000Y0082000D03*
X0103500Y0086000D03*
X0103500Y0091000D03*
X0093500Y0096000D03*
X0095500Y0108500D03*
X0078500Y0111000D03*
X0073500Y0101000D03*
X0061000Y0118500D03*
X0068500Y0123500D03*
X0066000Y0128500D03*
X0061000Y0131000D03*
X0056000Y0131000D03*
X0073500Y0146000D03*
X0081000Y0146000D03*
X0103500Y0158500D03*
X0108500Y0153500D03*
X0108500Y0148500D03*
X0108500Y0143500D03*
X0113000Y0135000D03*
X0118500Y0138500D03*
X0131000Y0151000D03*
X0148500Y0141000D03*
X0153500Y0123500D03*
X0171000Y0123500D03*
X0171000Y0128500D03*
X0148500Y0106000D03*
X0138500Y0106000D03*
X0158500Y0091000D03*
X0153500Y0076000D03*
X0148500Y0073500D03*
X0143500Y0076000D03*
X0154500Y0068500D03*
X0168500Y0076000D03*
X0178500Y0066000D03*
X0161000Y0042000D03*
X0138500Y0041000D03*
X0123500Y0070000D03*
X0121000Y0073500D03*
X0117000Y0078000D03*
X0103500Y0071000D03*
X0102000Y0067000D03*
X0093500Y0066000D03*
X0086000Y0061000D03*
X0088500Y0046000D03*
X0093500Y0046000D03*
X0066000Y0066000D03*
X0098000Y0078000D03*
X0053500Y0111000D03*
X0031000Y0091000D03*
X0106000Y0168500D03*
X0168500Y0151000D03*
X0193500Y0151000D03*
X0206000Y0142850D03*
D28*
X0210106Y0142666D02*
X0210106Y0140645D01*
X0210228Y0140187D01*
X0210465Y0139777D01*
X0210800Y0139442D01*
X0211211Y0139205D01*
X0211669Y0139082D01*
X0213690Y0139082D01*
X0213690Y0142666D01*
X0214058Y0142666D01*
X0214058Y0139082D01*
X0216079Y0139082D01*
X0216537Y0139205D01*
X0216948Y0139442D01*
X0217283Y0139777D01*
X0217520Y0140187D01*
X0217643Y0140645D01*
X0217643Y0142666D01*
X0214058Y0142666D01*
X0214058Y0143035D01*
X0217643Y0143035D01*
X0217643Y0145056D01*
X0217520Y0145514D01*
X0217331Y0145841D01*
X0217843Y0146353D01*
X0217843Y0151947D01*
X0216671Y0153118D01*
X0212280Y0153118D01*
X0213832Y0153761D01*
X0215239Y0155168D01*
X0216000Y0157005D01*
X0216000Y0164995D01*
X0215584Y0166000D01*
X0216000Y0166000D01*
X0226000Y0121000D01*
X0216494Y0089312D01*
X0215847Y0089312D01*
X0212792Y0088046D01*
X0212525Y0087780D01*
X0212230Y0088492D01*
X0210992Y0089730D01*
X0209375Y0090400D01*
X0207625Y0090400D01*
X0206008Y0089730D01*
X0204770Y0088492D01*
X0204100Y0086875D01*
X0204100Y0085125D01*
X0204770Y0083508D01*
X0206008Y0082270D01*
X0207625Y0081600D01*
X0209188Y0081600D01*
X0209188Y0079347D01*
X0210454Y0076292D01*
X0212095Y0074650D01*
X0211000Y0071000D01*
X0186000Y0071000D01*
X0166300Y0051300D01*
X0166300Y0053047D01*
X0175453Y0062200D01*
X0176800Y0063547D01*
X0176800Y0091047D01*
X0179453Y0093700D01*
X0180800Y0095047D01*
X0180800Y0097190D01*
X0180992Y0097270D01*
X0182230Y0098508D01*
X0182900Y0100125D01*
X0182900Y0101875D01*
X0182230Y0103492D01*
X0180992Y0104730D01*
X0180800Y0104810D01*
X0180800Y0117547D01*
X0191953Y0128700D01*
X0193300Y0130047D01*
X0193300Y0130063D01*
X0193600Y0130063D01*
X0194772Y0131235D01*
X0194772Y0135647D01*
X0194419Y0136000D01*
X0194772Y0136353D01*
X0194772Y0139722D01*
X0195052Y0139442D01*
X0195463Y0139205D01*
X0195920Y0139082D01*
X0197942Y0139082D01*
X0197942Y0142666D01*
X0198310Y0142666D01*
X0198310Y0139082D01*
X0200331Y0139082D01*
X0200789Y0139205D01*
X0201200Y0139442D01*
X0201535Y0139777D01*
X0201772Y0140187D01*
X0201894Y0140645D01*
X0201894Y0142666D01*
X0198310Y0142666D01*
X0198310Y0143035D01*
X0201894Y0143035D01*
X0201894Y0145056D01*
X0201772Y0145514D01*
X0201583Y0145841D01*
X0202094Y0146353D01*
X0202094Y0146850D01*
X0209906Y0146850D01*
X0209906Y0146353D01*
X0210417Y0145841D01*
X0210228Y0145514D01*
X0210106Y0145056D01*
X0210106Y0143035D01*
X0213690Y0143035D01*
X0213690Y0142666D01*
X0210106Y0142666D01*
X0210106Y0143268D02*
X0201894Y0143268D01*
X0201894Y0144866D02*
X0210106Y0144866D01*
X0209906Y0146465D02*
X0202094Y0146465D01*
X0197942Y0143035D02*
X0197942Y0142666D01*
X0194357Y0142666D01*
X0194357Y0141180D01*
X0193600Y0141937D01*
X0193300Y0141937D01*
X0193300Y0144453D01*
X0191953Y0145800D01*
X0190800Y0146953D01*
X0190800Y0153000D01*
X0191995Y0153000D01*
X0193832Y0153761D01*
X0195239Y0155168D01*
X0195826Y0156585D01*
X0195826Y0153118D01*
X0195329Y0153118D01*
X0194157Y0151947D01*
X0194157Y0146353D01*
X0194669Y0145841D01*
X0194480Y0145514D01*
X0194357Y0145056D01*
X0194357Y0143035D01*
X0197942Y0143035D01*
X0197942Y0141669D02*
X0198310Y0141669D01*
X0198310Y0140070D02*
X0197942Y0140070D01*
X0201704Y0140070D02*
X0210295Y0140070D01*
X0210106Y0141669D02*
X0201894Y0141669D01*
X0194357Y0141669D02*
X0193868Y0141669D01*
X0194357Y0143268D02*
X0193300Y0143268D01*
X0192887Y0144866D02*
X0194357Y0144866D01*
X0194157Y0146465D02*
X0191288Y0146465D01*
X0190800Y0148063D02*
X0194157Y0148063D01*
X0194157Y0149662D02*
X0190800Y0149662D01*
X0190800Y0151260D02*
X0194157Y0151260D01*
X0195070Y0152859D02*
X0190800Y0152859D01*
X0194528Y0154457D02*
X0195826Y0154457D01*
X0195826Y0156056D02*
X0195607Y0156056D01*
X0186200Y0156056D02*
X0185396Y0156056D01*
X0185448Y0156157D02*
X0185682Y0156876D01*
X0185800Y0157622D01*
X0185800Y0160800D01*
X0181200Y0160800D01*
X0181200Y0161200D01*
X0185800Y0161200D01*
X0185800Y0162947D01*
X0186000Y0162747D01*
X0186000Y0157005D01*
X0186200Y0156523D01*
X0186200Y0145047D01*
X0188700Y0142547D01*
X0188700Y0141937D01*
X0188400Y0141937D01*
X0187228Y0140765D01*
X0187228Y0136353D01*
X0187581Y0136000D01*
X0187228Y0135647D01*
X0187228Y0131235D01*
X0187605Y0130858D01*
X0183300Y0126553D01*
X0183300Y0130063D01*
X0183600Y0130063D01*
X0184772Y0131235D01*
X0184772Y0135647D01*
X0184419Y0136000D01*
X0184772Y0136353D01*
X0184772Y0140765D01*
X0183600Y0141937D01*
X0183300Y0141937D01*
X0183300Y0149453D01*
X0181953Y0150800D01*
X0181953Y0150800D01*
X0179222Y0153531D01*
X0179876Y0153318D01*
X0180622Y0153200D01*
X0180800Y0153200D01*
X0180800Y0160800D01*
X0181200Y0160800D01*
X0181200Y0153200D01*
X0181378Y0153200D01*
X0182124Y0153318D01*
X0182843Y0153552D01*
X0183516Y0153895D01*
X0184127Y0154339D01*
X0184661Y0154873D01*
X0185105Y0155484D01*
X0185448Y0156157D01*
X0185800Y0157654D02*
X0186000Y0157654D01*
X0186000Y0159253D02*
X0185800Y0159253D01*
X0186000Y0160851D02*
X0181200Y0160851D01*
X0180800Y0160851D02*
X0176000Y0160851D01*
X0176200Y0160800D02*
X0176200Y0157622D01*
X0176318Y0156876D01*
X0176531Y0156222D01*
X0175926Y0156827D01*
X0176000Y0157005D01*
X0176000Y0164995D01*
X0175501Y0166200D01*
X0176734Y0166200D01*
X0176552Y0165843D01*
X0176318Y0165124D01*
X0176200Y0164378D01*
X0176200Y0161200D01*
X0180800Y0161200D01*
X0180800Y0160800D01*
X0176200Y0160800D01*
X0176200Y0159253D02*
X0176000Y0159253D01*
X0176000Y0157654D02*
X0176200Y0157654D01*
X0180800Y0157654D02*
X0181200Y0157654D01*
X0181200Y0156056D02*
X0180800Y0156056D01*
X0180800Y0154457D02*
X0181200Y0154457D01*
X0179894Y0152859D02*
X0186200Y0152859D01*
X0186200Y0154457D02*
X0184245Y0154457D01*
X0186200Y0151260D02*
X0181493Y0151260D01*
X0183091Y0149662D02*
X0186200Y0149662D01*
X0186200Y0148063D02*
X0183300Y0148063D01*
X0183300Y0146465D02*
X0186200Y0146465D01*
X0186381Y0144866D02*
X0183300Y0144866D01*
X0183300Y0143268D02*
X0187980Y0143268D01*
X0188132Y0141669D02*
X0183868Y0141669D01*
X0184772Y0140070D02*
X0187228Y0140070D01*
X0187228Y0138472D02*
X0184772Y0138472D01*
X0184772Y0136873D02*
X0187228Y0136873D01*
X0187228Y0135275D02*
X0184772Y0135275D01*
X0184772Y0133676D02*
X0187228Y0133676D01*
X0187228Y0132078D02*
X0184772Y0132078D01*
X0184016Y0130479D02*
X0187227Y0130479D01*
X0185628Y0128881D02*
X0183300Y0128881D01*
X0183300Y0127282D02*
X0184030Y0127282D01*
X0187338Y0124085D02*
X0203842Y0124085D01*
X0203916Y0124265D02*
X0202531Y0120920D01*
X0202531Y0117300D01*
X0203916Y0113956D01*
X0206476Y0111396D01*
X0209820Y0110011D01*
X0213440Y0110011D01*
X0216784Y0111396D01*
X0219344Y0113956D01*
X0220729Y0117300D01*
X0220729Y0120920D01*
X0219344Y0124265D01*
X0216784Y0126824D01*
X0213440Y0128209D01*
X0209820Y0128209D01*
X0206476Y0126824D01*
X0203916Y0124265D01*
X0203180Y0122487D02*
X0185740Y0122487D01*
X0184141Y0120888D02*
X0202531Y0120888D01*
X0202531Y0119290D02*
X0182543Y0119290D01*
X0180944Y0117691D02*
X0202531Y0117691D01*
X0203031Y0116093D02*
X0180800Y0116093D01*
X0180800Y0114494D02*
X0203693Y0114494D01*
X0204976Y0112896D02*
X0180800Y0112896D01*
X0180800Y0111297D02*
X0206715Y0111297D01*
X0216545Y0111297D02*
X0223089Y0111297D01*
X0222610Y0109699D02*
X0180800Y0109699D01*
X0180800Y0108100D02*
X0222130Y0108100D01*
X0221651Y0106502D02*
X0180800Y0106502D01*
X0180800Y0104903D02*
X0221171Y0104903D01*
X0220691Y0103305D02*
X0182308Y0103305D01*
X0182900Y0101706D02*
X0220212Y0101706D01*
X0219732Y0100108D02*
X0182893Y0100108D01*
X0182231Y0098509D02*
X0219253Y0098509D01*
X0218773Y0096911D02*
X0180800Y0096911D01*
X0180800Y0095312D02*
X0218294Y0095312D01*
X0217814Y0093714D02*
X0179466Y0093714D01*
X0177868Y0092115D02*
X0217335Y0092115D01*
X0216855Y0090517D02*
X0176800Y0090517D01*
X0176800Y0088918D02*
X0185196Y0088918D01*
X0184770Y0088492D02*
X0184100Y0086875D01*
X0184100Y0085125D01*
X0184770Y0083508D01*
X0186008Y0082270D01*
X0187625Y0081600D01*
X0189375Y0081600D01*
X0190992Y0082270D01*
X0192230Y0083508D01*
X0192900Y0085125D01*
X0192900Y0086875D01*
X0192230Y0088492D01*
X0190992Y0089730D01*
X0189375Y0090400D01*
X0187625Y0090400D01*
X0186008Y0089730D01*
X0184770Y0088492D01*
X0184284Y0087320D02*
X0176800Y0087320D01*
X0176800Y0085721D02*
X0184100Y0085721D01*
X0184515Y0084123D02*
X0176800Y0084123D01*
X0176800Y0082524D02*
X0185753Y0082524D01*
X0185112Y0079892D02*
X0184484Y0080097D01*
X0183831Y0080200D01*
X0183500Y0080200D01*
X0183500Y0076000D01*
X0187700Y0076000D01*
X0187700Y0076331D01*
X0187597Y0076984D01*
X0187392Y0077612D01*
X0187092Y0078201D01*
X0186704Y0078736D01*
X0186236Y0079204D01*
X0185701Y0079592D01*
X0185112Y0079892D01*
X0186066Y0079327D02*
X0190605Y0079327D01*
X0191008Y0079730D02*
X0189770Y0078492D01*
X0189100Y0076875D01*
X0189100Y0075125D01*
X0189770Y0073508D01*
X0191008Y0072270D01*
X0192625Y0071600D01*
X0194375Y0071600D01*
X0195992Y0072270D01*
X0197230Y0073508D01*
X0197900Y0075125D01*
X0197900Y0076875D01*
X0197230Y0078492D01*
X0195992Y0079730D01*
X0194375Y0080400D01*
X0192625Y0080400D01*
X0191008Y0079730D01*
X0189453Y0077729D02*
X0187333Y0077729D01*
X0187700Y0076130D02*
X0189100Y0076130D01*
X0187700Y0076000D02*
X0183500Y0076000D01*
X0183500Y0076000D01*
X0183500Y0076000D01*
X0183500Y0071800D01*
X0183831Y0071800D01*
X0184484Y0071903D01*
X0185112Y0072108D01*
X0185701Y0072408D01*
X0186236Y0072796D01*
X0186704Y0073264D01*
X0187092Y0073799D01*
X0187392Y0074388D01*
X0187597Y0075016D01*
X0187700Y0075669D01*
X0187700Y0076000D01*
X0187439Y0074532D02*
X0189346Y0074532D01*
X0190344Y0072933D02*
X0186373Y0072933D01*
X0183500Y0072933D02*
X0183500Y0072933D01*
X0183500Y0071800D02*
X0183500Y0076000D01*
X0183500Y0076000D01*
X0183500Y0076000D01*
X0179300Y0076000D01*
X0179300Y0076331D01*
X0179403Y0076984D01*
X0179608Y0077612D01*
X0179908Y0078201D01*
X0180296Y0078736D01*
X0180764Y0079204D01*
X0181299Y0079592D01*
X0181888Y0079892D01*
X0182516Y0080097D01*
X0183169Y0080200D01*
X0183500Y0080200D01*
X0183500Y0076000D01*
X0179300Y0076000D01*
X0179300Y0075669D01*
X0179403Y0075016D01*
X0179608Y0074388D01*
X0179908Y0073799D01*
X0180296Y0073264D01*
X0180764Y0072796D01*
X0181299Y0072408D01*
X0181888Y0072108D01*
X0182516Y0071903D01*
X0183169Y0071800D01*
X0183500Y0071800D01*
X0184736Y0069736D02*
X0176800Y0069736D01*
X0176800Y0071334D02*
X0211100Y0071334D01*
X0211580Y0072933D02*
X0206656Y0072933D01*
X0207230Y0073508D02*
X0207900Y0075125D01*
X0207900Y0076875D01*
X0207230Y0078492D01*
X0205992Y0079730D01*
X0204375Y0080400D01*
X0202625Y0080400D01*
X0201008Y0079730D01*
X0199770Y0078492D01*
X0199100Y0076875D01*
X0199100Y0075125D01*
X0199770Y0073508D01*
X0201008Y0072270D01*
X0202625Y0071600D01*
X0204375Y0071600D01*
X0205992Y0072270D01*
X0207230Y0073508D01*
X0207654Y0074532D02*
X0212059Y0074532D01*
X0210615Y0076130D02*
X0207900Y0076130D01*
X0207547Y0077729D02*
X0209858Y0077729D01*
X0209196Y0079327D02*
X0206395Y0079327D01*
X0209188Y0080926D02*
X0176800Y0080926D01*
X0176800Y0079327D02*
X0180934Y0079327D01*
X0179667Y0077729D02*
X0176800Y0077729D01*
X0176800Y0076130D02*
X0179300Y0076130D01*
X0179561Y0074532D02*
X0176800Y0074532D01*
X0176800Y0072933D02*
X0180627Y0072933D01*
X0183500Y0074532D02*
X0183500Y0074532D01*
X0183500Y0076130D02*
X0183500Y0076130D01*
X0183500Y0077729D02*
X0183500Y0077729D01*
X0183500Y0079327D02*
X0183500Y0079327D01*
X0191247Y0082524D02*
X0195753Y0082524D01*
X0196008Y0082270D02*
X0197625Y0081600D01*
X0199375Y0081600D01*
X0200992Y0082270D01*
X0202230Y0083508D01*
X0202900Y0085125D01*
X0202900Y0086875D01*
X0202230Y0088492D01*
X0200992Y0089730D01*
X0199375Y0090400D01*
X0197625Y0090400D01*
X0196008Y0089730D01*
X0194770Y0088492D01*
X0194100Y0086875D01*
X0194100Y0085125D01*
X0194770Y0083508D01*
X0196008Y0082270D01*
X0194515Y0084123D02*
X0192485Y0084123D01*
X0192900Y0085721D02*
X0194100Y0085721D01*
X0194284Y0087320D02*
X0192716Y0087320D01*
X0191804Y0088918D02*
X0195196Y0088918D01*
X0201804Y0088918D02*
X0205196Y0088918D01*
X0204284Y0087320D02*
X0202716Y0087320D01*
X0202900Y0085721D02*
X0204100Y0085721D01*
X0204515Y0084123D02*
X0202485Y0084123D01*
X0201247Y0082524D02*
X0205753Y0082524D01*
X0200605Y0079327D02*
X0196395Y0079327D01*
X0197547Y0077729D02*
X0199453Y0077729D01*
X0199100Y0076130D02*
X0197900Y0076130D01*
X0197654Y0074532D02*
X0199346Y0074532D01*
X0200344Y0072933D02*
X0196656Y0072933D01*
X0183137Y0068137D02*
X0176800Y0068137D01*
X0176800Y0066539D02*
X0181539Y0066539D01*
X0179940Y0064940D02*
X0176800Y0064940D01*
X0176595Y0063342D02*
X0178342Y0063342D01*
X0176743Y0061743D02*
X0174996Y0061743D01*
X0175145Y0060145D02*
X0173398Y0060145D01*
X0173546Y0058546D02*
X0171799Y0058546D01*
X0171948Y0056948D02*
X0170201Y0056948D01*
X0170349Y0055349D02*
X0168602Y0055349D01*
X0168751Y0053751D02*
X0167004Y0053751D01*
X0167152Y0052152D02*
X0166300Y0052152D01*
X0161000Y0045390D02*
X0161000Y0042000D01*
X0161000Y0045390D02*
X0158500Y0047890D01*
X0158500Y0051000D02*
X0171000Y0063500D01*
X0171000Y0065941D01*
X0171059Y0066000D02*
X0171059Y0071000D01*
X0171059Y0073441D01*
X0168500Y0076000D01*
X0143700Y0076130D02*
X0143300Y0076130D01*
X0143300Y0074532D02*
X0143700Y0074532D01*
X0143700Y0072933D02*
X0143300Y0072933D01*
X0143300Y0071334D02*
X0143700Y0071334D01*
X0143700Y0069736D02*
X0143300Y0069736D01*
X0143300Y0069453D02*
X0143300Y0077780D01*
X0143700Y0077780D01*
X0143700Y0069453D01*
X0143300Y0069053D01*
X0143300Y0069453D01*
X0143300Y0077729D02*
X0143700Y0077729D01*
X0133700Y0077729D02*
X0120387Y0077729D01*
X0120387Y0076887D02*
X0120387Y0079403D01*
X0118403Y0081387D01*
X0116359Y0081387D01*
X0116359Y0082822D01*
X0116937Y0083400D01*
X0116937Y0087773D01*
X0117097Y0087613D01*
X0119903Y0087613D01*
X0120519Y0088228D01*
X0120519Y0084110D01*
X0120519Y0079543D01*
X0120642Y0079085D01*
X0120879Y0078674D01*
X0121214Y0078339D01*
X0121624Y0078102D01*
X0122082Y0077980D01*
X0123500Y0077980D01*
X0124918Y0077980D01*
X0125376Y0078102D01*
X0125786Y0078339D01*
X0125859Y0078411D01*
X0126490Y0077780D01*
X0130510Y0077780D01*
X0131000Y0078270D01*
X0131490Y0077780D01*
X0133700Y0077780D01*
X0133700Y0069453D01*
X0125800Y0061553D01*
X0125800Y0067509D01*
X0126887Y0068597D01*
X0126887Y0071403D01*
X0124903Y0073387D01*
X0124387Y0073387D01*
X0124387Y0074903D01*
X0122403Y0076887D01*
X0120387Y0076887D01*
X0120387Y0079327D02*
X0120577Y0079327D01*
X0120519Y0080926D02*
X0118865Y0080926D01*
X0120519Y0082524D02*
X0116359Y0082524D01*
X0116937Y0084123D02*
X0120519Y0084123D01*
X0120519Y0084110D02*
X0123500Y0084110D01*
X0123500Y0077980D01*
X0123500Y0084110D01*
X0123500Y0084110D01*
X0120519Y0084110D01*
X0120519Y0085721D02*
X0116937Y0085721D01*
X0116937Y0087320D02*
X0120519Y0087320D01*
X0123500Y0087320D02*
X0123500Y0087320D01*
X0123500Y0088918D02*
X0123500Y0088918D01*
X0123500Y0090241D02*
X0122082Y0090241D01*
X0121887Y0090189D01*
X0121887Y0092403D01*
X0119903Y0094387D01*
X0117097Y0094387D01*
X0116623Y0093914D01*
X0116232Y0094305D01*
X0115933Y0095027D01*
X0115145Y0095815D01*
X0113106Y0097854D01*
X0114619Y0099366D01*
X0114908Y0098799D01*
X0115296Y0098264D01*
X0115764Y0097796D01*
X0116299Y0097408D01*
X0116888Y0097108D01*
X0117516Y0096903D01*
X0118169Y0096800D01*
X0118500Y0096800D01*
X0118831Y0096800D01*
X0119484Y0096903D01*
X0120112Y0097108D01*
X0120701Y0097408D01*
X0121200Y0097770D01*
X0121200Y0097547D01*
X0126200Y0092547D01*
X0126200Y0090150D01*
X0125859Y0089809D01*
X0125786Y0089881D01*
X0125376Y0090118D01*
X0124918Y0090241D01*
X0123500Y0090241D01*
X0123500Y0084110D01*
X0123500Y0084110D01*
X0123500Y0090241D01*
X0121887Y0090517D02*
X0126200Y0090517D01*
X0126200Y0092115D02*
X0121887Y0092115D01*
X0120577Y0093714D02*
X0125034Y0093714D01*
X0123435Y0095312D02*
X0115648Y0095312D01*
X0114049Y0096911D02*
X0117494Y0096911D01*
X0118500Y0096911D02*
X0118500Y0096911D01*
X0118500Y0096800D02*
X0118500Y0101000D01*
X0118500Y0101000D01*
X0118500Y0096800D01*
X0119506Y0096911D02*
X0121837Y0096911D01*
X0118500Y0098509D02*
X0118500Y0098509D01*
X0118500Y0100108D02*
X0118500Y0100108D01*
X0115118Y0098509D02*
X0113762Y0098509D01*
X0111000Y0096000D02*
X0113559Y0093441D01*
X0113559Y0091000D01*
X0118500Y0091000D01*
X0113559Y0091000D02*
X0113559Y0086000D01*
X0113559Y0078000D01*
X0117000Y0078000D01*
X0113559Y0078000D02*
X0113559Y0071000D01*
X0113559Y0048559D01*
X0108500Y0043500D01*
X0096000Y0043500D01*
X0093500Y0046000D01*
X0091000Y0043709D02*
X0092097Y0042613D01*
X0092928Y0042613D01*
X0093626Y0041914D01*
X0094414Y0041126D01*
X0095443Y0040700D01*
X0105700Y0040700D01*
X0105700Y0039851D01*
X0104375Y0040400D01*
X0102625Y0040400D01*
X0101008Y0039730D01*
X0099770Y0038492D01*
X0099100Y0036875D01*
X0099100Y0035125D01*
X0099770Y0033508D01*
X0101008Y0032270D01*
X0102625Y0031600D01*
X0104375Y0031600D01*
X0105981Y0032265D01*
X0106126Y0031914D01*
X0107640Y0030400D01*
X0107625Y0030400D01*
X0106008Y0029730D01*
X0104770Y0028492D01*
X0104100Y0026875D01*
X0104100Y0025125D01*
X0104770Y0023508D01*
X0106008Y0022270D01*
X0107625Y0021600D01*
X0109375Y0021600D01*
X0110981Y0022265D01*
X0111126Y0021914D01*
X0113626Y0019414D01*
X0114414Y0018626D01*
X0115443Y0018200D01*
X0142600Y0018200D01*
X0121000Y0011000D01*
X0078626Y0023712D01*
X0079208Y0023954D01*
X0081546Y0026292D01*
X0082812Y0029347D01*
X0082812Y0031600D01*
X0084375Y0031600D01*
X0085992Y0032270D01*
X0087230Y0033508D01*
X0087900Y0035125D01*
X0087900Y0036875D01*
X0087230Y0038492D01*
X0085992Y0039730D01*
X0084375Y0040400D01*
X0082625Y0040400D01*
X0081008Y0039730D01*
X0079770Y0038492D01*
X0079475Y0037780D01*
X0079208Y0038046D01*
X0076153Y0039312D01*
X0072847Y0039312D01*
X0071000Y0038547D01*
X0071000Y0051000D01*
X0054100Y0067900D01*
X0056400Y0067900D01*
X0060637Y0067900D01*
X0061095Y0068023D01*
X0061505Y0068260D01*
X0061840Y0068595D01*
X0062077Y0069005D01*
X0062200Y0069463D01*
X0062200Y0071000D01*
X0062200Y0072537D01*
X0062077Y0072995D01*
X0061874Y0073346D01*
X0062228Y0073700D01*
X0062547Y0073700D01*
X0071361Y0064887D01*
X0070054Y0064887D01*
X0069597Y0064764D01*
X0069186Y0064527D01*
X0068851Y0064192D01*
X0068614Y0063781D01*
X0068491Y0063324D01*
X0068491Y0060515D01*
X0072076Y0060515D01*
X0072076Y0060146D01*
X0072444Y0060146D01*
X0072444Y0055775D01*
X0072553Y0055775D01*
X0072031Y0055254D01*
X0072031Y0048085D01*
X0073203Y0046913D01*
X0078797Y0046913D01*
X0079968Y0048085D01*
X0079968Y0048700D01*
X0082263Y0048700D01*
X0083400Y0047563D01*
X0085273Y0047563D01*
X0085113Y0047403D01*
X0085113Y0044597D01*
X0087097Y0042613D01*
X0089903Y0042613D01*
X0091000Y0043709D01*
X0092979Y0042561D02*
X0071000Y0042561D01*
X0071000Y0040963D02*
X0094809Y0040963D01*
X0094375Y0040400D02*
X0092625Y0040400D01*
X0091008Y0039730D01*
X0089770Y0038492D01*
X0089100Y0036875D01*
X0089100Y0035125D01*
X0089770Y0033508D01*
X0091008Y0032270D01*
X0092625Y0031600D01*
X0094375Y0031600D01*
X0095992Y0032270D01*
X0097230Y0033508D01*
X0097900Y0035125D01*
X0097900Y0036875D01*
X0097230Y0038492D01*
X0095992Y0039730D01*
X0094375Y0040400D01*
X0096358Y0039364D02*
X0100642Y0039364D01*
X0099469Y0037766D02*
X0097531Y0037766D01*
X0097900Y0036167D02*
X0099100Y0036167D01*
X0099330Y0034569D02*
X0097670Y0034569D01*
X0096693Y0032970D02*
X0100307Y0032970D01*
X0099375Y0030400D02*
X0097625Y0030400D01*
X0096008Y0029730D01*
X0094770Y0028492D01*
X0094100Y0026875D01*
X0094100Y0025125D01*
X0094770Y0023508D01*
X0096008Y0022270D01*
X0097625Y0021600D01*
X0099375Y0021600D01*
X0100992Y0022270D01*
X0102230Y0023508D01*
X0102900Y0025125D01*
X0102900Y0026875D01*
X0102230Y0028492D01*
X0100992Y0029730D01*
X0099375Y0030400D01*
X0100888Y0029773D02*
X0106112Y0029773D01*
X0106668Y0031372D02*
X0082812Y0031372D01*
X0082812Y0029773D02*
X0086654Y0029773D01*
X0086888Y0029892D02*
X0086299Y0029592D01*
X0085764Y0029204D01*
X0085296Y0028736D01*
X0084908Y0028201D01*
X0084608Y0027612D01*
X0084403Y0026984D01*
X0084300Y0026331D01*
X0084300Y0026000D01*
X0088500Y0026000D01*
X0092700Y0026000D01*
X0092700Y0026331D01*
X0092597Y0026984D01*
X0092392Y0027612D01*
X0092092Y0028201D01*
X0091704Y0028736D01*
X0091236Y0029204D01*
X0090701Y0029592D01*
X0090112Y0029892D01*
X0089484Y0030097D01*
X0088831Y0030200D01*
X0088500Y0030200D01*
X0088500Y0026000D01*
X0088500Y0026000D01*
X0088500Y0026000D01*
X0092700Y0026000D01*
X0092700Y0025669D01*
X0092597Y0025016D01*
X0092392Y0024388D01*
X0092092Y0023799D01*
X0091704Y0023264D01*
X0091236Y0022796D01*
X0090701Y0022408D01*
X0090112Y0022108D01*
X0089484Y0021903D01*
X0088831Y0021800D01*
X0088500Y0021800D01*
X0088500Y0026000D01*
X0088500Y0026000D01*
X0088500Y0026000D01*
X0088500Y0030200D01*
X0088169Y0030200D01*
X0087516Y0030097D01*
X0086888Y0029892D01*
X0088500Y0029773D02*
X0088500Y0029773D01*
X0088500Y0028175D02*
X0088500Y0028175D01*
X0088500Y0026576D02*
X0088500Y0026576D01*
X0088500Y0026000D02*
X0084300Y0026000D01*
X0084300Y0025669D01*
X0084403Y0025016D01*
X0084608Y0024388D01*
X0084908Y0023799D01*
X0085296Y0023264D01*
X0085764Y0022796D01*
X0086299Y0022408D01*
X0086888Y0022108D01*
X0087516Y0021903D01*
X0088169Y0021800D01*
X0088500Y0021800D01*
X0088500Y0026000D01*
X0088500Y0024978D02*
X0088500Y0024978D01*
X0088500Y0023379D02*
X0088500Y0023379D01*
X0091787Y0023379D02*
X0094898Y0023379D01*
X0094161Y0024978D02*
X0092584Y0024978D01*
X0092661Y0026576D02*
X0094100Y0026576D01*
X0094638Y0028175D02*
X0092106Y0028175D01*
X0090346Y0029773D02*
X0096112Y0029773D01*
X0102362Y0028175D02*
X0104638Y0028175D01*
X0104100Y0026576D02*
X0102900Y0026576D01*
X0102839Y0024978D02*
X0104161Y0024978D01*
X0104898Y0023379D02*
X0102102Y0023379D01*
X0099811Y0021781D02*
X0107189Y0021781D01*
X0109811Y0021781D02*
X0111260Y0021781D01*
X0112858Y0020182D02*
X0090393Y0020182D01*
X0085064Y0021781D02*
X0097189Y0021781D01*
X0095721Y0018584D02*
X0114517Y0018584D01*
X0116000Y0021000D02*
X0146000Y0021000D01*
X0148500Y0023500D01*
X0148500Y0026000D01*
X0139442Y0034300D02*
X0137558Y0034300D01*
X0137900Y0035125D01*
X0137900Y0036875D01*
X0137230Y0038492D01*
X0135992Y0039730D01*
X0134375Y0040400D01*
X0132625Y0040400D01*
X0131008Y0039730D01*
X0129770Y0038492D01*
X0129100Y0036875D01*
X0129100Y0035125D01*
X0129442Y0034300D01*
X0127558Y0034300D01*
X0127900Y0035125D01*
X0127900Y0036875D01*
X0127230Y0038492D01*
X0125992Y0039730D01*
X0124375Y0040400D01*
X0122625Y0040400D01*
X0121800Y0040058D01*
X0121800Y0041559D01*
X0125510Y0041559D01*
X0126000Y0042050D01*
X0126490Y0041559D01*
X0130510Y0041559D01*
X0131000Y0042050D01*
X0131490Y0041559D01*
X0135510Y0041559D01*
X0136000Y0042050D01*
X0136490Y0041559D01*
X0138700Y0041559D01*
X0138700Y0040047D01*
X0140012Y0038735D01*
X0139770Y0038492D01*
X0139100Y0036875D01*
X0139100Y0035125D01*
X0139442Y0034300D01*
X0139330Y0034569D02*
X0137670Y0034569D01*
X0137900Y0036167D02*
X0139100Y0036167D01*
X0139469Y0037766D02*
X0137531Y0037766D01*
X0136358Y0039364D02*
X0139383Y0039364D01*
X0138700Y0040963D02*
X0121800Y0040963D01*
X0126358Y0039364D02*
X0130642Y0039364D01*
X0129469Y0037766D02*
X0127531Y0037766D01*
X0127900Y0036167D02*
X0129100Y0036167D01*
X0129330Y0034569D02*
X0127670Y0034569D01*
X0113500Y0028500D02*
X0113500Y0023500D01*
X0116000Y0021000D01*
X0113500Y0028500D02*
X0108500Y0033500D01*
X0108500Y0043500D01*
X0110759Y0053969D02*
X0109628Y0055100D01*
X0106372Y0055100D01*
X0105500Y0054228D01*
X0104628Y0055100D01*
X0101372Y0055100D01*
X0100500Y0054228D01*
X0099628Y0055100D01*
X0096372Y0055100D01*
X0095200Y0053928D01*
X0095200Y0049090D01*
X0094903Y0049387D01*
X0093300Y0049387D01*
X0093300Y0064053D01*
X0086600Y0070753D01*
X0086600Y0073128D01*
X0086228Y0073500D01*
X0086600Y0073872D01*
X0086600Y0078128D01*
X0086228Y0078500D01*
X0086428Y0078700D01*
X0089453Y0078700D01*
X0090800Y0080047D01*
X0093181Y0082428D01*
X0093441Y0082428D01*
X0095056Y0082428D01*
X0095514Y0082551D01*
X0095841Y0082740D01*
X0096353Y0082228D01*
X0100765Y0082228D01*
X0101623Y0083086D01*
X0102097Y0082613D01*
X0104903Y0082613D01*
X0105377Y0083086D01*
X0106235Y0082228D01*
X0106613Y0082228D01*
X0106613Y0081865D01*
X0105047Y0080300D01*
X0100491Y0080300D01*
X0099403Y0081387D01*
X0096597Y0081387D01*
X0094613Y0079403D01*
X0094613Y0076597D01*
X0096438Y0074772D01*
X0096353Y0074772D01*
X0095841Y0074260D01*
X0095514Y0074449D01*
X0095056Y0074572D01*
X0093441Y0074572D01*
X0093441Y0071000D01*
X0093441Y0071000D01*
X0093441Y0067428D01*
X0095056Y0067428D01*
X0095514Y0067551D01*
X0095841Y0067740D01*
X0096126Y0067455D01*
X0095200Y0066528D01*
X0095200Y0060072D01*
X0096372Y0058900D01*
X0099628Y0058900D01*
X0100500Y0059772D01*
X0101372Y0058900D01*
X0104628Y0058900D01*
X0105673Y0059945D01*
X0105760Y0059795D01*
X0106095Y0059460D01*
X0106505Y0059223D01*
X0106963Y0059100D01*
X0108000Y0059100D01*
X0109037Y0059100D01*
X0109495Y0059223D01*
X0109905Y0059460D01*
X0110240Y0059795D01*
X0110477Y0060205D01*
X0110600Y0060663D01*
X0110600Y0063300D01*
X0110600Y0065937D01*
X0110477Y0066395D01*
X0110240Y0066805D01*
X0109905Y0067140D01*
X0109753Y0067228D01*
X0110647Y0067228D01*
X0110759Y0067340D01*
X0110759Y0053969D01*
X0110759Y0055349D02*
X0093300Y0055349D01*
X0093300Y0053751D02*
X0095200Y0053751D01*
X0095200Y0052152D02*
X0093300Y0052152D01*
X0093300Y0050554D02*
X0095200Y0050554D01*
X0093300Y0056948D02*
X0110759Y0056948D01*
X0110759Y0058546D02*
X0093300Y0058546D01*
X0093300Y0060145D02*
X0095200Y0060145D01*
X0095200Y0061743D02*
X0093300Y0061743D01*
X0093300Y0063342D02*
X0095200Y0063342D01*
X0095200Y0064940D02*
X0092412Y0064940D01*
X0090814Y0066539D02*
X0095211Y0066539D01*
X0093441Y0067428D02*
X0091826Y0067428D01*
X0091368Y0067551D01*
X0090958Y0067788D01*
X0090623Y0068123D01*
X0090386Y0068534D01*
X0090263Y0068991D01*
X0090263Y0071000D01*
X0093441Y0071000D01*
X0093441Y0071000D01*
X0093441Y0067428D01*
X0093441Y0068137D02*
X0093441Y0068137D01*
X0093441Y0069736D02*
X0093441Y0069736D01*
X0093441Y0071000D02*
X0090263Y0071000D01*
X0090263Y0073009D01*
X0090386Y0073466D01*
X0090623Y0073877D01*
X0090958Y0074212D01*
X0091368Y0074449D01*
X0091826Y0074572D01*
X0093441Y0074572D01*
X0093441Y0071000D01*
X0093441Y0071000D01*
X0093441Y0071334D02*
X0093441Y0071334D01*
X0093441Y0072933D02*
X0093441Y0072933D01*
X0093441Y0074532D02*
X0093441Y0074532D01*
X0095206Y0074532D02*
X0096113Y0074532D01*
X0095079Y0076130D02*
X0086600Y0076130D01*
X0086600Y0074532D02*
X0091676Y0074532D01*
X0090263Y0072933D02*
X0086600Y0072933D01*
X0086600Y0071334D02*
X0090263Y0071334D01*
X0090263Y0069736D02*
X0087617Y0069736D01*
X0089215Y0068137D02*
X0090614Y0068137D01*
X0086000Y0061000D02*
X0086000Y0056059D01*
X0085113Y0047357D02*
X0079240Y0047357D01*
X0085113Y0045758D02*
X0071000Y0045758D01*
X0071000Y0044160D02*
X0085550Y0044160D01*
X0086358Y0039364D02*
X0090642Y0039364D01*
X0089469Y0037766D02*
X0087531Y0037766D01*
X0087900Y0036167D02*
X0089100Y0036167D01*
X0089330Y0034569D02*
X0087670Y0034569D01*
X0086693Y0032970D02*
X0090307Y0032970D01*
X0084894Y0028175D02*
X0082326Y0028175D01*
X0081664Y0026576D02*
X0084339Y0026576D01*
X0084416Y0024978D02*
X0080232Y0024978D01*
X0079736Y0023379D02*
X0085213Y0023379D01*
X0080642Y0039364D02*
X0071000Y0039364D01*
X0071000Y0047357D02*
X0072760Y0047357D01*
X0072031Y0048955D02*
X0071000Y0048955D01*
X0071000Y0050554D02*
X0072031Y0050554D01*
X0072031Y0052152D02*
X0069848Y0052152D01*
X0068249Y0053751D02*
X0072031Y0053751D01*
X0072127Y0055349D02*
X0066651Y0055349D01*
X0065052Y0056948D02*
X0068596Y0056948D01*
X0068614Y0056880D02*
X0068851Y0056470D01*
X0069186Y0056134D01*
X0069597Y0055897D01*
X0070054Y0055775D01*
X0072076Y0055775D01*
X0072076Y0060146D01*
X0068491Y0060146D01*
X0068491Y0057338D01*
X0068614Y0056880D01*
X0068491Y0058546D02*
X0063454Y0058546D01*
X0061855Y0060145D02*
X0068491Y0060145D01*
X0068491Y0061743D02*
X0060257Y0061743D01*
X0058658Y0063342D02*
X0068496Y0063342D01*
X0071307Y0064940D02*
X0057060Y0064940D01*
X0055461Y0066539D02*
X0069708Y0066539D01*
X0068110Y0068137D02*
X0061294Y0068137D01*
X0062200Y0069736D02*
X0066511Y0069736D01*
X0064913Y0071334D02*
X0062200Y0071334D01*
X0062200Y0071000D02*
X0056400Y0071000D01*
X0056400Y0071000D01*
X0056400Y0071000D01*
X0050600Y0071000D01*
X0050600Y0072537D01*
X0050723Y0072995D01*
X0050925Y0073346D01*
X0050400Y0073872D01*
X0050400Y0078128D01*
X0050772Y0078500D01*
X0050400Y0078872D01*
X0050400Y0083128D01*
X0050772Y0083500D01*
X0050400Y0083872D01*
X0050400Y0086440D01*
X0050027Y0086067D01*
X0049305Y0085768D01*
X0048800Y0085263D01*
X0048800Y0082943D01*
X0048374Y0081914D01*
X0047586Y0081126D01*
X0046937Y0080477D01*
X0046937Y0078400D01*
X0045765Y0077228D01*
X0041353Y0077228D01*
X0041000Y0077581D01*
X0040647Y0077228D01*
X0036235Y0077228D01*
X0035063Y0078400D01*
X0035063Y0078700D01*
X0032528Y0078700D01*
X0032528Y0078597D01*
X0031356Y0077425D01*
X0026550Y0077425D01*
X0026000Y0077975D01*
X0025450Y0077425D01*
X0024072Y0077425D01*
X0026000Y0071000D01*
X0051000Y0071000D01*
X0051000Y0071000D01*
X0056400Y0071000D01*
X0062200Y0071000D01*
X0062094Y0072933D02*
X0063314Y0072933D01*
X0056400Y0071000D02*
X0056400Y0067900D01*
X0056400Y0071000D01*
X0056400Y0071000D01*
X0056400Y0069736D02*
X0056400Y0069736D01*
X0056400Y0068137D02*
X0056400Y0068137D01*
X0050600Y0071334D02*
X0025900Y0071334D01*
X0025420Y0072933D02*
X0050706Y0072933D01*
X0050400Y0074532D02*
X0024941Y0074532D01*
X0024461Y0076130D02*
X0050400Y0076130D01*
X0050400Y0077729D02*
X0046266Y0077729D01*
X0046937Y0079327D02*
X0050400Y0079327D01*
X0050400Y0080926D02*
X0047385Y0080926D01*
X0048626Y0082524D02*
X0050400Y0082524D01*
X0050400Y0084123D02*
X0048800Y0084123D01*
X0049258Y0085721D02*
X0050400Y0085721D01*
X0048441Y0088441D02*
X0046000Y0088441D01*
X0046000Y0083500D01*
X0043559Y0081059D01*
X0038690Y0087666D02*
X0035106Y0087666D01*
X0035106Y0085645D01*
X0035228Y0085187D01*
X0035465Y0084777D01*
X0035800Y0084442D01*
X0035866Y0084403D01*
X0035063Y0083600D01*
X0035063Y0083300D01*
X0032528Y0083300D01*
X0032528Y0083403D01*
X0031356Y0084575D01*
X0026550Y0084575D01*
X0026000Y0084025D01*
X0025809Y0084216D01*
X0026200Y0084442D01*
X0026535Y0084777D01*
X0026772Y0085187D01*
X0026894Y0085645D01*
X0026894Y0087666D01*
X0023310Y0087666D01*
X0023310Y0088035D01*
X0026894Y0088035D01*
X0026894Y0090056D01*
X0026772Y0090514D01*
X0026583Y0090841D01*
X0027094Y0091353D01*
X0027094Y0093700D01*
X0034906Y0093700D01*
X0034906Y0091353D01*
X0035417Y0090841D01*
X0035228Y0090514D01*
X0035106Y0090056D01*
X0035106Y0088035D01*
X0038690Y0088035D01*
X0038690Y0087666D01*
X0035106Y0087320D02*
X0026894Y0087320D01*
X0026894Y0088918D02*
X0035106Y0088918D01*
X0035230Y0090517D02*
X0026770Y0090517D01*
X0027094Y0092115D02*
X0034906Y0092115D01*
X0035106Y0085721D02*
X0026894Y0085721D01*
X0026097Y0084123D02*
X0025903Y0084123D01*
X0031808Y0084123D02*
X0035586Y0084123D01*
X0035734Y0077729D02*
X0031659Y0077729D01*
X0026246Y0077729D02*
X0025754Y0077729D01*
X0017749Y0098502D02*
X0011000Y0121000D01*
X0026000Y0166000D01*
X0049540Y0166000D01*
X0048940Y0165400D01*
X0047625Y0165400D01*
X0046008Y0164730D01*
X0044770Y0163492D01*
X0044100Y0161875D01*
X0044100Y0160125D01*
X0044770Y0158508D01*
X0046008Y0157270D01*
X0047625Y0156600D01*
X0048988Y0156600D01*
X0048988Y0154347D01*
X0050254Y0151292D01*
X0052592Y0148954D01*
X0055647Y0147688D01*
X0058953Y0147688D01*
X0062008Y0148954D01*
X0063200Y0150145D01*
X0063200Y0134943D01*
X0063626Y0133914D01*
X0064414Y0133126D01*
X0065653Y0131887D01*
X0064597Y0131887D01*
X0064387Y0131678D01*
X0064387Y0132403D01*
X0062403Y0134387D01*
X0059597Y0134387D01*
X0058500Y0133290D01*
X0058300Y0133491D01*
X0058300Y0141953D01*
X0048300Y0151953D01*
X0047562Y0152690D01*
X0047230Y0153492D01*
X0045992Y0154730D01*
X0044375Y0155400D01*
X0042625Y0155400D01*
X0041008Y0154730D01*
X0039770Y0153492D01*
X0039100Y0151875D01*
X0039100Y0150125D01*
X0039770Y0148508D01*
X0041008Y0147270D01*
X0042625Y0146600D01*
X0044375Y0146600D01*
X0045992Y0147270D01*
X0046235Y0147512D01*
X0053700Y0140047D01*
X0053700Y0133491D01*
X0052613Y0132403D01*
X0052613Y0129597D01*
X0054597Y0127613D01*
X0057403Y0127613D01*
X0058500Y0128709D01*
X0058700Y0128509D01*
X0058700Y0126953D01*
X0032547Y0100800D01*
X0020047Y0100800D01*
X0018700Y0099453D01*
X0017749Y0098502D01*
X0017747Y0098509D02*
X0017757Y0098509D01*
X0017268Y0100108D02*
X0019355Y0100108D01*
X0016788Y0101706D02*
X0033454Y0101706D01*
X0035052Y0103305D02*
X0016309Y0103305D01*
X0015829Y0104903D02*
X0036651Y0104903D01*
X0038249Y0106502D02*
X0015349Y0106502D01*
X0014870Y0108100D02*
X0039848Y0108100D01*
X0041446Y0109699D02*
X0014390Y0109699D01*
X0013911Y0111297D02*
X0021675Y0111297D01*
X0021436Y0111396D02*
X0024781Y0110011D01*
X0028400Y0110011D01*
X0031745Y0111396D01*
X0034304Y0113956D01*
X0035690Y0117300D01*
X0035690Y0120920D01*
X0034304Y0124265D01*
X0031745Y0126824D01*
X0028400Y0128209D01*
X0024781Y0128209D01*
X0021436Y0126824D01*
X0018877Y0124265D01*
X0017491Y0120920D01*
X0017491Y0117300D01*
X0018877Y0113956D01*
X0021436Y0111396D01*
X0019937Y0112896D02*
X0013431Y0112896D01*
X0012952Y0114494D02*
X0018654Y0114494D01*
X0017991Y0116093D02*
X0012472Y0116093D01*
X0011993Y0117691D02*
X0017491Y0117691D01*
X0017491Y0119290D02*
X0011513Y0119290D01*
X0011034Y0120888D02*
X0017491Y0120888D01*
X0018140Y0122487D02*
X0011496Y0122487D01*
X0012028Y0124085D02*
X0018802Y0124085D01*
X0020296Y0125684D02*
X0012561Y0125684D01*
X0013094Y0127282D02*
X0022543Y0127282D01*
X0030639Y0127282D02*
X0058700Y0127282D01*
X0057431Y0125684D02*
X0032885Y0125684D01*
X0034379Y0124085D02*
X0055833Y0124085D01*
X0054234Y0122487D02*
X0035041Y0122487D01*
X0035690Y0120888D02*
X0052636Y0120888D01*
X0051037Y0119290D02*
X0035690Y0119290D01*
X0035690Y0117691D02*
X0049439Y0117691D01*
X0047840Y0116093D02*
X0035190Y0116093D01*
X0034527Y0114494D02*
X0046242Y0114494D01*
X0044643Y0112896D02*
X0033244Y0112896D01*
X0031506Y0111297D02*
X0043045Y0111297D01*
X0048300Y0107547D02*
X0057731Y0116978D01*
X0059597Y0115113D01*
X0062403Y0115113D01*
X0062988Y0115697D01*
X0063423Y0115677D01*
X0063488Y0115700D01*
X0063557Y0115700D01*
X0064010Y0115888D01*
X0064471Y0116054D01*
X0064522Y0116100D01*
X0064586Y0116126D01*
X0064933Y0116473D01*
X0068891Y0120072D01*
X0069235Y0119728D01*
X0073647Y0119728D01*
X0074000Y0120081D01*
X0074353Y0119728D01*
X0078765Y0119728D01*
X0079937Y0120900D01*
X0079937Y0121200D01*
X0080047Y0121200D01*
X0080547Y0120700D01*
X0080567Y0120700D01*
X0081500Y0119794D01*
X0081500Y0119136D01*
X0084136Y0116500D01*
X0087636Y0116500D01*
X0086500Y0115364D01*
X0086500Y0111636D01*
X0088692Y0109444D01*
X0085104Y0105856D01*
X0085086Y0105874D01*
X0082586Y0108374D01*
X0081557Y0108800D01*
X0081090Y0108800D01*
X0081887Y0109597D01*
X0081887Y0112403D01*
X0079903Y0114387D01*
X0077097Y0114387D01*
X0076623Y0113914D01*
X0075765Y0114772D01*
X0071353Y0114772D01*
X0070841Y0114260D01*
X0070514Y0114449D01*
X0070056Y0114572D01*
X0068441Y0114572D01*
X0068441Y0111000D01*
X0068441Y0111000D01*
X0068441Y0114572D01*
X0066826Y0114572D01*
X0066368Y0114449D01*
X0065958Y0114212D01*
X0065623Y0113877D01*
X0065386Y0113466D01*
X0065263Y0113009D01*
X0065263Y0111000D01*
X0068441Y0111000D01*
X0068441Y0111000D01*
X0065263Y0111000D01*
X0065263Y0108991D01*
X0065314Y0108800D01*
X0052943Y0108800D01*
X0051914Y0108374D01*
X0051126Y0107586D01*
X0049414Y0105874D01*
X0048626Y0105086D01*
X0048300Y0104298D01*
X0048300Y0107547D01*
X0048853Y0108100D02*
X0051640Y0108100D01*
X0051126Y0107586D02*
X0051126Y0107586D01*
X0050042Y0106502D02*
X0048300Y0106502D01*
X0049414Y0105874D02*
X0049414Y0105874D01*
X0048551Y0104903D02*
X0048300Y0104903D01*
X0051000Y0103500D02*
X0053500Y0106000D01*
X0073500Y0106000D01*
X0081000Y0106000D01*
X0083500Y0103500D01*
X0083500Y0101400D01*
X0084458Y0106502D02*
X0085749Y0106502D01*
X0087348Y0108100D02*
X0082860Y0108100D01*
X0081887Y0109699D02*
X0088437Y0109699D01*
X0086839Y0111297D02*
X0081887Y0111297D01*
X0081395Y0112896D02*
X0086500Y0112896D01*
X0086500Y0114494D02*
X0076043Y0114494D01*
X0078500Y0111000D02*
X0073559Y0111000D01*
X0073559Y0106059D01*
X0068441Y0111297D02*
X0068441Y0111297D01*
X0068441Y0112896D02*
X0068441Y0112896D01*
X0068441Y0114494D02*
X0068441Y0114494D01*
X0070345Y0114494D02*
X0071075Y0114494D01*
X0066537Y0114494D02*
X0055247Y0114494D01*
X0053648Y0112896D02*
X0065263Y0112896D01*
X0065263Y0111297D02*
X0052050Y0111297D01*
X0050451Y0109699D02*
X0065263Y0109699D01*
X0064515Y0116093D02*
X0087229Y0116093D01*
X0089364Y0118000D02*
X0090500Y0119136D01*
X0090500Y0122864D01*
X0087864Y0125500D01*
X0084136Y0125500D01*
X0083196Y0124559D01*
X0083114Y0124639D01*
X0081953Y0125800D01*
X0079937Y0125800D01*
X0079937Y0126100D01*
X0078765Y0127272D01*
X0076231Y0127272D01*
X0076661Y0127701D01*
X0079781Y0127701D01*
X0080953Y0128872D01*
X0080953Y0129460D01*
X0086483Y0129460D01*
X0086589Y0129354D01*
X0098700Y0129354D01*
X0098700Y0124381D01*
X0097781Y0125300D01*
X0096000Y0125300D01*
X0096000Y0121000D01*
X0096000Y0121000D01*
X0096000Y0121000D01*
X0091700Y0121000D01*
X0091700Y0122781D01*
X0094219Y0125300D01*
X0096000Y0125300D01*
X0096000Y0121000D01*
X0091700Y0121000D01*
X0091700Y0119219D01*
X0094219Y0116700D01*
X0095947Y0116700D01*
X0095056Y0115808D01*
X0092864Y0118000D01*
X0089364Y0118000D01*
X0090500Y0119290D02*
X0091700Y0119290D01*
X0091700Y0120888D02*
X0090500Y0120888D01*
X0090500Y0122487D02*
X0091700Y0122487D01*
X0093004Y0124085D02*
X0089279Y0124085D01*
X0096000Y0124085D02*
X0096000Y0124085D01*
X0096000Y0122487D02*
X0096000Y0122487D01*
X0098700Y0125684D02*
X0082069Y0125684D01*
X0080953Y0128881D02*
X0098700Y0128881D01*
X0098700Y0127282D02*
X0076242Y0127282D01*
X0076000Y0131000D02*
X0068500Y0123500D01*
X0063000Y0118500D01*
X0061000Y0118500D01*
X0058617Y0116093D02*
X0056845Y0116093D01*
X0066273Y0117691D02*
X0082945Y0117691D01*
X0081500Y0119290D02*
X0068031Y0119290D01*
X0068500Y0123500D02*
X0071441Y0123500D01*
X0079925Y0120888D02*
X0080359Y0120888D01*
X0076000Y0132260D02*
X0069240Y0132260D01*
X0066000Y0135500D01*
X0066000Y0166000D01*
X0068441Y0166000D01*
X0066000Y0166000D02*
X0053500Y0166000D01*
X0048500Y0161000D01*
X0045326Y0164048D02*
X0041392Y0164048D01*
X0041236Y0164204D02*
X0040701Y0164592D01*
X0040112Y0164892D01*
X0039484Y0165097D01*
X0038831Y0165200D01*
X0038500Y0165200D01*
X0038500Y0161000D01*
X0042700Y0161000D01*
X0042700Y0161331D01*
X0042597Y0161984D01*
X0042392Y0162612D01*
X0042092Y0163201D01*
X0041704Y0163736D01*
X0041236Y0164204D01*
X0042445Y0162450D02*
X0044338Y0162450D01*
X0044100Y0160851D02*
X0042700Y0160851D01*
X0042700Y0161000D02*
X0038500Y0161000D01*
X0038500Y0161000D01*
X0038500Y0161000D01*
X0038500Y0156800D01*
X0038831Y0156800D01*
X0039484Y0156903D01*
X0040112Y0157108D01*
X0040701Y0157408D01*
X0041236Y0157796D01*
X0041704Y0158264D01*
X0042092Y0158799D01*
X0042392Y0159388D01*
X0042597Y0160016D01*
X0042700Y0160669D01*
X0042700Y0161000D01*
X0042323Y0159253D02*
X0044461Y0159253D01*
X0045623Y0157654D02*
X0041040Y0157654D01*
X0038500Y0157654D02*
X0038500Y0157654D01*
X0038500Y0156800D02*
X0038500Y0161000D01*
X0038500Y0161000D01*
X0038500Y0161000D01*
X0034300Y0161000D01*
X0034300Y0161331D01*
X0034403Y0161984D01*
X0034608Y0162612D01*
X0034908Y0163201D01*
X0035296Y0163736D01*
X0035764Y0164204D01*
X0036299Y0164592D01*
X0036888Y0164892D01*
X0037516Y0165097D01*
X0038169Y0165200D01*
X0038500Y0165200D01*
X0038500Y0161000D01*
X0034300Y0161000D01*
X0034300Y0160669D01*
X0034403Y0160016D01*
X0034608Y0159388D01*
X0034908Y0158799D01*
X0035296Y0158264D01*
X0035764Y0157796D01*
X0036299Y0157408D01*
X0036888Y0157108D01*
X0037516Y0156903D01*
X0038169Y0156800D01*
X0038500Y0156800D01*
X0038500Y0159253D02*
X0038500Y0159253D01*
X0038500Y0160851D02*
X0038500Y0160851D01*
X0038500Y0162450D02*
X0038500Y0162450D01*
X0038500Y0164048D02*
X0038500Y0164048D01*
X0035608Y0164048D02*
X0025349Y0164048D01*
X0024817Y0162450D02*
X0034555Y0162450D01*
X0034300Y0160851D02*
X0024284Y0160851D01*
X0023751Y0159253D02*
X0034677Y0159253D01*
X0035960Y0157654D02*
X0023218Y0157654D01*
X0022685Y0156056D02*
X0048988Y0156056D01*
X0048988Y0154457D02*
X0046265Y0154457D01*
X0047493Y0152859D02*
X0049605Y0152859D01*
X0048993Y0151260D02*
X0050285Y0151260D01*
X0050591Y0149662D02*
X0051884Y0149662D01*
X0052190Y0148063D02*
X0054742Y0148063D01*
X0053788Y0146465D02*
X0063200Y0146465D01*
X0063200Y0148063D02*
X0059858Y0148063D01*
X0062716Y0149662D02*
X0063200Y0149662D01*
X0063200Y0144866D02*
X0055387Y0144866D01*
X0056985Y0143268D02*
X0063200Y0143268D01*
X0063200Y0141669D02*
X0058300Y0141669D01*
X0058300Y0140070D02*
X0063200Y0140070D01*
X0063200Y0138472D02*
X0058300Y0138472D01*
X0058300Y0136873D02*
X0063200Y0136873D01*
X0063200Y0135275D02*
X0058300Y0135275D01*
X0058300Y0133676D02*
X0058886Y0133676D01*
X0063114Y0133676D02*
X0063864Y0133676D01*
X0064387Y0132078D02*
X0065462Y0132078D01*
X0068800Y0136660D02*
X0068800Y0151947D01*
X0069488Y0151259D01*
X0072047Y0148700D01*
X0078910Y0148700D01*
X0077613Y0147403D01*
X0077613Y0144597D01*
X0078110Y0144099D01*
X0076480Y0144099D01*
X0076480Y0140220D01*
X0080753Y0140220D01*
X0080753Y0140495D01*
X0082547Y0138700D01*
X0084453Y0138700D01*
X0085417Y0138700D01*
X0085417Y0138400D01*
X0086164Y0137654D01*
X0085417Y0136907D01*
X0085417Y0135060D01*
X0080953Y0135060D01*
X0080953Y0135647D01*
X0080441Y0136159D01*
X0080630Y0136486D01*
X0080753Y0136944D01*
X0080753Y0139261D01*
X0076480Y0139261D01*
X0076480Y0140220D01*
X0075520Y0140220D01*
X0075520Y0139261D01*
X0071247Y0139261D01*
X0071247Y0136944D01*
X0071370Y0136486D01*
X0071559Y0136159D01*
X0071047Y0135647D01*
X0071047Y0135060D01*
X0070400Y0135060D01*
X0068800Y0136660D01*
X0068800Y0136873D02*
X0071266Y0136873D01*
X0071247Y0138472D02*
X0068800Y0138472D01*
X0068800Y0140070D02*
X0075520Y0140070D01*
X0075520Y0140220D02*
X0071247Y0140220D01*
X0071247Y0142536D01*
X0071370Y0142994D01*
X0071607Y0143404D01*
X0071942Y0143740D01*
X0072352Y0143977D01*
X0072810Y0144099D01*
X0075520Y0144099D01*
X0075520Y0140220D01*
X0076480Y0140070D02*
X0081177Y0140070D01*
X0080753Y0138472D02*
X0085417Y0138472D01*
X0085417Y0136873D02*
X0080734Y0136873D01*
X0080953Y0135275D02*
X0085417Y0135275D01*
X0091866Y0132260D02*
X0076000Y0132260D01*
X0071047Y0135275D02*
X0070185Y0135275D01*
X0071247Y0141669D02*
X0068800Y0141669D01*
X0068800Y0143268D02*
X0071528Y0143268D01*
X0075520Y0143268D02*
X0076480Y0143268D01*
X0076480Y0141669D02*
X0075520Y0141669D01*
X0077613Y0144866D02*
X0068800Y0144866D01*
X0068800Y0146465D02*
X0077613Y0146465D01*
X0078273Y0148063D02*
X0068800Y0148063D01*
X0068800Y0149662D02*
X0071086Y0149662D01*
X0069487Y0151260D02*
X0068800Y0151260D01*
X0053677Y0140070D02*
X0017357Y0140070D01*
X0016824Y0138472D02*
X0053700Y0138472D01*
X0053700Y0136873D02*
X0016291Y0136873D01*
X0015758Y0135275D02*
X0053700Y0135275D01*
X0053700Y0133676D02*
X0015225Y0133676D01*
X0014693Y0132078D02*
X0052613Y0132078D01*
X0052613Y0130479D02*
X0014160Y0130479D01*
X0013627Y0128881D02*
X0053329Y0128881D01*
X0052078Y0141669D02*
X0017890Y0141669D01*
X0018423Y0143268D02*
X0050480Y0143268D01*
X0048881Y0144866D02*
X0018955Y0144866D01*
X0019488Y0146465D02*
X0047283Y0146465D01*
X0040214Y0148063D02*
X0036503Y0148063D01*
X0036704Y0148264D02*
X0037092Y0148799D01*
X0037392Y0149388D01*
X0037597Y0150016D01*
X0037700Y0150669D01*
X0037700Y0151000D01*
X0037700Y0151331D01*
X0037597Y0151984D01*
X0037392Y0152612D01*
X0037092Y0153201D01*
X0036704Y0153736D01*
X0036236Y0154204D01*
X0035701Y0154592D01*
X0035112Y0154892D01*
X0034484Y0155097D01*
X0033831Y0155200D01*
X0033500Y0155200D01*
X0033500Y0151000D01*
X0037700Y0151000D01*
X0033500Y0151000D01*
X0033500Y0151000D01*
X0033500Y0151000D01*
X0033500Y0146800D01*
X0033831Y0146800D01*
X0034484Y0146903D01*
X0035112Y0147108D01*
X0035701Y0147408D01*
X0036236Y0147796D01*
X0036704Y0148264D01*
X0037481Y0149662D02*
X0039292Y0149662D01*
X0039100Y0151260D02*
X0037700Y0151260D01*
X0037267Y0152859D02*
X0039507Y0152859D01*
X0040735Y0154457D02*
X0035887Y0154457D01*
X0033500Y0154457D02*
X0033500Y0154457D01*
X0033500Y0155200D02*
X0033169Y0155200D01*
X0032516Y0155097D01*
X0031888Y0154892D01*
X0031299Y0154592D01*
X0030764Y0154204D01*
X0030296Y0153736D01*
X0029908Y0153201D01*
X0029608Y0152612D01*
X0029403Y0151984D01*
X0029300Y0151331D01*
X0029300Y0151000D01*
X0033500Y0151000D01*
X0033500Y0151000D01*
X0033500Y0151000D01*
X0033500Y0155200D01*
X0033500Y0152859D02*
X0033500Y0152859D01*
X0033500Y0151260D02*
X0033500Y0151260D01*
X0033500Y0151000D02*
X0029300Y0151000D01*
X0029300Y0150669D01*
X0029403Y0150016D01*
X0029608Y0149388D01*
X0029908Y0148799D01*
X0030296Y0148264D01*
X0030764Y0147796D01*
X0031299Y0147408D01*
X0031888Y0147108D01*
X0032516Y0146903D01*
X0033169Y0146800D01*
X0033500Y0146800D01*
X0033500Y0151000D01*
X0033500Y0149662D02*
X0033500Y0149662D01*
X0033500Y0148063D02*
X0033500Y0148063D01*
X0030497Y0148063D02*
X0020021Y0148063D01*
X0020554Y0149662D02*
X0029519Y0149662D01*
X0029300Y0151260D02*
X0021087Y0151260D01*
X0021620Y0152859D02*
X0029733Y0152859D01*
X0031113Y0154457D02*
X0022152Y0154457D01*
X0025882Y0165647D02*
X0049187Y0165647D01*
X0053800Y0168800D02*
X0070220Y0185220D01*
X0070645Y0185106D01*
X0072666Y0185106D01*
X0072666Y0187666D01*
X0073035Y0188035D01*
X0073035Y0185106D01*
X0075056Y0185106D01*
X0075514Y0185228D01*
X0075841Y0185417D01*
X0076353Y0184906D01*
X0076850Y0184906D01*
X0076850Y0177094D01*
X0076353Y0177094D01*
X0075841Y0176583D01*
X0075514Y0176772D01*
X0075056Y0176894D01*
X0073035Y0176894D01*
X0073035Y0173310D01*
X0072666Y0173310D01*
X0072666Y0172942D01*
X0069082Y0172942D01*
X0069082Y0170920D01*
X0069205Y0170463D01*
X0069442Y0170052D01*
X0069722Y0169772D01*
X0066235Y0169772D01*
X0065263Y0168800D01*
X0053800Y0168800D01*
X0053844Y0168844D02*
X0065307Y0168844D01*
X0069216Y0170442D02*
X0055442Y0170442D01*
X0057041Y0172041D02*
X0069082Y0172041D01*
X0069082Y0173310D02*
X0072666Y0173310D01*
X0072666Y0176894D01*
X0070645Y0176894D01*
X0070187Y0176772D01*
X0069777Y0176535D01*
X0069442Y0176200D01*
X0069205Y0175789D01*
X0069082Y0175331D01*
X0069082Y0173310D01*
X0069082Y0173639D02*
X0058639Y0173639D01*
X0060238Y0175238D02*
X0069082Y0175238D01*
X0070428Y0176836D02*
X0061836Y0176836D01*
X0063435Y0178435D02*
X0076850Y0178435D01*
X0076850Y0180033D02*
X0065033Y0180033D01*
X0066632Y0181632D02*
X0076850Y0181632D01*
X0076850Y0183230D02*
X0068230Y0183230D01*
X0069829Y0184829D02*
X0076850Y0184829D01*
X0073035Y0186427D02*
X0072666Y0186427D01*
X0073026Y0188026D02*
X0073035Y0188026D01*
X0073035Y0176836D02*
X0072666Y0176836D01*
X0072666Y0175238D02*
X0073035Y0175238D01*
X0073035Y0173639D02*
X0072666Y0173639D01*
X0075273Y0176836D02*
X0076094Y0176836D01*
X0116387Y0135822D02*
X0117097Y0135113D01*
X0119903Y0135113D01*
X0121887Y0137097D01*
X0121887Y0139903D01*
X0120800Y0140991D01*
X0120800Y0142547D01*
X0141165Y0162913D01*
X0149984Y0162913D01*
X0149984Y0162022D01*
X0150731Y0161276D01*
X0149984Y0160529D01*
X0149984Y0154148D01*
X0150731Y0153402D01*
X0149984Y0152655D01*
X0149984Y0146274D01*
X0150731Y0145528D01*
X0149984Y0144781D01*
X0149984Y0144306D01*
X0149903Y0144387D01*
X0147097Y0144387D01*
X0145113Y0142403D01*
X0145113Y0139597D01*
X0147097Y0137613D01*
X0149903Y0137613D01*
X0150337Y0138047D01*
X0150872Y0137512D01*
X0150544Y0137184D01*
X0150307Y0136774D01*
X0150184Y0136316D01*
X0150184Y0134098D01*
X0157509Y0134098D01*
X0157509Y0133335D01*
X0158271Y0133335D01*
X0158271Y0129554D01*
X0164032Y0129554D01*
X0164490Y0129677D01*
X0164900Y0129914D01*
X0165236Y0130249D01*
X0165473Y0130660D01*
X0165595Y0131117D01*
X0165595Y0133335D01*
X0158271Y0133335D01*
X0158271Y0134098D01*
X0165595Y0134098D01*
X0165595Y0136316D01*
X0165473Y0136774D01*
X0165236Y0137184D01*
X0164907Y0137512D01*
X0165795Y0138400D01*
X0165795Y0138700D01*
X0167228Y0138700D01*
X0167228Y0136353D01*
X0167740Y0135841D01*
X0167551Y0135514D01*
X0167428Y0135056D01*
X0167428Y0133441D01*
X0171000Y0133441D01*
X0171000Y0133441D01*
X0167428Y0133441D01*
X0167428Y0131826D01*
X0167551Y0131368D01*
X0167788Y0130958D01*
X0168123Y0130623D01*
X0168534Y0130386D01*
X0168991Y0130263D01*
X0171000Y0130263D01*
X0173009Y0130263D01*
X0173466Y0130386D01*
X0173700Y0130521D01*
X0173700Y0129453D01*
X0171135Y0126887D01*
X0169597Y0126887D01*
X0167613Y0124903D01*
X0167613Y0122097D01*
X0169597Y0120113D01*
X0171860Y0120113D01*
X0171200Y0119453D01*
X0171200Y0114810D01*
X0171008Y0114730D01*
X0169770Y0113492D01*
X0169100Y0111875D01*
X0169100Y0110125D01*
X0169770Y0108508D01*
X0171008Y0107270D01*
X0171200Y0107190D01*
X0171200Y0104523D01*
X0170992Y0104730D01*
X0169375Y0105400D01*
X0167625Y0105400D01*
X0166008Y0104730D01*
X0165800Y0104523D01*
X0165800Y0107190D01*
X0165992Y0107270D01*
X0167230Y0108508D01*
X0167900Y0110125D01*
X0167900Y0111875D01*
X0167230Y0113492D01*
X0165992Y0114730D01*
X0164375Y0115400D01*
X0162625Y0115400D01*
X0161008Y0114730D01*
X0159770Y0113492D01*
X0159100Y0111875D01*
X0159100Y0110125D01*
X0159770Y0108508D01*
X0161008Y0107270D01*
X0161200Y0107190D01*
X0161200Y0104523D01*
X0160992Y0104730D01*
X0159375Y0105400D01*
X0157625Y0105400D01*
X0156008Y0104730D01*
X0155800Y0104523D01*
X0155800Y0107190D01*
X0155992Y0107270D01*
X0157230Y0108508D01*
X0157900Y0110125D01*
X0157900Y0111875D01*
X0157230Y0113492D01*
X0155992Y0114730D01*
X0154375Y0115400D01*
X0152625Y0115400D01*
X0151008Y0114730D01*
X0149770Y0113492D01*
X0149100Y0111875D01*
X0149100Y0110125D01*
X0149770Y0108508D01*
X0151008Y0107270D01*
X0151200Y0107190D01*
X0151200Y0104523D01*
X0150992Y0104730D01*
X0149375Y0105400D01*
X0147625Y0105400D01*
X0146008Y0104730D01*
X0145800Y0104523D01*
X0145800Y0107190D01*
X0145992Y0107270D01*
X0147230Y0108508D01*
X0147900Y0110125D01*
X0147900Y0111875D01*
X0147230Y0113492D01*
X0147023Y0113700D01*
X0149453Y0113700D01*
X0154453Y0118700D01*
X0155800Y0120047D01*
X0155800Y0121009D01*
X0156887Y0122097D01*
X0156887Y0124903D01*
X0154903Y0126887D01*
X0152097Y0126887D01*
X0150835Y0125625D01*
X0150835Y0129958D01*
X0150879Y0129914D01*
X0151289Y0129677D01*
X0151747Y0129554D01*
X0157509Y0129554D01*
X0157509Y0133335D01*
X0150184Y0133335D01*
X0150184Y0132833D01*
X0149663Y0133354D01*
X0143282Y0133354D01*
X0142535Y0132608D01*
X0141789Y0133354D01*
X0135408Y0133354D01*
X0134661Y0132608D01*
X0133915Y0133354D01*
X0127534Y0133354D01*
X0126787Y0132608D01*
X0126041Y0133354D01*
X0119660Y0133354D01*
X0118913Y0132608D01*
X0118167Y0133354D01*
X0116145Y0133354D01*
X0116387Y0133597D01*
X0116387Y0135822D01*
X0116387Y0135275D02*
X0116935Y0135275D01*
X0116387Y0133676D02*
X0157509Y0133676D01*
X0158271Y0133676D02*
X0167428Y0133676D01*
X0167428Y0132078D02*
X0165595Y0132078D01*
X0165369Y0130479D02*
X0168371Y0130479D01*
X0171000Y0130479D02*
X0171000Y0130479D01*
X0171000Y0130263D02*
X0171000Y0133441D01*
X0171000Y0133441D01*
X0171000Y0130263D01*
X0171000Y0132078D02*
X0171000Y0132078D01*
X0173629Y0130479D02*
X0173700Y0130479D01*
X0173128Y0128881D02*
X0150835Y0128881D01*
X0150835Y0127282D02*
X0171530Y0127282D01*
X0168393Y0125684D02*
X0156107Y0125684D01*
X0156887Y0124085D02*
X0167613Y0124085D01*
X0167613Y0122487D02*
X0156887Y0122487D01*
X0155800Y0120888D02*
X0168821Y0120888D01*
X0171200Y0119290D02*
X0155043Y0119290D01*
X0153444Y0117691D02*
X0171200Y0117691D01*
X0171200Y0116093D02*
X0151845Y0116093D01*
X0150772Y0114494D02*
X0150247Y0114494D01*
X0149523Y0112896D02*
X0147477Y0112896D01*
X0147900Y0111297D02*
X0149100Y0111297D01*
X0149276Y0109699D02*
X0147724Y0109699D01*
X0146823Y0108100D02*
X0150177Y0108100D01*
X0151200Y0106502D02*
X0145800Y0106502D01*
X0145800Y0104903D02*
X0146426Y0104903D01*
X0150574Y0104903D02*
X0151200Y0104903D01*
X0155800Y0104903D02*
X0156426Y0104903D01*
X0155800Y0106502D02*
X0161200Y0106502D01*
X0161200Y0104903D02*
X0160574Y0104903D01*
X0160177Y0108100D02*
X0156823Y0108100D01*
X0157724Y0109699D02*
X0159276Y0109699D01*
X0159100Y0111297D02*
X0157900Y0111297D01*
X0157477Y0112896D02*
X0159523Y0112896D01*
X0160772Y0114494D02*
X0156228Y0114494D01*
X0166228Y0114494D02*
X0170772Y0114494D01*
X0169523Y0112896D02*
X0167477Y0112896D01*
X0167900Y0111297D02*
X0169100Y0111297D01*
X0169276Y0109699D02*
X0167724Y0109699D01*
X0166823Y0108100D02*
X0170177Y0108100D01*
X0171200Y0106502D02*
X0165800Y0106502D01*
X0165800Y0104903D02*
X0166426Y0104903D01*
X0170574Y0104903D02*
X0171200Y0104903D01*
X0188937Y0125684D02*
X0205335Y0125684D01*
X0207582Y0127282D02*
X0190535Y0127282D01*
X0192134Y0128881D02*
X0224249Y0128881D01*
X0223893Y0130479D02*
X0194016Y0130479D01*
X0194772Y0132078D02*
X0223538Y0132078D01*
X0223183Y0133676D02*
X0194772Y0133676D01*
X0194772Y0135275D02*
X0222828Y0135275D01*
X0222473Y0136873D02*
X0194772Y0136873D01*
X0194772Y0138472D02*
X0222117Y0138472D01*
X0221762Y0140070D02*
X0217453Y0140070D01*
X0217643Y0141669D02*
X0221407Y0141669D01*
X0221052Y0143268D02*
X0217643Y0143268D01*
X0217643Y0144866D02*
X0220696Y0144866D01*
X0220341Y0146465D02*
X0217843Y0146465D01*
X0217843Y0148063D02*
X0219986Y0148063D01*
X0219631Y0149662D02*
X0217843Y0149662D01*
X0217843Y0151260D02*
X0219276Y0151260D01*
X0218920Y0152859D02*
X0216930Y0152859D01*
X0218565Y0154457D02*
X0214528Y0154457D01*
X0215607Y0156056D02*
X0218210Y0156056D01*
X0217855Y0157654D02*
X0216000Y0157654D01*
X0216000Y0159253D02*
X0217499Y0159253D01*
X0217144Y0160851D02*
X0216000Y0160851D01*
X0216000Y0162450D02*
X0216789Y0162450D01*
X0216434Y0164048D02*
X0216000Y0164048D01*
X0216079Y0165647D02*
X0215730Y0165647D01*
X0214058Y0141669D02*
X0213690Y0141669D01*
X0213690Y0140070D02*
X0214058Y0140070D01*
X0215678Y0127282D02*
X0224604Y0127282D01*
X0224959Y0125684D02*
X0217924Y0125684D01*
X0219418Y0124085D02*
X0225314Y0124085D01*
X0225670Y0122487D02*
X0220080Y0122487D01*
X0220729Y0120888D02*
X0225967Y0120888D01*
X0225487Y0119290D02*
X0220729Y0119290D01*
X0220729Y0117691D02*
X0225007Y0117691D01*
X0224528Y0116093D02*
X0220229Y0116093D01*
X0219567Y0114494D02*
X0224048Y0114494D01*
X0223569Y0112896D02*
X0218284Y0112896D01*
X0214896Y0088918D02*
X0211804Y0088918D01*
X0167487Y0135275D02*
X0165595Y0135275D01*
X0165415Y0136873D02*
X0167228Y0136873D01*
X0167228Y0138472D02*
X0165795Y0138472D01*
X0158271Y0132078D02*
X0157509Y0132078D01*
X0157509Y0130479D02*
X0158271Y0130479D01*
X0150893Y0125684D02*
X0150835Y0125684D01*
X0150184Y0135275D02*
X0120065Y0135275D01*
X0121664Y0136873D02*
X0150365Y0136873D01*
X0146238Y0138472D02*
X0121887Y0138472D01*
X0121720Y0140070D02*
X0145113Y0140070D01*
X0145113Y0141669D02*
X0120800Y0141669D01*
X0121520Y0143268D02*
X0145977Y0143268D01*
X0150069Y0144866D02*
X0123119Y0144866D01*
X0124717Y0146465D02*
X0149984Y0146465D01*
X0149984Y0148063D02*
X0126316Y0148063D01*
X0127914Y0149662D02*
X0149984Y0149662D01*
X0149984Y0151260D02*
X0129513Y0151260D01*
X0131111Y0152859D02*
X0150188Y0152859D01*
X0149984Y0154457D02*
X0132710Y0154457D01*
X0134308Y0156056D02*
X0149984Y0156056D01*
X0149984Y0157654D02*
X0135907Y0157654D01*
X0137505Y0159253D02*
X0149984Y0159253D01*
X0150306Y0160851D02*
X0139104Y0160851D01*
X0140702Y0162450D02*
X0149984Y0162450D01*
X0175730Y0165647D02*
X0176488Y0165647D01*
X0176200Y0164048D02*
X0176000Y0164048D01*
X0176000Y0162450D02*
X0176200Y0162450D01*
X0180800Y0159253D02*
X0181200Y0159253D01*
X0185800Y0162450D02*
X0186000Y0162450D01*
X0139291Y0117543D02*
X0138700Y0116953D01*
X0136235Y0114488D01*
X0135992Y0114730D01*
X0134375Y0115400D01*
X0132625Y0115400D01*
X0131008Y0114730D01*
X0129770Y0113492D01*
X0129100Y0111875D01*
X0129100Y0110125D01*
X0129770Y0108508D01*
X0131008Y0107270D01*
X0131200Y0107190D01*
X0131200Y0104523D01*
X0130992Y0104730D01*
X0129375Y0105400D01*
X0127625Y0105400D01*
X0126008Y0104730D01*
X0125800Y0104523D01*
X0125800Y0107190D01*
X0125992Y0107270D01*
X0127230Y0108508D01*
X0127900Y0110125D01*
X0127900Y0111875D01*
X0127230Y0113492D01*
X0125992Y0114730D01*
X0124375Y0115400D01*
X0122625Y0115400D01*
X0121008Y0114730D01*
X0120300Y0114023D01*
X0120300Y0114953D01*
X0118953Y0116300D01*
X0117709Y0117543D01*
X0118167Y0117543D01*
X0118913Y0118290D01*
X0119660Y0117543D01*
X0126041Y0117543D01*
X0126787Y0118290D01*
X0127534Y0117543D01*
X0133915Y0117543D01*
X0134661Y0118290D01*
X0135408Y0117543D01*
X0139291Y0117543D01*
X0137840Y0116093D02*
X0119160Y0116093D01*
X0119512Y0117691D02*
X0118315Y0117691D01*
X0120300Y0114494D02*
X0120772Y0114494D01*
X0126228Y0114494D02*
X0130772Y0114494D01*
X0129523Y0112896D02*
X0127477Y0112896D01*
X0127900Y0111297D02*
X0129100Y0111297D01*
X0129276Y0109699D02*
X0127724Y0109699D01*
X0126823Y0108100D02*
X0130177Y0108100D01*
X0131200Y0106502D02*
X0125800Y0106502D01*
X0125800Y0104903D02*
X0126426Y0104903D01*
X0130574Y0104903D02*
X0131200Y0104903D01*
X0136228Y0114494D02*
X0136242Y0114494D01*
X0135260Y0117691D02*
X0134063Y0117691D01*
X0127386Y0117691D02*
X0126189Y0117691D01*
X0111000Y0096000D02*
X0093500Y0096000D01*
X0093441Y0091000D02*
X0093441Y0086000D01*
X0093441Y0086000D01*
X0093441Y0082428D01*
X0093441Y0086000D01*
X0093441Y0086000D01*
X0093441Y0087428D01*
X0093441Y0091000D01*
X0093441Y0091000D01*
X0093441Y0090517D02*
X0093441Y0090517D01*
X0093441Y0088918D02*
X0093441Y0088918D01*
X0093441Y0087320D02*
X0093441Y0087320D01*
X0093441Y0085721D02*
X0093441Y0085721D01*
X0093441Y0084123D02*
X0093441Y0084123D01*
X0093441Y0082524D02*
X0093441Y0082524D01*
X0095413Y0082524D02*
X0096057Y0082524D01*
X0096135Y0080926D02*
X0091678Y0080926D01*
X0090080Y0079327D02*
X0094613Y0079327D01*
X0094613Y0077729D02*
X0086600Y0077729D01*
X0099865Y0080926D02*
X0105673Y0080926D01*
X0105939Y0082524D02*
X0101061Y0082524D01*
X0110394Y0066539D02*
X0110759Y0066539D01*
X0110759Y0064940D02*
X0110600Y0064940D01*
X0110600Y0063342D02*
X0110759Y0063342D01*
X0110600Y0063300D02*
X0108000Y0063300D01*
X0108000Y0063300D01*
X0110600Y0063300D01*
X0110600Y0061743D02*
X0110759Y0061743D01*
X0110759Y0060145D02*
X0110443Y0060145D01*
X0108000Y0060145D02*
X0108000Y0060145D01*
X0108000Y0059100D02*
X0108000Y0063300D01*
X0108000Y0063300D01*
X0108000Y0059100D01*
X0108000Y0061743D02*
X0108000Y0061743D01*
X0123160Y0076130D02*
X0133700Y0076130D01*
X0133700Y0074532D02*
X0124387Y0074532D01*
X0125357Y0072933D02*
X0133700Y0072933D01*
X0133700Y0071334D02*
X0126887Y0071334D01*
X0126887Y0069736D02*
X0133700Y0069736D01*
X0132385Y0068137D02*
X0126428Y0068137D01*
X0125800Y0066539D02*
X0130786Y0066539D01*
X0129188Y0064940D02*
X0125800Y0064940D01*
X0125800Y0063342D02*
X0127589Y0063342D01*
X0125991Y0061743D02*
X0125800Y0061743D01*
X0123500Y0079327D02*
X0123500Y0079327D01*
X0123500Y0080926D02*
X0123500Y0080926D01*
X0123500Y0082524D02*
X0123500Y0082524D01*
X0123500Y0084110D02*
X0123500Y0084110D01*
X0123500Y0084123D02*
X0123500Y0084123D01*
X0123500Y0085721D02*
X0123500Y0085721D01*
X0095340Y0116093D02*
X0094771Y0116093D01*
X0093228Y0117691D02*
X0093173Y0117691D01*
X0051000Y0103500D02*
X0051000Y0091000D01*
X0048441Y0088441D01*
X0072076Y0060145D02*
X0072444Y0060145D01*
X0072444Y0058546D02*
X0072076Y0058546D01*
X0072076Y0056948D02*
X0072444Y0056948D01*
X0101050Y0016985D02*
X0138955Y0016985D01*
X0134160Y0015387D02*
X0106378Y0015387D01*
X0111706Y0013788D02*
X0129364Y0013788D01*
X0124569Y0012190D02*
X0117035Y0012190D01*
M02*
