%
M48
M72
T01C0.01200
T02C0.01575
T03C0.02362
T04C0.03200
T05C0.04000
T06C0.04724
T07C0.11024
T08C0.12598
%
T01
X71000Y73000
X78000Y63000
X95000Y42000
X95000Y37000
X95000Y32000
X95000Y27000
X95000Y22000
X107000Y50000
X123000Y87000
X130000Y89000
X116000Y103000
X129000Y115000
X138000Y111000
X146000Y101000
X146000Y93000
X159000Y87000
X162000Y84000
X176000Y88000
X187000Y73000
X154000Y105000
X155000Y111000
X179000Y119000
X178000Y141000
X185000Y154000
X145000Y147000
X115000Y129000
X88000Y142000
X82000Y142000
X85000Y159000
X95000Y179000
X95000Y184000
X108000Y189000
X81000Y204000
X71000Y107000
X47000Y105000
X96000Y93000
X150000Y77000
T02
X102000Y68000
X90000Y58000
X90000Y199000
X106000Y208000
T03
X169100Y126400
T04
X188500Y146000
X198500Y146000
X193500Y156000
X203500Y156000
X48500Y156000
X38500Y156000
X33500Y146000
X43500Y146000
T05
X55692Y133827
X65692Y133827
X75692Y133827
X85692Y133827
X95692Y133827
X95692Y123827
X85692Y123827
X75692Y123827
X65692Y123827
X55692Y123827
X202969Y87535
X202969Y77535
T06
X56354Y78165
X56354Y88008
X36669Y88008
X36669Y78165
T07
X57500Y151000
X212500Y151000
T08
X36433Y36433
X26591Y119110
X36433Y201787
X201787Y201787
X211630Y119110
X201787Y36433
M30
