G75*
%MOIN*%
%OFA0B0*%
%FSLAX25Y25*%
%IPPOS*%
%LPD*%
%AMOC8*
5,1,8,0,0,1.08239X$1,22.5*
%
%ADD10C,0.00000*%
%ADD11C,0.01600*%
D10*
X0001000Y0001000D02*
X0001000Y0237220D01*
X0237220Y0237220D01*
X0237220Y0001000D01*
X0001000Y0001000D01*
X0030134Y0036433D02*
X0030136Y0036591D01*
X0030142Y0036749D01*
X0030152Y0036907D01*
X0030166Y0037065D01*
X0030184Y0037222D01*
X0030205Y0037379D01*
X0030231Y0037535D01*
X0030261Y0037691D01*
X0030294Y0037846D01*
X0030332Y0037999D01*
X0030373Y0038152D01*
X0030418Y0038304D01*
X0030467Y0038455D01*
X0030520Y0038604D01*
X0030576Y0038752D01*
X0030636Y0038898D01*
X0030700Y0039043D01*
X0030768Y0039186D01*
X0030839Y0039328D01*
X0030913Y0039468D01*
X0030991Y0039605D01*
X0031073Y0039741D01*
X0031157Y0039875D01*
X0031246Y0040006D01*
X0031337Y0040135D01*
X0031432Y0040262D01*
X0031529Y0040387D01*
X0031630Y0040509D01*
X0031734Y0040628D01*
X0031841Y0040745D01*
X0031951Y0040859D01*
X0032064Y0040970D01*
X0032179Y0041079D01*
X0032297Y0041184D01*
X0032418Y0041286D01*
X0032541Y0041386D01*
X0032667Y0041482D01*
X0032795Y0041575D01*
X0032925Y0041665D01*
X0033058Y0041751D01*
X0033193Y0041835D01*
X0033329Y0041914D01*
X0033468Y0041991D01*
X0033609Y0042063D01*
X0033751Y0042133D01*
X0033895Y0042198D01*
X0034041Y0042260D01*
X0034188Y0042318D01*
X0034337Y0042373D01*
X0034487Y0042424D01*
X0034638Y0042471D01*
X0034790Y0042514D01*
X0034943Y0042553D01*
X0035098Y0042589D01*
X0035253Y0042620D01*
X0035409Y0042648D01*
X0035565Y0042672D01*
X0035722Y0042692D01*
X0035880Y0042708D01*
X0036037Y0042720D01*
X0036196Y0042728D01*
X0036354Y0042732D01*
X0036512Y0042732D01*
X0036670Y0042728D01*
X0036829Y0042720D01*
X0036986Y0042708D01*
X0037144Y0042692D01*
X0037301Y0042672D01*
X0037457Y0042648D01*
X0037613Y0042620D01*
X0037768Y0042589D01*
X0037923Y0042553D01*
X0038076Y0042514D01*
X0038228Y0042471D01*
X0038379Y0042424D01*
X0038529Y0042373D01*
X0038678Y0042318D01*
X0038825Y0042260D01*
X0038971Y0042198D01*
X0039115Y0042133D01*
X0039257Y0042063D01*
X0039398Y0041991D01*
X0039537Y0041914D01*
X0039673Y0041835D01*
X0039808Y0041751D01*
X0039941Y0041665D01*
X0040071Y0041575D01*
X0040199Y0041482D01*
X0040325Y0041386D01*
X0040448Y0041286D01*
X0040569Y0041184D01*
X0040687Y0041079D01*
X0040802Y0040970D01*
X0040915Y0040859D01*
X0041025Y0040745D01*
X0041132Y0040628D01*
X0041236Y0040509D01*
X0041337Y0040387D01*
X0041434Y0040262D01*
X0041529Y0040135D01*
X0041620Y0040006D01*
X0041709Y0039875D01*
X0041793Y0039741D01*
X0041875Y0039605D01*
X0041953Y0039468D01*
X0042027Y0039328D01*
X0042098Y0039186D01*
X0042166Y0039043D01*
X0042230Y0038898D01*
X0042290Y0038752D01*
X0042346Y0038604D01*
X0042399Y0038455D01*
X0042448Y0038304D01*
X0042493Y0038152D01*
X0042534Y0037999D01*
X0042572Y0037846D01*
X0042605Y0037691D01*
X0042635Y0037535D01*
X0042661Y0037379D01*
X0042682Y0037222D01*
X0042700Y0037065D01*
X0042714Y0036907D01*
X0042724Y0036749D01*
X0042730Y0036591D01*
X0042732Y0036433D01*
X0042730Y0036275D01*
X0042724Y0036117D01*
X0042714Y0035959D01*
X0042700Y0035801D01*
X0042682Y0035644D01*
X0042661Y0035487D01*
X0042635Y0035331D01*
X0042605Y0035175D01*
X0042572Y0035020D01*
X0042534Y0034867D01*
X0042493Y0034714D01*
X0042448Y0034562D01*
X0042399Y0034411D01*
X0042346Y0034262D01*
X0042290Y0034114D01*
X0042230Y0033968D01*
X0042166Y0033823D01*
X0042098Y0033680D01*
X0042027Y0033538D01*
X0041953Y0033398D01*
X0041875Y0033261D01*
X0041793Y0033125D01*
X0041709Y0032991D01*
X0041620Y0032860D01*
X0041529Y0032731D01*
X0041434Y0032604D01*
X0041337Y0032479D01*
X0041236Y0032357D01*
X0041132Y0032238D01*
X0041025Y0032121D01*
X0040915Y0032007D01*
X0040802Y0031896D01*
X0040687Y0031787D01*
X0040569Y0031682D01*
X0040448Y0031580D01*
X0040325Y0031480D01*
X0040199Y0031384D01*
X0040071Y0031291D01*
X0039941Y0031201D01*
X0039808Y0031115D01*
X0039673Y0031031D01*
X0039537Y0030952D01*
X0039398Y0030875D01*
X0039257Y0030803D01*
X0039115Y0030733D01*
X0038971Y0030668D01*
X0038825Y0030606D01*
X0038678Y0030548D01*
X0038529Y0030493D01*
X0038379Y0030442D01*
X0038228Y0030395D01*
X0038076Y0030352D01*
X0037923Y0030313D01*
X0037768Y0030277D01*
X0037613Y0030246D01*
X0037457Y0030218D01*
X0037301Y0030194D01*
X0037144Y0030174D01*
X0036986Y0030158D01*
X0036829Y0030146D01*
X0036670Y0030138D01*
X0036512Y0030134D01*
X0036354Y0030134D01*
X0036196Y0030138D01*
X0036037Y0030146D01*
X0035880Y0030158D01*
X0035722Y0030174D01*
X0035565Y0030194D01*
X0035409Y0030218D01*
X0035253Y0030246D01*
X0035098Y0030277D01*
X0034943Y0030313D01*
X0034790Y0030352D01*
X0034638Y0030395D01*
X0034487Y0030442D01*
X0034337Y0030493D01*
X0034188Y0030548D01*
X0034041Y0030606D01*
X0033895Y0030668D01*
X0033751Y0030733D01*
X0033609Y0030803D01*
X0033468Y0030875D01*
X0033329Y0030952D01*
X0033193Y0031031D01*
X0033058Y0031115D01*
X0032925Y0031201D01*
X0032795Y0031291D01*
X0032667Y0031384D01*
X0032541Y0031480D01*
X0032418Y0031580D01*
X0032297Y0031682D01*
X0032179Y0031787D01*
X0032064Y0031896D01*
X0031951Y0032007D01*
X0031841Y0032121D01*
X0031734Y0032238D01*
X0031630Y0032357D01*
X0031529Y0032479D01*
X0031432Y0032604D01*
X0031337Y0032731D01*
X0031246Y0032860D01*
X0031157Y0032991D01*
X0031073Y0033125D01*
X0030991Y0033261D01*
X0030913Y0033398D01*
X0030839Y0033538D01*
X0030768Y0033680D01*
X0030700Y0033823D01*
X0030636Y0033968D01*
X0030576Y0034114D01*
X0030520Y0034262D01*
X0030467Y0034411D01*
X0030418Y0034562D01*
X0030373Y0034714D01*
X0030332Y0034867D01*
X0030294Y0035020D01*
X0030261Y0035175D01*
X0030231Y0035331D01*
X0030205Y0035487D01*
X0030184Y0035644D01*
X0030166Y0035801D01*
X0030152Y0035959D01*
X0030142Y0036117D01*
X0030136Y0036275D01*
X0030134Y0036433D01*
X0020292Y0119110D02*
X0020294Y0119268D01*
X0020300Y0119426D01*
X0020310Y0119584D01*
X0020324Y0119742D01*
X0020342Y0119899D01*
X0020363Y0120056D01*
X0020389Y0120212D01*
X0020419Y0120368D01*
X0020452Y0120523D01*
X0020490Y0120676D01*
X0020531Y0120829D01*
X0020576Y0120981D01*
X0020625Y0121132D01*
X0020678Y0121281D01*
X0020734Y0121429D01*
X0020794Y0121575D01*
X0020858Y0121720D01*
X0020926Y0121863D01*
X0020997Y0122005D01*
X0021071Y0122145D01*
X0021149Y0122282D01*
X0021231Y0122418D01*
X0021315Y0122552D01*
X0021404Y0122683D01*
X0021495Y0122812D01*
X0021590Y0122939D01*
X0021687Y0123064D01*
X0021788Y0123186D01*
X0021892Y0123305D01*
X0021999Y0123422D01*
X0022109Y0123536D01*
X0022222Y0123647D01*
X0022337Y0123756D01*
X0022455Y0123861D01*
X0022576Y0123963D01*
X0022699Y0124063D01*
X0022825Y0124159D01*
X0022953Y0124252D01*
X0023083Y0124342D01*
X0023216Y0124428D01*
X0023351Y0124512D01*
X0023487Y0124591D01*
X0023626Y0124668D01*
X0023767Y0124740D01*
X0023909Y0124810D01*
X0024053Y0124875D01*
X0024199Y0124937D01*
X0024346Y0124995D01*
X0024495Y0125050D01*
X0024645Y0125101D01*
X0024796Y0125148D01*
X0024948Y0125191D01*
X0025101Y0125230D01*
X0025256Y0125266D01*
X0025411Y0125297D01*
X0025567Y0125325D01*
X0025723Y0125349D01*
X0025880Y0125369D01*
X0026038Y0125385D01*
X0026195Y0125397D01*
X0026354Y0125405D01*
X0026512Y0125409D01*
X0026670Y0125409D01*
X0026828Y0125405D01*
X0026987Y0125397D01*
X0027144Y0125385D01*
X0027302Y0125369D01*
X0027459Y0125349D01*
X0027615Y0125325D01*
X0027771Y0125297D01*
X0027926Y0125266D01*
X0028081Y0125230D01*
X0028234Y0125191D01*
X0028386Y0125148D01*
X0028537Y0125101D01*
X0028687Y0125050D01*
X0028836Y0124995D01*
X0028983Y0124937D01*
X0029129Y0124875D01*
X0029273Y0124810D01*
X0029415Y0124740D01*
X0029556Y0124668D01*
X0029695Y0124591D01*
X0029831Y0124512D01*
X0029966Y0124428D01*
X0030099Y0124342D01*
X0030229Y0124252D01*
X0030357Y0124159D01*
X0030483Y0124063D01*
X0030606Y0123963D01*
X0030727Y0123861D01*
X0030845Y0123756D01*
X0030960Y0123647D01*
X0031073Y0123536D01*
X0031183Y0123422D01*
X0031290Y0123305D01*
X0031394Y0123186D01*
X0031495Y0123064D01*
X0031592Y0122939D01*
X0031687Y0122812D01*
X0031778Y0122683D01*
X0031867Y0122552D01*
X0031951Y0122418D01*
X0032033Y0122282D01*
X0032111Y0122145D01*
X0032185Y0122005D01*
X0032256Y0121863D01*
X0032324Y0121720D01*
X0032388Y0121575D01*
X0032448Y0121429D01*
X0032504Y0121281D01*
X0032557Y0121132D01*
X0032606Y0120981D01*
X0032651Y0120829D01*
X0032692Y0120676D01*
X0032730Y0120523D01*
X0032763Y0120368D01*
X0032793Y0120212D01*
X0032819Y0120056D01*
X0032840Y0119899D01*
X0032858Y0119742D01*
X0032872Y0119584D01*
X0032882Y0119426D01*
X0032888Y0119268D01*
X0032890Y0119110D01*
X0032888Y0118952D01*
X0032882Y0118794D01*
X0032872Y0118636D01*
X0032858Y0118478D01*
X0032840Y0118321D01*
X0032819Y0118164D01*
X0032793Y0118008D01*
X0032763Y0117852D01*
X0032730Y0117697D01*
X0032692Y0117544D01*
X0032651Y0117391D01*
X0032606Y0117239D01*
X0032557Y0117088D01*
X0032504Y0116939D01*
X0032448Y0116791D01*
X0032388Y0116645D01*
X0032324Y0116500D01*
X0032256Y0116357D01*
X0032185Y0116215D01*
X0032111Y0116075D01*
X0032033Y0115938D01*
X0031951Y0115802D01*
X0031867Y0115668D01*
X0031778Y0115537D01*
X0031687Y0115408D01*
X0031592Y0115281D01*
X0031495Y0115156D01*
X0031394Y0115034D01*
X0031290Y0114915D01*
X0031183Y0114798D01*
X0031073Y0114684D01*
X0030960Y0114573D01*
X0030845Y0114464D01*
X0030727Y0114359D01*
X0030606Y0114257D01*
X0030483Y0114157D01*
X0030357Y0114061D01*
X0030229Y0113968D01*
X0030099Y0113878D01*
X0029966Y0113792D01*
X0029831Y0113708D01*
X0029695Y0113629D01*
X0029556Y0113552D01*
X0029415Y0113480D01*
X0029273Y0113410D01*
X0029129Y0113345D01*
X0028983Y0113283D01*
X0028836Y0113225D01*
X0028687Y0113170D01*
X0028537Y0113119D01*
X0028386Y0113072D01*
X0028234Y0113029D01*
X0028081Y0112990D01*
X0027926Y0112954D01*
X0027771Y0112923D01*
X0027615Y0112895D01*
X0027459Y0112871D01*
X0027302Y0112851D01*
X0027144Y0112835D01*
X0026987Y0112823D01*
X0026828Y0112815D01*
X0026670Y0112811D01*
X0026512Y0112811D01*
X0026354Y0112815D01*
X0026195Y0112823D01*
X0026038Y0112835D01*
X0025880Y0112851D01*
X0025723Y0112871D01*
X0025567Y0112895D01*
X0025411Y0112923D01*
X0025256Y0112954D01*
X0025101Y0112990D01*
X0024948Y0113029D01*
X0024796Y0113072D01*
X0024645Y0113119D01*
X0024495Y0113170D01*
X0024346Y0113225D01*
X0024199Y0113283D01*
X0024053Y0113345D01*
X0023909Y0113410D01*
X0023767Y0113480D01*
X0023626Y0113552D01*
X0023487Y0113629D01*
X0023351Y0113708D01*
X0023216Y0113792D01*
X0023083Y0113878D01*
X0022953Y0113968D01*
X0022825Y0114061D01*
X0022699Y0114157D01*
X0022576Y0114257D01*
X0022455Y0114359D01*
X0022337Y0114464D01*
X0022222Y0114573D01*
X0022109Y0114684D01*
X0021999Y0114798D01*
X0021892Y0114915D01*
X0021788Y0115034D01*
X0021687Y0115156D01*
X0021590Y0115281D01*
X0021495Y0115408D01*
X0021404Y0115537D01*
X0021315Y0115668D01*
X0021231Y0115802D01*
X0021149Y0115938D01*
X0021071Y0116075D01*
X0020997Y0116215D01*
X0020926Y0116357D01*
X0020858Y0116500D01*
X0020794Y0116645D01*
X0020734Y0116791D01*
X0020678Y0116939D01*
X0020625Y0117088D01*
X0020576Y0117239D01*
X0020531Y0117391D01*
X0020490Y0117544D01*
X0020452Y0117697D01*
X0020419Y0117852D01*
X0020389Y0118008D01*
X0020363Y0118164D01*
X0020342Y0118321D01*
X0020324Y0118478D01*
X0020310Y0118636D01*
X0020300Y0118794D01*
X0020294Y0118952D01*
X0020292Y0119110D01*
X0051988Y0151000D02*
X0051990Y0151148D01*
X0051996Y0151296D01*
X0052006Y0151444D01*
X0052020Y0151591D01*
X0052038Y0151738D01*
X0052059Y0151884D01*
X0052085Y0152030D01*
X0052115Y0152175D01*
X0052148Y0152319D01*
X0052186Y0152462D01*
X0052227Y0152604D01*
X0052272Y0152745D01*
X0052320Y0152885D01*
X0052373Y0153024D01*
X0052429Y0153161D01*
X0052489Y0153296D01*
X0052552Y0153430D01*
X0052619Y0153562D01*
X0052690Y0153692D01*
X0052764Y0153820D01*
X0052841Y0153946D01*
X0052922Y0154070D01*
X0053006Y0154192D01*
X0053093Y0154311D01*
X0053184Y0154428D01*
X0053278Y0154543D01*
X0053374Y0154655D01*
X0053474Y0154765D01*
X0053576Y0154871D01*
X0053682Y0154975D01*
X0053790Y0155076D01*
X0053901Y0155174D01*
X0054014Y0155270D01*
X0054130Y0155362D01*
X0054248Y0155451D01*
X0054369Y0155536D01*
X0054492Y0155619D01*
X0054617Y0155698D01*
X0054744Y0155774D01*
X0054873Y0155846D01*
X0055004Y0155915D01*
X0055137Y0155980D01*
X0055272Y0156041D01*
X0055408Y0156099D01*
X0055545Y0156154D01*
X0055684Y0156204D01*
X0055825Y0156251D01*
X0055966Y0156294D01*
X0056109Y0156334D01*
X0056253Y0156369D01*
X0056397Y0156401D01*
X0056543Y0156428D01*
X0056689Y0156452D01*
X0056836Y0156472D01*
X0056983Y0156488D01*
X0057130Y0156500D01*
X0057278Y0156508D01*
X0057426Y0156512D01*
X0057574Y0156512D01*
X0057722Y0156508D01*
X0057870Y0156500D01*
X0058017Y0156488D01*
X0058164Y0156472D01*
X0058311Y0156452D01*
X0058457Y0156428D01*
X0058603Y0156401D01*
X0058747Y0156369D01*
X0058891Y0156334D01*
X0059034Y0156294D01*
X0059175Y0156251D01*
X0059316Y0156204D01*
X0059455Y0156154D01*
X0059592Y0156099D01*
X0059728Y0156041D01*
X0059863Y0155980D01*
X0059996Y0155915D01*
X0060127Y0155846D01*
X0060256Y0155774D01*
X0060383Y0155698D01*
X0060508Y0155619D01*
X0060631Y0155536D01*
X0060752Y0155451D01*
X0060870Y0155362D01*
X0060986Y0155270D01*
X0061099Y0155174D01*
X0061210Y0155076D01*
X0061318Y0154975D01*
X0061424Y0154871D01*
X0061526Y0154765D01*
X0061626Y0154655D01*
X0061722Y0154543D01*
X0061816Y0154428D01*
X0061907Y0154311D01*
X0061994Y0154192D01*
X0062078Y0154070D01*
X0062159Y0153946D01*
X0062236Y0153820D01*
X0062310Y0153692D01*
X0062381Y0153562D01*
X0062448Y0153430D01*
X0062511Y0153296D01*
X0062571Y0153161D01*
X0062627Y0153024D01*
X0062680Y0152885D01*
X0062728Y0152745D01*
X0062773Y0152604D01*
X0062814Y0152462D01*
X0062852Y0152319D01*
X0062885Y0152175D01*
X0062915Y0152030D01*
X0062941Y0151884D01*
X0062962Y0151738D01*
X0062980Y0151591D01*
X0062994Y0151444D01*
X0063004Y0151296D01*
X0063010Y0151148D01*
X0063012Y0151000D01*
X0063010Y0150852D01*
X0063004Y0150704D01*
X0062994Y0150556D01*
X0062980Y0150409D01*
X0062962Y0150262D01*
X0062941Y0150116D01*
X0062915Y0149970D01*
X0062885Y0149825D01*
X0062852Y0149681D01*
X0062814Y0149538D01*
X0062773Y0149396D01*
X0062728Y0149255D01*
X0062680Y0149115D01*
X0062627Y0148976D01*
X0062571Y0148839D01*
X0062511Y0148704D01*
X0062448Y0148570D01*
X0062381Y0148438D01*
X0062310Y0148308D01*
X0062236Y0148180D01*
X0062159Y0148054D01*
X0062078Y0147930D01*
X0061994Y0147808D01*
X0061907Y0147689D01*
X0061816Y0147572D01*
X0061722Y0147457D01*
X0061626Y0147345D01*
X0061526Y0147235D01*
X0061424Y0147129D01*
X0061318Y0147025D01*
X0061210Y0146924D01*
X0061099Y0146826D01*
X0060986Y0146730D01*
X0060870Y0146638D01*
X0060752Y0146549D01*
X0060631Y0146464D01*
X0060508Y0146381D01*
X0060383Y0146302D01*
X0060256Y0146226D01*
X0060127Y0146154D01*
X0059996Y0146085D01*
X0059863Y0146020D01*
X0059728Y0145959D01*
X0059592Y0145901D01*
X0059455Y0145846D01*
X0059316Y0145796D01*
X0059175Y0145749D01*
X0059034Y0145706D01*
X0058891Y0145666D01*
X0058747Y0145631D01*
X0058603Y0145599D01*
X0058457Y0145572D01*
X0058311Y0145548D01*
X0058164Y0145528D01*
X0058017Y0145512D01*
X0057870Y0145500D01*
X0057722Y0145492D01*
X0057574Y0145488D01*
X0057426Y0145488D01*
X0057278Y0145492D01*
X0057130Y0145500D01*
X0056983Y0145512D01*
X0056836Y0145528D01*
X0056689Y0145548D01*
X0056543Y0145572D01*
X0056397Y0145599D01*
X0056253Y0145631D01*
X0056109Y0145666D01*
X0055966Y0145706D01*
X0055825Y0145749D01*
X0055684Y0145796D01*
X0055545Y0145846D01*
X0055408Y0145901D01*
X0055272Y0145959D01*
X0055137Y0146020D01*
X0055004Y0146085D01*
X0054873Y0146154D01*
X0054744Y0146226D01*
X0054617Y0146302D01*
X0054492Y0146381D01*
X0054369Y0146464D01*
X0054248Y0146549D01*
X0054130Y0146638D01*
X0054014Y0146730D01*
X0053901Y0146826D01*
X0053790Y0146924D01*
X0053682Y0147025D01*
X0053576Y0147129D01*
X0053474Y0147235D01*
X0053374Y0147345D01*
X0053278Y0147457D01*
X0053184Y0147572D01*
X0053093Y0147689D01*
X0053006Y0147808D01*
X0052922Y0147930D01*
X0052841Y0148054D01*
X0052764Y0148180D01*
X0052690Y0148308D01*
X0052619Y0148438D01*
X0052552Y0148570D01*
X0052489Y0148704D01*
X0052429Y0148839D01*
X0052373Y0148976D01*
X0052320Y0149115D01*
X0052272Y0149255D01*
X0052227Y0149396D01*
X0052186Y0149538D01*
X0052148Y0149681D01*
X0052115Y0149825D01*
X0052085Y0149970D01*
X0052059Y0150116D01*
X0052038Y0150262D01*
X0052020Y0150409D01*
X0052006Y0150556D01*
X0051996Y0150704D01*
X0051990Y0150852D01*
X0051988Y0151000D01*
X0030134Y0201787D02*
X0030136Y0201945D01*
X0030142Y0202103D01*
X0030152Y0202261D01*
X0030166Y0202419D01*
X0030184Y0202576D01*
X0030205Y0202733D01*
X0030231Y0202889D01*
X0030261Y0203045D01*
X0030294Y0203200D01*
X0030332Y0203353D01*
X0030373Y0203506D01*
X0030418Y0203658D01*
X0030467Y0203809D01*
X0030520Y0203958D01*
X0030576Y0204106D01*
X0030636Y0204252D01*
X0030700Y0204397D01*
X0030768Y0204540D01*
X0030839Y0204682D01*
X0030913Y0204822D01*
X0030991Y0204959D01*
X0031073Y0205095D01*
X0031157Y0205229D01*
X0031246Y0205360D01*
X0031337Y0205489D01*
X0031432Y0205616D01*
X0031529Y0205741D01*
X0031630Y0205863D01*
X0031734Y0205982D01*
X0031841Y0206099D01*
X0031951Y0206213D01*
X0032064Y0206324D01*
X0032179Y0206433D01*
X0032297Y0206538D01*
X0032418Y0206640D01*
X0032541Y0206740D01*
X0032667Y0206836D01*
X0032795Y0206929D01*
X0032925Y0207019D01*
X0033058Y0207105D01*
X0033193Y0207189D01*
X0033329Y0207268D01*
X0033468Y0207345D01*
X0033609Y0207417D01*
X0033751Y0207487D01*
X0033895Y0207552D01*
X0034041Y0207614D01*
X0034188Y0207672D01*
X0034337Y0207727D01*
X0034487Y0207778D01*
X0034638Y0207825D01*
X0034790Y0207868D01*
X0034943Y0207907D01*
X0035098Y0207943D01*
X0035253Y0207974D01*
X0035409Y0208002D01*
X0035565Y0208026D01*
X0035722Y0208046D01*
X0035880Y0208062D01*
X0036037Y0208074D01*
X0036196Y0208082D01*
X0036354Y0208086D01*
X0036512Y0208086D01*
X0036670Y0208082D01*
X0036829Y0208074D01*
X0036986Y0208062D01*
X0037144Y0208046D01*
X0037301Y0208026D01*
X0037457Y0208002D01*
X0037613Y0207974D01*
X0037768Y0207943D01*
X0037923Y0207907D01*
X0038076Y0207868D01*
X0038228Y0207825D01*
X0038379Y0207778D01*
X0038529Y0207727D01*
X0038678Y0207672D01*
X0038825Y0207614D01*
X0038971Y0207552D01*
X0039115Y0207487D01*
X0039257Y0207417D01*
X0039398Y0207345D01*
X0039537Y0207268D01*
X0039673Y0207189D01*
X0039808Y0207105D01*
X0039941Y0207019D01*
X0040071Y0206929D01*
X0040199Y0206836D01*
X0040325Y0206740D01*
X0040448Y0206640D01*
X0040569Y0206538D01*
X0040687Y0206433D01*
X0040802Y0206324D01*
X0040915Y0206213D01*
X0041025Y0206099D01*
X0041132Y0205982D01*
X0041236Y0205863D01*
X0041337Y0205741D01*
X0041434Y0205616D01*
X0041529Y0205489D01*
X0041620Y0205360D01*
X0041709Y0205229D01*
X0041793Y0205095D01*
X0041875Y0204959D01*
X0041953Y0204822D01*
X0042027Y0204682D01*
X0042098Y0204540D01*
X0042166Y0204397D01*
X0042230Y0204252D01*
X0042290Y0204106D01*
X0042346Y0203958D01*
X0042399Y0203809D01*
X0042448Y0203658D01*
X0042493Y0203506D01*
X0042534Y0203353D01*
X0042572Y0203200D01*
X0042605Y0203045D01*
X0042635Y0202889D01*
X0042661Y0202733D01*
X0042682Y0202576D01*
X0042700Y0202419D01*
X0042714Y0202261D01*
X0042724Y0202103D01*
X0042730Y0201945D01*
X0042732Y0201787D01*
X0042730Y0201629D01*
X0042724Y0201471D01*
X0042714Y0201313D01*
X0042700Y0201155D01*
X0042682Y0200998D01*
X0042661Y0200841D01*
X0042635Y0200685D01*
X0042605Y0200529D01*
X0042572Y0200374D01*
X0042534Y0200221D01*
X0042493Y0200068D01*
X0042448Y0199916D01*
X0042399Y0199765D01*
X0042346Y0199616D01*
X0042290Y0199468D01*
X0042230Y0199322D01*
X0042166Y0199177D01*
X0042098Y0199034D01*
X0042027Y0198892D01*
X0041953Y0198752D01*
X0041875Y0198615D01*
X0041793Y0198479D01*
X0041709Y0198345D01*
X0041620Y0198214D01*
X0041529Y0198085D01*
X0041434Y0197958D01*
X0041337Y0197833D01*
X0041236Y0197711D01*
X0041132Y0197592D01*
X0041025Y0197475D01*
X0040915Y0197361D01*
X0040802Y0197250D01*
X0040687Y0197141D01*
X0040569Y0197036D01*
X0040448Y0196934D01*
X0040325Y0196834D01*
X0040199Y0196738D01*
X0040071Y0196645D01*
X0039941Y0196555D01*
X0039808Y0196469D01*
X0039673Y0196385D01*
X0039537Y0196306D01*
X0039398Y0196229D01*
X0039257Y0196157D01*
X0039115Y0196087D01*
X0038971Y0196022D01*
X0038825Y0195960D01*
X0038678Y0195902D01*
X0038529Y0195847D01*
X0038379Y0195796D01*
X0038228Y0195749D01*
X0038076Y0195706D01*
X0037923Y0195667D01*
X0037768Y0195631D01*
X0037613Y0195600D01*
X0037457Y0195572D01*
X0037301Y0195548D01*
X0037144Y0195528D01*
X0036986Y0195512D01*
X0036829Y0195500D01*
X0036670Y0195492D01*
X0036512Y0195488D01*
X0036354Y0195488D01*
X0036196Y0195492D01*
X0036037Y0195500D01*
X0035880Y0195512D01*
X0035722Y0195528D01*
X0035565Y0195548D01*
X0035409Y0195572D01*
X0035253Y0195600D01*
X0035098Y0195631D01*
X0034943Y0195667D01*
X0034790Y0195706D01*
X0034638Y0195749D01*
X0034487Y0195796D01*
X0034337Y0195847D01*
X0034188Y0195902D01*
X0034041Y0195960D01*
X0033895Y0196022D01*
X0033751Y0196087D01*
X0033609Y0196157D01*
X0033468Y0196229D01*
X0033329Y0196306D01*
X0033193Y0196385D01*
X0033058Y0196469D01*
X0032925Y0196555D01*
X0032795Y0196645D01*
X0032667Y0196738D01*
X0032541Y0196834D01*
X0032418Y0196934D01*
X0032297Y0197036D01*
X0032179Y0197141D01*
X0032064Y0197250D01*
X0031951Y0197361D01*
X0031841Y0197475D01*
X0031734Y0197592D01*
X0031630Y0197711D01*
X0031529Y0197833D01*
X0031432Y0197958D01*
X0031337Y0198085D01*
X0031246Y0198214D01*
X0031157Y0198345D01*
X0031073Y0198479D01*
X0030991Y0198615D01*
X0030913Y0198752D01*
X0030839Y0198892D01*
X0030768Y0199034D01*
X0030700Y0199177D01*
X0030636Y0199322D01*
X0030576Y0199468D01*
X0030520Y0199616D01*
X0030467Y0199765D01*
X0030418Y0199916D01*
X0030373Y0200068D01*
X0030332Y0200221D01*
X0030294Y0200374D01*
X0030261Y0200529D01*
X0030231Y0200685D01*
X0030205Y0200841D01*
X0030184Y0200998D01*
X0030166Y0201155D01*
X0030152Y0201313D01*
X0030142Y0201471D01*
X0030136Y0201629D01*
X0030134Y0201787D01*
X0195488Y0201787D02*
X0195490Y0201945D01*
X0195496Y0202103D01*
X0195506Y0202261D01*
X0195520Y0202419D01*
X0195538Y0202576D01*
X0195559Y0202733D01*
X0195585Y0202889D01*
X0195615Y0203045D01*
X0195648Y0203200D01*
X0195686Y0203353D01*
X0195727Y0203506D01*
X0195772Y0203658D01*
X0195821Y0203809D01*
X0195874Y0203958D01*
X0195930Y0204106D01*
X0195990Y0204252D01*
X0196054Y0204397D01*
X0196122Y0204540D01*
X0196193Y0204682D01*
X0196267Y0204822D01*
X0196345Y0204959D01*
X0196427Y0205095D01*
X0196511Y0205229D01*
X0196600Y0205360D01*
X0196691Y0205489D01*
X0196786Y0205616D01*
X0196883Y0205741D01*
X0196984Y0205863D01*
X0197088Y0205982D01*
X0197195Y0206099D01*
X0197305Y0206213D01*
X0197418Y0206324D01*
X0197533Y0206433D01*
X0197651Y0206538D01*
X0197772Y0206640D01*
X0197895Y0206740D01*
X0198021Y0206836D01*
X0198149Y0206929D01*
X0198279Y0207019D01*
X0198412Y0207105D01*
X0198547Y0207189D01*
X0198683Y0207268D01*
X0198822Y0207345D01*
X0198963Y0207417D01*
X0199105Y0207487D01*
X0199249Y0207552D01*
X0199395Y0207614D01*
X0199542Y0207672D01*
X0199691Y0207727D01*
X0199841Y0207778D01*
X0199992Y0207825D01*
X0200144Y0207868D01*
X0200297Y0207907D01*
X0200452Y0207943D01*
X0200607Y0207974D01*
X0200763Y0208002D01*
X0200919Y0208026D01*
X0201076Y0208046D01*
X0201234Y0208062D01*
X0201391Y0208074D01*
X0201550Y0208082D01*
X0201708Y0208086D01*
X0201866Y0208086D01*
X0202024Y0208082D01*
X0202183Y0208074D01*
X0202340Y0208062D01*
X0202498Y0208046D01*
X0202655Y0208026D01*
X0202811Y0208002D01*
X0202967Y0207974D01*
X0203122Y0207943D01*
X0203277Y0207907D01*
X0203430Y0207868D01*
X0203582Y0207825D01*
X0203733Y0207778D01*
X0203883Y0207727D01*
X0204032Y0207672D01*
X0204179Y0207614D01*
X0204325Y0207552D01*
X0204469Y0207487D01*
X0204611Y0207417D01*
X0204752Y0207345D01*
X0204891Y0207268D01*
X0205027Y0207189D01*
X0205162Y0207105D01*
X0205295Y0207019D01*
X0205425Y0206929D01*
X0205553Y0206836D01*
X0205679Y0206740D01*
X0205802Y0206640D01*
X0205923Y0206538D01*
X0206041Y0206433D01*
X0206156Y0206324D01*
X0206269Y0206213D01*
X0206379Y0206099D01*
X0206486Y0205982D01*
X0206590Y0205863D01*
X0206691Y0205741D01*
X0206788Y0205616D01*
X0206883Y0205489D01*
X0206974Y0205360D01*
X0207063Y0205229D01*
X0207147Y0205095D01*
X0207229Y0204959D01*
X0207307Y0204822D01*
X0207381Y0204682D01*
X0207452Y0204540D01*
X0207520Y0204397D01*
X0207584Y0204252D01*
X0207644Y0204106D01*
X0207700Y0203958D01*
X0207753Y0203809D01*
X0207802Y0203658D01*
X0207847Y0203506D01*
X0207888Y0203353D01*
X0207926Y0203200D01*
X0207959Y0203045D01*
X0207989Y0202889D01*
X0208015Y0202733D01*
X0208036Y0202576D01*
X0208054Y0202419D01*
X0208068Y0202261D01*
X0208078Y0202103D01*
X0208084Y0201945D01*
X0208086Y0201787D01*
X0208084Y0201629D01*
X0208078Y0201471D01*
X0208068Y0201313D01*
X0208054Y0201155D01*
X0208036Y0200998D01*
X0208015Y0200841D01*
X0207989Y0200685D01*
X0207959Y0200529D01*
X0207926Y0200374D01*
X0207888Y0200221D01*
X0207847Y0200068D01*
X0207802Y0199916D01*
X0207753Y0199765D01*
X0207700Y0199616D01*
X0207644Y0199468D01*
X0207584Y0199322D01*
X0207520Y0199177D01*
X0207452Y0199034D01*
X0207381Y0198892D01*
X0207307Y0198752D01*
X0207229Y0198615D01*
X0207147Y0198479D01*
X0207063Y0198345D01*
X0206974Y0198214D01*
X0206883Y0198085D01*
X0206788Y0197958D01*
X0206691Y0197833D01*
X0206590Y0197711D01*
X0206486Y0197592D01*
X0206379Y0197475D01*
X0206269Y0197361D01*
X0206156Y0197250D01*
X0206041Y0197141D01*
X0205923Y0197036D01*
X0205802Y0196934D01*
X0205679Y0196834D01*
X0205553Y0196738D01*
X0205425Y0196645D01*
X0205295Y0196555D01*
X0205162Y0196469D01*
X0205027Y0196385D01*
X0204891Y0196306D01*
X0204752Y0196229D01*
X0204611Y0196157D01*
X0204469Y0196087D01*
X0204325Y0196022D01*
X0204179Y0195960D01*
X0204032Y0195902D01*
X0203883Y0195847D01*
X0203733Y0195796D01*
X0203582Y0195749D01*
X0203430Y0195706D01*
X0203277Y0195667D01*
X0203122Y0195631D01*
X0202967Y0195600D01*
X0202811Y0195572D01*
X0202655Y0195548D01*
X0202498Y0195528D01*
X0202340Y0195512D01*
X0202183Y0195500D01*
X0202024Y0195492D01*
X0201866Y0195488D01*
X0201708Y0195488D01*
X0201550Y0195492D01*
X0201391Y0195500D01*
X0201234Y0195512D01*
X0201076Y0195528D01*
X0200919Y0195548D01*
X0200763Y0195572D01*
X0200607Y0195600D01*
X0200452Y0195631D01*
X0200297Y0195667D01*
X0200144Y0195706D01*
X0199992Y0195749D01*
X0199841Y0195796D01*
X0199691Y0195847D01*
X0199542Y0195902D01*
X0199395Y0195960D01*
X0199249Y0196022D01*
X0199105Y0196087D01*
X0198963Y0196157D01*
X0198822Y0196229D01*
X0198683Y0196306D01*
X0198547Y0196385D01*
X0198412Y0196469D01*
X0198279Y0196555D01*
X0198149Y0196645D01*
X0198021Y0196738D01*
X0197895Y0196834D01*
X0197772Y0196934D01*
X0197651Y0197036D01*
X0197533Y0197141D01*
X0197418Y0197250D01*
X0197305Y0197361D01*
X0197195Y0197475D01*
X0197088Y0197592D01*
X0196984Y0197711D01*
X0196883Y0197833D01*
X0196786Y0197958D01*
X0196691Y0198085D01*
X0196600Y0198214D01*
X0196511Y0198345D01*
X0196427Y0198479D01*
X0196345Y0198615D01*
X0196267Y0198752D01*
X0196193Y0198892D01*
X0196122Y0199034D01*
X0196054Y0199177D01*
X0195990Y0199322D01*
X0195930Y0199468D01*
X0195874Y0199616D01*
X0195821Y0199765D01*
X0195772Y0199916D01*
X0195727Y0200068D01*
X0195686Y0200221D01*
X0195648Y0200374D01*
X0195615Y0200529D01*
X0195585Y0200685D01*
X0195559Y0200841D01*
X0195538Y0200998D01*
X0195520Y0201155D01*
X0195506Y0201313D01*
X0195496Y0201471D01*
X0195490Y0201629D01*
X0195488Y0201787D01*
X0206988Y0151000D02*
X0206990Y0151148D01*
X0206996Y0151296D01*
X0207006Y0151444D01*
X0207020Y0151591D01*
X0207038Y0151738D01*
X0207059Y0151884D01*
X0207085Y0152030D01*
X0207115Y0152175D01*
X0207148Y0152319D01*
X0207186Y0152462D01*
X0207227Y0152604D01*
X0207272Y0152745D01*
X0207320Y0152885D01*
X0207373Y0153024D01*
X0207429Y0153161D01*
X0207489Y0153296D01*
X0207552Y0153430D01*
X0207619Y0153562D01*
X0207690Y0153692D01*
X0207764Y0153820D01*
X0207841Y0153946D01*
X0207922Y0154070D01*
X0208006Y0154192D01*
X0208093Y0154311D01*
X0208184Y0154428D01*
X0208278Y0154543D01*
X0208374Y0154655D01*
X0208474Y0154765D01*
X0208576Y0154871D01*
X0208682Y0154975D01*
X0208790Y0155076D01*
X0208901Y0155174D01*
X0209014Y0155270D01*
X0209130Y0155362D01*
X0209248Y0155451D01*
X0209369Y0155536D01*
X0209492Y0155619D01*
X0209617Y0155698D01*
X0209744Y0155774D01*
X0209873Y0155846D01*
X0210004Y0155915D01*
X0210137Y0155980D01*
X0210272Y0156041D01*
X0210408Y0156099D01*
X0210545Y0156154D01*
X0210684Y0156204D01*
X0210825Y0156251D01*
X0210966Y0156294D01*
X0211109Y0156334D01*
X0211253Y0156369D01*
X0211397Y0156401D01*
X0211543Y0156428D01*
X0211689Y0156452D01*
X0211836Y0156472D01*
X0211983Y0156488D01*
X0212130Y0156500D01*
X0212278Y0156508D01*
X0212426Y0156512D01*
X0212574Y0156512D01*
X0212722Y0156508D01*
X0212870Y0156500D01*
X0213017Y0156488D01*
X0213164Y0156472D01*
X0213311Y0156452D01*
X0213457Y0156428D01*
X0213603Y0156401D01*
X0213747Y0156369D01*
X0213891Y0156334D01*
X0214034Y0156294D01*
X0214175Y0156251D01*
X0214316Y0156204D01*
X0214455Y0156154D01*
X0214592Y0156099D01*
X0214728Y0156041D01*
X0214863Y0155980D01*
X0214996Y0155915D01*
X0215127Y0155846D01*
X0215256Y0155774D01*
X0215383Y0155698D01*
X0215508Y0155619D01*
X0215631Y0155536D01*
X0215752Y0155451D01*
X0215870Y0155362D01*
X0215986Y0155270D01*
X0216099Y0155174D01*
X0216210Y0155076D01*
X0216318Y0154975D01*
X0216424Y0154871D01*
X0216526Y0154765D01*
X0216626Y0154655D01*
X0216722Y0154543D01*
X0216816Y0154428D01*
X0216907Y0154311D01*
X0216994Y0154192D01*
X0217078Y0154070D01*
X0217159Y0153946D01*
X0217236Y0153820D01*
X0217310Y0153692D01*
X0217381Y0153562D01*
X0217448Y0153430D01*
X0217511Y0153296D01*
X0217571Y0153161D01*
X0217627Y0153024D01*
X0217680Y0152885D01*
X0217728Y0152745D01*
X0217773Y0152604D01*
X0217814Y0152462D01*
X0217852Y0152319D01*
X0217885Y0152175D01*
X0217915Y0152030D01*
X0217941Y0151884D01*
X0217962Y0151738D01*
X0217980Y0151591D01*
X0217994Y0151444D01*
X0218004Y0151296D01*
X0218010Y0151148D01*
X0218012Y0151000D01*
X0218010Y0150852D01*
X0218004Y0150704D01*
X0217994Y0150556D01*
X0217980Y0150409D01*
X0217962Y0150262D01*
X0217941Y0150116D01*
X0217915Y0149970D01*
X0217885Y0149825D01*
X0217852Y0149681D01*
X0217814Y0149538D01*
X0217773Y0149396D01*
X0217728Y0149255D01*
X0217680Y0149115D01*
X0217627Y0148976D01*
X0217571Y0148839D01*
X0217511Y0148704D01*
X0217448Y0148570D01*
X0217381Y0148438D01*
X0217310Y0148308D01*
X0217236Y0148180D01*
X0217159Y0148054D01*
X0217078Y0147930D01*
X0216994Y0147808D01*
X0216907Y0147689D01*
X0216816Y0147572D01*
X0216722Y0147457D01*
X0216626Y0147345D01*
X0216526Y0147235D01*
X0216424Y0147129D01*
X0216318Y0147025D01*
X0216210Y0146924D01*
X0216099Y0146826D01*
X0215986Y0146730D01*
X0215870Y0146638D01*
X0215752Y0146549D01*
X0215631Y0146464D01*
X0215508Y0146381D01*
X0215383Y0146302D01*
X0215256Y0146226D01*
X0215127Y0146154D01*
X0214996Y0146085D01*
X0214863Y0146020D01*
X0214728Y0145959D01*
X0214592Y0145901D01*
X0214455Y0145846D01*
X0214316Y0145796D01*
X0214175Y0145749D01*
X0214034Y0145706D01*
X0213891Y0145666D01*
X0213747Y0145631D01*
X0213603Y0145599D01*
X0213457Y0145572D01*
X0213311Y0145548D01*
X0213164Y0145528D01*
X0213017Y0145512D01*
X0212870Y0145500D01*
X0212722Y0145492D01*
X0212574Y0145488D01*
X0212426Y0145488D01*
X0212278Y0145492D01*
X0212130Y0145500D01*
X0211983Y0145512D01*
X0211836Y0145528D01*
X0211689Y0145548D01*
X0211543Y0145572D01*
X0211397Y0145599D01*
X0211253Y0145631D01*
X0211109Y0145666D01*
X0210966Y0145706D01*
X0210825Y0145749D01*
X0210684Y0145796D01*
X0210545Y0145846D01*
X0210408Y0145901D01*
X0210272Y0145959D01*
X0210137Y0146020D01*
X0210004Y0146085D01*
X0209873Y0146154D01*
X0209744Y0146226D01*
X0209617Y0146302D01*
X0209492Y0146381D01*
X0209369Y0146464D01*
X0209248Y0146549D01*
X0209130Y0146638D01*
X0209014Y0146730D01*
X0208901Y0146826D01*
X0208790Y0146924D01*
X0208682Y0147025D01*
X0208576Y0147129D01*
X0208474Y0147235D01*
X0208374Y0147345D01*
X0208278Y0147457D01*
X0208184Y0147572D01*
X0208093Y0147689D01*
X0208006Y0147808D01*
X0207922Y0147930D01*
X0207841Y0148054D01*
X0207764Y0148180D01*
X0207690Y0148308D01*
X0207619Y0148438D01*
X0207552Y0148570D01*
X0207489Y0148704D01*
X0207429Y0148839D01*
X0207373Y0148976D01*
X0207320Y0149115D01*
X0207272Y0149255D01*
X0207227Y0149396D01*
X0207186Y0149538D01*
X0207148Y0149681D01*
X0207115Y0149825D01*
X0207085Y0149970D01*
X0207059Y0150116D01*
X0207038Y0150262D01*
X0207020Y0150409D01*
X0207006Y0150556D01*
X0206996Y0150704D01*
X0206990Y0150852D01*
X0206988Y0151000D01*
X0205331Y0119110D02*
X0205333Y0119268D01*
X0205339Y0119426D01*
X0205349Y0119584D01*
X0205363Y0119742D01*
X0205381Y0119899D01*
X0205402Y0120056D01*
X0205428Y0120212D01*
X0205458Y0120368D01*
X0205491Y0120523D01*
X0205529Y0120676D01*
X0205570Y0120829D01*
X0205615Y0120981D01*
X0205664Y0121132D01*
X0205717Y0121281D01*
X0205773Y0121429D01*
X0205833Y0121575D01*
X0205897Y0121720D01*
X0205965Y0121863D01*
X0206036Y0122005D01*
X0206110Y0122145D01*
X0206188Y0122282D01*
X0206270Y0122418D01*
X0206354Y0122552D01*
X0206443Y0122683D01*
X0206534Y0122812D01*
X0206629Y0122939D01*
X0206726Y0123064D01*
X0206827Y0123186D01*
X0206931Y0123305D01*
X0207038Y0123422D01*
X0207148Y0123536D01*
X0207261Y0123647D01*
X0207376Y0123756D01*
X0207494Y0123861D01*
X0207615Y0123963D01*
X0207738Y0124063D01*
X0207864Y0124159D01*
X0207992Y0124252D01*
X0208122Y0124342D01*
X0208255Y0124428D01*
X0208390Y0124512D01*
X0208526Y0124591D01*
X0208665Y0124668D01*
X0208806Y0124740D01*
X0208948Y0124810D01*
X0209092Y0124875D01*
X0209238Y0124937D01*
X0209385Y0124995D01*
X0209534Y0125050D01*
X0209684Y0125101D01*
X0209835Y0125148D01*
X0209987Y0125191D01*
X0210140Y0125230D01*
X0210295Y0125266D01*
X0210450Y0125297D01*
X0210606Y0125325D01*
X0210762Y0125349D01*
X0210919Y0125369D01*
X0211077Y0125385D01*
X0211234Y0125397D01*
X0211393Y0125405D01*
X0211551Y0125409D01*
X0211709Y0125409D01*
X0211867Y0125405D01*
X0212026Y0125397D01*
X0212183Y0125385D01*
X0212341Y0125369D01*
X0212498Y0125349D01*
X0212654Y0125325D01*
X0212810Y0125297D01*
X0212965Y0125266D01*
X0213120Y0125230D01*
X0213273Y0125191D01*
X0213425Y0125148D01*
X0213576Y0125101D01*
X0213726Y0125050D01*
X0213875Y0124995D01*
X0214022Y0124937D01*
X0214168Y0124875D01*
X0214312Y0124810D01*
X0214454Y0124740D01*
X0214595Y0124668D01*
X0214734Y0124591D01*
X0214870Y0124512D01*
X0215005Y0124428D01*
X0215138Y0124342D01*
X0215268Y0124252D01*
X0215396Y0124159D01*
X0215522Y0124063D01*
X0215645Y0123963D01*
X0215766Y0123861D01*
X0215884Y0123756D01*
X0215999Y0123647D01*
X0216112Y0123536D01*
X0216222Y0123422D01*
X0216329Y0123305D01*
X0216433Y0123186D01*
X0216534Y0123064D01*
X0216631Y0122939D01*
X0216726Y0122812D01*
X0216817Y0122683D01*
X0216906Y0122552D01*
X0216990Y0122418D01*
X0217072Y0122282D01*
X0217150Y0122145D01*
X0217224Y0122005D01*
X0217295Y0121863D01*
X0217363Y0121720D01*
X0217427Y0121575D01*
X0217487Y0121429D01*
X0217543Y0121281D01*
X0217596Y0121132D01*
X0217645Y0120981D01*
X0217690Y0120829D01*
X0217731Y0120676D01*
X0217769Y0120523D01*
X0217802Y0120368D01*
X0217832Y0120212D01*
X0217858Y0120056D01*
X0217879Y0119899D01*
X0217897Y0119742D01*
X0217911Y0119584D01*
X0217921Y0119426D01*
X0217927Y0119268D01*
X0217929Y0119110D01*
X0217927Y0118952D01*
X0217921Y0118794D01*
X0217911Y0118636D01*
X0217897Y0118478D01*
X0217879Y0118321D01*
X0217858Y0118164D01*
X0217832Y0118008D01*
X0217802Y0117852D01*
X0217769Y0117697D01*
X0217731Y0117544D01*
X0217690Y0117391D01*
X0217645Y0117239D01*
X0217596Y0117088D01*
X0217543Y0116939D01*
X0217487Y0116791D01*
X0217427Y0116645D01*
X0217363Y0116500D01*
X0217295Y0116357D01*
X0217224Y0116215D01*
X0217150Y0116075D01*
X0217072Y0115938D01*
X0216990Y0115802D01*
X0216906Y0115668D01*
X0216817Y0115537D01*
X0216726Y0115408D01*
X0216631Y0115281D01*
X0216534Y0115156D01*
X0216433Y0115034D01*
X0216329Y0114915D01*
X0216222Y0114798D01*
X0216112Y0114684D01*
X0215999Y0114573D01*
X0215884Y0114464D01*
X0215766Y0114359D01*
X0215645Y0114257D01*
X0215522Y0114157D01*
X0215396Y0114061D01*
X0215268Y0113968D01*
X0215138Y0113878D01*
X0215005Y0113792D01*
X0214870Y0113708D01*
X0214734Y0113629D01*
X0214595Y0113552D01*
X0214454Y0113480D01*
X0214312Y0113410D01*
X0214168Y0113345D01*
X0214022Y0113283D01*
X0213875Y0113225D01*
X0213726Y0113170D01*
X0213576Y0113119D01*
X0213425Y0113072D01*
X0213273Y0113029D01*
X0213120Y0112990D01*
X0212965Y0112954D01*
X0212810Y0112923D01*
X0212654Y0112895D01*
X0212498Y0112871D01*
X0212341Y0112851D01*
X0212183Y0112835D01*
X0212026Y0112823D01*
X0211867Y0112815D01*
X0211709Y0112811D01*
X0211551Y0112811D01*
X0211393Y0112815D01*
X0211234Y0112823D01*
X0211077Y0112835D01*
X0210919Y0112851D01*
X0210762Y0112871D01*
X0210606Y0112895D01*
X0210450Y0112923D01*
X0210295Y0112954D01*
X0210140Y0112990D01*
X0209987Y0113029D01*
X0209835Y0113072D01*
X0209684Y0113119D01*
X0209534Y0113170D01*
X0209385Y0113225D01*
X0209238Y0113283D01*
X0209092Y0113345D01*
X0208948Y0113410D01*
X0208806Y0113480D01*
X0208665Y0113552D01*
X0208526Y0113629D01*
X0208390Y0113708D01*
X0208255Y0113792D01*
X0208122Y0113878D01*
X0207992Y0113968D01*
X0207864Y0114061D01*
X0207738Y0114157D01*
X0207615Y0114257D01*
X0207494Y0114359D01*
X0207376Y0114464D01*
X0207261Y0114573D01*
X0207148Y0114684D01*
X0207038Y0114798D01*
X0206931Y0114915D01*
X0206827Y0115034D01*
X0206726Y0115156D01*
X0206629Y0115281D01*
X0206534Y0115408D01*
X0206443Y0115537D01*
X0206354Y0115668D01*
X0206270Y0115802D01*
X0206188Y0115938D01*
X0206110Y0116075D01*
X0206036Y0116215D01*
X0205965Y0116357D01*
X0205897Y0116500D01*
X0205833Y0116645D01*
X0205773Y0116791D01*
X0205717Y0116939D01*
X0205664Y0117088D01*
X0205615Y0117239D01*
X0205570Y0117391D01*
X0205529Y0117544D01*
X0205491Y0117697D01*
X0205458Y0117852D01*
X0205428Y0118008D01*
X0205402Y0118164D01*
X0205381Y0118321D01*
X0205363Y0118478D01*
X0205349Y0118636D01*
X0205339Y0118794D01*
X0205333Y0118952D01*
X0205331Y0119110D01*
X0195488Y0036433D02*
X0195490Y0036591D01*
X0195496Y0036749D01*
X0195506Y0036907D01*
X0195520Y0037065D01*
X0195538Y0037222D01*
X0195559Y0037379D01*
X0195585Y0037535D01*
X0195615Y0037691D01*
X0195648Y0037846D01*
X0195686Y0037999D01*
X0195727Y0038152D01*
X0195772Y0038304D01*
X0195821Y0038455D01*
X0195874Y0038604D01*
X0195930Y0038752D01*
X0195990Y0038898D01*
X0196054Y0039043D01*
X0196122Y0039186D01*
X0196193Y0039328D01*
X0196267Y0039468D01*
X0196345Y0039605D01*
X0196427Y0039741D01*
X0196511Y0039875D01*
X0196600Y0040006D01*
X0196691Y0040135D01*
X0196786Y0040262D01*
X0196883Y0040387D01*
X0196984Y0040509D01*
X0197088Y0040628D01*
X0197195Y0040745D01*
X0197305Y0040859D01*
X0197418Y0040970D01*
X0197533Y0041079D01*
X0197651Y0041184D01*
X0197772Y0041286D01*
X0197895Y0041386D01*
X0198021Y0041482D01*
X0198149Y0041575D01*
X0198279Y0041665D01*
X0198412Y0041751D01*
X0198547Y0041835D01*
X0198683Y0041914D01*
X0198822Y0041991D01*
X0198963Y0042063D01*
X0199105Y0042133D01*
X0199249Y0042198D01*
X0199395Y0042260D01*
X0199542Y0042318D01*
X0199691Y0042373D01*
X0199841Y0042424D01*
X0199992Y0042471D01*
X0200144Y0042514D01*
X0200297Y0042553D01*
X0200452Y0042589D01*
X0200607Y0042620D01*
X0200763Y0042648D01*
X0200919Y0042672D01*
X0201076Y0042692D01*
X0201234Y0042708D01*
X0201391Y0042720D01*
X0201550Y0042728D01*
X0201708Y0042732D01*
X0201866Y0042732D01*
X0202024Y0042728D01*
X0202183Y0042720D01*
X0202340Y0042708D01*
X0202498Y0042692D01*
X0202655Y0042672D01*
X0202811Y0042648D01*
X0202967Y0042620D01*
X0203122Y0042589D01*
X0203277Y0042553D01*
X0203430Y0042514D01*
X0203582Y0042471D01*
X0203733Y0042424D01*
X0203883Y0042373D01*
X0204032Y0042318D01*
X0204179Y0042260D01*
X0204325Y0042198D01*
X0204469Y0042133D01*
X0204611Y0042063D01*
X0204752Y0041991D01*
X0204891Y0041914D01*
X0205027Y0041835D01*
X0205162Y0041751D01*
X0205295Y0041665D01*
X0205425Y0041575D01*
X0205553Y0041482D01*
X0205679Y0041386D01*
X0205802Y0041286D01*
X0205923Y0041184D01*
X0206041Y0041079D01*
X0206156Y0040970D01*
X0206269Y0040859D01*
X0206379Y0040745D01*
X0206486Y0040628D01*
X0206590Y0040509D01*
X0206691Y0040387D01*
X0206788Y0040262D01*
X0206883Y0040135D01*
X0206974Y0040006D01*
X0207063Y0039875D01*
X0207147Y0039741D01*
X0207229Y0039605D01*
X0207307Y0039468D01*
X0207381Y0039328D01*
X0207452Y0039186D01*
X0207520Y0039043D01*
X0207584Y0038898D01*
X0207644Y0038752D01*
X0207700Y0038604D01*
X0207753Y0038455D01*
X0207802Y0038304D01*
X0207847Y0038152D01*
X0207888Y0037999D01*
X0207926Y0037846D01*
X0207959Y0037691D01*
X0207989Y0037535D01*
X0208015Y0037379D01*
X0208036Y0037222D01*
X0208054Y0037065D01*
X0208068Y0036907D01*
X0208078Y0036749D01*
X0208084Y0036591D01*
X0208086Y0036433D01*
X0208084Y0036275D01*
X0208078Y0036117D01*
X0208068Y0035959D01*
X0208054Y0035801D01*
X0208036Y0035644D01*
X0208015Y0035487D01*
X0207989Y0035331D01*
X0207959Y0035175D01*
X0207926Y0035020D01*
X0207888Y0034867D01*
X0207847Y0034714D01*
X0207802Y0034562D01*
X0207753Y0034411D01*
X0207700Y0034262D01*
X0207644Y0034114D01*
X0207584Y0033968D01*
X0207520Y0033823D01*
X0207452Y0033680D01*
X0207381Y0033538D01*
X0207307Y0033398D01*
X0207229Y0033261D01*
X0207147Y0033125D01*
X0207063Y0032991D01*
X0206974Y0032860D01*
X0206883Y0032731D01*
X0206788Y0032604D01*
X0206691Y0032479D01*
X0206590Y0032357D01*
X0206486Y0032238D01*
X0206379Y0032121D01*
X0206269Y0032007D01*
X0206156Y0031896D01*
X0206041Y0031787D01*
X0205923Y0031682D01*
X0205802Y0031580D01*
X0205679Y0031480D01*
X0205553Y0031384D01*
X0205425Y0031291D01*
X0205295Y0031201D01*
X0205162Y0031115D01*
X0205027Y0031031D01*
X0204891Y0030952D01*
X0204752Y0030875D01*
X0204611Y0030803D01*
X0204469Y0030733D01*
X0204325Y0030668D01*
X0204179Y0030606D01*
X0204032Y0030548D01*
X0203883Y0030493D01*
X0203733Y0030442D01*
X0203582Y0030395D01*
X0203430Y0030352D01*
X0203277Y0030313D01*
X0203122Y0030277D01*
X0202967Y0030246D01*
X0202811Y0030218D01*
X0202655Y0030194D01*
X0202498Y0030174D01*
X0202340Y0030158D01*
X0202183Y0030146D01*
X0202024Y0030138D01*
X0201866Y0030134D01*
X0201708Y0030134D01*
X0201550Y0030138D01*
X0201391Y0030146D01*
X0201234Y0030158D01*
X0201076Y0030174D01*
X0200919Y0030194D01*
X0200763Y0030218D01*
X0200607Y0030246D01*
X0200452Y0030277D01*
X0200297Y0030313D01*
X0200144Y0030352D01*
X0199992Y0030395D01*
X0199841Y0030442D01*
X0199691Y0030493D01*
X0199542Y0030548D01*
X0199395Y0030606D01*
X0199249Y0030668D01*
X0199105Y0030733D01*
X0198963Y0030803D01*
X0198822Y0030875D01*
X0198683Y0030952D01*
X0198547Y0031031D01*
X0198412Y0031115D01*
X0198279Y0031201D01*
X0198149Y0031291D01*
X0198021Y0031384D01*
X0197895Y0031480D01*
X0197772Y0031580D01*
X0197651Y0031682D01*
X0197533Y0031787D01*
X0197418Y0031896D01*
X0197305Y0032007D01*
X0197195Y0032121D01*
X0197088Y0032238D01*
X0196984Y0032357D01*
X0196883Y0032479D01*
X0196786Y0032604D01*
X0196691Y0032731D01*
X0196600Y0032860D01*
X0196511Y0032991D01*
X0196427Y0033125D01*
X0196345Y0033261D01*
X0196267Y0033398D01*
X0196193Y0033538D01*
X0196122Y0033680D01*
X0196054Y0033823D01*
X0195990Y0033968D01*
X0195930Y0034114D01*
X0195874Y0034262D01*
X0195821Y0034411D01*
X0195772Y0034562D01*
X0195727Y0034714D01*
X0195686Y0034867D01*
X0195648Y0035020D01*
X0195615Y0035175D01*
X0195585Y0035331D01*
X0195559Y0035487D01*
X0195538Y0035644D01*
X0195520Y0035801D01*
X0195506Y0035959D01*
X0195496Y0036117D01*
X0195490Y0036275D01*
X0195488Y0036433D01*
D11*
X0174228Y0020685D02*
X0173852Y0021362D01*
X0173493Y0022047D01*
X0173151Y0022741D01*
X0172826Y0023444D01*
X0172517Y0024154D01*
X0172227Y0024871D01*
X0171954Y0025595D01*
X0171698Y0026326D01*
X0171461Y0027062D01*
X0171241Y0027804D01*
X0171040Y0028552D01*
X0170857Y0029304D01*
X0170692Y0030060D01*
X0170546Y0030820D01*
X0170419Y0031583D01*
X0170310Y0032350D01*
X0170220Y0033118D01*
X0170148Y0033889D01*
X0170095Y0034661D01*
X0170062Y0035434D01*
X0170047Y0036208D01*
X0170051Y0036982D01*
X0170074Y0037756D01*
X0170115Y0038529D01*
X0170176Y0039300D01*
X0170255Y0040070D01*
X0170353Y0040838D01*
X0170470Y0041603D01*
X0170605Y0042365D01*
X0170759Y0043123D01*
X0170931Y0043878D01*
X0171122Y0044628D01*
X0171331Y0045373D01*
X0171558Y0046113D01*
X0171803Y0046847D01*
X0172066Y0047575D01*
X0172346Y0048297D01*
X0172644Y0049011D01*
X0172960Y0049718D01*
X0173292Y0050417D01*
X0173642Y0051107D01*
X0174008Y0051789D01*
X0174390Y0052462D01*
X0174789Y0053125D01*
X0175204Y0053778D01*
X0175635Y0054421D01*
X0176082Y0055054D01*
X0176543Y0055675D01*
X0177020Y0056284D01*
X0177511Y0056882D01*
X0178017Y0057468D01*
X0178537Y0058042D01*
X0179071Y0058602D01*
X0179618Y0059149D01*
X0180178Y0059683D01*
X0180752Y0060203D01*
X0181338Y0060709D01*
X0181936Y0061200D01*
X0182545Y0061677D01*
X0183166Y0062138D01*
X0183799Y0062585D01*
X0184442Y0063016D01*
X0185095Y0063431D01*
X0185758Y0063830D01*
X0186431Y0064212D01*
X0187113Y0064578D01*
X0187803Y0064928D01*
X0188502Y0065260D01*
X0189209Y0065576D01*
X0189923Y0065874D01*
X0190645Y0066154D01*
X0191373Y0066417D01*
X0192107Y0066662D01*
X0192847Y0066889D01*
X0193592Y0067098D01*
X0194342Y0067289D01*
X0195097Y0067461D01*
X0195855Y0067615D01*
X0196617Y0067750D01*
X0197382Y0067867D01*
X0198150Y0067965D01*
X0198920Y0068044D01*
X0199691Y0068105D01*
X0200464Y0068146D01*
X0201238Y0068169D01*
X0202012Y0068173D01*
X0202786Y0068158D01*
X0203559Y0068125D01*
X0204331Y0068072D01*
X0205102Y0068000D01*
X0205870Y0067910D01*
X0206637Y0067801D01*
X0207400Y0067674D01*
X0208160Y0067528D01*
X0208916Y0067363D01*
X0209668Y0067180D01*
X0210416Y0066979D01*
X0211158Y0066759D01*
X0211894Y0066522D01*
X0212625Y0066266D01*
X0213349Y0065993D01*
X0214066Y0065703D01*
X0214776Y0065394D01*
X0215479Y0065069D01*
X0216173Y0064727D01*
X0216858Y0064368D01*
X0217535Y0063992D01*
X0217535Y0174228D02*
X0216858Y0173852D01*
X0216173Y0173493D01*
X0215479Y0173151D01*
X0214776Y0172826D01*
X0214066Y0172517D01*
X0213349Y0172227D01*
X0212625Y0171954D01*
X0211894Y0171698D01*
X0211158Y0171461D01*
X0210416Y0171241D01*
X0209668Y0171040D01*
X0208916Y0170857D01*
X0208160Y0170692D01*
X0207400Y0170546D01*
X0206637Y0170419D01*
X0205870Y0170310D01*
X0205102Y0170220D01*
X0204331Y0170148D01*
X0203559Y0170095D01*
X0202786Y0170062D01*
X0202012Y0170047D01*
X0201238Y0170051D01*
X0200464Y0170074D01*
X0199691Y0170115D01*
X0198920Y0170176D01*
X0198150Y0170255D01*
X0197382Y0170353D01*
X0196617Y0170470D01*
X0195855Y0170605D01*
X0195097Y0170759D01*
X0194342Y0170931D01*
X0193592Y0171122D01*
X0192847Y0171331D01*
X0192107Y0171558D01*
X0191373Y0171803D01*
X0190645Y0172066D01*
X0189923Y0172346D01*
X0189209Y0172644D01*
X0188502Y0172960D01*
X0187803Y0173292D01*
X0187113Y0173642D01*
X0186431Y0174008D01*
X0185758Y0174390D01*
X0185095Y0174789D01*
X0184442Y0175204D01*
X0183799Y0175635D01*
X0183166Y0176082D01*
X0182545Y0176543D01*
X0181936Y0177020D01*
X0181338Y0177511D01*
X0180752Y0178017D01*
X0180178Y0178537D01*
X0179618Y0179071D01*
X0179071Y0179618D01*
X0178537Y0180178D01*
X0178017Y0180752D01*
X0177511Y0181338D01*
X0177020Y0181936D01*
X0176543Y0182545D01*
X0176082Y0183166D01*
X0175635Y0183799D01*
X0175204Y0184442D01*
X0174789Y0185095D01*
X0174390Y0185758D01*
X0174008Y0186431D01*
X0173642Y0187113D01*
X0173292Y0187803D01*
X0172960Y0188502D01*
X0172644Y0189209D01*
X0172346Y0189923D01*
X0172066Y0190645D01*
X0171803Y0191373D01*
X0171558Y0192107D01*
X0171331Y0192847D01*
X0171122Y0193592D01*
X0170931Y0194342D01*
X0170759Y0195097D01*
X0170605Y0195855D01*
X0170470Y0196617D01*
X0170353Y0197382D01*
X0170255Y0198150D01*
X0170176Y0198920D01*
X0170115Y0199691D01*
X0170074Y0200464D01*
X0170051Y0201238D01*
X0170047Y0202012D01*
X0170062Y0202786D01*
X0170095Y0203559D01*
X0170148Y0204331D01*
X0170220Y0205102D01*
X0170310Y0205870D01*
X0170419Y0206637D01*
X0170546Y0207400D01*
X0170692Y0208160D01*
X0170857Y0208916D01*
X0171040Y0209668D01*
X0171241Y0210416D01*
X0171461Y0211158D01*
X0171698Y0211894D01*
X0171954Y0212625D01*
X0172227Y0213349D01*
X0172517Y0214066D01*
X0172826Y0214776D01*
X0173151Y0215479D01*
X0173493Y0216173D01*
X0173852Y0216858D01*
X0174228Y0217535D01*
X0063992Y0217535D02*
X0064368Y0216858D01*
X0064727Y0216173D01*
X0065069Y0215479D01*
X0065394Y0214776D01*
X0065703Y0214066D01*
X0065993Y0213349D01*
X0066266Y0212625D01*
X0066522Y0211894D01*
X0066759Y0211158D01*
X0066979Y0210416D01*
X0067180Y0209668D01*
X0067363Y0208916D01*
X0067528Y0208160D01*
X0067674Y0207400D01*
X0067801Y0206637D01*
X0067910Y0205870D01*
X0068000Y0205102D01*
X0068072Y0204331D01*
X0068125Y0203559D01*
X0068158Y0202786D01*
X0068173Y0202012D01*
X0068169Y0201238D01*
X0068146Y0200464D01*
X0068105Y0199691D01*
X0068044Y0198920D01*
X0067965Y0198150D01*
X0067867Y0197382D01*
X0067750Y0196617D01*
X0067615Y0195855D01*
X0067461Y0195097D01*
X0067289Y0194342D01*
X0067098Y0193592D01*
X0066889Y0192847D01*
X0066662Y0192107D01*
X0066417Y0191373D01*
X0066154Y0190645D01*
X0065874Y0189923D01*
X0065576Y0189209D01*
X0065260Y0188502D01*
X0064928Y0187803D01*
X0064578Y0187113D01*
X0064212Y0186431D01*
X0063830Y0185758D01*
X0063431Y0185095D01*
X0063016Y0184442D01*
X0062585Y0183799D01*
X0062138Y0183166D01*
X0061677Y0182545D01*
X0061200Y0181936D01*
X0060709Y0181338D01*
X0060203Y0180752D01*
X0059683Y0180178D01*
X0059149Y0179618D01*
X0058602Y0179071D01*
X0058042Y0178537D01*
X0057468Y0178017D01*
X0056882Y0177511D01*
X0056284Y0177020D01*
X0055675Y0176543D01*
X0055054Y0176082D01*
X0054421Y0175635D01*
X0053778Y0175204D01*
X0053125Y0174789D01*
X0052462Y0174390D01*
X0051789Y0174008D01*
X0051107Y0173642D01*
X0050417Y0173292D01*
X0049718Y0172960D01*
X0049011Y0172644D01*
X0048297Y0172346D01*
X0047575Y0172066D01*
X0046847Y0171803D01*
X0046113Y0171558D01*
X0045373Y0171331D01*
X0044628Y0171122D01*
X0043878Y0170931D01*
X0043123Y0170759D01*
X0042365Y0170605D01*
X0041603Y0170470D01*
X0040838Y0170353D01*
X0040070Y0170255D01*
X0039300Y0170176D01*
X0038529Y0170115D01*
X0037756Y0170074D01*
X0036982Y0170051D01*
X0036208Y0170047D01*
X0035434Y0170062D01*
X0034661Y0170095D01*
X0033889Y0170148D01*
X0033118Y0170220D01*
X0032350Y0170310D01*
X0031583Y0170419D01*
X0030820Y0170546D01*
X0030060Y0170692D01*
X0029304Y0170857D01*
X0028552Y0171040D01*
X0027804Y0171241D01*
X0027062Y0171461D01*
X0026326Y0171698D01*
X0025595Y0171954D01*
X0024871Y0172227D01*
X0024154Y0172517D01*
X0023444Y0172826D01*
X0022741Y0173151D01*
X0022047Y0173493D01*
X0021362Y0173852D01*
X0020685Y0174228D01*
X0020685Y0063992D02*
X0021362Y0064368D01*
X0022047Y0064727D01*
X0022741Y0065069D01*
X0023444Y0065394D01*
X0024154Y0065703D01*
X0024871Y0065993D01*
X0025595Y0066266D01*
X0026326Y0066522D01*
X0027062Y0066759D01*
X0027804Y0066979D01*
X0028552Y0067180D01*
X0029304Y0067363D01*
X0030060Y0067528D01*
X0030820Y0067674D01*
X0031583Y0067801D01*
X0032350Y0067910D01*
X0033118Y0068000D01*
X0033889Y0068072D01*
X0034661Y0068125D01*
X0035434Y0068158D01*
X0036208Y0068173D01*
X0036982Y0068169D01*
X0037756Y0068146D01*
X0038529Y0068105D01*
X0039300Y0068044D01*
X0040070Y0067965D01*
X0040838Y0067867D01*
X0041603Y0067750D01*
X0042365Y0067615D01*
X0043123Y0067461D01*
X0043878Y0067289D01*
X0044628Y0067098D01*
X0045373Y0066889D01*
X0046113Y0066662D01*
X0046847Y0066417D01*
X0047575Y0066154D01*
X0048297Y0065874D01*
X0049011Y0065576D01*
X0049718Y0065260D01*
X0050417Y0064928D01*
X0051107Y0064578D01*
X0051789Y0064212D01*
X0052462Y0063830D01*
X0053125Y0063431D01*
X0053778Y0063016D01*
X0054421Y0062585D01*
X0055054Y0062138D01*
X0055675Y0061677D01*
X0056284Y0061200D01*
X0056882Y0060709D01*
X0057468Y0060203D01*
X0058042Y0059683D01*
X0058602Y0059149D01*
X0059149Y0058602D01*
X0059683Y0058042D01*
X0060203Y0057468D01*
X0060709Y0056882D01*
X0061200Y0056284D01*
X0061677Y0055675D01*
X0062138Y0055054D01*
X0062585Y0054421D01*
X0063016Y0053778D01*
X0063431Y0053125D01*
X0063830Y0052462D01*
X0064212Y0051789D01*
X0064578Y0051107D01*
X0064928Y0050417D01*
X0065260Y0049718D01*
X0065576Y0049011D01*
X0065874Y0048297D01*
X0066154Y0047575D01*
X0066417Y0046847D01*
X0066662Y0046113D01*
X0066889Y0045373D01*
X0067098Y0044628D01*
X0067289Y0043878D01*
X0067461Y0043123D01*
X0067615Y0042365D01*
X0067750Y0041603D01*
X0067867Y0040838D01*
X0067965Y0040070D01*
X0068044Y0039300D01*
X0068105Y0038529D01*
X0068146Y0037756D01*
X0068169Y0036982D01*
X0068173Y0036208D01*
X0068158Y0035434D01*
X0068125Y0034661D01*
X0068072Y0033889D01*
X0068000Y0033118D01*
X0067910Y0032350D01*
X0067801Y0031583D01*
X0067674Y0030820D01*
X0067528Y0030060D01*
X0067363Y0029304D01*
X0067180Y0028552D01*
X0066979Y0027804D01*
X0066759Y0027062D01*
X0066522Y0026326D01*
X0066266Y0025595D01*
X0065993Y0024871D01*
X0065703Y0024154D01*
X0065394Y0023444D01*
X0065069Y0022741D01*
X0064727Y0022047D01*
X0064368Y0021362D01*
X0063992Y0020685D01*
M02*
