G75*
%MOIN*%
%OFA0B0*%
%FSLAX25Y25*%
%IPPOS*%
%LPD*%
%AMOC8*
5,1,8,0,0,1.08239X$1,22.5*
%
%ADD10C,0.00000*%
%ADD11C,0.01400*%
%ADD12R,0.03937X0.04331*%
%ADD13R,0.06299X0.10630*%
%ADD14R,0.04331X0.03937*%
%ADD15R,0.09449X0.09449*%
%ADD16R,0.05512X0.03937*%
%ADD17R,0.03937X0.05512*%
%ADD18R,0.05433X0.01772*%
%ADD19C,0.06000*%
%ADD20R,0.07480X0.05512*%
%ADD21R,0.21260X0.11417*%
%ADD22C,0.05000*%
%ADD23R,0.01100X0.05600*%
%ADD24R,0.07400X0.06200*%
%ADD25R,0.06100X0.02100*%
%ADD26R,0.03543X0.02756*%
%ADD27R,0.02756X0.03543*%
%ADD28OC8,0.06000*%
%ADD29C,0.07087*%
%ADD30C,0.04800*%
%ADD31R,0.20000X0.10000*%
%ADD32C,0.01000*%
%ADD33C,0.01600*%
%ADD34C,0.03200*%
%ADD35C,0.05600*%
%ADD36OC8,0.02775*%
%ADD37OC8,0.02400*%
%ADD38OC8,0.03562*%
D10*
X0001000Y0001000D02*
X0001000Y0237220D01*
X0237220Y0237220D01*
X0237220Y0001000D01*
X0001000Y0001000D01*
X0030134Y0036433D02*
X0030136Y0036591D01*
X0030142Y0036749D01*
X0030152Y0036907D01*
X0030166Y0037065D01*
X0030184Y0037222D01*
X0030205Y0037379D01*
X0030231Y0037535D01*
X0030261Y0037691D01*
X0030294Y0037846D01*
X0030332Y0037999D01*
X0030373Y0038152D01*
X0030418Y0038304D01*
X0030467Y0038455D01*
X0030520Y0038604D01*
X0030576Y0038752D01*
X0030636Y0038898D01*
X0030700Y0039043D01*
X0030768Y0039186D01*
X0030839Y0039328D01*
X0030913Y0039468D01*
X0030991Y0039605D01*
X0031073Y0039741D01*
X0031157Y0039875D01*
X0031246Y0040006D01*
X0031337Y0040135D01*
X0031432Y0040262D01*
X0031529Y0040387D01*
X0031630Y0040509D01*
X0031734Y0040628D01*
X0031841Y0040745D01*
X0031951Y0040859D01*
X0032064Y0040970D01*
X0032179Y0041079D01*
X0032297Y0041184D01*
X0032418Y0041286D01*
X0032541Y0041386D01*
X0032667Y0041482D01*
X0032795Y0041575D01*
X0032925Y0041665D01*
X0033058Y0041751D01*
X0033193Y0041835D01*
X0033329Y0041914D01*
X0033468Y0041991D01*
X0033609Y0042063D01*
X0033751Y0042133D01*
X0033895Y0042198D01*
X0034041Y0042260D01*
X0034188Y0042318D01*
X0034337Y0042373D01*
X0034487Y0042424D01*
X0034638Y0042471D01*
X0034790Y0042514D01*
X0034943Y0042553D01*
X0035098Y0042589D01*
X0035253Y0042620D01*
X0035409Y0042648D01*
X0035565Y0042672D01*
X0035722Y0042692D01*
X0035880Y0042708D01*
X0036037Y0042720D01*
X0036196Y0042728D01*
X0036354Y0042732D01*
X0036512Y0042732D01*
X0036670Y0042728D01*
X0036829Y0042720D01*
X0036986Y0042708D01*
X0037144Y0042692D01*
X0037301Y0042672D01*
X0037457Y0042648D01*
X0037613Y0042620D01*
X0037768Y0042589D01*
X0037923Y0042553D01*
X0038076Y0042514D01*
X0038228Y0042471D01*
X0038379Y0042424D01*
X0038529Y0042373D01*
X0038678Y0042318D01*
X0038825Y0042260D01*
X0038971Y0042198D01*
X0039115Y0042133D01*
X0039257Y0042063D01*
X0039398Y0041991D01*
X0039537Y0041914D01*
X0039673Y0041835D01*
X0039808Y0041751D01*
X0039941Y0041665D01*
X0040071Y0041575D01*
X0040199Y0041482D01*
X0040325Y0041386D01*
X0040448Y0041286D01*
X0040569Y0041184D01*
X0040687Y0041079D01*
X0040802Y0040970D01*
X0040915Y0040859D01*
X0041025Y0040745D01*
X0041132Y0040628D01*
X0041236Y0040509D01*
X0041337Y0040387D01*
X0041434Y0040262D01*
X0041529Y0040135D01*
X0041620Y0040006D01*
X0041709Y0039875D01*
X0041793Y0039741D01*
X0041875Y0039605D01*
X0041953Y0039468D01*
X0042027Y0039328D01*
X0042098Y0039186D01*
X0042166Y0039043D01*
X0042230Y0038898D01*
X0042290Y0038752D01*
X0042346Y0038604D01*
X0042399Y0038455D01*
X0042448Y0038304D01*
X0042493Y0038152D01*
X0042534Y0037999D01*
X0042572Y0037846D01*
X0042605Y0037691D01*
X0042635Y0037535D01*
X0042661Y0037379D01*
X0042682Y0037222D01*
X0042700Y0037065D01*
X0042714Y0036907D01*
X0042724Y0036749D01*
X0042730Y0036591D01*
X0042732Y0036433D01*
X0042730Y0036275D01*
X0042724Y0036117D01*
X0042714Y0035959D01*
X0042700Y0035801D01*
X0042682Y0035644D01*
X0042661Y0035487D01*
X0042635Y0035331D01*
X0042605Y0035175D01*
X0042572Y0035020D01*
X0042534Y0034867D01*
X0042493Y0034714D01*
X0042448Y0034562D01*
X0042399Y0034411D01*
X0042346Y0034262D01*
X0042290Y0034114D01*
X0042230Y0033968D01*
X0042166Y0033823D01*
X0042098Y0033680D01*
X0042027Y0033538D01*
X0041953Y0033398D01*
X0041875Y0033261D01*
X0041793Y0033125D01*
X0041709Y0032991D01*
X0041620Y0032860D01*
X0041529Y0032731D01*
X0041434Y0032604D01*
X0041337Y0032479D01*
X0041236Y0032357D01*
X0041132Y0032238D01*
X0041025Y0032121D01*
X0040915Y0032007D01*
X0040802Y0031896D01*
X0040687Y0031787D01*
X0040569Y0031682D01*
X0040448Y0031580D01*
X0040325Y0031480D01*
X0040199Y0031384D01*
X0040071Y0031291D01*
X0039941Y0031201D01*
X0039808Y0031115D01*
X0039673Y0031031D01*
X0039537Y0030952D01*
X0039398Y0030875D01*
X0039257Y0030803D01*
X0039115Y0030733D01*
X0038971Y0030668D01*
X0038825Y0030606D01*
X0038678Y0030548D01*
X0038529Y0030493D01*
X0038379Y0030442D01*
X0038228Y0030395D01*
X0038076Y0030352D01*
X0037923Y0030313D01*
X0037768Y0030277D01*
X0037613Y0030246D01*
X0037457Y0030218D01*
X0037301Y0030194D01*
X0037144Y0030174D01*
X0036986Y0030158D01*
X0036829Y0030146D01*
X0036670Y0030138D01*
X0036512Y0030134D01*
X0036354Y0030134D01*
X0036196Y0030138D01*
X0036037Y0030146D01*
X0035880Y0030158D01*
X0035722Y0030174D01*
X0035565Y0030194D01*
X0035409Y0030218D01*
X0035253Y0030246D01*
X0035098Y0030277D01*
X0034943Y0030313D01*
X0034790Y0030352D01*
X0034638Y0030395D01*
X0034487Y0030442D01*
X0034337Y0030493D01*
X0034188Y0030548D01*
X0034041Y0030606D01*
X0033895Y0030668D01*
X0033751Y0030733D01*
X0033609Y0030803D01*
X0033468Y0030875D01*
X0033329Y0030952D01*
X0033193Y0031031D01*
X0033058Y0031115D01*
X0032925Y0031201D01*
X0032795Y0031291D01*
X0032667Y0031384D01*
X0032541Y0031480D01*
X0032418Y0031580D01*
X0032297Y0031682D01*
X0032179Y0031787D01*
X0032064Y0031896D01*
X0031951Y0032007D01*
X0031841Y0032121D01*
X0031734Y0032238D01*
X0031630Y0032357D01*
X0031529Y0032479D01*
X0031432Y0032604D01*
X0031337Y0032731D01*
X0031246Y0032860D01*
X0031157Y0032991D01*
X0031073Y0033125D01*
X0030991Y0033261D01*
X0030913Y0033398D01*
X0030839Y0033538D01*
X0030768Y0033680D01*
X0030700Y0033823D01*
X0030636Y0033968D01*
X0030576Y0034114D01*
X0030520Y0034262D01*
X0030467Y0034411D01*
X0030418Y0034562D01*
X0030373Y0034714D01*
X0030332Y0034867D01*
X0030294Y0035020D01*
X0030261Y0035175D01*
X0030231Y0035331D01*
X0030205Y0035487D01*
X0030184Y0035644D01*
X0030166Y0035801D01*
X0030152Y0035959D01*
X0030142Y0036117D01*
X0030136Y0036275D01*
X0030134Y0036433D01*
X0020292Y0119110D02*
X0020294Y0119268D01*
X0020300Y0119426D01*
X0020310Y0119584D01*
X0020324Y0119742D01*
X0020342Y0119899D01*
X0020363Y0120056D01*
X0020389Y0120212D01*
X0020419Y0120368D01*
X0020452Y0120523D01*
X0020490Y0120676D01*
X0020531Y0120829D01*
X0020576Y0120981D01*
X0020625Y0121132D01*
X0020678Y0121281D01*
X0020734Y0121429D01*
X0020794Y0121575D01*
X0020858Y0121720D01*
X0020926Y0121863D01*
X0020997Y0122005D01*
X0021071Y0122145D01*
X0021149Y0122282D01*
X0021231Y0122418D01*
X0021315Y0122552D01*
X0021404Y0122683D01*
X0021495Y0122812D01*
X0021590Y0122939D01*
X0021687Y0123064D01*
X0021788Y0123186D01*
X0021892Y0123305D01*
X0021999Y0123422D01*
X0022109Y0123536D01*
X0022222Y0123647D01*
X0022337Y0123756D01*
X0022455Y0123861D01*
X0022576Y0123963D01*
X0022699Y0124063D01*
X0022825Y0124159D01*
X0022953Y0124252D01*
X0023083Y0124342D01*
X0023216Y0124428D01*
X0023351Y0124512D01*
X0023487Y0124591D01*
X0023626Y0124668D01*
X0023767Y0124740D01*
X0023909Y0124810D01*
X0024053Y0124875D01*
X0024199Y0124937D01*
X0024346Y0124995D01*
X0024495Y0125050D01*
X0024645Y0125101D01*
X0024796Y0125148D01*
X0024948Y0125191D01*
X0025101Y0125230D01*
X0025256Y0125266D01*
X0025411Y0125297D01*
X0025567Y0125325D01*
X0025723Y0125349D01*
X0025880Y0125369D01*
X0026038Y0125385D01*
X0026195Y0125397D01*
X0026354Y0125405D01*
X0026512Y0125409D01*
X0026670Y0125409D01*
X0026828Y0125405D01*
X0026987Y0125397D01*
X0027144Y0125385D01*
X0027302Y0125369D01*
X0027459Y0125349D01*
X0027615Y0125325D01*
X0027771Y0125297D01*
X0027926Y0125266D01*
X0028081Y0125230D01*
X0028234Y0125191D01*
X0028386Y0125148D01*
X0028537Y0125101D01*
X0028687Y0125050D01*
X0028836Y0124995D01*
X0028983Y0124937D01*
X0029129Y0124875D01*
X0029273Y0124810D01*
X0029415Y0124740D01*
X0029556Y0124668D01*
X0029695Y0124591D01*
X0029831Y0124512D01*
X0029966Y0124428D01*
X0030099Y0124342D01*
X0030229Y0124252D01*
X0030357Y0124159D01*
X0030483Y0124063D01*
X0030606Y0123963D01*
X0030727Y0123861D01*
X0030845Y0123756D01*
X0030960Y0123647D01*
X0031073Y0123536D01*
X0031183Y0123422D01*
X0031290Y0123305D01*
X0031394Y0123186D01*
X0031495Y0123064D01*
X0031592Y0122939D01*
X0031687Y0122812D01*
X0031778Y0122683D01*
X0031867Y0122552D01*
X0031951Y0122418D01*
X0032033Y0122282D01*
X0032111Y0122145D01*
X0032185Y0122005D01*
X0032256Y0121863D01*
X0032324Y0121720D01*
X0032388Y0121575D01*
X0032448Y0121429D01*
X0032504Y0121281D01*
X0032557Y0121132D01*
X0032606Y0120981D01*
X0032651Y0120829D01*
X0032692Y0120676D01*
X0032730Y0120523D01*
X0032763Y0120368D01*
X0032793Y0120212D01*
X0032819Y0120056D01*
X0032840Y0119899D01*
X0032858Y0119742D01*
X0032872Y0119584D01*
X0032882Y0119426D01*
X0032888Y0119268D01*
X0032890Y0119110D01*
X0032888Y0118952D01*
X0032882Y0118794D01*
X0032872Y0118636D01*
X0032858Y0118478D01*
X0032840Y0118321D01*
X0032819Y0118164D01*
X0032793Y0118008D01*
X0032763Y0117852D01*
X0032730Y0117697D01*
X0032692Y0117544D01*
X0032651Y0117391D01*
X0032606Y0117239D01*
X0032557Y0117088D01*
X0032504Y0116939D01*
X0032448Y0116791D01*
X0032388Y0116645D01*
X0032324Y0116500D01*
X0032256Y0116357D01*
X0032185Y0116215D01*
X0032111Y0116075D01*
X0032033Y0115938D01*
X0031951Y0115802D01*
X0031867Y0115668D01*
X0031778Y0115537D01*
X0031687Y0115408D01*
X0031592Y0115281D01*
X0031495Y0115156D01*
X0031394Y0115034D01*
X0031290Y0114915D01*
X0031183Y0114798D01*
X0031073Y0114684D01*
X0030960Y0114573D01*
X0030845Y0114464D01*
X0030727Y0114359D01*
X0030606Y0114257D01*
X0030483Y0114157D01*
X0030357Y0114061D01*
X0030229Y0113968D01*
X0030099Y0113878D01*
X0029966Y0113792D01*
X0029831Y0113708D01*
X0029695Y0113629D01*
X0029556Y0113552D01*
X0029415Y0113480D01*
X0029273Y0113410D01*
X0029129Y0113345D01*
X0028983Y0113283D01*
X0028836Y0113225D01*
X0028687Y0113170D01*
X0028537Y0113119D01*
X0028386Y0113072D01*
X0028234Y0113029D01*
X0028081Y0112990D01*
X0027926Y0112954D01*
X0027771Y0112923D01*
X0027615Y0112895D01*
X0027459Y0112871D01*
X0027302Y0112851D01*
X0027144Y0112835D01*
X0026987Y0112823D01*
X0026828Y0112815D01*
X0026670Y0112811D01*
X0026512Y0112811D01*
X0026354Y0112815D01*
X0026195Y0112823D01*
X0026038Y0112835D01*
X0025880Y0112851D01*
X0025723Y0112871D01*
X0025567Y0112895D01*
X0025411Y0112923D01*
X0025256Y0112954D01*
X0025101Y0112990D01*
X0024948Y0113029D01*
X0024796Y0113072D01*
X0024645Y0113119D01*
X0024495Y0113170D01*
X0024346Y0113225D01*
X0024199Y0113283D01*
X0024053Y0113345D01*
X0023909Y0113410D01*
X0023767Y0113480D01*
X0023626Y0113552D01*
X0023487Y0113629D01*
X0023351Y0113708D01*
X0023216Y0113792D01*
X0023083Y0113878D01*
X0022953Y0113968D01*
X0022825Y0114061D01*
X0022699Y0114157D01*
X0022576Y0114257D01*
X0022455Y0114359D01*
X0022337Y0114464D01*
X0022222Y0114573D01*
X0022109Y0114684D01*
X0021999Y0114798D01*
X0021892Y0114915D01*
X0021788Y0115034D01*
X0021687Y0115156D01*
X0021590Y0115281D01*
X0021495Y0115408D01*
X0021404Y0115537D01*
X0021315Y0115668D01*
X0021231Y0115802D01*
X0021149Y0115938D01*
X0021071Y0116075D01*
X0020997Y0116215D01*
X0020926Y0116357D01*
X0020858Y0116500D01*
X0020794Y0116645D01*
X0020734Y0116791D01*
X0020678Y0116939D01*
X0020625Y0117088D01*
X0020576Y0117239D01*
X0020531Y0117391D01*
X0020490Y0117544D01*
X0020452Y0117697D01*
X0020419Y0117852D01*
X0020389Y0118008D01*
X0020363Y0118164D01*
X0020342Y0118321D01*
X0020324Y0118478D01*
X0020310Y0118636D01*
X0020300Y0118794D01*
X0020294Y0118952D01*
X0020292Y0119110D01*
X0051988Y0151000D02*
X0051990Y0151148D01*
X0051996Y0151296D01*
X0052006Y0151444D01*
X0052020Y0151591D01*
X0052038Y0151738D01*
X0052059Y0151884D01*
X0052085Y0152030D01*
X0052115Y0152175D01*
X0052148Y0152319D01*
X0052186Y0152462D01*
X0052227Y0152604D01*
X0052272Y0152745D01*
X0052320Y0152885D01*
X0052373Y0153024D01*
X0052429Y0153161D01*
X0052489Y0153296D01*
X0052552Y0153430D01*
X0052619Y0153562D01*
X0052690Y0153692D01*
X0052764Y0153820D01*
X0052841Y0153946D01*
X0052922Y0154070D01*
X0053006Y0154192D01*
X0053093Y0154311D01*
X0053184Y0154428D01*
X0053278Y0154543D01*
X0053374Y0154655D01*
X0053474Y0154765D01*
X0053576Y0154871D01*
X0053682Y0154975D01*
X0053790Y0155076D01*
X0053901Y0155174D01*
X0054014Y0155270D01*
X0054130Y0155362D01*
X0054248Y0155451D01*
X0054369Y0155536D01*
X0054492Y0155619D01*
X0054617Y0155698D01*
X0054744Y0155774D01*
X0054873Y0155846D01*
X0055004Y0155915D01*
X0055137Y0155980D01*
X0055272Y0156041D01*
X0055408Y0156099D01*
X0055545Y0156154D01*
X0055684Y0156204D01*
X0055825Y0156251D01*
X0055966Y0156294D01*
X0056109Y0156334D01*
X0056253Y0156369D01*
X0056397Y0156401D01*
X0056543Y0156428D01*
X0056689Y0156452D01*
X0056836Y0156472D01*
X0056983Y0156488D01*
X0057130Y0156500D01*
X0057278Y0156508D01*
X0057426Y0156512D01*
X0057574Y0156512D01*
X0057722Y0156508D01*
X0057870Y0156500D01*
X0058017Y0156488D01*
X0058164Y0156472D01*
X0058311Y0156452D01*
X0058457Y0156428D01*
X0058603Y0156401D01*
X0058747Y0156369D01*
X0058891Y0156334D01*
X0059034Y0156294D01*
X0059175Y0156251D01*
X0059316Y0156204D01*
X0059455Y0156154D01*
X0059592Y0156099D01*
X0059728Y0156041D01*
X0059863Y0155980D01*
X0059996Y0155915D01*
X0060127Y0155846D01*
X0060256Y0155774D01*
X0060383Y0155698D01*
X0060508Y0155619D01*
X0060631Y0155536D01*
X0060752Y0155451D01*
X0060870Y0155362D01*
X0060986Y0155270D01*
X0061099Y0155174D01*
X0061210Y0155076D01*
X0061318Y0154975D01*
X0061424Y0154871D01*
X0061526Y0154765D01*
X0061626Y0154655D01*
X0061722Y0154543D01*
X0061816Y0154428D01*
X0061907Y0154311D01*
X0061994Y0154192D01*
X0062078Y0154070D01*
X0062159Y0153946D01*
X0062236Y0153820D01*
X0062310Y0153692D01*
X0062381Y0153562D01*
X0062448Y0153430D01*
X0062511Y0153296D01*
X0062571Y0153161D01*
X0062627Y0153024D01*
X0062680Y0152885D01*
X0062728Y0152745D01*
X0062773Y0152604D01*
X0062814Y0152462D01*
X0062852Y0152319D01*
X0062885Y0152175D01*
X0062915Y0152030D01*
X0062941Y0151884D01*
X0062962Y0151738D01*
X0062980Y0151591D01*
X0062994Y0151444D01*
X0063004Y0151296D01*
X0063010Y0151148D01*
X0063012Y0151000D01*
X0063010Y0150852D01*
X0063004Y0150704D01*
X0062994Y0150556D01*
X0062980Y0150409D01*
X0062962Y0150262D01*
X0062941Y0150116D01*
X0062915Y0149970D01*
X0062885Y0149825D01*
X0062852Y0149681D01*
X0062814Y0149538D01*
X0062773Y0149396D01*
X0062728Y0149255D01*
X0062680Y0149115D01*
X0062627Y0148976D01*
X0062571Y0148839D01*
X0062511Y0148704D01*
X0062448Y0148570D01*
X0062381Y0148438D01*
X0062310Y0148308D01*
X0062236Y0148180D01*
X0062159Y0148054D01*
X0062078Y0147930D01*
X0061994Y0147808D01*
X0061907Y0147689D01*
X0061816Y0147572D01*
X0061722Y0147457D01*
X0061626Y0147345D01*
X0061526Y0147235D01*
X0061424Y0147129D01*
X0061318Y0147025D01*
X0061210Y0146924D01*
X0061099Y0146826D01*
X0060986Y0146730D01*
X0060870Y0146638D01*
X0060752Y0146549D01*
X0060631Y0146464D01*
X0060508Y0146381D01*
X0060383Y0146302D01*
X0060256Y0146226D01*
X0060127Y0146154D01*
X0059996Y0146085D01*
X0059863Y0146020D01*
X0059728Y0145959D01*
X0059592Y0145901D01*
X0059455Y0145846D01*
X0059316Y0145796D01*
X0059175Y0145749D01*
X0059034Y0145706D01*
X0058891Y0145666D01*
X0058747Y0145631D01*
X0058603Y0145599D01*
X0058457Y0145572D01*
X0058311Y0145548D01*
X0058164Y0145528D01*
X0058017Y0145512D01*
X0057870Y0145500D01*
X0057722Y0145492D01*
X0057574Y0145488D01*
X0057426Y0145488D01*
X0057278Y0145492D01*
X0057130Y0145500D01*
X0056983Y0145512D01*
X0056836Y0145528D01*
X0056689Y0145548D01*
X0056543Y0145572D01*
X0056397Y0145599D01*
X0056253Y0145631D01*
X0056109Y0145666D01*
X0055966Y0145706D01*
X0055825Y0145749D01*
X0055684Y0145796D01*
X0055545Y0145846D01*
X0055408Y0145901D01*
X0055272Y0145959D01*
X0055137Y0146020D01*
X0055004Y0146085D01*
X0054873Y0146154D01*
X0054744Y0146226D01*
X0054617Y0146302D01*
X0054492Y0146381D01*
X0054369Y0146464D01*
X0054248Y0146549D01*
X0054130Y0146638D01*
X0054014Y0146730D01*
X0053901Y0146826D01*
X0053790Y0146924D01*
X0053682Y0147025D01*
X0053576Y0147129D01*
X0053474Y0147235D01*
X0053374Y0147345D01*
X0053278Y0147457D01*
X0053184Y0147572D01*
X0053093Y0147689D01*
X0053006Y0147808D01*
X0052922Y0147930D01*
X0052841Y0148054D01*
X0052764Y0148180D01*
X0052690Y0148308D01*
X0052619Y0148438D01*
X0052552Y0148570D01*
X0052489Y0148704D01*
X0052429Y0148839D01*
X0052373Y0148976D01*
X0052320Y0149115D01*
X0052272Y0149255D01*
X0052227Y0149396D01*
X0052186Y0149538D01*
X0052148Y0149681D01*
X0052115Y0149825D01*
X0052085Y0149970D01*
X0052059Y0150116D01*
X0052038Y0150262D01*
X0052020Y0150409D01*
X0052006Y0150556D01*
X0051996Y0150704D01*
X0051990Y0150852D01*
X0051988Y0151000D01*
X0030134Y0201787D02*
X0030136Y0201945D01*
X0030142Y0202103D01*
X0030152Y0202261D01*
X0030166Y0202419D01*
X0030184Y0202576D01*
X0030205Y0202733D01*
X0030231Y0202889D01*
X0030261Y0203045D01*
X0030294Y0203200D01*
X0030332Y0203353D01*
X0030373Y0203506D01*
X0030418Y0203658D01*
X0030467Y0203809D01*
X0030520Y0203958D01*
X0030576Y0204106D01*
X0030636Y0204252D01*
X0030700Y0204397D01*
X0030768Y0204540D01*
X0030839Y0204682D01*
X0030913Y0204822D01*
X0030991Y0204959D01*
X0031073Y0205095D01*
X0031157Y0205229D01*
X0031246Y0205360D01*
X0031337Y0205489D01*
X0031432Y0205616D01*
X0031529Y0205741D01*
X0031630Y0205863D01*
X0031734Y0205982D01*
X0031841Y0206099D01*
X0031951Y0206213D01*
X0032064Y0206324D01*
X0032179Y0206433D01*
X0032297Y0206538D01*
X0032418Y0206640D01*
X0032541Y0206740D01*
X0032667Y0206836D01*
X0032795Y0206929D01*
X0032925Y0207019D01*
X0033058Y0207105D01*
X0033193Y0207189D01*
X0033329Y0207268D01*
X0033468Y0207345D01*
X0033609Y0207417D01*
X0033751Y0207487D01*
X0033895Y0207552D01*
X0034041Y0207614D01*
X0034188Y0207672D01*
X0034337Y0207727D01*
X0034487Y0207778D01*
X0034638Y0207825D01*
X0034790Y0207868D01*
X0034943Y0207907D01*
X0035098Y0207943D01*
X0035253Y0207974D01*
X0035409Y0208002D01*
X0035565Y0208026D01*
X0035722Y0208046D01*
X0035880Y0208062D01*
X0036037Y0208074D01*
X0036196Y0208082D01*
X0036354Y0208086D01*
X0036512Y0208086D01*
X0036670Y0208082D01*
X0036829Y0208074D01*
X0036986Y0208062D01*
X0037144Y0208046D01*
X0037301Y0208026D01*
X0037457Y0208002D01*
X0037613Y0207974D01*
X0037768Y0207943D01*
X0037923Y0207907D01*
X0038076Y0207868D01*
X0038228Y0207825D01*
X0038379Y0207778D01*
X0038529Y0207727D01*
X0038678Y0207672D01*
X0038825Y0207614D01*
X0038971Y0207552D01*
X0039115Y0207487D01*
X0039257Y0207417D01*
X0039398Y0207345D01*
X0039537Y0207268D01*
X0039673Y0207189D01*
X0039808Y0207105D01*
X0039941Y0207019D01*
X0040071Y0206929D01*
X0040199Y0206836D01*
X0040325Y0206740D01*
X0040448Y0206640D01*
X0040569Y0206538D01*
X0040687Y0206433D01*
X0040802Y0206324D01*
X0040915Y0206213D01*
X0041025Y0206099D01*
X0041132Y0205982D01*
X0041236Y0205863D01*
X0041337Y0205741D01*
X0041434Y0205616D01*
X0041529Y0205489D01*
X0041620Y0205360D01*
X0041709Y0205229D01*
X0041793Y0205095D01*
X0041875Y0204959D01*
X0041953Y0204822D01*
X0042027Y0204682D01*
X0042098Y0204540D01*
X0042166Y0204397D01*
X0042230Y0204252D01*
X0042290Y0204106D01*
X0042346Y0203958D01*
X0042399Y0203809D01*
X0042448Y0203658D01*
X0042493Y0203506D01*
X0042534Y0203353D01*
X0042572Y0203200D01*
X0042605Y0203045D01*
X0042635Y0202889D01*
X0042661Y0202733D01*
X0042682Y0202576D01*
X0042700Y0202419D01*
X0042714Y0202261D01*
X0042724Y0202103D01*
X0042730Y0201945D01*
X0042732Y0201787D01*
X0042730Y0201629D01*
X0042724Y0201471D01*
X0042714Y0201313D01*
X0042700Y0201155D01*
X0042682Y0200998D01*
X0042661Y0200841D01*
X0042635Y0200685D01*
X0042605Y0200529D01*
X0042572Y0200374D01*
X0042534Y0200221D01*
X0042493Y0200068D01*
X0042448Y0199916D01*
X0042399Y0199765D01*
X0042346Y0199616D01*
X0042290Y0199468D01*
X0042230Y0199322D01*
X0042166Y0199177D01*
X0042098Y0199034D01*
X0042027Y0198892D01*
X0041953Y0198752D01*
X0041875Y0198615D01*
X0041793Y0198479D01*
X0041709Y0198345D01*
X0041620Y0198214D01*
X0041529Y0198085D01*
X0041434Y0197958D01*
X0041337Y0197833D01*
X0041236Y0197711D01*
X0041132Y0197592D01*
X0041025Y0197475D01*
X0040915Y0197361D01*
X0040802Y0197250D01*
X0040687Y0197141D01*
X0040569Y0197036D01*
X0040448Y0196934D01*
X0040325Y0196834D01*
X0040199Y0196738D01*
X0040071Y0196645D01*
X0039941Y0196555D01*
X0039808Y0196469D01*
X0039673Y0196385D01*
X0039537Y0196306D01*
X0039398Y0196229D01*
X0039257Y0196157D01*
X0039115Y0196087D01*
X0038971Y0196022D01*
X0038825Y0195960D01*
X0038678Y0195902D01*
X0038529Y0195847D01*
X0038379Y0195796D01*
X0038228Y0195749D01*
X0038076Y0195706D01*
X0037923Y0195667D01*
X0037768Y0195631D01*
X0037613Y0195600D01*
X0037457Y0195572D01*
X0037301Y0195548D01*
X0037144Y0195528D01*
X0036986Y0195512D01*
X0036829Y0195500D01*
X0036670Y0195492D01*
X0036512Y0195488D01*
X0036354Y0195488D01*
X0036196Y0195492D01*
X0036037Y0195500D01*
X0035880Y0195512D01*
X0035722Y0195528D01*
X0035565Y0195548D01*
X0035409Y0195572D01*
X0035253Y0195600D01*
X0035098Y0195631D01*
X0034943Y0195667D01*
X0034790Y0195706D01*
X0034638Y0195749D01*
X0034487Y0195796D01*
X0034337Y0195847D01*
X0034188Y0195902D01*
X0034041Y0195960D01*
X0033895Y0196022D01*
X0033751Y0196087D01*
X0033609Y0196157D01*
X0033468Y0196229D01*
X0033329Y0196306D01*
X0033193Y0196385D01*
X0033058Y0196469D01*
X0032925Y0196555D01*
X0032795Y0196645D01*
X0032667Y0196738D01*
X0032541Y0196834D01*
X0032418Y0196934D01*
X0032297Y0197036D01*
X0032179Y0197141D01*
X0032064Y0197250D01*
X0031951Y0197361D01*
X0031841Y0197475D01*
X0031734Y0197592D01*
X0031630Y0197711D01*
X0031529Y0197833D01*
X0031432Y0197958D01*
X0031337Y0198085D01*
X0031246Y0198214D01*
X0031157Y0198345D01*
X0031073Y0198479D01*
X0030991Y0198615D01*
X0030913Y0198752D01*
X0030839Y0198892D01*
X0030768Y0199034D01*
X0030700Y0199177D01*
X0030636Y0199322D01*
X0030576Y0199468D01*
X0030520Y0199616D01*
X0030467Y0199765D01*
X0030418Y0199916D01*
X0030373Y0200068D01*
X0030332Y0200221D01*
X0030294Y0200374D01*
X0030261Y0200529D01*
X0030231Y0200685D01*
X0030205Y0200841D01*
X0030184Y0200998D01*
X0030166Y0201155D01*
X0030152Y0201313D01*
X0030142Y0201471D01*
X0030136Y0201629D01*
X0030134Y0201787D01*
X0195488Y0201787D02*
X0195490Y0201945D01*
X0195496Y0202103D01*
X0195506Y0202261D01*
X0195520Y0202419D01*
X0195538Y0202576D01*
X0195559Y0202733D01*
X0195585Y0202889D01*
X0195615Y0203045D01*
X0195648Y0203200D01*
X0195686Y0203353D01*
X0195727Y0203506D01*
X0195772Y0203658D01*
X0195821Y0203809D01*
X0195874Y0203958D01*
X0195930Y0204106D01*
X0195990Y0204252D01*
X0196054Y0204397D01*
X0196122Y0204540D01*
X0196193Y0204682D01*
X0196267Y0204822D01*
X0196345Y0204959D01*
X0196427Y0205095D01*
X0196511Y0205229D01*
X0196600Y0205360D01*
X0196691Y0205489D01*
X0196786Y0205616D01*
X0196883Y0205741D01*
X0196984Y0205863D01*
X0197088Y0205982D01*
X0197195Y0206099D01*
X0197305Y0206213D01*
X0197418Y0206324D01*
X0197533Y0206433D01*
X0197651Y0206538D01*
X0197772Y0206640D01*
X0197895Y0206740D01*
X0198021Y0206836D01*
X0198149Y0206929D01*
X0198279Y0207019D01*
X0198412Y0207105D01*
X0198547Y0207189D01*
X0198683Y0207268D01*
X0198822Y0207345D01*
X0198963Y0207417D01*
X0199105Y0207487D01*
X0199249Y0207552D01*
X0199395Y0207614D01*
X0199542Y0207672D01*
X0199691Y0207727D01*
X0199841Y0207778D01*
X0199992Y0207825D01*
X0200144Y0207868D01*
X0200297Y0207907D01*
X0200452Y0207943D01*
X0200607Y0207974D01*
X0200763Y0208002D01*
X0200919Y0208026D01*
X0201076Y0208046D01*
X0201234Y0208062D01*
X0201391Y0208074D01*
X0201550Y0208082D01*
X0201708Y0208086D01*
X0201866Y0208086D01*
X0202024Y0208082D01*
X0202183Y0208074D01*
X0202340Y0208062D01*
X0202498Y0208046D01*
X0202655Y0208026D01*
X0202811Y0208002D01*
X0202967Y0207974D01*
X0203122Y0207943D01*
X0203277Y0207907D01*
X0203430Y0207868D01*
X0203582Y0207825D01*
X0203733Y0207778D01*
X0203883Y0207727D01*
X0204032Y0207672D01*
X0204179Y0207614D01*
X0204325Y0207552D01*
X0204469Y0207487D01*
X0204611Y0207417D01*
X0204752Y0207345D01*
X0204891Y0207268D01*
X0205027Y0207189D01*
X0205162Y0207105D01*
X0205295Y0207019D01*
X0205425Y0206929D01*
X0205553Y0206836D01*
X0205679Y0206740D01*
X0205802Y0206640D01*
X0205923Y0206538D01*
X0206041Y0206433D01*
X0206156Y0206324D01*
X0206269Y0206213D01*
X0206379Y0206099D01*
X0206486Y0205982D01*
X0206590Y0205863D01*
X0206691Y0205741D01*
X0206788Y0205616D01*
X0206883Y0205489D01*
X0206974Y0205360D01*
X0207063Y0205229D01*
X0207147Y0205095D01*
X0207229Y0204959D01*
X0207307Y0204822D01*
X0207381Y0204682D01*
X0207452Y0204540D01*
X0207520Y0204397D01*
X0207584Y0204252D01*
X0207644Y0204106D01*
X0207700Y0203958D01*
X0207753Y0203809D01*
X0207802Y0203658D01*
X0207847Y0203506D01*
X0207888Y0203353D01*
X0207926Y0203200D01*
X0207959Y0203045D01*
X0207989Y0202889D01*
X0208015Y0202733D01*
X0208036Y0202576D01*
X0208054Y0202419D01*
X0208068Y0202261D01*
X0208078Y0202103D01*
X0208084Y0201945D01*
X0208086Y0201787D01*
X0208084Y0201629D01*
X0208078Y0201471D01*
X0208068Y0201313D01*
X0208054Y0201155D01*
X0208036Y0200998D01*
X0208015Y0200841D01*
X0207989Y0200685D01*
X0207959Y0200529D01*
X0207926Y0200374D01*
X0207888Y0200221D01*
X0207847Y0200068D01*
X0207802Y0199916D01*
X0207753Y0199765D01*
X0207700Y0199616D01*
X0207644Y0199468D01*
X0207584Y0199322D01*
X0207520Y0199177D01*
X0207452Y0199034D01*
X0207381Y0198892D01*
X0207307Y0198752D01*
X0207229Y0198615D01*
X0207147Y0198479D01*
X0207063Y0198345D01*
X0206974Y0198214D01*
X0206883Y0198085D01*
X0206788Y0197958D01*
X0206691Y0197833D01*
X0206590Y0197711D01*
X0206486Y0197592D01*
X0206379Y0197475D01*
X0206269Y0197361D01*
X0206156Y0197250D01*
X0206041Y0197141D01*
X0205923Y0197036D01*
X0205802Y0196934D01*
X0205679Y0196834D01*
X0205553Y0196738D01*
X0205425Y0196645D01*
X0205295Y0196555D01*
X0205162Y0196469D01*
X0205027Y0196385D01*
X0204891Y0196306D01*
X0204752Y0196229D01*
X0204611Y0196157D01*
X0204469Y0196087D01*
X0204325Y0196022D01*
X0204179Y0195960D01*
X0204032Y0195902D01*
X0203883Y0195847D01*
X0203733Y0195796D01*
X0203582Y0195749D01*
X0203430Y0195706D01*
X0203277Y0195667D01*
X0203122Y0195631D01*
X0202967Y0195600D01*
X0202811Y0195572D01*
X0202655Y0195548D01*
X0202498Y0195528D01*
X0202340Y0195512D01*
X0202183Y0195500D01*
X0202024Y0195492D01*
X0201866Y0195488D01*
X0201708Y0195488D01*
X0201550Y0195492D01*
X0201391Y0195500D01*
X0201234Y0195512D01*
X0201076Y0195528D01*
X0200919Y0195548D01*
X0200763Y0195572D01*
X0200607Y0195600D01*
X0200452Y0195631D01*
X0200297Y0195667D01*
X0200144Y0195706D01*
X0199992Y0195749D01*
X0199841Y0195796D01*
X0199691Y0195847D01*
X0199542Y0195902D01*
X0199395Y0195960D01*
X0199249Y0196022D01*
X0199105Y0196087D01*
X0198963Y0196157D01*
X0198822Y0196229D01*
X0198683Y0196306D01*
X0198547Y0196385D01*
X0198412Y0196469D01*
X0198279Y0196555D01*
X0198149Y0196645D01*
X0198021Y0196738D01*
X0197895Y0196834D01*
X0197772Y0196934D01*
X0197651Y0197036D01*
X0197533Y0197141D01*
X0197418Y0197250D01*
X0197305Y0197361D01*
X0197195Y0197475D01*
X0197088Y0197592D01*
X0196984Y0197711D01*
X0196883Y0197833D01*
X0196786Y0197958D01*
X0196691Y0198085D01*
X0196600Y0198214D01*
X0196511Y0198345D01*
X0196427Y0198479D01*
X0196345Y0198615D01*
X0196267Y0198752D01*
X0196193Y0198892D01*
X0196122Y0199034D01*
X0196054Y0199177D01*
X0195990Y0199322D01*
X0195930Y0199468D01*
X0195874Y0199616D01*
X0195821Y0199765D01*
X0195772Y0199916D01*
X0195727Y0200068D01*
X0195686Y0200221D01*
X0195648Y0200374D01*
X0195615Y0200529D01*
X0195585Y0200685D01*
X0195559Y0200841D01*
X0195538Y0200998D01*
X0195520Y0201155D01*
X0195506Y0201313D01*
X0195496Y0201471D01*
X0195490Y0201629D01*
X0195488Y0201787D01*
X0206988Y0151000D02*
X0206990Y0151148D01*
X0206996Y0151296D01*
X0207006Y0151444D01*
X0207020Y0151591D01*
X0207038Y0151738D01*
X0207059Y0151884D01*
X0207085Y0152030D01*
X0207115Y0152175D01*
X0207148Y0152319D01*
X0207186Y0152462D01*
X0207227Y0152604D01*
X0207272Y0152745D01*
X0207320Y0152885D01*
X0207373Y0153024D01*
X0207429Y0153161D01*
X0207489Y0153296D01*
X0207552Y0153430D01*
X0207619Y0153562D01*
X0207690Y0153692D01*
X0207764Y0153820D01*
X0207841Y0153946D01*
X0207922Y0154070D01*
X0208006Y0154192D01*
X0208093Y0154311D01*
X0208184Y0154428D01*
X0208278Y0154543D01*
X0208374Y0154655D01*
X0208474Y0154765D01*
X0208576Y0154871D01*
X0208682Y0154975D01*
X0208790Y0155076D01*
X0208901Y0155174D01*
X0209014Y0155270D01*
X0209130Y0155362D01*
X0209248Y0155451D01*
X0209369Y0155536D01*
X0209492Y0155619D01*
X0209617Y0155698D01*
X0209744Y0155774D01*
X0209873Y0155846D01*
X0210004Y0155915D01*
X0210137Y0155980D01*
X0210272Y0156041D01*
X0210408Y0156099D01*
X0210545Y0156154D01*
X0210684Y0156204D01*
X0210825Y0156251D01*
X0210966Y0156294D01*
X0211109Y0156334D01*
X0211253Y0156369D01*
X0211397Y0156401D01*
X0211543Y0156428D01*
X0211689Y0156452D01*
X0211836Y0156472D01*
X0211983Y0156488D01*
X0212130Y0156500D01*
X0212278Y0156508D01*
X0212426Y0156512D01*
X0212574Y0156512D01*
X0212722Y0156508D01*
X0212870Y0156500D01*
X0213017Y0156488D01*
X0213164Y0156472D01*
X0213311Y0156452D01*
X0213457Y0156428D01*
X0213603Y0156401D01*
X0213747Y0156369D01*
X0213891Y0156334D01*
X0214034Y0156294D01*
X0214175Y0156251D01*
X0214316Y0156204D01*
X0214455Y0156154D01*
X0214592Y0156099D01*
X0214728Y0156041D01*
X0214863Y0155980D01*
X0214996Y0155915D01*
X0215127Y0155846D01*
X0215256Y0155774D01*
X0215383Y0155698D01*
X0215508Y0155619D01*
X0215631Y0155536D01*
X0215752Y0155451D01*
X0215870Y0155362D01*
X0215986Y0155270D01*
X0216099Y0155174D01*
X0216210Y0155076D01*
X0216318Y0154975D01*
X0216424Y0154871D01*
X0216526Y0154765D01*
X0216626Y0154655D01*
X0216722Y0154543D01*
X0216816Y0154428D01*
X0216907Y0154311D01*
X0216994Y0154192D01*
X0217078Y0154070D01*
X0217159Y0153946D01*
X0217236Y0153820D01*
X0217310Y0153692D01*
X0217381Y0153562D01*
X0217448Y0153430D01*
X0217511Y0153296D01*
X0217571Y0153161D01*
X0217627Y0153024D01*
X0217680Y0152885D01*
X0217728Y0152745D01*
X0217773Y0152604D01*
X0217814Y0152462D01*
X0217852Y0152319D01*
X0217885Y0152175D01*
X0217915Y0152030D01*
X0217941Y0151884D01*
X0217962Y0151738D01*
X0217980Y0151591D01*
X0217994Y0151444D01*
X0218004Y0151296D01*
X0218010Y0151148D01*
X0218012Y0151000D01*
X0218010Y0150852D01*
X0218004Y0150704D01*
X0217994Y0150556D01*
X0217980Y0150409D01*
X0217962Y0150262D01*
X0217941Y0150116D01*
X0217915Y0149970D01*
X0217885Y0149825D01*
X0217852Y0149681D01*
X0217814Y0149538D01*
X0217773Y0149396D01*
X0217728Y0149255D01*
X0217680Y0149115D01*
X0217627Y0148976D01*
X0217571Y0148839D01*
X0217511Y0148704D01*
X0217448Y0148570D01*
X0217381Y0148438D01*
X0217310Y0148308D01*
X0217236Y0148180D01*
X0217159Y0148054D01*
X0217078Y0147930D01*
X0216994Y0147808D01*
X0216907Y0147689D01*
X0216816Y0147572D01*
X0216722Y0147457D01*
X0216626Y0147345D01*
X0216526Y0147235D01*
X0216424Y0147129D01*
X0216318Y0147025D01*
X0216210Y0146924D01*
X0216099Y0146826D01*
X0215986Y0146730D01*
X0215870Y0146638D01*
X0215752Y0146549D01*
X0215631Y0146464D01*
X0215508Y0146381D01*
X0215383Y0146302D01*
X0215256Y0146226D01*
X0215127Y0146154D01*
X0214996Y0146085D01*
X0214863Y0146020D01*
X0214728Y0145959D01*
X0214592Y0145901D01*
X0214455Y0145846D01*
X0214316Y0145796D01*
X0214175Y0145749D01*
X0214034Y0145706D01*
X0213891Y0145666D01*
X0213747Y0145631D01*
X0213603Y0145599D01*
X0213457Y0145572D01*
X0213311Y0145548D01*
X0213164Y0145528D01*
X0213017Y0145512D01*
X0212870Y0145500D01*
X0212722Y0145492D01*
X0212574Y0145488D01*
X0212426Y0145488D01*
X0212278Y0145492D01*
X0212130Y0145500D01*
X0211983Y0145512D01*
X0211836Y0145528D01*
X0211689Y0145548D01*
X0211543Y0145572D01*
X0211397Y0145599D01*
X0211253Y0145631D01*
X0211109Y0145666D01*
X0210966Y0145706D01*
X0210825Y0145749D01*
X0210684Y0145796D01*
X0210545Y0145846D01*
X0210408Y0145901D01*
X0210272Y0145959D01*
X0210137Y0146020D01*
X0210004Y0146085D01*
X0209873Y0146154D01*
X0209744Y0146226D01*
X0209617Y0146302D01*
X0209492Y0146381D01*
X0209369Y0146464D01*
X0209248Y0146549D01*
X0209130Y0146638D01*
X0209014Y0146730D01*
X0208901Y0146826D01*
X0208790Y0146924D01*
X0208682Y0147025D01*
X0208576Y0147129D01*
X0208474Y0147235D01*
X0208374Y0147345D01*
X0208278Y0147457D01*
X0208184Y0147572D01*
X0208093Y0147689D01*
X0208006Y0147808D01*
X0207922Y0147930D01*
X0207841Y0148054D01*
X0207764Y0148180D01*
X0207690Y0148308D01*
X0207619Y0148438D01*
X0207552Y0148570D01*
X0207489Y0148704D01*
X0207429Y0148839D01*
X0207373Y0148976D01*
X0207320Y0149115D01*
X0207272Y0149255D01*
X0207227Y0149396D01*
X0207186Y0149538D01*
X0207148Y0149681D01*
X0207115Y0149825D01*
X0207085Y0149970D01*
X0207059Y0150116D01*
X0207038Y0150262D01*
X0207020Y0150409D01*
X0207006Y0150556D01*
X0206996Y0150704D01*
X0206990Y0150852D01*
X0206988Y0151000D01*
X0205331Y0119110D02*
X0205333Y0119268D01*
X0205339Y0119426D01*
X0205349Y0119584D01*
X0205363Y0119742D01*
X0205381Y0119899D01*
X0205402Y0120056D01*
X0205428Y0120212D01*
X0205458Y0120368D01*
X0205491Y0120523D01*
X0205529Y0120676D01*
X0205570Y0120829D01*
X0205615Y0120981D01*
X0205664Y0121132D01*
X0205717Y0121281D01*
X0205773Y0121429D01*
X0205833Y0121575D01*
X0205897Y0121720D01*
X0205965Y0121863D01*
X0206036Y0122005D01*
X0206110Y0122145D01*
X0206188Y0122282D01*
X0206270Y0122418D01*
X0206354Y0122552D01*
X0206443Y0122683D01*
X0206534Y0122812D01*
X0206629Y0122939D01*
X0206726Y0123064D01*
X0206827Y0123186D01*
X0206931Y0123305D01*
X0207038Y0123422D01*
X0207148Y0123536D01*
X0207261Y0123647D01*
X0207376Y0123756D01*
X0207494Y0123861D01*
X0207615Y0123963D01*
X0207738Y0124063D01*
X0207864Y0124159D01*
X0207992Y0124252D01*
X0208122Y0124342D01*
X0208255Y0124428D01*
X0208390Y0124512D01*
X0208526Y0124591D01*
X0208665Y0124668D01*
X0208806Y0124740D01*
X0208948Y0124810D01*
X0209092Y0124875D01*
X0209238Y0124937D01*
X0209385Y0124995D01*
X0209534Y0125050D01*
X0209684Y0125101D01*
X0209835Y0125148D01*
X0209987Y0125191D01*
X0210140Y0125230D01*
X0210295Y0125266D01*
X0210450Y0125297D01*
X0210606Y0125325D01*
X0210762Y0125349D01*
X0210919Y0125369D01*
X0211077Y0125385D01*
X0211234Y0125397D01*
X0211393Y0125405D01*
X0211551Y0125409D01*
X0211709Y0125409D01*
X0211867Y0125405D01*
X0212026Y0125397D01*
X0212183Y0125385D01*
X0212341Y0125369D01*
X0212498Y0125349D01*
X0212654Y0125325D01*
X0212810Y0125297D01*
X0212965Y0125266D01*
X0213120Y0125230D01*
X0213273Y0125191D01*
X0213425Y0125148D01*
X0213576Y0125101D01*
X0213726Y0125050D01*
X0213875Y0124995D01*
X0214022Y0124937D01*
X0214168Y0124875D01*
X0214312Y0124810D01*
X0214454Y0124740D01*
X0214595Y0124668D01*
X0214734Y0124591D01*
X0214870Y0124512D01*
X0215005Y0124428D01*
X0215138Y0124342D01*
X0215268Y0124252D01*
X0215396Y0124159D01*
X0215522Y0124063D01*
X0215645Y0123963D01*
X0215766Y0123861D01*
X0215884Y0123756D01*
X0215999Y0123647D01*
X0216112Y0123536D01*
X0216222Y0123422D01*
X0216329Y0123305D01*
X0216433Y0123186D01*
X0216534Y0123064D01*
X0216631Y0122939D01*
X0216726Y0122812D01*
X0216817Y0122683D01*
X0216906Y0122552D01*
X0216990Y0122418D01*
X0217072Y0122282D01*
X0217150Y0122145D01*
X0217224Y0122005D01*
X0217295Y0121863D01*
X0217363Y0121720D01*
X0217427Y0121575D01*
X0217487Y0121429D01*
X0217543Y0121281D01*
X0217596Y0121132D01*
X0217645Y0120981D01*
X0217690Y0120829D01*
X0217731Y0120676D01*
X0217769Y0120523D01*
X0217802Y0120368D01*
X0217832Y0120212D01*
X0217858Y0120056D01*
X0217879Y0119899D01*
X0217897Y0119742D01*
X0217911Y0119584D01*
X0217921Y0119426D01*
X0217927Y0119268D01*
X0217929Y0119110D01*
X0217927Y0118952D01*
X0217921Y0118794D01*
X0217911Y0118636D01*
X0217897Y0118478D01*
X0217879Y0118321D01*
X0217858Y0118164D01*
X0217832Y0118008D01*
X0217802Y0117852D01*
X0217769Y0117697D01*
X0217731Y0117544D01*
X0217690Y0117391D01*
X0217645Y0117239D01*
X0217596Y0117088D01*
X0217543Y0116939D01*
X0217487Y0116791D01*
X0217427Y0116645D01*
X0217363Y0116500D01*
X0217295Y0116357D01*
X0217224Y0116215D01*
X0217150Y0116075D01*
X0217072Y0115938D01*
X0216990Y0115802D01*
X0216906Y0115668D01*
X0216817Y0115537D01*
X0216726Y0115408D01*
X0216631Y0115281D01*
X0216534Y0115156D01*
X0216433Y0115034D01*
X0216329Y0114915D01*
X0216222Y0114798D01*
X0216112Y0114684D01*
X0215999Y0114573D01*
X0215884Y0114464D01*
X0215766Y0114359D01*
X0215645Y0114257D01*
X0215522Y0114157D01*
X0215396Y0114061D01*
X0215268Y0113968D01*
X0215138Y0113878D01*
X0215005Y0113792D01*
X0214870Y0113708D01*
X0214734Y0113629D01*
X0214595Y0113552D01*
X0214454Y0113480D01*
X0214312Y0113410D01*
X0214168Y0113345D01*
X0214022Y0113283D01*
X0213875Y0113225D01*
X0213726Y0113170D01*
X0213576Y0113119D01*
X0213425Y0113072D01*
X0213273Y0113029D01*
X0213120Y0112990D01*
X0212965Y0112954D01*
X0212810Y0112923D01*
X0212654Y0112895D01*
X0212498Y0112871D01*
X0212341Y0112851D01*
X0212183Y0112835D01*
X0212026Y0112823D01*
X0211867Y0112815D01*
X0211709Y0112811D01*
X0211551Y0112811D01*
X0211393Y0112815D01*
X0211234Y0112823D01*
X0211077Y0112835D01*
X0210919Y0112851D01*
X0210762Y0112871D01*
X0210606Y0112895D01*
X0210450Y0112923D01*
X0210295Y0112954D01*
X0210140Y0112990D01*
X0209987Y0113029D01*
X0209835Y0113072D01*
X0209684Y0113119D01*
X0209534Y0113170D01*
X0209385Y0113225D01*
X0209238Y0113283D01*
X0209092Y0113345D01*
X0208948Y0113410D01*
X0208806Y0113480D01*
X0208665Y0113552D01*
X0208526Y0113629D01*
X0208390Y0113708D01*
X0208255Y0113792D01*
X0208122Y0113878D01*
X0207992Y0113968D01*
X0207864Y0114061D01*
X0207738Y0114157D01*
X0207615Y0114257D01*
X0207494Y0114359D01*
X0207376Y0114464D01*
X0207261Y0114573D01*
X0207148Y0114684D01*
X0207038Y0114798D01*
X0206931Y0114915D01*
X0206827Y0115034D01*
X0206726Y0115156D01*
X0206629Y0115281D01*
X0206534Y0115408D01*
X0206443Y0115537D01*
X0206354Y0115668D01*
X0206270Y0115802D01*
X0206188Y0115938D01*
X0206110Y0116075D01*
X0206036Y0116215D01*
X0205965Y0116357D01*
X0205897Y0116500D01*
X0205833Y0116645D01*
X0205773Y0116791D01*
X0205717Y0116939D01*
X0205664Y0117088D01*
X0205615Y0117239D01*
X0205570Y0117391D01*
X0205529Y0117544D01*
X0205491Y0117697D01*
X0205458Y0117852D01*
X0205428Y0118008D01*
X0205402Y0118164D01*
X0205381Y0118321D01*
X0205363Y0118478D01*
X0205349Y0118636D01*
X0205339Y0118794D01*
X0205333Y0118952D01*
X0205331Y0119110D01*
X0195488Y0036433D02*
X0195490Y0036591D01*
X0195496Y0036749D01*
X0195506Y0036907D01*
X0195520Y0037065D01*
X0195538Y0037222D01*
X0195559Y0037379D01*
X0195585Y0037535D01*
X0195615Y0037691D01*
X0195648Y0037846D01*
X0195686Y0037999D01*
X0195727Y0038152D01*
X0195772Y0038304D01*
X0195821Y0038455D01*
X0195874Y0038604D01*
X0195930Y0038752D01*
X0195990Y0038898D01*
X0196054Y0039043D01*
X0196122Y0039186D01*
X0196193Y0039328D01*
X0196267Y0039468D01*
X0196345Y0039605D01*
X0196427Y0039741D01*
X0196511Y0039875D01*
X0196600Y0040006D01*
X0196691Y0040135D01*
X0196786Y0040262D01*
X0196883Y0040387D01*
X0196984Y0040509D01*
X0197088Y0040628D01*
X0197195Y0040745D01*
X0197305Y0040859D01*
X0197418Y0040970D01*
X0197533Y0041079D01*
X0197651Y0041184D01*
X0197772Y0041286D01*
X0197895Y0041386D01*
X0198021Y0041482D01*
X0198149Y0041575D01*
X0198279Y0041665D01*
X0198412Y0041751D01*
X0198547Y0041835D01*
X0198683Y0041914D01*
X0198822Y0041991D01*
X0198963Y0042063D01*
X0199105Y0042133D01*
X0199249Y0042198D01*
X0199395Y0042260D01*
X0199542Y0042318D01*
X0199691Y0042373D01*
X0199841Y0042424D01*
X0199992Y0042471D01*
X0200144Y0042514D01*
X0200297Y0042553D01*
X0200452Y0042589D01*
X0200607Y0042620D01*
X0200763Y0042648D01*
X0200919Y0042672D01*
X0201076Y0042692D01*
X0201234Y0042708D01*
X0201391Y0042720D01*
X0201550Y0042728D01*
X0201708Y0042732D01*
X0201866Y0042732D01*
X0202024Y0042728D01*
X0202183Y0042720D01*
X0202340Y0042708D01*
X0202498Y0042692D01*
X0202655Y0042672D01*
X0202811Y0042648D01*
X0202967Y0042620D01*
X0203122Y0042589D01*
X0203277Y0042553D01*
X0203430Y0042514D01*
X0203582Y0042471D01*
X0203733Y0042424D01*
X0203883Y0042373D01*
X0204032Y0042318D01*
X0204179Y0042260D01*
X0204325Y0042198D01*
X0204469Y0042133D01*
X0204611Y0042063D01*
X0204752Y0041991D01*
X0204891Y0041914D01*
X0205027Y0041835D01*
X0205162Y0041751D01*
X0205295Y0041665D01*
X0205425Y0041575D01*
X0205553Y0041482D01*
X0205679Y0041386D01*
X0205802Y0041286D01*
X0205923Y0041184D01*
X0206041Y0041079D01*
X0206156Y0040970D01*
X0206269Y0040859D01*
X0206379Y0040745D01*
X0206486Y0040628D01*
X0206590Y0040509D01*
X0206691Y0040387D01*
X0206788Y0040262D01*
X0206883Y0040135D01*
X0206974Y0040006D01*
X0207063Y0039875D01*
X0207147Y0039741D01*
X0207229Y0039605D01*
X0207307Y0039468D01*
X0207381Y0039328D01*
X0207452Y0039186D01*
X0207520Y0039043D01*
X0207584Y0038898D01*
X0207644Y0038752D01*
X0207700Y0038604D01*
X0207753Y0038455D01*
X0207802Y0038304D01*
X0207847Y0038152D01*
X0207888Y0037999D01*
X0207926Y0037846D01*
X0207959Y0037691D01*
X0207989Y0037535D01*
X0208015Y0037379D01*
X0208036Y0037222D01*
X0208054Y0037065D01*
X0208068Y0036907D01*
X0208078Y0036749D01*
X0208084Y0036591D01*
X0208086Y0036433D01*
X0208084Y0036275D01*
X0208078Y0036117D01*
X0208068Y0035959D01*
X0208054Y0035801D01*
X0208036Y0035644D01*
X0208015Y0035487D01*
X0207989Y0035331D01*
X0207959Y0035175D01*
X0207926Y0035020D01*
X0207888Y0034867D01*
X0207847Y0034714D01*
X0207802Y0034562D01*
X0207753Y0034411D01*
X0207700Y0034262D01*
X0207644Y0034114D01*
X0207584Y0033968D01*
X0207520Y0033823D01*
X0207452Y0033680D01*
X0207381Y0033538D01*
X0207307Y0033398D01*
X0207229Y0033261D01*
X0207147Y0033125D01*
X0207063Y0032991D01*
X0206974Y0032860D01*
X0206883Y0032731D01*
X0206788Y0032604D01*
X0206691Y0032479D01*
X0206590Y0032357D01*
X0206486Y0032238D01*
X0206379Y0032121D01*
X0206269Y0032007D01*
X0206156Y0031896D01*
X0206041Y0031787D01*
X0205923Y0031682D01*
X0205802Y0031580D01*
X0205679Y0031480D01*
X0205553Y0031384D01*
X0205425Y0031291D01*
X0205295Y0031201D01*
X0205162Y0031115D01*
X0205027Y0031031D01*
X0204891Y0030952D01*
X0204752Y0030875D01*
X0204611Y0030803D01*
X0204469Y0030733D01*
X0204325Y0030668D01*
X0204179Y0030606D01*
X0204032Y0030548D01*
X0203883Y0030493D01*
X0203733Y0030442D01*
X0203582Y0030395D01*
X0203430Y0030352D01*
X0203277Y0030313D01*
X0203122Y0030277D01*
X0202967Y0030246D01*
X0202811Y0030218D01*
X0202655Y0030194D01*
X0202498Y0030174D01*
X0202340Y0030158D01*
X0202183Y0030146D01*
X0202024Y0030138D01*
X0201866Y0030134D01*
X0201708Y0030134D01*
X0201550Y0030138D01*
X0201391Y0030146D01*
X0201234Y0030158D01*
X0201076Y0030174D01*
X0200919Y0030194D01*
X0200763Y0030218D01*
X0200607Y0030246D01*
X0200452Y0030277D01*
X0200297Y0030313D01*
X0200144Y0030352D01*
X0199992Y0030395D01*
X0199841Y0030442D01*
X0199691Y0030493D01*
X0199542Y0030548D01*
X0199395Y0030606D01*
X0199249Y0030668D01*
X0199105Y0030733D01*
X0198963Y0030803D01*
X0198822Y0030875D01*
X0198683Y0030952D01*
X0198547Y0031031D01*
X0198412Y0031115D01*
X0198279Y0031201D01*
X0198149Y0031291D01*
X0198021Y0031384D01*
X0197895Y0031480D01*
X0197772Y0031580D01*
X0197651Y0031682D01*
X0197533Y0031787D01*
X0197418Y0031896D01*
X0197305Y0032007D01*
X0197195Y0032121D01*
X0197088Y0032238D01*
X0196984Y0032357D01*
X0196883Y0032479D01*
X0196786Y0032604D01*
X0196691Y0032731D01*
X0196600Y0032860D01*
X0196511Y0032991D01*
X0196427Y0033125D01*
X0196345Y0033261D01*
X0196267Y0033398D01*
X0196193Y0033538D01*
X0196122Y0033680D01*
X0196054Y0033823D01*
X0195990Y0033968D01*
X0195930Y0034114D01*
X0195874Y0034262D01*
X0195821Y0034411D01*
X0195772Y0034562D01*
X0195727Y0034714D01*
X0195686Y0034867D01*
X0195648Y0035020D01*
X0195615Y0035175D01*
X0195585Y0035331D01*
X0195559Y0035487D01*
X0195538Y0035644D01*
X0195520Y0035801D01*
X0195506Y0035959D01*
X0195496Y0036117D01*
X0195490Y0036275D01*
X0195488Y0036433D01*
D11*
X0037393Y0223568D02*
X0034591Y0223568D01*
X0034591Y0221700D02*
X0034591Y0227305D01*
X0037393Y0227305D01*
X0038328Y0226371D01*
X0038328Y0224502D01*
X0037393Y0223568D01*
X0031882Y0222634D02*
X0031882Y0226371D01*
X0030948Y0227305D01*
X0029080Y0227305D01*
X0028145Y0226371D01*
X0028145Y0222634D01*
X0029080Y0221700D01*
X0030948Y0221700D01*
X0031882Y0222634D01*
X0025437Y0227305D02*
X0021700Y0227305D01*
X0023568Y0227305D02*
X0023568Y0221700D01*
D12*
X0080748Y0208157D03*
X0087441Y0208157D03*
X0094559Y0207906D03*
X0101252Y0207906D03*
X0112220Y0200252D03*
X0112220Y0193559D03*
X0179150Y0134780D03*
X0179150Y0128087D03*
X0178303Y0106433D03*
X0184996Y0106433D03*
X0184996Y0096433D03*
X0178303Y0096433D03*
X0172496Y0096433D03*
X0165803Y0096433D03*
X0167496Y0106433D03*
X0160803Y0106433D03*
X0112220Y0060567D03*
X0112220Y0053874D03*
X0097567Y0068343D03*
X0090874Y0068343D03*
X0084126Y0068157D03*
X0077433Y0068157D03*
D13*
X0076709Y0042220D03*
X0087732Y0042220D03*
X0101709Y0042220D03*
X0112732Y0042220D03*
X0112732Y0027220D03*
X0101709Y0027220D03*
X0087732Y0027220D03*
X0076709Y0027220D03*
X0076709Y0166906D03*
X0087732Y0166906D03*
X0101709Y0166906D03*
X0112732Y0166906D03*
X0112732Y0181906D03*
X0101709Y0181906D03*
X0087732Y0181906D03*
X0076709Y0181906D03*
D14*
X0122000Y0158346D03*
X0122000Y0151654D03*
X0164150Y0154780D03*
X0164150Y0148087D03*
X0174150Y0148087D03*
X0174150Y0154780D03*
X0099346Y0086000D03*
X0092654Y0086000D03*
D15*
X0093244Y0151906D03*
X0110567Y0151906D03*
D16*
X0106669Y0139740D03*
X0106669Y0132260D03*
X0115331Y0136000D03*
D17*
X0126000Y0136669D03*
X0122260Y0145331D03*
X0129740Y0145331D03*
D18*
X0100744Y0193067D03*
X0100744Y0195626D03*
X0100744Y0198185D03*
X0100744Y0200744D03*
X0083697Y0200744D03*
X0083697Y0198185D03*
X0083697Y0195626D03*
X0083697Y0193067D03*
X0083697Y0061059D03*
X0083697Y0058500D03*
X0083697Y0055941D03*
X0083697Y0053382D03*
X0100744Y0053382D03*
X0100744Y0055941D03*
X0100744Y0058500D03*
X0100744Y0061059D03*
D19*
X0199969Y0077535D02*
X0205969Y0077535D01*
X0205969Y0087535D02*
X0199969Y0087535D01*
D20*
X0137220Y0054031D03*
X0137220Y0030409D03*
X0137220Y0170094D03*
X0137220Y0193717D03*
D21*
X0142220Y0206394D03*
X0142220Y0167417D03*
X0142220Y0066709D03*
X0142220Y0027732D03*
D22*
X0161000Y0136000D03*
D23*
X0165250Y0135033D03*
X0167150Y0135033D03*
X0169150Y0135033D03*
X0171150Y0135033D03*
X0173050Y0135033D03*
X0173050Y0117833D03*
X0171150Y0117833D03*
X0169150Y0117833D03*
X0167150Y0117833D03*
X0165250Y0117833D03*
D24*
X0169150Y0126433D03*
D25*
X0138631Y0102634D03*
X0138631Y0097634D03*
X0138631Y0092634D03*
X0138631Y0087634D03*
X0109431Y0087634D03*
X0109431Y0092634D03*
X0109431Y0097634D03*
X0109431Y0102634D03*
D26*
X0076000Y0108441D03*
X0076000Y0113559D03*
X0056000Y0113559D03*
X0051000Y0113559D03*
X0051000Y0108441D03*
X0056000Y0108441D03*
X0146000Y0088559D03*
X0146000Y0083441D03*
D27*
X0128559Y0111000D03*
X0123441Y0111000D03*
X0116559Y0111000D03*
X0111441Y0111000D03*
D28*
X0095692Y0123827D03*
X0095692Y0133827D03*
X0085692Y0133827D03*
X0075692Y0133827D03*
X0065692Y0133827D03*
X0055692Y0133827D03*
X0055692Y0123827D03*
X0065692Y0123827D03*
X0075692Y0123827D03*
X0085692Y0123827D03*
D29*
X0059898Y0088008D02*
X0052811Y0088008D01*
X0052811Y0078165D02*
X0059898Y0078165D01*
X0040213Y0078165D02*
X0033126Y0078165D01*
X0033126Y0088008D02*
X0040213Y0088008D01*
D30*
X0043500Y0146000D03*
X0033500Y0146000D03*
X0038500Y0156000D03*
X0048500Y0156000D03*
X0188500Y0146000D03*
X0198500Y0146000D03*
X0193500Y0156000D03*
X0203500Y0156000D03*
D31*
X0203000Y0090000D03*
X0203000Y0075000D03*
D32*
X0203000Y0073000D01*
X0201433Y0076000D02*
X0197000Y0076000D01*
X0201433Y0076000D02*
X0202969Y0077535D01*
X0187100Y0077201D02*
X0186199Y0076300D01*
X0185633Y0076300D01*
X0183700Y0074367D01*
X0183700Y0071633D01*
X0185333Y0070000D01*
X0154950Y0070000D01*
X0154950Y0073287D01*
X0153720Y0074517D01*
X0130721Y0074517D01*
X0129491Y0073287D01*
X0129491Y0070000D01*
X0126000Y0070000D01*
X0126000Y0068233D01*
X0125863Y0068096D01*
X0116289Y0058522D01*
X0116289Y0063602D01*
X0115059Y0064832D01*
X0109382Y0064832D01*
X0108152Y0063602D01*
X0108152Y0061100D01*
X0104961Y0061100D01*
X0104961Y0062142D01*
X0104858Y0062524D01*
X0104661Y0062866D01*
X0104382Y0063145D01*
X0104040Y0063343D01*
X0103658Y0063445D01*
X0100744Y0063445D01*
X0097830Y0063445D01*
X0097449Y0063343D01*
X0097107Y0063145D01*
X0096827Y0062866D01*
X0096630Y0062524D01*
X0096528Y0062142D01*
X0096528Y0061059D01*
X0096528Y0060856D01*
X0095928Y0060256D01*
X0095928Y0054185D01*
X0096528Y0053585D01*
X0096528Y0053382D01*
X0096731Y0053382D01*
X0096731Y0053382D01*
X0096528Y0053382D01*
X0096528Y0052299D01*
X0096630Y0051917D01*
X0096827Y0051575D01*
X0097107Y0051296D01*
X0097449Y0051098D01*
X0097830Y0050996D01*
X0100744Y0050996D01*
X0100744Y0052955D01*
X0100744Y0052955D01*
X0100744Y0050996D01*
X0103658Y0050996D01*
X0103700Y0051007D01*
X0103700Y0049035D01*
X0102209Y0049035D01*
X0102209Y0042721D01*
X0101209Y0042721D01*
X0101209Y0049035D01*
X0098362Y0049035D01*
X0097980Y0048933D01*
X0097638Y0048736D01*
X0097359Y0048456D01*
X0097161Y0048114D01*
X0097059Y0047733D01*
X0097059Y0042720D01*
X0101209Y0042720D01*
X0101209Y0041720D01*
X0102209Y0041720D01*
X0102209Y0042720D01*
X0106358Y0042720D01*
X0106358Y0046541D01*
X0107483Y0045416D01*
X0107483Y0036036D01*
X0108713Y0034806D01*
X0109032Y0034806D01*
X0109032Y0034635D01*
X0108713Y0034635D01*
X0107483Y0033405D01*
X0107483Y0021036D01*
X0108713Y0019806D01*
X0116752Y0019806D01*
X0117982Y0021036D01*
X0117982Y0023520D01*
X0126000Y0023520D01*
X0126000Y0010500D01*
X0118500Y0011000D01*
X0076674Y0019806D01*
X0080728Y0019806D01*
X0081958Y0021036D01*
X0081958Y0033405D01*
X0080728Y0034635D01*
X0080409Y0034635D01*
X0080409Y0034806D01*
X0080728Y0034806D01*
X0081958Y0036036D01*
X0081958Y0048405D01*
X0080728Y0049635D01*
X0079309Y0049635D01*
X0079309Y0050782D01*
X0079725Y0050782D01*
X0080110Y0050396D01*
X0087283Y0050396D01*
X0088513Y0051626D01*
X0088513Y0054555D01*
X0088555Y0054513D01*
X0091445Y0054513D01*
X0093487Y0056555D01*
X0093487Y0059445D01*
X0092304Y0060627D01*
X0092347Y0060670D01*
X0093078Y0061401D01*
X0093474Y0062357D01*
X0093474Y0064077D01*
X0093712Y0064077D01*
X0094645Y0065010D01*
X0094677Y0064977D01*
X0095019Y0064779D01*
X0095401Y0064677D01*
X0097083Y0064677D01*
X0097083Y0067858D01*
X0098051Y0067858D01*
X0098051Y0064677D01*
X0099733Y0064677D01*
X0100114Y0064779D01*
X0100456Y0064977D01*
X0100736Y0065256D01*
X0100933Y0065598D01*
X0101035Y0065980D01*
X0101035Y0067858D01*
X0098051Y0067858D01*
X0098051Y0068827D01*
X0097083Y0068827D01*
X0097083Y0072008D01*
X0095401Y0072008D01*
X0095019Y0071906D01*
X0094677Y0071708D01*
X0094645Y0071675D01*
X0093712Y0072608D01*
X0088036Y0072608D01*
X0087407Y0071980D01*
X0086964Y0072423D01*
X0081288Y0072423D01*
X0080780Y0071915D01*
X0080271Y0072423D01*
X0074595Y0072423D01*
X0074300Y0072128D01*
X0074300Y0074367D01*
X0072367Y0076300D01*
X0069633Y0076300D01*
X0067700Y0074367D01*
X0067700Y0071633D01*
X0068100Y0071233D01*
X0068100Y0071000D01*
X0023500Y0071000D01*
X0023500Y0098500D01*
X0046000Y0098500D01*
X0046000Y0101700D01*
X0048367Y0101700D01*
X0050300Y0103633D01*
X0050300Y0104963D01*
X0057360Y0104963D01*
X0061893Y0100430D01*
X0062849Y0100034D01*
X0104762Y0100034D01*
X0104281Y0099554D01*
X0104281Y0095714D01*
X0104762Y0095234D01*
X0098433Y0095234D01*
X0097367Y0096300D01*
X0094633Y0096300D01*
X0092700Y0094367D01*
X0092700Y0091633D01*
X0094633Y0089700D01*
X0095943Y0089700D01*
X0095532Y0089289D01*
X0095398Y0089366D01*
X0095016Y0089468D01*
X0093138Y0089468D01*
X0093138Y0086484D01*
X0092169Y0086484D01*
X0092169Y0085516D01*
X0088988Y0085516D01*
X0088988Y0083834D01*
X0089090Y0083453D01*
X0089288Y0083110D01*
X0089567Y0082831D01*
X0089909Y0082634D01*
X0090291Y0082531D01*
X0092169Y0082531D01*
X0092169Y0085516D01*
X0093138Y0085516D01*
X0093138Y0082531D01*
X0095016Y0082531D01*
X0095398Y0082634D01*
X0095532Y0082711D01*
X0096311Y0081931D01*
X0102382Y0081931D01*
X0103612Y0083162D01*
X0103612Y0084734D01*
X0105262Y0084734D01*
X0105512Y0084484D01*
X0113351Y0084484D01*
X0113601Y0084734D01*
X0120599Y0084734D01*
X0121633Y0083700D01*
X0122199Y0083700D01*
X0124101Y0081798D01*
X0124916Y0080982D01*
X0125982Y0080541D01*
X0142781Y0080541D01*
X0143358Y0079963D01*
X0148641Y0079963D01*
X0149872Y0081193D01*
X0149872Y0085689D01*
X0149560Y0086000D01*
X0149872Y0086311D01*
X0149872Y0090807D01*
X0149173Y0091506D01*
X0149300Y0091633D01*
X0149300Y0094367D01*
X0147367Y0096300D01*
X0144977Y0096300D01*
X0146377Y0097700D01*
X0147367Y0097700D01*
X0149300Y0099633D01*
X0149300Y0102367D01*
X0147367Y0104300D01*
X0144633Y0104300D01*
X0143181Y0102848D01*
X0143181Y0103881D01*
X0143079Y0104263D01*
X0142882Y0104605D01*
X0142603Y0104884D01*
X0142260Y0105082D01*
X0141879Y0105184D01*
X0138656Y0105184D01*
X0138656Y0102659D01*
X0138606Y0102659D01*
X0138606Y0102609D01*
X0134081Y0102609D01*
X0134081Y0101386D01*
X0134184Y0101005D01*
X0134381Y0100663D01*
X0134486Y0100558D01*
X0133481Y0099554D01*
X0133481Y0095714D01*
X0134062Y0095134D01*
X0133481Y0094554D01*
X0133481Y0090714D01*
X0133962Y0090234D01*
X0133300Y0090234D01*
X0133300Y0090367D01*
X0131367Y0092300D01*
X0128633Y0092300D01*
X0127900Y0091567D01*
X0127900Y0102799D01*
X0128201Y0103100D01*
X0131577Y0103100D01*
X0132643Y0103541D01*
X0134643Y0105541D01*
X0135458Y0106357D01*
X0135900Y0107423D01*
X0135900Y0108433D01*
X0136633Y0107700D01*
X0139367Y0107700D01*
X0140067Y0108400D01*
X0152933Y0108400D01*
X0153033Y0108300D01*
X0152633Y0108300D01*
X0150700Y0106367D01*
X0150700Y0103633D01*
X0151400Y0102933D01*
X0151400Y0084483D01*
X0151796Y0083527D01*
X0156796Y0078527D01*
X0157527Y0077796D01*
X0158483Y0077400D01*
X0168517Y0077400D01*
X0169473Y0077796D01*
X0173969Y0082292D01*
X0174700Y0083023D01*
X0175096Y0083979D01*
X0175096Y0092168D01*
X0175334Y0092168D01*
X0175400Y0092233D01*
X0175465Y0092168D01*
X0181141Y0092168D01*
X0182074Y0093100D01*
X0182107Y0093067D01*
X0182449Y0092870D01*
X0182830Y0092768D01*
X0184512Y0092768D01*
X0184512Y0095949D01*
X0185480Y0095949D01*
X0185480Y0092768D01*
X0187100Y0092768D01*
X0187100Y0077201D01*
X0186786Y0076887D02*
X0064785Y0076887D01*
X0064817Y0076984D02*
X0064571Y0076229D01*
X0064211Y0075522D01*
X0063744Y0074880D01*
X0063183Y0074319D01*
X0062541Y0073852D01*
X0061834Y0073492D01*
X0061079Y0073246D01*
X0060295Y0073122D01*
X0056854Y0073122D01*
X0056854Y0077665D01*
X0055854Y0077665D01*
X0055854Y0073122D01*
X0052414Y0073122D01*
X0051630Y0073246D01*
X0050875Y0073492D01*
X0050168Y0073852D01*
X0049526Y0074319D01*
X0048964Y0074880D01*
X0048498Y0075522D01*
X0048137Y0076229D01*
X0047892Y0076984D01*
X0047784Y0077665D01*
X0055854Y0077665D01*
X0055854Y0078665D01*
X0047784Y0078665D01*
X0047892Y0079346D01*
X0048137Y0080101D01*
X0048498Y0080809D01*
X0048964Y0081451D01*
X0049526Y0082012D01*
X0050168Y0082479D01*
X0050726Y0082763D01*
X0049614Y0083224D01*
X0048027Y0084811D01*
X0047168Y0086885D01*
X0047168Y0089130D01*
X0048027Y0091205D01*
X0049614Y0092792D01*
X0051688Y0093651D01*
X0061020Y0093651D01*
X0063094Y0092792D01*
X0064682Y0091205D01*
X0065541Y0089130D01*
X0065541Y0086885D01*
X0064682Y0084811D01*
X0063094Y0083224D01*
X0061983Y0082763D01*
X0062541Y0082479D01*
X0063183Y0082012D01*
X0063744Y0081451D01*
X0064211Y0080809D01*
X0064571Y0080101D01*
X0064817Y0079346D01*
X0064925Y0078665D01*
X0056854Y0078665D01*
X0056854Y0077665D01*
X0064925Y0077665D01*
X0064817Y0076984D01*
X0064398Y0075888D02*
X0069221Y0075888D01*
X0068223Y0074890D02*
X0063752Y0074890D01*
X0062595Y0073891D02*
X0067700Y0073891D01*
X0067700Y0072893D02*
X0023500Y0072893D01*
X0023500Y0073891D02*
X0030428Y0073891D01*
X0030483Y0073852D02*
X0031190Y0073492D01*
X0031945Y0073246D01*
X0032729Y0073122D01*
X0036169Y0073122D01*
X0036169Y0077665D01*
X0037169Y0077665D01*
X0037169Y0073122D01*
X0040610Y0073122D01*
X0041394Y0073246D01*
X0042149Y0073492D01*
X0042856Y0073852D01*
X0043498Y0074319D01*
X0044059Y0074880D01*
X0044526Y0075522D01*
X0044886Y0076229D01*
X0045132Y0076984D01*
X0045240Y0077665D01*
X0037169Y0077665D01*
X0037169Y0078665D01*
X0045240Y0078665D01*
X0045132Y0079346D01*
X0044886Y0080101D01*
X0044526Y0080809D01*
X0044059Y0081451D01*
X0043498Y0082012D01*
X0042856Y0082479D01*
X0042298Y0082763D01*
X0043409Y0083224D01*
X0044997Y0084811D01*
X0045856Y0086885D01*
X0045856Y0089130D01*
X0044997Y0091205D01*
X0043409Y0092792D01*
X0041335Y0093651D01*
X0032003Y0093651D01*
X0029929Y0092792D01*
X0028342Y0091205D01*
X0027483Y0089130D01*
X0027483Y0086885D01*
X0028342Y0084811D01*
X0029929Y0083224D01*
X0031041Y0082763D01*
X0030483Y0082479D01*
X0029840Y0082012D01*
X0029279Y0081451D01*
X0028813Y0080809D01*
X0028452Y0080101D01*
X0028207Y0079346D01*
X0028099Y0078665D01*
X0036169Y0078665D01*
X0036169Y0077665D01*
X0028099Y0077665D01*
X0028207Y0076984D01*
X0028452Y0076229D01*
X0028813Y0075522D01*
X0029279Y0074880D01*
X0029840Y0074319D01*
X0030483Y0073852D01*
X0029272Y0074890D02*
X0023500Y0074890D01*
X0023500Y0075888D02*
X0028626Y0075888D01*
X0028239Y0076887D02*
X0023500Y0076887D01*
X0023500Y0077885D02*
X0036169Y0077885D01*
X0036669Y0078165D02*
X0036835Y0078000D01*
X0056520Y0078000D01*
X0056354Y0078165D01*
X0056520Y0078000D02*
X0068000Y0078000D01*
X0076000Y0086000D01*
X0092654Y0086000D01*
X0093000Y0085654D01*
X0093000Y0075000D01*
X0097567Y0070433D01*
X0097567Y0068343D01*
X0101657Y0068343D01*
X0102000Y0068000D01*
X0101035Y0068827D02*
X0101035Y0070705D01*
X0100933Y0071087D01*
X0100736Y0071429D01*
X0100456Y0071708D01*
X0100114Y0071906D01*
X0099733Y0072008D01*
X0098051Y0072008D01*
X0098051Y0068827D01*
X0101035Y0068827D01*
X0101035Y0068899D02*
X0126000Y0068899D01*
X0126000Y0069897D02*
X0101035Y0069897D01*
X0100984Y0070896D02*
X0129491Y0070896D01*
X0129491Y0071894D02*
X0100134Y0071894D01*
X0098051Y0071894D02*
X0097083Y0071894D01*
X0097083Y0070896D02*
X0098051Y0070896D01*
X0098051Y0069897D02*
X0097083Y0069897D01*
X0097083Y0068899D02*
X0098051Y0068899D01*
X0097567Y0068343D02*
X0097567Y0063626D01*
X0095000Y0061059D01*
X0100744Y0061059D01*
X0100744Y0061486D02*
X0100744Y0063445D01*
X0100744Y0061486D01*
X0100744Y0061486D01*
X0100744Y0061909D02*
X0100744Y0061909D01*
X0100744Y0062908D02*
X0100744Y0062908D01*
X0100331Y0064905D02*
X0122672Y0064905D01*
X0123671Y0065903D02*
X0101015Y0065903D01*
X0101035Y0066902D02*
X0124669Y0066902D01*
X0125668Y0067900D02*
X0098051Y0067900D01*
X0098051Y0066902D02*
X0097083Y0066902D01*
X0097083Y0065903D02*
X0098051Y0065903D01*
X0098051Y0064905D02*
X0097083Y0064905D01*
X0096869Y0062908D02*
X0093474Y0062908D01*
X0093474Y0063906D02*
X0108456Y0063906D01*
X0108152Y0062908D02*
X0104619Y0062908D01*
X0104961Y0061909D02*
X0108152Y0061909D01*
X0110154Y0058500D02*
X0112220Y0060567D01*
X0110154Y0058500D02*
X0100744Y0058500D01*
X0096731Y0061059D02*
X0096731Y0061059D01*
X0096528Y0061059D01*
X0096731Y0061059D01*
X0096528Y0060911D02*
X0092588Y0060911D01*
X0093020Y0059912D02*
X0095928Y0059912D01*
X0095928Y0058914D02*
X0093487Y0058914D01*
X0093487Y0057915D02*
X0095928Y0057915D01*
X0095928Y0056917D02*
X0093487Y0056917D01*
X0092850Y0055918D02*
X0095928Y0055918D01*
X0095928Y0054920D02*
X0091852Y0054920D01*
X0088513Y0053921D02*
X0096192Y0053921D01*
X0096528Y0052923D02*
X0088513Y0052923D01*
X0088513Y0051924D02*
X0096628Y0051924D01*
X0095000Y0053382D02*
X0100744Y0053382D01*
X0100744Y0052923D02*
X0100744Y0052923D01*
X0100744Y0051924D02*
X0100744Y0051924D01*
X0101209Y0048929D02*
X0102209Y0048929D01*
X0102209Y0047930D02*
X0101209Y0047930D01*
X0101209Y0046932D02*
X0102209Y0046932D01*
X0102209Y0045933D02*
X0101209Y0045933D01*
X0101209Y0044934D02*
X0102209Y0044934D01*
X0102209Y0043936D02*
X0101209Y0043936D01*
X0101209Y0042937D02*
X0102209Y0042937D01*
X0102209Y0041939D02*
X0107483Y0041939D01*
X0107483Y0042937D02*
X0106358Y0042937D01*
X0106358Y0043936D02*
X0107483Y0043936D01*
X0107483Y0044934D02*
X0106358Y0044934D01*
X0106358Y0045933D02*
X0106966Y0045933D01*
X0103700Y0049927D02*
X0079309Y0049927D01*
X0081435Y0048929D02*
X0083996Y0048929D01*
X0084004Y0048933D02*
X0083662Y0048736D01*
X0083382Y0048456D01*
X0083185Y0048114D01*
X0083083Y0047733D01*
X0083083Y0042720D01*
X0087232Y0042720D01*
X0087232Y0041720D01*
X0088232Y0041720D01*
X0088232Y0035406D01*
X0091079Y0035406D01*
X0091461Y0035508D01*
X0091803Y0035705D01*
X0092082Y0035984D01*
X0092280Y0036327D01*
X0092382Y0036708D01*
X0092382Y0041720D01*
X0088232Y0041720D01*
X0088232Y0042720D01*
X0092382Y0042720D01*
X0092382Y0047733D01*
X0092280Y0048114D01*
X0092082Y0048456D01*
X0091803Y0048736D01*
X0091461Y0048933D01*
X0091079Y0049035D01*
X0088232Y0049035D01*
X0088232Y0042721D01*
X0087232Y0042721D01*
X0087232Y0049035D01*
X0084385Y0049035D01*
X0084004Y0048933D01*
X0083136Y0047930D02*
X0081958Y0047930D01*
X0081958Y0046932D02*
X0083083Y0046932D01*
X0083083Y0045933D02*
X0081958Y0045933D01*
X0081958Y0044934D02*
X0083083Y0044934D01*
X0083083Y0043936D02*
X0081958Y0043936D01*
X0081958Y0042937D02*
X0083083Y0042937D01*
X0083083Y0041720D02*
X0083083Y0036708D01*
X0083185Y0036327D01*
X0083382Y0035984D01*
X0083662Y0035705D01*
X0084004Y0035508D01*
X0084385Y0035406D01*
X0087232Y0035405D01*
X0087232Y0041720D01*
X0083083Y0041720D01*
X0083083Y0040940D02*
X0081958Y0040940D01*
X0081958Y0039942D02*
X0083083Y0039942D01*
X0083083Y0038943D02*
X0081958Y0038943D01*
X0081958Y0037945D02*
X0083083Y0037945D01*
X0083083Y0036946D02*
X0081958Y0036946D01*
X0081870Y0035948D02*
X0083419Y0035948D01*
X0084004Y0033933D02*
X0083662Y0033736D01*
X0083382Y0033456D01*
X0083185Y0033114D01*
X0083083Y0032733D01*
X0083083Y0027720D01*
X0087232Y0027720D01*
X0087232Y0026720D01*
X0088232Y0026720D01*
X0088232Y0020406D01*
X0091079Y0020406D01*
X0091461Y0020508D01*
X0091803Y0020705D01*
X0092082Y0020984D01*
X0092280Y0021327D01*
X0092382Y0021708D01*
X0092382Y0026720D01*
X0088232Y0026720D01*
X0088232Y0027720D01*
X0092382Y0027720D01*
X0092382Y0032733D01*
X0092280Y0033114D01*
X0092082Y0033456D01*
X0091803Y0033736D01*
X0091461Y0033933D01*
X0091079Y0034035D01*
X0088232Y0034035D01*
X0088232Y0027721D01*
X0087232Y0027721D01*
X0087232Y0034035D01*
X0084385Y0034035D01*
X0084004Y0033933D01*
X0084070Y0033951D02*
X0081413Y0033951D01*
X0080872Y0034949D02*
X0108569Y0034949D01*
X0108028Y0033951D02*
X0105371Y0033951D01*
X0105437Y0033933D02*
X0105056Y0034035D01*
X0102209Y0034035D01*
X0102209Y0027721D01*
X0101209Y0027721D01*
X0101209Y0034035D01*
X0098362Y0034035D01*
X0097980Y0033933D01*
X0097638Y0033736D01*
X0097359Y0033456D01*
X0097161Y0033114D01*
X0097059Y0032733D01*
X0097059Y0027720D01*
X0101209Y0027720D01*
X0101209Y0026720D01*
X0102209Y0026720D01*
X0102209Y0027720D01*
X0106358Y0027720D01*
X0106358Y0032733D01*
X0106256Y0033114D01*
X0106059Y0033456D01*
X0105779Y0033736D01*
X0105437Y0033933D01*
X0106299Y0032952D02*
X0107483Y0032952D01*
X0107483Y0031954D02*
X0106358Y0031954D01*
X0106358Y0030955D02*
X0107483Y0030955D01*
X0107483Y0029957D02*
X0106358Y0029957D01*
X0106358Y0028958D02*
X0107483Y0028958D01*
X0107483Y0027960D02*
X0106358Y0027960D01*
X0106358Y0026720D02*
X0102209Y0026720D01*
X0102209Y0020406D01*
X0105056Y0020406D01*
X0105437Y0020508D01*
X0105779Y0020705D01*
X0106059Y0020984D01*
X0106256Y0021327D01*
X0106358Y0021708D01*
X0106358Y0026720D01*
X0106358Y0025963D02*
X0107483Y0025963D01*
X0107483Y0026961D02*
X0102209Y0026961D01*
X0102209Y0025963D02*
X0101209Y0025963D01*
X0101209Y0026720D02*
X0101209Y0020405D01*
X0098362Y0020406D01*
X0097980Y0020508D01*
X0097638Y0020705D01*
X0097359Y0020984D01*
X0097161Y0021327D01*
X0097059Y0021708D01*
X0097059Y0026720D01*
X0101209Y0026720D01*
X0101209Y0026961D02*
X0088232Y0026961D01*
X0088232Y0025963D02*
X0087232Y0025963D01*
X0087232Y0026720D02*
X0087232Y0020405D01*
X0084385Y0020406D01*
X0084004Y0020508D01*
X0083662Y0020705D01*
X0083382Y0020984D01*
X0083185Y0021327D01*
X0083083Y0021708D01*
X0083083Y0026720D01*
X0087232Y0026720D01*
X0087232Y0026961D02*
X0081958Y0026961D01*
X0081958Y0025963D02*
X0083083Y0025963D01*
X0083083Y0024964D02*
X0081958Y0024964D01*
X0081958Y0023966D02*
X0083083Y0023966D01*
X0083083Y0022967D02*
X0081958Y0022967D01*
X0081958Y0021969D02*
X0083083Y0021969D01*
X0083397Y0020970D02*
X0081893Y0020970D01*
X0080894Y0019972D02*
X0108547Y0019972D01*
X0107548Y0020970D02*
X0106044Y0020970D01*
X0106358Y0021969D02*
X0107483Y0021969D01*
X0107483Y0022967D02*
X0106358Y0022967D01*
X0106358Y0023966D02*
X0107483Y0023966D01*
X0107483Y0024964D02*
X0106358Y0024964D01*
X0102209Y0024964D02*
X0101209Y0024964D01*
X0101209Y0023966D02*
X0102209Y0023966D01*
X0102209Y0022967D02*
X0101209Y0022967D01*
X0101209Y0021969D02*
X0102209Y0021969D01*
X0102209Y0020970D02*
X0101209Y0020970D01*
X0097373Y0020970D02*
X0092068Y0020970D01*
X0092382Y0021969D02*
X0097059Y0021969D01*
X0097059Y0022967D02*
X0092382Y0022967D01*
X0092382Y0023966D02*
X0097059Y0023966D01*
X0097059Y0024964D02*
X0092382Y0024964D01*
X0092382Y0025963D02*
X0097059Y0025963D01*
X0097059Y0027960D02*
X0092382Y0027960D01*
X0092382Y0028958D02*
X0097059Y0028958D01*
X0097059Y0029957D02*
X0092382Y0029957D01*
X0092382Y0030955D02*
X0097059Y0030955D01*
X0097059Y0031954D02*
X0092382Y0031954D01*
X0092323Y0032952D02*
X0097118Y0032952D01*
X0098046Y0033951D02*
X0091395Y0033951D01*
X0092046Y0035948D02*
X0097395Y0035948D01*
X0097359Y0035984D02*
X0097638Y0035705D01*
X0097980Y0035508D01*
X0098362Y0035406D01*
X0101209Y0035405D01*
X0101209Y0041720D01*
X0097059Y0041720D01*
X0097059Y0036708D01*
X0097161Y0036327D01*
X0097359Y0035984D01*
X0097059Y0036946D02*
X0092382Y0036946D01*
X0092382Y0037945D02*
X0097059Y0037945D01*
X0097059Y0038943D02*
X0092382Y0038943D01*
X0092382Y0039942D02*
X0097059Y0039942D01*
X0097059Y0040940D02*
X0092382Y0040940D01*
X0092382Y0042937D02*
X0097059Y0042937D01*
X0097059Y0043936D02*
X0092382Y0043936D01*
X0092382Y0044934D02*
X0097059Y0044934D01*
X0097059Y0045933D02*
X0092382Y0045933D01*
X0092382Y0046932D02*
X0097059Y0046932D01*
X0097112Y0047930D02*
X0092329Y0047930D01*
X0091469Y0048929D02*
X0097972Y0048929D01*
X0095000Y0048000D02*
X0095000Y0022000D01*
X0095000Y0027000D01*
X0095000Y0032000D01*
X0095000Y0037000D01*
X0095000Y0042000D01*
X0100559Y0042000D01*
X0100780Y0042220D01*
X0101209Y0041939D02*
X0088232Y0041939D01*
X0088232Y0042937D02*
X0087232Y0042937D01*
X0087232Y0041939D02*
X0081958Y0041939D01*
X0076709Y0042220D02*
X0076709Y0053000D01*
X0077091Y0053382D01*
X0083697Y0053382D01*
X0083697Y0055941D02*
X0078941Y0055941D01*
X0076709Y0053709D01*
X0076709Y0053000D01*
X0083697Y0058500D02*
X0089500Y0058500D01*
X0090000Y0058000D01*
X0089059Y0061059D02*
X0090874Y0062874D01*
X0090874Y0068343D01*
X0094540Y0064905D02*
X0094802Y0064905D01*
X0093289Y0061909D02*
X0096528Y0061909D01*
X0089059Y0061059D02*
X0083697Y0061059D01*
X0087813Y0050926D02*
X0103700Y0050926D01*
X0102209Y0041720D02*
X0106358Y0041720D01*
X0106358Y0036708D01*
X0106256Y0036327D01*
X0106059Y0035984D01*
X0105779Y0035705D01*
X0105437Y0035508D01*
X0105056Y0035406D01*
X0102209Y0035406D01*
X0102209Y0041720D01*
X0102209Y0040940D02*
X0101209Y0040940D01*
X0101209Y0039942D02*
X0102209Y0039942D01*
X0102209Y0038943D02*
X0101209Y0038943D01*
X0101209Y0037945D02*
X0102209Y0037945D01*
X0102209Y0036946D02*
X0101209Y0036946D01*
X0101209Y0035948D02*
X0102209Y0035948D01*
X0102209Y0033951D02*
X0101209Y0033951D01*
X0101209Y0032952D02*
X0102209Y0032952D01*
X0102209Y0031954D02*
X0101209Y0031954D01*
X0101209Y0030955D02*
X0102209Y0030955D01*
X0102209Y0029957D02*
X0101209Y0029957D01*
X0101209Y0028958D02*
X0102209Y0028958D01*
X0102209Y0027960D02*
X0101209Y0027960D01*
X0106022Y0035948D02*
X0107570Y0035948D01*
X0107483Y0036946D02*
X0106358Y0036946D01*
X0106358Y0037945D02*
X0107483Y0037945D01*
X0107483Y0038943D02*
X0106358Y0038943D01*
X0106358Y0039942D02*
X0107483Y0039942D01*
X0107483Y0040940D02*
X0106358Y0040940D01*
X0088232Y0040940D02*
X0087232Y0040940D01*
X0087232Y0039942D02*
X0088232Y0039942D01*
X0088232Y0038943D02*
X0087232Y0038943D01*
X0087232Y0037945D02*
X0088232Y0037945D01*
X0088232Y0036946D02*
X0087232Y0036946D01*
X0087232Y0035948D02*
X0088232Y0035948D01*
X0088232Y0033951D02*
X0087232Y0033951D01*
X0087232Y0032952D02*
X0088232Y0032952D01*
X0088232Y0031954D02*
X0087232Y0031954D01*
X0087232Y0030955D02*
X0088232Y0030955D01*
X0088232Y0029957D02*
X0087232Y0029957D01*
X0087232Y0028958D02*
X0088232Y0028958D01*
X0088232Y0027960D02*
X0087232Y0027960D01*
X0087232Y0024964D02*
X0088232Y0024964D01*
X0088232Y0023966D02*
X0087232Y0023966D01*
X0087232Y0022967D02*
X0088232Y0022967D01*
X0088232Y0021969D02*
X0087232Y0021969D01*
X0087232Y0020970D02*
X0088232Y0020970D01*
X0090113Y0016976D02*
X0126000Y0016976D01*
X0126000Y0015978D02*
X0094856Y0015978D01*
X0099599Y0014979D02*
X0126000Y0014979D01*
X0126000Y0013981D02*
X0104342Y0013981D01*
X0109085Y0012982D02*
X0126000Y0012982D01*
X0126000Y0011984D02*
X0113828Y0011984D01*
X0118723Y0010985D02*
X0126000Y0010985D01*
X0126000Y0017975D02*
X0085370Y0017975D01*
X0080627Y0018973D02*
X0126000Y0018973D01*
X0126000Y0019972D02*
X0116918Y0019972D01*
X0117916Y0020970D02*
X0126000Y0020970D01*
X0126000Y0021969D02*
X0117982Y0021969D01*
X0117982Y0022967D02*
X0126000Y0022967D01*
X0116681Y0058914D02*
X0116289Y0058914D01*
X0116289Y0059912D02*
X0117680Y0059912D01*
X0118678Y0060911D02*
X0116289Y0060911D01*
X0116289Y0061909D02*
X0119677Y0061909D01*
X0120675Y0062908D02*
X0116289Y0062908D01*
X0115985Y0063906D02*
X0121674Y0063906D01*
X0129491Y0072893D02*
X0074300Y0072893D01*
X0074300Y0073891D02*
X0130095Y0073891D01*
X0125161Y0080881D02*
X0064159Y0080881D01*
X0064643Y0079882D02*
X0155441Y0079882D01*
X0156439Y0078884D02*
X0064890Y0078884D01*
X0063316Y0081879D02*
X0124019Y0081879D01*
X0124101Y0081798D02*
X0124101Y0081798D01*
X0123021Y0082878D02*
X0103328Y0082878D01*
X0103612Y0083876D02*
X0121457Y0083876D01*
X0127900Y0091865D02*
X0128198Y0091865D01*
X0127900Y0092863D02*
X0133481Y0092863D01*
X0133481Y0091865D02*
X0131802Y0091865D01*
X0132801Y0090866D02*
X0133481Y0090866D01*
X0133481Y0093862D02*
X0127900Y0093862D01*
X0127900Y0094860D02*
X0133788Y0094860D01*
X0133481Y0095859D02*
X0127900Y0095859D01*
X0127900Y0096857D02*
X0133481Y0096857D01*
X0133481Y0097856D02*
X0127900Y0097856D01*
X0127900Y0098854D02*
X0133481Y0098854D01*
X0133780Y0099853D02*
X0127900Y0099853D01*
X0127900Y0100851D02*
X0134272Y0100851D01*
X0134081Y0101850D02*
X0127900Y0101850D01*
X0127949Y0102848D02*
X0134081Y0102848D01*
X0134081Y0102659D02*
X0138606Y0102659D01*
X0138606Y0105184D01*
X0135384Y0105184D01*
X0135003Y0105082D01*
X0134660Y0104884D01*
X0134381Y0104605D01*
X0134184Y0104263D01*
X0134081Y0103881D01*
X0134081Y0102659D01*
X0134081Y0103847D02*
X0132948Y0103847D01*
X0133946Y0104845D02*
X0134622Y0104845D01*
X0134945Y0105844D02*
X0150700Y0105844D01*
X0150700Y0104845D02*
X0142641Y0104845D01*
X0143181Y0103847D02*
X0144180Y0103847D01*
X0144000Y0105000D02*
X0148000Y0105000D01*
X0148500Y0104500D01*
X0152000Y0108000D01*
X0159236Y0108000D01*
X0160803Y0106433D01*
X0160803Y0088803D01*
X0159000Y0087000D01*
X0159207Y0085873D02*
X0156803Y0085873D01*
X0156600Y0086077D02*
X0158700Y0083977D01*
X0158700Y0085367D01*
X0160633Y0087300D01*
X0161199Y0087300D01*
X0162903Y0089004D01*
X0162903Y0092229D01*
X0161735Y0093398D01*
X0161735Y0099468D01*
X0162965Y0100698D01*
X0168641Y0100698D01*
X0169150Y0100190D01*
X0169658Y0100698D01*
X0169896Y0100698D01*
X0169896Y0102168D01*
X0164658Y0102168D01*
X0163725Y0103100D01*
X0163693Y0103067D01*
X0163351Y0102870D01*
X0162969Y0102768D01*
X0161287Y0102768D01*
X0161287Y0105949D01*
X0160319Y0105949D01*
X0157335Y0105949D01*
X0157335Y0104070D01*
X0157437Y0103689D01*
X0157634Y0103347D01*
X0157914Y0103067D01*
X0158256Y0102870D01*
X0158637Y0102768D01*
X0160319Y0102768D01*
X0160319Y0105949D01*
X0160319Y0106917D01*
X0157335Y0106917D01*
X0157335Y0108668D01*
X0156367Y0107700D01*
X0155967Y0107700D01*
X0157300Y0106367D01*
X0157300Y0103633D01*
X0156600Y0102933D01*
X0156600Y0086077D01*
X0156600Y0086872D02*
X0160205Y0086872D01*
X0161769Y0087870D02*
X0156600Y0087870D01*
X0156600Y0088869D02*
X0162768Y0088869D01*
X0162903Y0089868D02*
X0156600Y0089868D01*
X0156600Y0090866D02*
X0162903Y0090866D01*
X0162903Y0091865D02*
X0156600Y0091865D01*
X0156600Y0092863D02*
X0162269Y0092863D01*
X0161735Y0093862D02*
X0156600Y0093862D01*
X0156600Y0094860D02*
X0161735Y0094860D01*
X0161735Y0095859D02*
X0156600Y0095859D01*
X0156600Y0096857D02*
X0161735Y0096857D01*
X0161735Y0097856D02*
X0156600Y0097856D01*
X0156600Y0098854D02*
X0161735Y0098854D01*
X0162119Y0099853D02*
X0156600Y0099853D01*
X0156600Y0100851D02*
X0169896Y0100851D01*
X0169896Y0101850D02*
X0156600Y0101850D01*
X0156600Y0102848D02*
X0158337Y0102848D01*
X0157395Y0103847D02*
X0157300Y0103847D01*
X0157300Y0104845D02*
X0157335Y0104845D01*
X0157300Y0105844D02*
X0157335Y0105844D01*
X0156825Y0106842D02*
X0160319Y0106842D01*
X0160319Y0106917D02*
X0160319Y0110098D01*
X0158637Y0110098D01*
X0158300Y0110008D01*
X0158300Y0112367D01*
X0156367Y0114300D01*
X0153633Y0114300D01*
X0152933Y0113600D01*
X0140067Y0113600D01*
X0139367Y0114300D01*
X0136633Y0114300D01*
X0135900Y0113567D01*
X0135900Y0117577D01*
X0135458Y0118643D01*
X0123458Y0130643D01*
X0122643Y0131458D01*
X0121577Y0131900D01*
X0118231Y0131900D01*
X0118231Y0131931D01*
X0118956Y0131931D01*
X0120125Y0133100D01*
X0121931Y0133100D01*
X0121931Y0133044D01*
X0123162Y0131813D01*
X0128838Y0131813D01*
X0130068Y0133044D01*
X0130068Y0140295D01*
X0129889Y0140475D01*
X0132579Y0140475D01*
X0133809Y0141705D01*
X0133809Y0148956D01*
X0132579Y0150187D01*
X0131915Y0150187D01*
X0128805Y0153296D01*
X0127989Y0154112D01*
X0126923Y0154554D01*
X0126204Y0154554D01*
X0125757Y0155000D01*
X0126265Y0155508D01*
X0126265Y0161185D01*
X0125035Y0162415D01*
X0122033Y0162415D01*
X0121989Y0162458D01*
X0120923Y0162900D01*
X0117982Y0162900D01*
X0117982Y0163206D01*
X0129491Y0163206D01*
X0129491Y0160839D01*
X0130721Y0159609D01*
X0153720Y0159609D01*
X0154950Y0160839D01*
X0154950Y0163500D01*
X0218500Y0163500D01*
X0218500Y0156330D01*
X0217038Y0157792D01*
X0214094Y0159012D01*
X0210906Y0159012D01*
X0207962Y0157792D01*
X0207726Y0157556D01*
X0207315Y0158549D01*
X0206049Y0159815D01*
X0204395Y0160500D01*
X0202605Y0160500D01*
X0200951Y0159815D01*
X0199685Y0158549D01*
X0199000Y0156895D01*
X0199000Y0155105D01*
X0199685Y0153451D01*
X0200951Y0152185D01*
X0202605Y0151500D01*
X0204395Y0151500D01*
X0204488Y0151539D01*
X0204488Y0149406D01*
X0205708Y0146462D01*
X0207962Y0144208D01*
X0210906Y0142988D01*
X0214094Y0142988D01*
X0217038Y0144208D01*
X0218500Y0145670D01*
X0218500Y0141000D01*
X0196900Y0141000D01*
X0196900Y0141792D01*
X0197605Y0141500D01*
X0199395Y0141500D01*
X0201049Y0142185D01*
X0202315Y0143451D01*
X0203000Y0145105D01*
X0203000Y0146895D01*
X0202315Y0148549D01*
X0201049Y0149815D01*
X0199395Y0150500D01*
X0197605Y0150500D01*
X0196188Y0149913D01*
X0194541Y0151560D01*
X0196049Y0152185D01*
X0197315Y0153451D01*
X0198000Y0155105D01*
X0198000Y0156895D01*
X0197315Y0158549D01*
X0196049Y0159815D01*
X0194395Y0160500D01*
X0192605Y0160500D01*
X0190951Y0159815D01*
X0189685Y0158549D01*
X0189000Y0156895D01*
X0189000Y0155105D01*
X0189499Y0153900D01*
X0189201Y0153900D01*
X0188300Y0154801D01*
X0188300Y0155367D01*
X0186367Y0157300D01*
X0183633Y0157300D01*
X0181700Y0155367D01*
X0181700Y0152633D01*
X0183633Y0150700D01*
X0184199Y0150700D01*
X0185942Y0148957D01*
X0185471Y0148486D01*
X0185044Y0147847D01*
X0184750Y0147138D01*
X0184600Y0146384D01*
X0184600Y0146300D01*
X0188200Y0146300D01*
X0188200Y0145700D01*
X0188800Y0145700D01*
X0188800Y0142100D01*
X0188884Y0142100D01*
X0189638Y0142250D01*
X0190347Y0142544D01*
X0190986Y0142971D01*
X0191100Y0143085D01*
X0191100Y0141000D01*
X0191000Y0141000D01*
X0191000Y0133101D01*
X0182538Y0124639D01*
X0182096Y0123573D01*
X0182096Y0120571D01*
X0180367Y0122300D01*
X0177633Y0122300D01*
X0175700Y0120367D01*
X0175700Y0117633D01*
X0176400Y0116933D01*
X0176400Y0115600D01*
X0176077Y0115600D01*
X0175700Y0115977D01*
X0175700Y0121503D01*
X0174469Y0122733D01*
X0174235Y0122733D01*
X0174247Y0122754D01*
X0174350Y0123136D01*
X0174350Y0125933D01*
X0169650Y0125933D01*
X0169650Y0126933D01*
X0174350Y0126933D01*
X0174350Y0129731D01*
X0174247Y0130112D01*
X0174235Y0130133D01*
X0174469Y0130133D01*
X0175581Y0131245D01*
X0175861Y0130965D01*
X0175783Y0130831D01*
X0175681Y0130449D01*
X0175681Y0128571D01*
X0178665Y0128571D01*
X0178665Y0127602D01*
X0179634Y0127602D01*
X0179634Y0124421D01*
X0181316Y0124421D01*
X0181697Y0124523D01*
X0182039Y0124721D01*
X0182318Y0125000D01*
X0182516Y0125342D01*
X0182618Y0125724D01*
X0182618Y0127602D01*
X0179634Y0127602D01*
X0179634Y0128571D01*
X0182618Y0128571D01*
X0182618Y0130449D01*
X0182516Y0130831D01*
X0182439Y0130965D01*
X0183218Y0131744D01*
X0183218Y0137815D01*
X0181988Y0139045D01*
X0181900Y0139045D01*
X0181900Y0140577D01*
X0181458Y0141643D01*
X0181300Y0141801D01*
X0181300Y0142367D01*
X0179367Y0144300D01*
X0177467Y0144300D01*
X0178415Y0145248D01*
X0178415Y0150925D01*
X0177483Y0151857D01*
X0177515Y0151890D01*
X0177713Y0152232D01*
X0177815Y0152614D01*
X0177815Y0154295D01*
X0174634Y0154295D01*
X0174634Y0155264D01*
X0173665Y0155264D01*
X0173665Y0154295D01*
X0170484Y0154295D01*
X0170484Y0152614D01*
X0170586Y0152232D01*
X0170784Y0151890D01*
X0170817Y0151857D01*
X0169884Y0150925D01*
X0169884Y0147498D01*
X0169150Y0146764D01*
X0168415Y0147498D01*
X0168415Y0150925D01*
X0167483Y0151857D01*
X0167515Y0151890D01*
X0167713Y0152232D01*
X0167815Y0152614D01*
X0167815Y0154295D01*
X0164634Y0154295D01*
X0164634Y0155264D01*
X0163665Y0155264D01*
X0163665Y0154295D01*
X0160484Y0154295D01*
X0160484Y0152614D01*
X0160586Y0152232D01*
X0160784Y0151890D01*
X0160817Y0151857D01*
X0159884Y0150925D01*
X0159884Y0145248D01*
X0161114Y0144018D01*
X0164541Y0144018D01*
X0164550Y0144010D01*
X0164550Y0143587D01*
X0164517Y0143600D01*
X0161483Y0143600D01*
X0160527Y0143204D01*
X0159527Y0142204D01*
X0158796Y0141473D01*
X0158400Y0140517D01*
X0158400Y0139902D01*
X0158394Y0139900D01*
X0157100Y0138606D01*
X0156400Y0136915D01*
X0156400Y0135085D01*
X0157100Y0133394D01*
X0158394Y0132100D01*
X0160085Y0131400D01*
X0161915Y0131400D01*
X0162600Y0131684D01*
X0162600Y0131363D01*
X0163830Y0130133D01*
X0164064Y0130133D01*
X0164052Y0130112D01*
X0163950Y0129731D01*
X0163950Y0126933D01*
X0168650Y0126933D01*
X0168650Y0130213D01*
X0169150Y0130713D01*
X0169650Y0130213D01*
X0169650Y0126933D01*
X0168650Y0126933D01*
X0168650Y0125933D01*
X0169650Y0125933D01*
X0169650Y0122733D01*
X0168650Y0122733D01*
X0168650Y0125933D01*
X0163950Y0125933D01*
X0163950Y0123136D01*
X0164052Y0122754D01*
X0164064Y0122733D01*
X0163830Y0122733D01*
X0162600Y0121503D01*
X0162600Y0114163D01*
X0163830Y0112933D01*
X0164550Y0112933D01*
X0164550Y0110590D01*
X0163725Y0109766D01*
X0163693Y0109799D01*
X0163351Y0109996D01*
X0162969Y0110098D01*
X0161287Y0110098D01*
X0161287Y0106917D01*
X0160319Y0106917D01*
X0160803Y0106433D02*
X0160803Y0123803D01*
X0163150Y0126150D01*
X0169150Y0126150D01*
X0169100Y0126400D01*
X0169150Y0126433D02*
X0169150Y0126150D01*
X0169150Y0126433D02*
X0169150Y0135033D01*
X0171150Y0135033D02*
X0171150Y0145087D01*
X0174150Y0148087D01*
X0178415Y0147781D02*
X0185016Y0147781D01*
X0184679Y0146783D02*
X0178415Y0146783D01*
X0178415Y0145784D02*
X0188200Y0145784D01*
X0188200Y0145700D02*
X0184600Y0145700D01*
X0184600Y0145616D01*
X0184750Y0144862D01*
X0185044Y0144153D01*
X0185471Y0143514D01*
X0186014Y0142971D01*
X0186653Y0142544D01*
X0187362Y0142250D01*
X0188116Y0142100D01*
X0188200Y0142100D01*
X0188200Y0145700D01*
X0188200Y0144786D02*
X0188800Y0144786D01*
X0188800Y0143787D02*
X0188200Y0143787D01*
X0188200Y0142789D02*
X0188800Y0142789D01*
X0190714Y0142789D02*
X0191100Y0142789D01*
X0191100Y0141790D02*
X0181311Y0141790D01*
X0180878Y0142789D02*
X0186286Y0142789D01*
X0185288Y0143787D02*
X0179880Y0143787D01*
X0177952Y0144786D02*
X0184782Y0144786D01*
X0181811Y0140792D02*
X0191000Y0140792D01*
X0191000Y0139793D02*
X0181900Y0139793D01*
X0182238Y0138795D02*
X0191000Y0138795D01*
X0191000Y0137796D02*
X0183218Y0137796D01*
X0183218Y0136798D02*
X0191000Y0136798D01*
X0191000Y0135799D02*
X0183218Y0135799D01*
X0183218Y0134801D02*
X0191000Y0134801D01*
X0191000Y0133802D02*
X0183218Y0133802D01*
X0183218Y0132803D02*
X0190702Y0132803D01*
X0189704Y0131805D02*
X0183218Y0131805D01*
X0182522Y0130806D02*
X0188705Y0130806D01*
X0187707Y0129808D02*
X0182618Y0129808D01*
X0182618Y0128809D02*
X0186708Y0128809D01*
X0185710Y0127811D02*
X0179634Y0127811D01*
X0178665Y0127811D02*
X0174350Y0127811D01*
X0174350Y0128809D02*
X0175681Y0128809D01*
X0175681Y0129808D02*
X0174329Y0129808D01*
X0175143Y0130806D02*
X0175777Y0130806D01*
X0175681Y0127602D02*
X0175681Y0125724D01*
X0175783Y0125342D01*
X0175981Y0125000D01*
X0176260Y0124721D01*
X0176602Y0124523D01*
X0176984Y0124421D01*
X0178665Y0124421D01*
X0178665Y0127602D01*
X0175681Y0127602D01*
X0175681Y0126812D02*
X0169650Y0126812D01*
X0169650Y0125814D02*
X0168650Y0125814D01*
X0168650Y0126812D02*
X0127289Y0126812D01*
X0128287Y0125814D02*
X0163950Y0125814D01*
X0163950Y0124815D02*
X0129286Y0124815D01*
X0130284Y0123817D02*
X0163950Y0123817D01*
X0164035Y0122818D02*
X0131283Y0122818D01*
X0132281Y0121820D02*
X0162917Y0121820D01*
X0162600Y0120821D02*
X0133280Y0120821D01*
X0134278Y0119823D02*
X0162600Y0119823D01*
X0162600Y0118824D02*
X0135277Y0118824D01*
X0135797Y0117826D02*
X0162600Y0117826D01*
X0162600Y0116827D02*
X0135900Y0116827D01*
X0135900Y0115829D02*
X0162600Y0115829D01*
X0162600Y0114830D02*
X0135900Y0114830D01*
X0135900Y0113832D02*
X0136165Y0113832D01*
X0138000Y0111000D02*
X0155000Y0111000D01*
X0158300Y0110836D02*
X0164550Y0110836D01*
X0164550Y0111835D02*
X0158300Y0111835D01*
X0157834Y0112833D02*
X0164550Y0112833D01*
X0162931Y0113832D02*
X0156835Y0113832D01*
X0153165Y0113832D02*
X0139835Y0113832D01*
X0139508Y0107841D02*
X0152174Y0107841D01*
X0151175Y0106842D02*
X0135659Y0106842D01*
X0135900Y0107841D02*
X0136492Y0107841D01*
X0138606Y0104845D02*
X0138656Y0104845D01*
X0138656Y0103847D02*
X0138606Y0103847D01*
X0138606Y0102848D02*
X0138656Y0102848D01*
X0138657Y0102659D02*
X0142992Y0102659D01*
X0142942Y0102609D01*
X0138657Y0102609D01*
X0138657Y0102659D01*
X0138631Y0102634D02*
X0141634Y0102634D01*
X0144000Y0105000D01*
X0147820Y0103847D02*
X0150700Y0103847D01*
X0150000Y0103000D02*
X0150000Y0077000D01*
X0149559Y0080881D02*
X0154442Y0080881D01*
X0153444Y0081879D02*
X0149872Y0081879D01*
X0149872Y0082878D02*
X0152445Y0082878D01*
X0151651Y0083876D02*
X0149872Y0083876D01*
X0149872Y0084875D02*
X0151400Y0084875D01*
X0151400Y0085873D02*
X0149687Y0085873D01*
X0149872Y0086872D02*
X0151400Y0086872D01*
X0151400Y0087870D02*
X0149872Y0087870D01*
X0149872Y0088869D02*
X0151400Y0088869D01*
X0151400Y0089868D02*
X0149872Y0089868D01*
X0149812Y0090866D02*
X0151400Y0090866D01*
X0151400Y0091865D02*
X0149300Y0091865D01*
X0149300Y0092863D02*
X0151400Y0092863D01*
X0151400Y0093862D02*
X0149300Y0093862D01*
X0148807Y0094860D02*
X0151400Y0094860D01*
X0151400Y0095859D02*
X0147808Y0095859D01*
X0147522Y0097856D02*
X0151400Y0097856D01*
X0151400Y0098854D02*
X0148521Y0098854D01*
X0149300Y0099853D02*
X0151400Y0099853D01*
X0151400Y0100851D02*
X0149300Y0100851D01*
X0149300Y0101850D02*
X0151400Y0101850D01*
X0151400Y0102848D02*
X0148819Y0102848D01*
X0150000Y0103000D02*
X0148500Y0104500D01*
X0146000Y0101000D02*
X0142634Y0097634D01*
X0138631Y0097634D01*
X0138631Y0092634D02*
X0145634Y0092634D01*
X0146000Y0093000D01*
X0145534Y0096857D02*
X0151400Y0096857D01*
X0154000Y0105000D02*
X0154000Y0085000D01*
X0159000Y0080000D01*
X0168000Y0080000D01*
X0172496Y0084496D01*
X0172496Y0096433D01*
X0172496Y0108504D01*
X0169150Y0111850D01*
X0169150Y0117833D01*
X0171150Y0117833D02*
X0171150Y0113587D01*
X0178303Y0106433D01*
X0178303Y0096433D01*
X0180903Y0100698D02*
X0180903Y0102168D01*
X0181141Y0102168D01*
X0181650Y0102676D01*
X0182158Y0102168D01*
X0182731Y0102168D01*
X0185480Y0099418D01*
X0185480Y0096917D01*
X0184512Y0096917D01*
X0184512Y0100098D01*
X0182830Y0100098D01*
X0182449Y0099996D01*
X0182107Y0099799D01*
X0182074Y0099766D01*
X0181141Y0100698D01*
X0180903Y0100698D01*
X0180903Y0100851D02*
X0184048Y0100851D01*
X0184512Y0099853D02*
X0185046Y0099853D01*
X0185480Y0098854D02*
X0184512Y0098854D01*
X0184512Y0097856D02*
X0185480Y0097856D01*
X0184996Y0096433D02*
X0184996Y0089996D01*
X0183000Y0088000D01*
X0183000Y0071000D01*
X0183700Y0071894D02*
X0154950Y0071894D01*
X0154950Y0070896D02*
X0184437Y0070896D01*
X0183700Y0072893D02*
X0154950Y0072893D01*
X0154346Y0073891D02*
X0183700Y0073891D01*
X0184223Y0074890D02*
X0073777Y0074890D01*
X0072779Y0075888D02*
X0185221Y0075888D01*
X0187100Y0077885D02*
X0169562Y0077885D01*
X0170561Y0078884D02*
X0187100Y0078884D01*
X0187100Y0079882D02*
X0171559Y0079882D01*
X0172558Y0080881D02*
X0187100Y0080881D01*
X0187100Y0081879D02*
X0173556Y0081879D01*
X0174555Y0082878D02*
X0187100Y0082878D01*
X0187100Y0083876D02*
X0175054Y0083876D01*
X0175096Y0084875D02*
X0187100Y0084875D01*
X0187100Y0085873D02*
X0175096Y0085873D01*
X0175096Y0086872D02*
X0187100Y0086872D01*
X0187100Y0087870D02*
X0175096Y0087870D01*
X0176000Y0088000D02*
X0183000Y0088000D01*
X0187100Y0088869D02*
X0175096Y0088869D01*
X0175096Y0089868D02*
X0187100Y0089868D01*
X0187100Y0090866D02*
X0175096Y0090866D01*
X0175096Y0091865D02*
X0187100Y0091865D01*
X0185480Y0092863D02*
X0184512Y0092863D01*
X0184512Y0093862D02*
X0185480Y0093862D01*
X0185480Y0094860D02*
X0184512Y0094860D01*
X0184512Y0095859D02*
X0185480Y0095859D01*
X0182200Y0099853D02*
X0181987Y0099853D01*
X0183049Y0101850D02*
X0180903Y0101850D01*
X0181837Y0092863D02*
X0182474Y0092863D01*
X0177000Y0088000D02*
X0176000Y0088000D01*
X0158700Y0084875D02*
X0157802Y0084875D01*
X0157438Y0077885D02*
X0056854Y0077885D01*
X0056854Y0076887D02*
X0055854Y0076887D01*
X0055854Y0077885D02*
X0037169Y0077885D01*
X0037169Y0076887D02*
X0036169Y0076887D01*
X0036169Y0075888D02*
X0037169Y0075888D01*
X0037169Y0074890D02*
X0036169Y0074890D01*
X0036169Y0073891D02*
X0037169Y0073891D01*
X0042910Y0073891D02*
X0050114Y0073891D01*
X0048957Y0074890D02*
X0044067Y0074890D01*
X0044713Y0075888D02*
X0048311Y0075888D01*
X0047924Y0076887D02*
X0045100Y0076887D01*
X0045205Y0078884D02*
X0047819Y0078884D01*
X0048066Y0079882D02*
X0044958Y0079882D01*
X0044473Y0080881D02*
X0048550Y0080881D01*
X0049393Y0081879D02*
X0043631Y0081879D01*
X0042574Y0082878D02*
X0050449Y0082878D01*
X0048962Y0083876D02*
X0044062Y0083876D01*
X0045023Y0084875D02*
X0048000Y0084875D01*
X0047587Y0085873D02*
X0045437Y0085873D01*
X0045850Y0086872D02*
X0047173Y0086872D01*
X0047168Y0087870D02*
X0045856Y0087870D01*
X0045856Y0088869D02*
X0047168Y0088869D01*
X0047473Y0089868D02*
X0045551Y0089868D01*
X0045137Y0090866D02*
X0047887Y0090866D01*
X0048687Y0091865D02*
X0044337Y0091865D01*
X0043238Y0092863D02*
X0049786Y0092863D01*
X0046000Y0098854D02*
X0104281Y0098854D01*
X0104281Y0097856D02*
X0023500Y0097856D01*
X0023500Y0096857D02*
X0104281Y0096857D01*
X0104281Y0095859D02*
X0097808Y0095859D01*
X0096000Y0093000D02*
X0096366Y0092634D01*
X0109431Y0092634D01*
X0104580Y0099853D02*
X0046000Y0099853D01*
X0046000Y0100851D02*
X0061472Y0100851D01*
X0060473Y0101850D02*
X0048517Y0101850D01*
X0049515Y0102848D02*
X0059475Y0102848D01*
X0058476Y0103847D02*
X0050300Y0103847D01*
X0050300Y0104845D02*
X0057478Y0104845D01*
X0057559Y0108441D02*
X0056000Y0108441D01*
X0051000Y0108441D01*
X0051000Y0113559D02*
X0047000Y0117559D01*
X0047000Y0105000D01*
X0055692Y0113867D02*
X0056000Y0113559D01*
X0055692Y0113867D02*
X0055692Y0123827D01*
X0052483Y0119823D02*
X0049600Y0119823D01*
X0049600Y0120821D02*
X0051485Y0120821D01*
X0050592Y0121714D02*
X0053092Y0119214D01*
X0053092Y0117037D01*
X0051199Y0117037D01*
X0049600Y0118636D01*
X0049600Y0136517D01*
X0049204Y0137473D01*
X0046100Y0140577D01*
X0046100Y0142236D01*
X0047315Y0143451D01*
X0048000Y0145105D01*
X0048000Y0146895D01*
X0047315Y0148549D01*
X0046049Y0149815D01*
X0044395Y0150500D01*
X0042605Y0150500D01*
X0040951Y0149815D01*
X0039685Y0148549D01*
X0039000Y0146895D01*
X0039000Y0145105D01*
X0039685Y0143451D01*
X0040900Y0142236D01*
X0040900Y0141000D01*
X0021000Y0141000D01*
X0021000Y0163500D01*
X0069202Y0163500D01*
X0068541Y0162840D01*
X0068100Y0161774D01*
X0068100Y0137782D01*
X0067556Y0138327D01*
X0066192Y0138327D01*
X0066192Y0134327D01*
X0065192Y0134327D01*
X0065192Y0138327D01*
X0063828Y0138327D01*
X0061192Y0135691D01*
X0061192Y0134327D01*
X0065192Y0134327D01*
X0065192Y0133327D01*
X0061192Y0133327D01*
X0061192Y0131963D01*
X0063828Y0129327D01*
X0065192Y0129327D01*
X0065192Y0133327D01*
X0066192Y0133327D01*
X0066192Y0129327D01*
X0067556Y0129327D01*
X0068100Y0129871D01*
X0068100Y0128631D01*
X0067804Y0128927D01*
X0063579Y0128927D01*
X0060692Y0126039D01*
X0057904Y0128827D01*
X0060792Y0131714D01*
X0060792Y0135939D01*
X0057804Y0138927D01*
X0053579Y0138927D01*
X0050592Y0135939D01*
X0050592Y0131714D01*
X0053479Y0128827D01*
X0050592Y0125939D01*
X0050592Y0121714D01*
X0050592Y0121820D02*
X0049600Y0121820D01*
X0049600Y0122818D02*
X0050592Y0122818D01*
X0050592Y0123817D02*
X0049600Y0123817D01*
X0049600Y0124815D02*
X0050592Y0124815D01*
X0050592Y0125814D02*
X0049600Y0125814D01*
X0049600Y0126812D02*
X0051465Y0126812D01*
X0052464Y0127811D02*
X0049600Y0127811D01*
X0049600Y0128809D02*
X0053462Y0128809D01*
X0052498Y0129808D02*
X0049600Y0129808D01*
X0049600Y0130806D02*
X0051500Y0130806D01*
X0050592Y0131805D02*
X0049600Y0131805D01*
X0049600Y0132803D02*
X0050592Y0132803D01*
X0050592Y0133802D02*
X0049600Y0133802D01*
X0049600Y0134801D02*
X0050592Y0134801D01*
X0050592Y0135799D02*
X0049600Y0135799D01*
X0049484Y0136798D02*
X0051450Y0136798D01*
X0052449Y0137796D02*
X0048881Y0137796D01*
X0047882Y0138795D02*
X0053447Y0138795D01*
X0057936Y0138795D02*
X0068100Y0138795D01*
X0068100Y0139793D02*
X0046884Y0139793D01*
X0046100Y0140792D02*
X0068100Y0140792D01*
X0068100Y0141790D02*
X0046100Y0141790D01*
X0046653Y0142789D02*
X0068100Y0142789D01*
X0068100Y0143787D02*
X0061022Y0143787D01*
X0062038Y0144208D02*
X0064292Y0146462D01*
X0065512Y0149406D01*
X0065512Y0152594D01*
X0064292Y0155538D01*
X0062038Y0157792D01*
X0059094Y0159012D01*
X0055906Y0159012D01*
X0052962Y0157792D01*
X0052726Y0157556D01*
X0052315Y0158549D01*
X0051049Y0159815D01*
X0049395Y0160500D01*
X0047605Y0160500D01*
X0045951Y0159815D01*
X0044685Y0158549D01*
X0044000Y0156895D01*
X0044000Y0155105D01*
X0044685Y0153451D01*
X0045951Y0152185D01*
X0047605Y0151500D01*
X0049395Y0151500D01*
X0049488Y0151539D01*
X0049488Y0149406D01*
X0050708Y0146462D01*
X0052962Y0144208D01*
X0055906Y0142988D01*
X0059094Y0142988D01*
X0062038Y0144208D01*
X0062616Y0144786D02*
X0068100Y0144786D01*
X0068100Y0145784D02*
X0063615Y0145784D01*
X0064425Y0146783D02*
X0068100Y0146783D01*
X0068100Y0147781D02*
X0064839Y0147781D01*
X0065252Y0148780D02*
X0068100Y0148780D01*
X0068100Y0149778D02*
X0065512Y0149778D01*
X0065512Y0150777D02*
X0068100Y0150777D01*
X0068100Y0151775D02*
X0065512Y0151775D01*
X0065437Y0152774D02*
X0068100Y0152774D01*
X0068100Y0153772D02*
X0065024Y0153772D01*
X0064610Y0154771D02*
X0068100Y0154771D01*
X0068100Y0155769D02*
X0064061Y0155769D01*
X0063063Y0156768D02*
X0068100Y0156768D01*
X0068100Y0157766D02*
X0062064Y0157766D01*
X0059690Y0158765D02*
X0068100Y0158765D01*
X0068100Y0159763D02*
X0051101Y0159763D01*
X0052099Y0158765D02*
X0055310Y0158765D01*
X0052936Y0157766D02*
X0052639Y0157766D01*
X0045899Y0159763D02*
X0039571Y0159763D01*
X0039638Y0159750D02*
X0038884Y0159900D01*
X0038800Y0159900D01*
X0038800Y0156300D01*
X0042400Y0156300D01*
X0042400Y0156384D01*
X0042250Y0157138D01*
X0041956Y0157847D01*
X0041529Y0158486D01*
X0040986Y0159029D01*
X0040347Y0159456D01*
X0039638Y0159750D01*
X0038800Y0159763D02*
X0038200Y0159763D01*
X0038200Y0159900D02*
X0038116Y0159900D01*
X0037362Y0159750D01*
X0036653Y0159456D01*
X0036014Y0159029D01*
X0035471Y0158486D01*
X0035044Y0157847D01*
X0034750Y0157138D01*
X0034600Y0156384D01*
X0034600Y0156300D01*
X0038200Y0156300D01*
X0038200Y0159900D01*
X0037429Y0159763D02*
X0021000Y0159763D01*
X0021000Y0158765D02*
X0035749Y0158765D01*
X0035010Y0157766D02*
X0021000Y0157766D01*
X0021000Y0156768D02*
X0034676Y0156768D01*
X0034600Y0155700D02*
X0034600Y0155616D01*
X0034750Y0154862D01*
X0035044Y0154153D01*
X0035471Y0153514D01*
X0036014Y0152971D01*
X0036653Y0152544D01*
X0037362Y0152250D01*
X0038116Y0152100D01*
X0038200Y0152100D01*
X0038200Y0155700D01*
X0038800Y0155700D01*
X0038800Y0156300D01*
X0038200Y0156300D01*
X0038200Y0155700D01*
X0034600Y0155700D01*
X0034788Y0154771D02*
X0021000Y0154771D01*
X0021000Y0155769D02*
X0038200Y0155769D01*
X0038800Y0155769D02*
X0044000Y0155769D01*
X0044000Y0156768D02*
X0042324Y0156768D01*
X0041990Y0157766D02*
X0044361Y0157766D01*
X0044901Y0158765D02*
X0041251Y0158765D01*
X0038800Y0158765D02*
X0038200Y0158765D01*
X0038200Y0157766D02*
X0038800Y0157766D01*
X0038800Y0156768D02*
X0038200Y0156768D01*
X0038800Y0155700D02*
X0042400Y0155700D01*
X0042400Y0155616D01*
X0042250Y0154862D01*
X0041956Y0154153D01*
X0041529Y0153514D01*
X0040986Y0152971D01*
X0040347Y0152544D01*
X0039638Y0152250D01*
X0038884Y0152100D01*
X0038800Y0152100D01*
X0038800Y0155700D01*
X0038800Y0154771D02*
X0038200Y0154771D01*
X0038200Y0153772D02*
X0038800Y0153772D01*
X0038800Y0152774D02*
X0038200Y0152774D01*
X0036309Y0152774D02*
X0021000Y0152774D01*
X0021000Y0153772D02*
X0035298Y0153772D01*
X0034496Y0149778D02*
X0040914Y0149778D01*
X0039916Y0148780D02*
X0036236Y0148780D01*
X0035986Y0149029D02*
X0035347Y0149456D01*
X0034638Y0149750D01*
X0033884Y0149900D01*
X0033800Y0149900D01*
X0033800Y0146300D01*
X0037400Y0146300D01*
X0037400Y0146384D01*
X0037250Y0147138D01*
X0036956Y0147847D01*
X0036529Y0148486D01*
X0035986Y0149029D01*
X0036984Y0147781D02*
X0039367Y0147781D01*
X0039000Y0146783D02*
X0037321Y0146783D01*
X0037400Y0145700D02*
X0033800Y0145700D01*
X0033800Y0146300D01*
X0033200Y0146300D01*
X0033200Y0149900D01*
X0033116Y0149900D01*
X0032362Y0149750D01*
X0031653Y0149456D01*
X0031014Y0149029D01*
X0030471Y0148486D01*
X0030044Y0147847D01*
X0029750Y0147138D01*
X0029600Y0146384D01*
X0029600Y0146300D01*
X0033200Y0146300D01*
X0033200Y0145700D01*
X0033800Y0145700D01*
X0033800Y0142100D01*
X0033884Y0142100D01*
X0034638Y0142250D01*
X0035347Y0142544D01*
X0035986Y0142971D01*
X0036529Y0143514D01*
X0036956Y0144153D01*
X0037250Y0144862D01*
X0037400Y0145616D01*
X0037400Y0145700D01*
X0037218Y0144786D02*
X0039132Y0144786D01*
X0039000Y0145784D02*
X0033800Y0145784D01*
X0033200Y0145784D02*
X0021000Y0145784D01*
X0021000Y0144786D02*
X0029782Y0144786D01*
X0029750Y0144862D02*
X0030044Y0144153D01*
X0030471Y0143514D01*
X0031014Y0142971D01*
X0031653Y0142544D01*
X0032362Y0142250D01*
X0033116Y0142100D01*
X0033200Y0142100D01*
X0033200Y0145700D01*
X0029600Y0145700D01*
X0029600Y0145616D01*
X0029750Y0144862D01*
X0030288Y0143787D02*
X0021000Y0143787D01*
X0021000Y0142789D02*
X0031286Y0142789D01*
X0033200Y0142789D02*
X0033800Y0142789D01*
X0033800Y0143787D02*
X0033200Y0143787D01*
X0033200Y0144786D02*
X0033800Y0144786D01*
X0033800Y0146783D02*
X0033200Y0146783D01*
X0033200Y0147781D02*
X0033800Y0147781D01*
X0033800Y0148780D02*
X0033200Y0148780D01*
X0033200Y0149778D02*
X0033800Y0149778D01*
X0032504Y0149778D02*
X0021000Y0149778D01*
X0021000Y0148780D02*
X0030764Y0148780D01*
X0030016Y0147781D02*
X0021000Y0147781D01*
X0021000Y0146783D02*
X0029679Y0146783D01*
X0035714Y0142789D02*
X0040347Y0142789D01*
X0040900Y0141790D02*
X0021000Y0141790D01*
X0021000Y0150777D02*
X0049488Y0150777D01*
X0049488Y0149778D02*
X0046086Y0149778D01*
X0047084Y0148780D02*
X0049748Y0148780D01*
X0050161Y0147781D02*
X0047633Y0147781D01*
X0048000Y0146783D02*
X0050575Y0146783D01*
X0051385Y0145784D02*
X0048000Y0145784D01*
X0047868Y0144786D02*
X0052384Y0144786D01*
X0053978Y0143787D02*
X0047454Y0143787D01*
X0043500Y0146000D02*
X0043500Y0139500D01*
X0047000Y0136000D01*
X0047000Y0118000D01*
X0047000Y0117559D01*
X0049600Y0118824D02*
X0053092Y0118824D01*
X0053092Y0117826D02*
X0050410Y0117826D01*
X0057559Y0108441D02*
X0063366Y0102634D01*
X0109431Y0102634D01*
X0113000Y0106000D02*
X0116000Y0103000D01*
X0113000Y0106000D02*
X0101000Y0106000D01*
X0098559Y0108441D01*
X0076000Y0108441D01*
X0076000Y0113559D02*
X0075692Y0113867D01*
X0075692Y0123827D01*
X0078920Y0127811D02*
X0082464Y0127811D01*
X0083462Y0128809D02*
X0077922Y0128809D01*
X0077804Y0128927D02*
X0073900Y0128927D01*
X0073900Y0129327D01*
X0075192Y0129327D01*
X0075192Y0133327D01*
X0076192Y0133327D01*
X0076192Y0134327D01*
X0075192Y0134327D01*
X0075192Y0138327D01*
X0073900Y0138327D01*
X0073900Y0159491D01*
X0080728Y0159491D01*
X0081958Y0160721D01*
X0081958Y0173090D01*
X0080728Y0174320D01*
X0080409Y0174320D01*
X0080409Y0174491D01*
X0080728Y0174491D01*
X0081958Y0175721D01*
X0081958Y0188090D01*
X0080728Y0189320D01*
X0079309Y0189320D01*
X0079309Y0190467D01*
X0079725Y0190467D01*
X0080110Y0190081D01*
X0087283Y0190081D01*
X0088513Y0191311D01*
X0088513Y0195555D01*
X0088555Y0195513D01*
X0091445Y0195513D01*
X0093487Y0197555D01*
X0093487Y0200445D01*
X0091445Y0202487D01*
X0090600Y0202487D01*
X0090600Y0204213D01*
X0090874Y0204487D01*
X0091721Y0203640D01*
X0097397Y0203640D01*
X0098330Y0204573D01*
X0098362Y0204540D01*
X0098704Y0204342D01*
X0099086Y0204240D01*
X0100768Y0204240D01*
X0100768Y0207421D01*
X0101736Y0207421D01*
X0101736Y0204240D01*
X0103418Y0204240D01*
X0103799Y0204342D01*
X0104141Y0204540D01*
X0104421Y0204819D01*
X0104618Y0205161D01*
X0104720Y0205543D01*
X0104720Y0207421D01*
X0101736Y0207421D01*
X0101736Y0208390D01*
X0100768Y0208390D01*
X0100768Y0211571D01*
X0099086Y0211571D01*
X0098704Y0211469D01*
X0098362Y0211271D01*
X0098330Y0211238D01*
X0097397Y0212171D01*
X0091721Y0212171D01*
X0091126Y0211576D01*
X0090279Y0212423D01*
X0084603Y0212423D01*
X0084094Y0211915D01*
X0083586Y0212423D01*
X0077910Y0212423D01*
X0076680Y0211193D01*
X0076680Y0205122D01*
X0077700Y0204102D01*
X0077700Y0202633D01*
X0078880Y0201453D01*
X0078880Y0198131D01*
X0078153Y0197830D01*
X0075594Y0195271D01*
X0074863Y0194540D01*
X0074504Y0194181D01*
X0074109Y0193226D01*
X0074109Y0189320D01*
X0073500Y0189320D01*
X0073500Y0216000D01*
X0118500Y0226000D01*
X0122000Y0225500D01*
X0122000Y0204233D01*
X0116289Y0198522D01*
X0116289Y0203287D01*
X0115059Y0204517D01*
X0109382Y0204517D01*
X0108152Y0203287D01*
X0108152Y0200785D01*
X0104961Y0200785D01*
X0104961Y0201827D01*
X0104858Y0202209D01*
X0104661Y0202551D01*
X0104382Y0202830D01*
X0104040Y0203028D01*
X0103658Y0203130D01*
X0100744Y0203130D01*
X0097830Y0203130D01*
X0097449Y0203028D01*
X0097107Y0202830D01*
X0096827Y0202551D01*
X0096630Y0202209D01*
X0096528Y0201827D01*
X0096528Y0200744D01*
X0096528Y0200541D01*
X0095928Y0199941D01*
X0095928Y0193870D01*
X0096528Y0193270D01*
X0096528Y0193067D01*
X0096731Y0193067D01*
X0096731Y0193067D01*
X0096528Y0193067D01*
X0096528Y0191984D01*
X0096630Y0191602D01*
X0096827Y0191260D01*
X0097107Y0190981D01*
X0097449Y0190783D01*
X0097830Y0190681D01*
X0100744Y0190681D01*
X0100744Y0192640D01*
X0100744Y0192640D01*
X0100744Y0190681D01*
X0103658Y0190681D01*
X0104040Y0190783D01*
X0104382Y0190981D01*
X0104661Y0191260D01*
X0104858Y0191602D01*
X0104961Y0191984D01*
X0104961Y0192726D01*
X0108152Y0192726D01*
X0108152Y0192300D01*
X0106633Y0192300D01*
X0104700Y0190367D01*
X0104700Y0188720D01*
X0102209Y0188720D01*
X0101209Y0188720D01*
X0098362Y0188720D01*
X0097980Y0188618D01*
X0097638Y0188421D01*
X0097359Y0188141D01*
X0097161Y0187799D01*
X0097059Y0187418D01*
X0097059Y0182405D01*
X0101209Y0182405D01*
X0101209Y0181406D01*
X0097059Y0181406D01*
X0097059Y0176393D01*
X0097161Y0176012D01*
X0097359Y0175670D01*
X0097638Y0175390D01*
X0097980Y0175193D01*
X0098362Y0175091D01*
X0101209Y0175091D01*
X0101209Y0181405D01*
X0102209Y0181405D01*
X0102209Y0181406D02*
X0102209Y0182405D01*
X0106358Y0182405D01*
X0106358Y0185975D01*
X0106633Y0185700D01*
X0107199Y0185700D01*
X0107483Y0185416D01*
X0107483Y0175721D01*
X0108713Y0174491D01*
X0109032Y0174491D01*
X0109032Y0174320D01*
X0108713Y0174320D01*
X0107483Y0173090D01*
X0107483Y0169455D01*
X0107263Y0169364D01*
X0106358Y0168459D01*
X0106358Y0172418D01*
X0106256Y0172799D01*
X0106059Y0173141D01*
X0105779Y0173421D01*
X0105437Y0173618D01*
X0105056Y0173720D01*
X0102209Y0173720D01*
X0102209Y0167406D01*
X0101209Y0167406D01*
X0101209Y0173720D01*
X0098362Y0173720D01*
X0097980Y0173618D01*
X0097638Y0173421D01*
X0097359Y0173141D01*
X0097161Y0172799D01*
X0097059Y0172418D01*
X0097059Y0167405D01*
X0101209Y0167405D01*
X0101209Y0166406D01*
X0097059Y0166406D01*
X0097059Y0161393D01*
X0097161Y0161012D01*
X0097359Y0160670D01*
X0097638Y0160390D01*
X0097980Y0160193D01*
X0098362Y0160091D01*
X0101209Y0160091D01*
X0101209Y0166405D01*
X0102209Y0166405D01*
X0102209Y0160091D01*
X0105056Y0160091D01*
X0105220Y0160134D01*
X0105541Y0159357D01*
X0106169Y0158730D01*
X0104973Y0158730D01*
X0103743Y0157500D01*
X0103743Y0146311D01*
X0104973Y0145081D01*
X0116161Y0145081D01*
X0117391Y0146311D01*
X0117391Y0148754D01*
X0117796Y0148754D01*
X0118191Y0148359D01*
X0118191Y0141705D01*
X0119421Y0140475D01*
X0122111Y0140475D01*
X0121931Y0140295D01*
X0121931Y0138900D01*
X0120125Y0138900D01*
X0118956Y0140068D01*
X0111705Y0140068D01*
X0111525Y0139889D01*
X0111525Y0142579D01*
X0110295Y0143809D01*
X0103044Y0143809D01*
X0101875Y0142640D01*
X0091461Y0142640D01*
X0091300Y0142801D01*
X0091300Y0143367D01*
X0089586Y0145081D01*
X0098838Y0145081D01*
X0100068Y0146311D01*
X0100068Y0157500D01*
X0098838Y0158730D01*
X0087650Y0158730D01*
X0086420Y0157500D01*
X0086420Y0150521D01*
X0081199Y0145300D01*
X0080633Y0145300D01*
X0078700Y0143367D01*
X0078700Y0140633D01*
X0080633Y0138700D01*
X0083367Y0138700D01*
X0085000Y0140333D01*
X0086633Y0138700D01*
X0087199Y0138700D01*
X0088617Y0137282D01*
X0089683Y0136840D01*
X0092341Y0136840D01*
X0091192Y0135691D01*
X0091192Y0134327D01*
X0095192Y0134327D01*
X0095192Y0133327D01*
X0091192Y0133327D01*
X0091192Y0131963D01*
X0093828Y0129327D01*
X0095192Y0129327D01*
X0095192Y0133327D01*
X0096192Y0133327D01*
X0096192Y0134327D01*
X0100192Y0134327D01*
X0100192Y0135691D01*
X0099042Y0136840D01*
X0101875Y0136840D01*
X0102715Y0136000D01*
X0101813Y0135098D01*
X0101813Y0129421D01*
X0103044Y0128191D01*
X0110295Y0128191D01*
X0111525Y0129421D01*
X0111525Y0132111D01*
X0111705Y0131931D01*
X0112431Y0131931D01*
X0112431Y0131098D01*
X0111700Y0130367D01*
X0111700Y0127633D01*
X0113633Y0125700D01*
X0116367Y0125700D01*
X0116767Y0126100D01*
X0119799Y0126100D01*
X0127616Y0118283D01*
X0125700Y0116367D01*
X0125700Y0114860D01*
X0125689Y0114872D01*
X0121193Y0114872D01*
X0120221Y0113900D01*
X0119779Y0113900D01*
X0118807Y0114872D01*
X0114311Y0114872D01*
X0114000Y0114560D01*
X0113689Y0114872D01*
X0109193Y0114872D01*
X0108221Y0113900D01*
X0106201Y0113900D01*
X0099589Y0120512D01*
X0100792Y0121714D01*
X0100792Y0125939D01*
X0097804Y0128927D01*
X0093579Y0128927D01*
X0090692Y0126039D01*
X0087804Y0128927D01*
X0083579Y0128927D01*
X0080692Y0126039D01*
X0077804Y0128927D01*
X0077556Y0129327D02*
X0080192Y0131963D01*
X0080192Y0133327D01*
X0076192Y0133327D01*
X0076192Y0129327D01*
X0077556Y0129327D01*
X0078037Y0129808D02*
X0083347Y0129808D01*
X0083828Y0129327D02*
X0081192Y0131963D01*
X0081192Y0133327D01*
X0085192Y0133327D01*
X0085192Y0134327D01*
X0085192Y0138327D01*
X0083828Y0138327D01*
X0081192Y0135691D01*
X0081192Y0134327D01*
X0085192Y0134327D01*
X0086192Y0134327D01*
X0086192Y0138327D01*
X0087556Y0138327D01*
X0090192Y0135691D01*
X0090192Y0134327D01*
X0086192Y0134327D01*
X0086192Y0133327D01*
X0090192Y0133327D01*
X0090192Y0131963D01*
X0087556Y0129327D01*
X0086192Y0129327D01*
X0086192Y0133327D01*
X0085192Y0133327D01*
X0085192Y0129327D01*
X0083828Y0129327D01*
X0085192Y0129808D02*
X0086192Y0129808D01*
X0086192Y0130806D02*
X0085192Y0130806D01*
X0085192Y0131805D02*
X0086192Y0131805D01*
X0086192Y0132803D02*
X0085192Y0132803D01*
X0085192Y0133802D02*
X0076192Y0133802D01*
X0076192Y0134327D02*
X0080192Y0134327D01*
X0080192Y0135691D01*
X0077556Y0138327D01*
X0076192Y0138327D01*
X0076192Y0134327D01*
X0076192Y0134801D02*
X0075192Y0134801D01*
X0075192Y0135799D02*
X0076192Y0135799D01*
X0076192Y0136798D02*
X0075192Y0136798D01*
X0075192Y0137796D02*
X0076192Y0137796D01*
X0078086Y0137796D02*
X0083297Y0137796D01*
X0083461Y0138795D02*
X0086539Y0138795D01*
X0086192Y0137796D02*
X0085192Y0137796D01*
X0085192Y0136798D02*
X0086192Y0136798D01*
X0086192Y0135799D02*
X0085192Y0135799D01*
X0085192Y0134801D02*
X0086192Y0134801D01*
X0086192Y0133802D02*
X0095192Y0133802D01*
X0095192Y0132803D02*
X0096192Y0132803D01*
X0096192Y0133327D02*
X0096192Y0129327D01*
X0097556Y0129327D01*
X0100192Y0131963D01*
X0100192Y0133327D01*
X0096192Y0133327D01*
X0096192Y0133802D02*
X0101813Y0133802D01*
X0101813Y0134801D02*
X0100192Y0134801D01*
X0100083Y0135799D02*
X0102514Y0135799D01*
X0101918Y0136798D02*
X0099085Y0136798D01*
X0100192Y0132803D02*
X0101813Y0132803D01*
X0101813Y0131805D02*
X0100034Y0131805D01*
X0099035Y0130806D02*
X0101813Y0130806D01*
X0101813Y0129808D02*
X0098037Y0129808D01*
X0097922Y0128809D02*
X0102425Y0128809D01*
X0099919Y0126812D02*
X0112521Y0126812D01*
X0111700Y0127811D02*
X0098920Y0127811D01*
X0100792Y0125814D02*
X0113519Y0125814D01*
X0116481Y0125814D02*
X0120085Y0125814D01*
X0121083Y0124815D02*
X0100792Y0124815D01*
X0100792Y0123817D02*
X0122082Y0123817D01*
X0123080Y0122818D02*
X0100792Y0122818D01*
X0100792Y0121820D02*
X0124079Y0121820D01*
X0125077Y0120821D02*
X0099899Y0120821D01*
X0100278Y0119823D02*
X0126076Y0119823D01*
X0127074Y0118824D02*
X0101277Y0118824D01*
X0102275Y0117826D02*
X0127159Y0117826D01*
X0126160Y0116827D02*
X0103274Y0116827D01*
X0104272Y0115829D02*
X0125700Y0115829D01*
X0129000Y0115000D02*
X0129000Y0111441D01*
X0128559Y0111000D01*
X0121152Y0114830D02*
X0118848Y0114830D01*
X0114270Y0114830D02*
X0113730Y0114830D01*
X0109152Y0114830D02*
X0105271Y0114830D01*
X0110913Y0128809D02*
X0111700Y0128809D01*
X0111700Y0129808D02*
X0111525Y0129808D01*
X0111525Y0130806D02*
X0112140Y0130806D01*
X0112431Y0131805D02*
X0111525Y0131805D01*
X0119828Y0132803D02*
X0122172Y0132803D01*
X0121806Y0131805D02*
X0159107Y0131805D01*
X0157691Y0132803D02*
X0129828Y0132803D01*
X0130068Y0133802D02*
X0156931Y0133802D01*
X0156518Y0134801D02*
X0130068Y0134801D01*
X0130068Y0135799D02*
X0156400Y0135799D01*
X0156400Y0136798D02*
X0130068Y0136798D01*
X0130068Y0137796D02*
X0156765Y0137796D01*
X0157289Y0138795D02*
X0130068Y0138795D01*
X0130068Y0139793D02*
X0158288Y0139793D01*
X0158514Y0140792D02*
X0132895Y0140792D01*
X0133809Y0141790D02*
X0159113Y0141790D01*
X0160112Y0142789D02*
X0133809Y0142789D01*
X0133809Y0143787D02*
X0164550Y0143787D01*
X0164000Y0141000D02*
X0162000Y0141000D01*
X0161000Y0140000D01*
X0161000Y0136000D01*
X0165250Y0135033D02*
X0165250Y0139750D01*
X0164000Y0141000D01*
X0160347Y0144786D02*
X0133809Y0144786D01*
X0133809Y0145784D02*
X0159884Y0145784D01*
X0159884Y0146783D02*
X0133809Y0146783D01*
X0133809Y0147781D02*
X0159884Y0147781D01*
X0159884Y0148780D02*
X0133809Y0148780D01*
X0132987Y0149778D02*
X0159884Y0149778D01*
X0159884Y0150777D02*
X0131325Y0150777D01*
X0130326Y0151775D02*
X0160735Y0151775D01*
X0160484Y0152774D02*
X0129327Y0152774D01*
X0128329Y0153772D02*
X0160484Y0153772D01*
X0160484Y0155264D02*
X0163665Y0155264D01*
X0163665Y0158248D01*
X0161787Y0158248D01*
X0161405Y0158146D01*
X0161063Y0157948D01*
X0160784Y0157669D01*
X0160586Y0157327D01*
X0160484Y0156946D01*
X0160484Y0155264D01*
X0160484Y0155769D02*
X0126265Y0155769D01*
X0126265Y0156768D02*
X0160484Y0156768D01*
X0160881Y0157766D02*
X0126265Y0157766D01*
X0126265Y0158765D02*
X0189901Y0158765D01*
X0189361Y0157766D02*
X0177418Y0157766D01*
X0177515Y0157669D02*
X0177236Y0157948D01*
X0176894Y0158146D01*
X0176512Y0158248D01*
X0174634Y0158248D01*
X0174634Y0155264D01*
X0177815Y0155264D01*
X0177815Y0156946D01*
X0177713Y0157327D01*
X0177515Y0157669D01*
X0177815Y0156768D02*
X0183101Y0156768D01*
X0182102Y0155769D02*
X0177815Y0155769D01*
X0177815Y0153772D02*
X0181700Y0153772D01*
X0181700Y0152774D02*
X0177815Y0152774D01*
X0177565Y0151775D02*
X0182558Y0151775D01*
X0183556Y0150777D02*
X0178415Y0150777D01*
X0178415Y0149778D02*
X0185121Y0149778D01*
X0185764Y0148780D02*
X0178415Y0148780D01*
X0181700Y0154771D02*
X0174634Y0154771D01*
X0173665Y0154771D02*
X0164634Y0154771D01*
X0164150Y0154780D02*
X0163929Y0155000D01*
X0149000Y0155000D01*
X0145000Y0151000D01*
X0145000Y0147000D01*
X0153875Y0159763D02*
X0190899Y0159763D01*
X0189000Y0156768D02*
X0186899Y0156768D01*
X0187898Y0155769D02*
X0189000Y0155769D01*
X0189138Y0154771D02*
X0188330Y0154771D01*
X0195059Y0151775D02*
X0201940Y0151775D01*
X0200362Y0152774D02*
X0196638Y0152774D01*
X0197448Y0153772D02*
X0199552Y0153772D01*
X0199138Y0154771D02*
X0197862Y0154771D01*
X0198000Y0155769D02*
X0199000Y0155769D01*
X0199000Y0156768D02*
X0198000Y0156768D01*
X0197639Y0157766D02*
X0199361Y0157766D01*
X0199901Y0158765D02*
X0197099Y0158765D01*
X0196101Y0159763D02*
X0200899Y0159763D01*
X0206101Y0159763D02*
X0218500Y0159763D01*
X0218500Y0158765D02*
X0214690Y0158765D01*
X0217064Y0157766D02*
X0218500Y0157766D01*
X0218500Y0156768D02*
X0218063Y0156768D01*
X0218500Y0160762D02*
X0154873Y0160762D01*
X0154950Y0161760D02*
X0218500Y0161760D01*
X0218500Y0162759D02*
X0154950Y0162759D01*
X0163665Y0157766D02*
X0164634Y0157766D01*
X0164634Y0158248D02*
X0164634Y0155264D01*
X0167815Y0155264D01*
X0167815Y0156946D01*
X0167713Y0157327D01*
X0167515Y0157669D01*
X0167236Y0157948D01*
X0166894Y0158146D01*
X0166512Y0158248D01*
X0164634Y0158248D01*
X0164634Y0156768D02*
X0163665Y0156768D01*
X0163665Y0155769D02*
X0164634Y0155769D01*
X0163665Y0154771D02*
X0125986Y0154771D01*
X0126265Y0159763D02*
X0130566Y0159763D01*
X0129568Y0160762D02*
X0126265Y0160762D01*
X0125690Y0161760D02*
X0129491Y0161760D01*
X0129491Y0162759D02*
X0121264Y0162759D01*
X0107483Y0169748D02*
X0106358Y0169748D01*
X0106358Y0168750D02*
X0106649Y0168750D01*
X0106358Y0170747D02*
X0107483Y0170747D01*
X0107483Y0171745D02*
X0106358Y0171745D01*
X0106271Y0172744D02*
X0107483Y0172744D01*
X0108135Y0173742D02*
X0081306Y0173742D01*
X0080979Y0174741D02*
X0108462Y0174741D01*
X0107483Y0175739D02*
X0106099Y0175739D01*
X0106059Y0175670D02*
X0106256Y0176012D01*
X0106358Y0176393D01*
X0106358Y0181406D01*
X0102209Y0181406D01*
X0102209Y0181405D02*
X0102209Y0175091D01*
X0105056Y0175091D01*
X0105437Y0175193D01*
X0105779Y0175390D01*
X0106059Y0175670D01*
X0106358Y0176738D02*
X0107483Y0176738D01*
X0107483Y0177737D02*
X0106358Y0177737D01*
X0106358Y0178735D02*
X0107483Y0178735D01*
X0107483Y0179734D02*
X0106358Y0179734D01*
X0106358Y0180732D02*
X0107483Y0180732D01*
X0107483Y0181731D02*
X0102209Y0181731D01*
X0101709Y0181906D02*
X0100744Y0182870D01*
X0100744Y0193067D01*
X0095744Y0193067D01*
X0095677Y0193000D01*
X0091000Y0193000D01*
X0087732Y0189732D01*
X0087732Y0181906D01*
X0087232Y0181731D02*
X0081958Y0181731D01*
X0081958Y0182729D02*
X0083083Y0182729D01*
X0083083Y0182405D02*
X0087232Y0182405D01*
X0087232Y0181406D01*
X0083083Y0181406D01*
X0083083Y0176393D01*
X0083185Y0176012D01*
X0083382Y0175670D01*
X0083662Y0175390D01*
X0084004Y0175193D01*
X0084385Y0175091D01*
X0087232Y0175091D01*
X0087232Y0181405D01*
X0088232Y0181405D01*
X0088232Y0175091D01*
X0091079Y0175091D01*
X0091461Y0175193D01*
X0091803Y0175390D01*
X0092082Y0175670D01*
X0092280Y0176012D01*
X0092382Y0176393D01*
X0092382Y0181406D01*
X0088232Y0181406D01*
X0088232Y0182405D01*
X0092382Y0182405D01*
X0092382Y0187418D01*
X0092280Y0187799D01*
X0092082Y0188141D01*
X0091803Y0188421D01*
X0091461Y0188618D01*
X0091079Y0188720D01*
X0088232Y0188720D01*
X0087232Y0188720D01*
X0084385Y0188720D01*
X0084004Y0188618D01*
X0083662Y0188421D01*
X0083382Y0188141D01*
X0083185Y0187799D01*
X0083083Y0187418D01*
X0083083Y0182405D01*
X0083083Y0183728D02*
X0081958Y0183728D01*
X0081958Y0184726D02*
X0083083Y0184726D01*
X0083083Y0185725D02*
X0081958Y0185725D01*
X0081958Y0186723D02*
X0083083Y0186723D01*
X0083164Y0187722D02*
X0081958Y0187722D01*
X0081328Y0188720D02*
X0084384Y0188720D01*
X0087232Y0188720D02*
X0087232Y0182406D01*
X0088232Y0182406D01*
X0088232Y0188720D01*
X0088232Y0187722D02*
X0087232Y0187722D01*
X0087232Y0186723D02*
X0088232Y0186723D01*
X0088232Y0185725D02*
X0087232Y0185725D01*
X0087232Y0184726D02*
X0088232Y0184726D01*
X0088232Y0183728D02*
X0087232Y0183728D01*
X0087232Y0182729D02*
X0088232Y0182729D01*
X0088232Y0181731D02*
X0101209Y0181731D01*
X0101209Y0182406D02*
X0101209Y0188720D01*
X0101209Y0187722D02*
X0102209Y0187722D01*
X0102209Y0188720D02*
X0102209Y0182406D01*
X0101209Y0182406D01*
X0101209Y0182729D02*
X0102209Y0182729D01*
X0102209Y0183728D02*
X0101209Y0183728D01*
X0101209Y0184726D02*
X0102209Y0184726D01*
X0102209Y0185725D02*
X0101209Y0185725D01*
X0101209Y0186723D02*
X0102209Y0186723D01*
X0104700Y0189719D02*
X0079309Y0189719D01*
X0076709Y0192709D02*
X0076709Y0181906D01*
X0081958Y0180732D02*
X0083083Y0180732D01*
X0083083Y0179734D02*
X0081958Y0179734D01*
X0081958Y0178735D02*
X0083083Y0178735D01*
X0083083Y0177737D02*
X0081958Y0177737D01*
X0081958Y0176738D02*
X0083083Y0176738D01*
X0083342Y0175739D02*
X0081958Y0175739D01*
X0083662Y0173421D02*
X0083382Y0173141D01*
X0083185Y0172799D01*
X0083083Y0172418D01*
X0083083Y0167405D01*
X0087232Y0167405D01*
X0087232Y0166406D01*
X0083083Y0166406D01*
X0083083Y0161393D01*
X0083185Y0161012D01*
X0083382Y0160670D01*
X0083662Y0160390D01*
X0084004Y0160193D01*
X0084385Y0160091D01*
X0087232Y0160091D01*
X0087232Y0166405D01*
X0088232Y0166405D01*
X0088232Y0160091D01*
X0091079Y0160091D01*
X0091461Y0160193D01*
X0091803Y0160390D01*
X0092082Y0160670D01*
X0092280Y0161012D01*
X0092382Y0161393D01*
X0092382Y0166406D01*
X0088232Y0166406D01*
X0088232Y0167405D01*
X0092382Y0167405D01*
X0092382Y0172418D01*
X0092280Y0172799D01*
X0092082Y0173141D01*
X0091803Y0173421D01*
X0091461Y0173618D01*
X0091079Y0173720D01*
X0088232Y0173720D01*
X0088232Y0167406D01*
X0087232Y0167406D01*
X0087232Y0173720D01*
X0084385Y0173720D01*
X0084004Y0173618D01*
X0083662Y0173421D01*
X0083170Y0172744D02*
X0081958Y0172744D01*
X0081958Y0171745D02*
X0083083Y0171745D01*
X0083083Y0170747D02*
X0081958Y0170747D01*
X0081958Y0169748D02*
X0083083Y0169748D01*
X0083083Y0168750D02*
X0081958Y0168750D01*
X0081958Y0167751D02*
X0083083Y0167751D01*
X0081958Y0166753D02*
X0087232Y0166753D01*
X0087232Y0167751D02*
X0088232Y0167751D01*
X0088232Y0166753D02*
X0101209Y0166753D01*
X0101209Y0167751D02*
X0102209Y0167751D01*
X0102209Y0168750D02*
X0101209Y0168750D01*
X0101209Y0169748D02*
X0102209Y0169748D01*
X0102209Y0170747D02*
X0101209Y0170747D01*
X0101209Y0171745D02*
X0102209Y0171745D01*
X0102209Y0172744D02*
X0101209Y0172744D01*
X0101209Y0175739D02*
X0102209Y0175739D01*
X0102209Y0176738D02*
X0101209Y0176738D01*
X0101209Y0177737D02*
X0102209Y0177737D01*
X0102209Y0178735D02*
X0101209Y0178735D01*
X0101209Y0179734D02*
X0102209Y0179734D01*
X0102209Y0180732D02*
X0101209Y0180732D01*
X0097059Y0180732D02*
X0092382Y0180732D01*
X0092382Y0179734D02*
X0097059Y0179734D01*
X0097059Y0178735D02*
X0092382Y0178735D01*
X0092382Y0177737D02*
X0097059Y0177737D01*
X0097059Y0176738D02*
X0092382Y0176738D01*
X0092123Y0175739D02*
X0097318Y0175739D01*
X0097146Y0172744D02*
X0092295Y0172744D01*
X0092382Y0171745D02*
X0097059Y0171745D01*
X0097059Y0170747D02*
X0092382Y0170747D01*
X0092382Y0169748D02*
X0097059Y0169748D01*
X0097059Y0168750D02*
X0092382Y0168750D01*
X0092382Y0167751D02*
X0097059Y0167751D01*
X0097059Y0165754D02*
X0092382Y0165754D01*
X0092382Y0164756D02*
X0097059Y0164756D01*
X0097059Y0163757D02*
X0092382Y0163757D01*
X0092382Y0162759D02*
X0097059Y0162759D01*
X0097059Y0161760D02*
X0092382Y0161760D01*
X0092135Y0160762D02*
X0097305Y0160762D01*
X0099802Y0157766D02*
X0104009Y0157766D01*
X0103743Y0156768D02*
X0100068Y0156768D01*
X0100068Y0155769D02*
X0103743Y0155769D01*
X0103743Y0154771D02*
X0100068Y0154771D01*
X0100068Y0153772D02*
X0103743Y0153772D01*
X0103743Y0152774D02*
X0100068Y0152774D01*
X0100068Y0151775D02*
X0103743Y0151775D01*
X0103743Y0150777D02*
X0100068Y0150777D01*
X0100068Y0149778D02*
X0103743Y0149778D01*
X0103743Y0148780D02*
X0100068Y0148780D01*
X0100068Y0147781D02*
X0103743Y0147781D01*
X0103743Y0146783D02*
X0100068Y0146783D01*
X0099541Y0145784D02*
X0104270Y0145784D01*
X0103022Y0143787D02*
X0090880Y0143787D01*
X0091313Y0142789D02*
X0102023Y0142789D01*
X0110317Y0143787D02*
X0118191Y0143787D01*
X0118191Y0142789D02*
X0111315Y0142789D01*
X0111525Y0141790D02*
X0118191Y0141790D01*
X0119105Y0140792D02*
X0111525Y0140792D01*
X0116864Y0145784D02*
X0118191Y0145784D01*
X0118191Y0144786D02*
X0089881Y0144786D01*
X0085677Y0149778D02*
X0073900Y0149778D01*
X0073900Y0148780D02*
X0084678Y0148780D01*
X0083680Y0147781D02*
X0073900Y0147781D01*
X0073900Y0146783D02*
X0082681Y0146783D01*
X0081683Y0145784D02*
X0073900Y0145784D01*
X0073900Y0144786D02*
X0080119Y0144786D01*
X0079120Y0143787D02*
X0073900Y0143787D01*
X0073900Y0142789D02*
X0078700Y0142789D01*
X0078700Y0141790D02*
X0073900Y0141790D01*
X0073900Y0140792D02*
X0078700Y0140792D01*
X0079540Y0139793D02*
X0073900Y0139793D01*
X0073900Y0138795D02*
X0080539Y0138795D01*
X0079085Y0136798D02*
X0082299Y0136798D01*
X0081300Y0135799D02*
X0080083Y0135799D01*
X0080192Y0134801D02*
X0081192Y0134801D01*
X0081192Y0132803D02*
X0080192Y0132803D01*
X0080034Y0131805D02*
X0081350Y0131805D01*
X0082348Y0130806D02*
X0079035Y0130806D01*
X0079919Y0126812D02*
X0081465Y0126812D01*
X0087922Y0128809D02*
X0093462Y0128809D01*
X0093347Y0129808D02*
X0088037Y0129808D01*
X0089035Y0130806D02*
X0092348Y0130806D01*
X0091350Y0131805D02*
X0090034Y0131805D01*
X0090192Y0132803D02*
X0091192Y0132803D01*
X0091192Y0134801D02*
X0090192Y0134801D01*
X0090083Y0135799D02*
X0091300Y0135799D01*
X0092299Y0136798D02*
X0089085Y0136798D01*
X0088103Y0137796D02*
X0088086Y0137796D01*
X0085540Y0139793D02*
X0084460Y0139793D01*
X0076192Y0132803D02*
X0075192Y0132803D01*
X0075192Y0131805D02*
X0076192Y0131805D01*
X0076192Y0130806D02*
X0075192Y0130806D01*
X0075192Y0129808D02*
X0076192Y0129808D01*
X0068100Y0129808D02*
X0068037Y0129808D01*
X0068100Y0128809D02*
X0067922Y0128809D01*
X0066192Y0129808D02*
X0065192Y0129808D01*
X0065192Y0130806D02*
X0066192Y0130806D01*
X0066192Y0131805D02*
X0065192Y0131805D01*
X0065192Y0132803D02*
X0066192Y0132803D01*
X0065192Y0133802D02*
X0060792Y0133802D01*
X0060792Y0134801D02*
X0061192Y0134801D01*
X0061300Y0135799D02*
X0060792Y0135799D01*
X0059933Y0136798D02*
X0062299Y0136798D01*
X0063297Y0137796D02*
X0058935Y0137796D01*
X0060792Y0132803D02*
X0061192Y0132803D01*
X0061350Y0131805D02*
X0060792Y0131805D01*
X0059884Y0130806D02*
X0062348Y0130806D01*
X0063347Y0129808D02*
X0058886Y0129808D01*
X0057922Y0128809D02*
X0063462Y0128809D01*
X0062464Y0127811D02*
X0058920Y0127811D01*
X0059919Y0126812D02*
X0061465Y0126812D01*
X0065192Y0134801D02*
X0066192Y0134801D01*
X0066192Y0135799D02*
X0065192Y0135799D01*
X0065192Y0136798D02*
X0066192Y0136798D01*
X0066192Y0137796D02*
X0065192Y0137796D01*
X0068086Y0137796D02*
X0068100Y0137796D01*
X0073900Y0150777D02*
X0086420Y0150777D01*
X0086420Y0151775D02*
X0073900Y0151775D01*
X0073900Y0152774D02*
X0086420Y0152774D01*
X0086420Y0153772D02*
X0073900Y0153772D01*
X0073900Y0154771D02*
X0086420Y0154771D01*
X0086420Y0155769D02*
X0073900Y0155769D01*
X0073900Y0156768D02*
X0086420Y0156768D01*
X0086686Y0157766D02*
X0073900Y0157766D01*
X0073900Y0158765D02*
X0106134Y0158765D01*
X0105373Y0159763D02*
X0081001Y0159763D01*
X0081958Y0160762D02*
X0083329Y0160762D01*
X0083083Y0161760D02*
X0081958Y0161760D01*
X0081958Y0162759D02*
X0083083Y0162759D01*
X0083083Y0163757D02*
X0081958Y0163757D01*
X0081958Y0164756D02*
X0083083Y0164756D01*
X0083083Y0165754D02*
X0081958Y0165754D01*
X0087232Y0165754D02*
X0088232Y0165754D01*
X0088232Y0164756D02*
X0087232Y0164756D01*
X0087232Y0163757D02*
X0088232Y0163757D01*
X0088232Y0162759D02*
X0087232Y0162759D01*
X0087232Y0161760D02*
X0088232Y0161760D01*
X0088232Y0160762D02*
X0087232Y0160762D01*
X0087232Y0168750D02*
X0088232Y0168750D01*
X0088232Y0169748D02*
X0087232Y0169748D01*
X0087232Y0170747D02*
X0088232Y0170747D01*
X0088232Y0171745D02*
X0087232Y0171745D01*
X0087232Y0172744D02*
X0088232Y0172744D01*
X0088232Y0175739D02*
X0087232Y0175739D01*
X0087232Y0176738D02*
X0088232Y0176738D01*
X0088232Y0177737D02*
X0087232Y0177737D01*
X0087232Y0178735D02*
X0088232Y0178735D01*
X0088232Y0179734D02*
X0087232Y0179734D01*
X0087232Y0180732D02*
X0088232Y0180732D01*
X0092094Y0181906D02*
X0094189Y0184000D01*
X0095000Y0184000D01*
X0095000Y0179000D01*
X0097059Y0182729D02*
X0092382Y0182729D01*
X0092382Y0183728D02*
X0097059Y0183728D01*
X0097059Y0184726D02*
X0092382Y0184726D01*
X0092382Y0185725D02*
X0097059Y0185725D01*
X0097059Y0186723D02*
X0092382Y0186723D01*
X0092301Y0187722D02*
X0097140Y0187722D01*
X0098360Y0188720D02*
X0091081Y0188720D01*
X0088513Y0191716D02*
X0096599Y0191716D01*
X0096528Y0192714D02*
X0088513Y0192714D01*
X0088513Y0193713D02*
X0096085Y0193713D01*
X0095744Y0193067D02*
X0095744Y0200744D01*
X0096000Y0201000D01*
X0096000Y0203000D01*
X0097000Y0204000D01*
X0100000Y0204000D01*
X0101252Y0205252D01*
X0101252Y0207906D01*
X0101346Y0208000D01*
X0106000Y0208000D01*
X0104720Y0208390D02*
X0104720Y0210268D01*
X0104618Y0210650D01*
X0104421Y0210992D01*
X0104141Y0211271D01*
X0103799Y0211469D01*
X0103418Y0211571D01*
X0101736Y0211571D01*
X0101736Y0208390D01*
X0104720Y0208390D01*
X0104720Y0208690D02*
X0122000Y0208690D01*
X0122000Y0207692D02*
X0101736Y0207692D01*
X0101736Y0208690D02*
X0100768Y0208690D01*
X0100768Y0209689D02*
X0101736Y0209689D01*
X0101736Y0210687D02*
X0100768Y0210687D01*
X0097882Y0211686D02*
X0122000Y0211686D01*
X0122000Y0212684D02*
X0073500Y0212684D01*
X0073500Y0211686D02*
X0077173Y0211686D01*
X0076680Y0210687D02*
X0073500Y0210687D01*
X0073500Y0209689D02*
X0076680Y0209689D01*
X0076680Y0208690D02*
X0073500Y0208690D01*
X0073500Y0207692D02*
X0076680Y0207692D01*
X0076680Y0206693D02*
X0073500Y0206693D01*
X0073500Y0205695D02*
X0076680Y0205695D01*
X0077105Y0204696D02*
X0073500Y0204696D01*
X0073500Y0203698D02*
X0077700Y0203698D01*
X0077700Y0202699D02*
X0073500Y0202699D01*
X0073500Y0201701D02*
X0078632Y0201701D01*
X0078880Y0200702D02*
X0073500Y0200702D01*
X0073500Y0199704D02*
X0078880Y0199704D01*
X0078880Y0198705D02*
X0073500Y0198705D01*
X0073500Y0197707D02*
X0078030Y0197707D01*
X0077031Y0196708D02*
X0073500Y0196708D01*
X0073500Y0195710D02*
X0076033Y0195710D01*
X0075034Y0194711D02*
X0073500Y0194711D01*
X0073500Y0193713D02*
X0074310Y0193713D01*
X0074109Y0192714D02*
X0073500Y0192714D01*
X0073500Y0191716D02*
X0074109Y0191716D01*
X0074109Y0190717D02*
X0073500Y0190717D01*
X0073500Y0189719D02*
X0074109Y0189719D01*
X0076709Y0192709D02*
X0077067Y0193067D01*
X0083697Y0193067D01*
X0083697Y0195626D02*
X0079626Y0195626D01*
X0077067Y0193067D01*
X0083697Y0198185D02*
X0089185Y0198185D01*
X0090000Y0199000D01*
X0092640Y0196708D02*
X0095928Y0196708D01*
X0095928Y0195710D02*
X0091642Y0195710D01*
X0093487Y0197707D02*
X0095928Y0197707D01*
X0095928Y0198705D02*
X0093487Y0198705D01*
X0093487Y0199704D02*
X0095928Y0199704D01*
X0095744Y0200744D02*
X0100744Y0200744D01*
X0100744Y0201171D02*
X0100744Y0203130D01*
X0100744Y0201171D01*
X0100744Y0201171D01*
X0100744Y0201701D02*
X0100744Y0201701D01*
X0100744Y0202699D02*
X0100744Y0202699D01*
X0100768Y0204696D02*
X0101736Y0204696D01*
X0101736Y0205695D02*
X0100768Y0205695D01*
X0100768Y0206693D02*
X0101736Y0206693D01*
X0104720Y0206693D02*
X0122000Y0206693D01*
X0122000Y0205695D02*
X0104720Y0205695D01*
X0104298Y0204696D02*
X0122000Y0204696D01*
X0121465Y0203698D02*
X0115878Y0203698D01*
X0116289Y0202699D02*
X0120467Y0202699D01*
X0119468Y0201701D02*
X0116289Y0201701D01*
X0116289Y0200702D02*
X0118470Y0200702D01*
X0117471Y0199704D02*
X0116289Y0199704D01*
X0116289Y0198705D02*
X0116473Y0198705D01*
X0112220Y0200252D02*
X0110154Y0198185D01*
X0100744Y0198185D01*
X0096731Y0200744D02*
X0096731Y0200744D01*
X0096528Y0200744D01*
X0096731Y0200744D01*
X0096528Y0200702D02*
X0093230Y0200702D01*
X0092231Y0201701D02*
X0096528Y0201701D01*
X0096976Y0202699D02*
X0090600Y0202699D01*
X0090600Y0203698D02*
X0091663Y0203698D01*
X0088000Y0202000D02*
X0088000Y0207598D01*
X0087441Y0208157D01*
X0087693Y0207906D01*
X0094559Y0207906D01*
X0091236Y0211686D02*
X0091016Y0211686D01*
X0085540Y0218675D02*
X0122000Y0218675D01*
X0122000Y0217677D02*
X0081046Y0217677D01*
X0076553Y0216678D02*
X0122000Y0216678D01*
X0122000Y0215680D02*
X0073500Y0215680D01*
X0073500Y0214681D02*
X0122000Y0214681D01*
X0122000Y0213683D02*
X0073500Y0213683D01*
X0083697Y0200744D02*
X0086744Y0200744D01*
X0088000Y0202000D01*
X0088513Y0194711D02*
X0095928Y0194711D01*
X0097696Y0190717D02*
X0087919Y0190717D01*
X0097455Y0203698D02*
X0108563Y0203698D01*
X0108152Y0202699D02*
X0104513Y0202699D01*
X0104961Y0201701D02*
X0108152Y0201701D01*
X0104720Y0209689D02*
X0122000Y0209689D01*
X0122000Y0210687D02*
X0104597Y0210687D01*
X0094526Y0220672D02*
X0122000Y0220672D01*
X0122000Y0219674D02*
X0090033Y0219674D01*
X0099020Y0221671D02*
X0122000Y0221671D01*
X0122000Y0222670D02*
X0103513Y0222670D01*
X0108006Y0223668D02*
X0122000Y0223668D01*
X0122000Y0224667D02*
X0112499Y0224667D01*
X0116993Y0225665D02*
X0120845Y0225665D01*
X0108152Y0192714D02*
X0104961Y0192714D01*
X0104889Y0191716D02*
X0106049Y0191716D01*
X0105050Y0190717D02*
X0103793Y0190717D01*
X0100744Y0190717D02*
X0100744Y0190717D01*
X0100744Y0191716D02*
X0100744Y0191716D01*
X0106358Y0185725D02*
X0106609Y0185725D01*
X0106358Y0184726D02*
X0107483Y0184726D01*
X0107483Y0183728D02*
X0106358Y0183728D01*
X0106358Y0182729D02*
X0107483Y0182729D01*
X0102209Y0165754D02*
X0101209Y0165754D01*
X0101209Y0164756D02*
X0102209Y0164756D01*
X0102209Y0163757D02*
X0101209Y0163757D01*
X0101209Y0162759D02*
X0102209Y0162759D01*
X0102209Y0161760D02*
X0101209Y0161760D01*
X0101209Y0160762D02*
X0102209Y0160762D01*
X0117391Y0147781D02*
X0118191Y0147781D01*
X0118191Y0146783D02*
X0117391Y0146783D01*
X0119232Y0139793D02*
X0121931Y0139793D01*
X0123295Y0130806D02*
X0163156Y0130806D01*
X0163970Y0129808D02*
X0124293Y0129808D01*
X0125292Y0128809D02*
X0163950Y0128809D01*
X0163950Y0127811D02*
X0126290Y0127811D01*
X0156508Y0107841D02*
X0157335Y0107841D01*
X0160319Y0107841D02*
X0161287Y0107841D01*
X0161287Y0108839D02*
X0160319Y0108839D01*
X0160319Y0109838D02*
X0161287Y0109838D01*
X0163625Y0109838D02*
X0163797Y0109838D01*
X0167150Y0106780D02*
X0167496Y0106433D01*
X0167150Y0106780D02*
X0167150Y0117833D01*
X0168650Y0122818D02*
X0169650Y0122818D01*
X0169650Y0123817D02*
X0168650Y0123817D01*
X0168650Y0124815D02*
X0169650Y0124815D01*
X0169650Y0127811D02*
X0168650Y0127811D01*
X0168650Y0128809D02*
X0169650Y0128809D01*
X0169650Y0129808D02*
X0168650Y0129808D01*
X0167150Y0135033D02*
X0167150Y0145087D01*
X0164150Y0148087D01*
X0168415Y0147781D02*
X0169884Y0147781D01*
X0169884Y0148780D02*
X0168415Y0148780D01*
X0168415Y0149778D02*
X0169884Y0149778D01*
X0169884Y0150777D02*
X0168415Y0150777D01*
X0167565Y0151775D02*
X0170735Y0151775D01*
X0170484Y0152774D02*
X0167815Y0152774D01*
X0167815Y0153772D02*
X0170484Y0153772D01*
X0170484Y0155264D02*
X0173665Y0155264D01*
X0173665Y0158248D01*
X0171787Y0158248D01*
X0171405Y0158146D01*
X0171063Y0157948D01*
X0170784Y0157669D01*
X0170586Y0157327D01*
X0170484Y0156946D01*
X0170484Y0155264D01*
X0170484Y0155769D02*
X0167815Y0155769D01*
X0167815Y0156768D02*
X0170484Y0156768D01*
X0170881Y0157766D02*
X0167418Y0157766D01*
X0173665Y0157766D02*
X0174634Y0157766D01*
X0174634Y0156768D02*
X0173665Y0156768D01*
X0173665Y0155769D02*
X0174634Y0155769D01*
X0169169Y0146783D02*
X0169130Y0146783D01*
X0174000Y0141000D02*
X0173050Y0140050D01*
X0173050Y0135033D01*
X0174000Y0141000D02*
X0178000Y0141000D01*
X0178665Y0126812D02*
X0179634Y0126812D01*
X0179634Y0125814D02*
X0178665Y0125814D01*
X0178665Y0124815D02*
X0179634Y0124815D01*
X0182134Y0124815D02*
X0182714Y0124815D01*
X0182618Y0125814D02*
X0183713Y0125814D01*
X0184711Y0126812D02*
X0182618Y0126812D01*
X0182197Y0123817D02*
X0174350Y0123817D01*
X0174350Y0124815D02*
X0176166Y0124815D01*
X0175681Y0125814D02*
X0174350Y0125814D01*
X0174265Y0122818D02*
X0182096Y0122818D01*
X0182096Y0121820D02*
X0180847Y0121820D01*
X0181846Y0120821D02*
X0182096Y0120821D01*
X0179000Y0119000D02*
X0179000Y0114000D01*
X0178000Y0113000D01*
X0175000Y0113000D01*
X0173050Y0114950D01*
X0173050Y0117833D01*
X0175700Y0117826D02*
X0175700Y0117826D01*
X0175700Y0118824D02*
X0175700Y0118824D01*
X0175700Y0119823D02*
X0175700Y0119823D01*
X0175700Y0120821D02*
X0176154Y0120821D01*
X0175383Y0121820D02*
X0177153Y0121820D01*
X0176400Y0116827D02*
X0175700Y0116827D01*
X0175848Y0115829D02*
X0176400Y0115829D01*
X0163977Y0102848D02*
X0163269Y0102848D01*
X0161287Y0102848D02*
X0160319Y0102848D01*
X0160319Y0103847D02*
X0161287Y0103847D01*
X0161287Y0104845D02*
X0160319Y0104845D01*
X0160319Y0105844D02*
X0161287Y0105844D01*
X0138631Y0087634D02*
X0131366Y0087634D01*
X0130000Y0089000D01*
X0094466Y0089868D02*
X0065236Y0089868D01*
X0065541Y0088869D02*
X0089276Y0088869D01*
X0089288Y0088890D02*
X0089090Y0088547D01*
X0088988Y0088166D01*
X0088988Y0086484D01*
X0092169Y0086484D01*
X0092169Y0089468D01*
X0090291Y0089468D01*
X0089909Y0089366D01*
X0089567Y0089169D01*
X0089288Y0088890D01*
X0088988Y0087870D02*
X0065541Y0087870D01*
X0065535Y0086872D02*
X0088988Y0086872D01*
X0088988Y0084875D02*
X0064708Y0084875D01*
X0065122Y0085873D02*
X0092169Y0085873D01*
X0092169Y0084875D02*
X0093138Y0084875D01*
X0093138Y0083876D02*
X0092169Y0083876D01*
X0092169Y0082878D02*
X0093138Y0082878D01*
X0089520Y0082878D02*
X0062259Y0082878D01*
X0063747Y0083876D02*
X0088988Y0083876D01*
X0092169Y0086872D02*
X0093138Y0086872D01*
X0093138Y0087870D02*
X0092169Y0087870D01*
X0092169Y0088869D02*
X0093138Y0088869D01*
X0093467Y0090866D02*
X0064822Y0090866D01*
X0064022Y0091865D02*
X0092700Y0091865D01*
X0092700Y0092863D02*
X0062923Y0092863D01*
X0056854Y0075888D02*
X0055854Y0075888D01*
X0055854Y0074890D02*
X0056854Y0074890D01*
X0056854Y0073891D02*
X0055854Y0073891D01*
X0067700Y0071894D02*
X0023500Y0071894D01*
X0023500Y0078884D02*
X0028134Y0078884D01*
X0028381Y0079882D02*
X0023500Y0079882D01*
X0023500Y0080881D02*
X0028865Y0080881D01*
X0029708Y0081879D02*
X0023500Y0081879D01*
X0023500Y0082878D02*
X0030764Y0082878D01*
X0029277Y0083876D02*
X0023500Y0083876D01*
X0023500Y0084875D02*
X0028315Y0084875D01*
X0027902Y0085873D02*
X0023500Y0085873D01*
X0023500Y0086872D02*
X0027488Y0086872D01*
X0027483Y0087870D02*
X0023500Y0087870D01*
X0023500Y0088869D02*
X0027483Y0088869D01*
X0027788Y0089868D02*
X0023500Y0089868D01*
X0023500Y0090866D02*
X0028202Y0090866D01*
X0029002Y0091865D02*
X0023500Y0091865D01*
X0023500Y0092863D02*
X0030101Y0092863D01*
X0023500Y0093862D02*
X0092700Y0093862D01*
X0093193Y0094860D02*
X0023500Y0094860D01*
X0023500Y0095859D02*
X0094192Y0095859D01*
X0094426Y0071894D02*
X0095000Y0071894D01*
X0088232Y0048929D02*
X0087232Y0048929D01*
X0087232Y0047930D02*
X0088232Y0047930D01*
X0088232Y0046932D02*
X0087232Y0046932D01*
X0087232Y0045933D02*
X0088232Y0045933D01*
X0088232Y0044934D02*
X0087232Y0044934D01*
X0087232Y0043936D02*
X0088232Y0043936D01*
X0083141Y0032952D02*
X0081958Y0032952D01*
X0081958Y0031954D02*
X0083083Y0031954D01*
X0083083Y0030955D02*
X0081958Y0030955D01*
X0081958Y0029957D02*
X0083083Y0029957D01*
X0083083Y0028958D02*
X0081958Y0028958D01*
X0081958Y0027960D02*
X0083083Y0027960D01*
X0089919Y0126812D02*
X0091465Y0126812D01*
X0092464Y0127811D02*
X0088920Y0127811D01*
X0095192Y0129808D02*
X0096192Y0129808D01*
X0096192Y0130806D02*
X0095192Y0130806D01*
X0095192Y0131805D02*
X0096192Y0131805D01*
X0068100Y0160762D02*
X0021000Y0160762D01*
X0021000Y0161760D02*
X0068100Y0161760D01*
X0068508Y0162759D02*
X0021000Y0162759D01*
X0021000Y0151775D02*
X0046940Y0151775D01*
X0045362Y0152774D02*
X0040691Y0152774D01*
X0041702Y0153772D02*
X0044552Y0153772D01*
X0044138Y0154771D02*
X0042212Y0154771D01*
X0039546Y0143787D02*
X0036712Y0143787D01*
X0195325Y0150777D02*
X0204488Y0150777D01*
X0204488Y0149778D02*
X0201086Y0149778D01*
X0202084Y0148780D02*
X0204748Y0148780D01*
X0205161Y0147781D02*
X0202633Y0147781D01*
X0203000Y0146783D02*
X0205575Y0146783D01*
X0206385Y0145784D02*
X0203000Y0145784D01*
X0202868Y0144786D02*
X0207384Y0144786D01*
X0208978Y0143787D02*
X0202454Y0143787D01*
X0201653Y0142789D02*
X0218500Y0142789D01*
X0218500Y0143787D02*
X0216022Y0143787D01*
X0217616Y0144786D02*
X0218500Y0144786D01*
X0218500Y0141790D02*
X0200095Y0141790D01*
X0196905Y0141790D02*
X0196900Y0141790D01*
X0207639Y0157766D02*
X0207936Y0157766D01*
X0207099Y0158765D02*
X0210310Y0158765D01*
D33*
X0194000Y0148000D02*
X0191000Y0151000D01*
X0188000Y0151000D01*
X0185000Y0154000D01*
X0185000Y0146000D02*
X0176220Y0154780D01*
X0174150Y0154780D01*
X0164150Y0154780D01*
X0178000Y0141000D02*
X0179000Y0140000D01*
X0179000Y0134929D01*
X0179150Y0134780D01*
X0185000Y0130000D02*
X0185000Y0145000D01*
X0186000Y0146000D01*
X0185000Y0146000D01*
X0186000Y0146000D02*
X0188500Y0146000D01*
X0194000Y0148000D02*
X0194000Y0132000D01*
X0184996Y0122996D01*
X0184996Y0106433D01*
X0184996Y0104004D01*
X0190000Y0099000D01*
X0190000Y0076000D01*
X0187000Y0073000D01*
X0185000Y0069000D02*
X0183000Y0071000D01*
X0185000Y0069000D02*
X0190000Y0069000D01*
X0197000Y0076000D01*
X0203000Y0075000D02*
X0203000Y0077504D01*
X0202969Y0077535D01*
X0202969Y0087535D02*
X0203000Y0087567D01*
X0203000Y0090000D01*
X0165803Y0087803D02*
X0162000Y0084000D01*
X0165803Y0087803D02*
X0165803Y0096433D01*
X0146000Y0088559D02*
X0145075Y0087634D01*
X0138631Y0087634D01*
X0146000Y0083441D02*
X0126559Y0083441D01*
X0123000Y0087000D01*
X0122366Y0087634D01*
X0109431Y0087634D01*
X0121634Y0087634D01*
X0125000Y0091000D01*
X0125000Y0104000D01*
X0127000Y0106000D01*
X0131000Y0106000D01*
X0133000Y0108000D01*
X0133000Y0117000D01*
X0121000Y0129000D01*
X0115000Y0129000D01*
X0115331Y0129331D01*
X0115331Y0136000D01*
X0121000Y0136000D01*
X0122000Y0136000D01*
X0125331Y0136000D01*
X0126000Y0136669D01*
X0129740Y0145331D02*
X0129740Y0148260D01*
X0126346Y0151654D01*
X0122000Y0151654D01*
X0114346Y0151654D01*
X0112331Y0153669D01*
X0110567Y0151906D01*
X0112331Y0153669D02*
X0112732Y0154071D01*
X0109000Y0160000D02*
X0120346Y0160000D01*
X0122000Y0158346D01*
X0112732Y0166906D02*
X0108906Y0166906D01*
X0108000Y0166000D01*
X0108000Y0161000D01*
X0109000Y0160000D01*
X0093244Y0151906D02*
X0091906Y0151906D01*
X0082000Y0142000D01*
X0088000Y0142000D02*
X0090260Y0139740D01*
X0106669Y0139740D01*
X0095692Y0123827D02*
X0095692Y0120308D01*
X0105000Y0111000D01*
X0111441Y0111000D01*
X0116559Y0111000D02*
X0121000Y0111000D01*
X0121000Y0101000D01*
X0117634Y0097634D01*
X0109431Y0097634D01*
X0109431Y0087634D02*
X0100980Y0087634D01*
X0099346Y0086000D01*
X0090874Y0068343D02*
X0084311Y0068343D01*
X0084126Y0068157D01*
X0077433Y0068157D02*
X0077433Y0063567D01*
X0078000Y0063000D01*
X0071000Y0073000D02*
X0071000Y0029000D01*
X0072780Y0027220D01*
X0076709Y0027220D01*
X0087732Y0042220D02*
X0087732Y0048732D01*
X0092000Y0053000D01*
X0095000Y0053000D01*
X0095000Y0053382D01*
X0095000Y0061059D01*
X0100744Y0055941D02*
X0110154Y0055941D01*
X0112220Y0053874D01*
X0107000Y0050000D02*
X0112732Y0044268D01*
X0112732Y0042220D01*
X0101709Y0042220D02*
X0100780Y0042220D01*
X0095000Y0048000D02*
X0095000Y0053000D01*
X0071000Y0107000D02*
X0071000Y0161197D01*
X0076709Y0166906D01*
X0087732Y0166906D02*
X0087732Y0161732D01*
X0085000Y0159000D01*
X0075692Y0149692D01*
X0075692Y0133827D01*
X0121000Y0111000D02*
X0123441Y0111000D01*
X0169150Y0126433D02*
X0177496Y0126433D01*
X0179150Y0128087D01*
X0183087Y0128087D01*
X0185000Y0130000D01*
X0112732Y0181906D02*
X0112732Y0184268D01*
X0108000Y0189000D01*
X0112220Y0193559D02*
X0110154Y0195626D01*
X0100744Y0195626D01*
X0092094Y0181906D02*
X0087732Y0181906D01*
X0081000Y0204000D02*
X0080748Y0204252D01*
X0080748Y0208157D01*
D34*
X0076709Y0181906D02*
X0076709Y0166906D01*
X0087732Y0166906D02*
X0087732Y0181906D01*
X0101709Y0181906D02*
X0101709Y0166906D01*
X0112732Y0166906D02*
X0112732Y0181906D01*
X0112220Y0193559D02*
X0116559Y0193559D01*
X0128000Y0205000D01*
X0139000Y0205000D01*
X0137220Y0203220D01*
X0139000Y0205000D02*
X0140827Y0205000D01*
X0142220Y0206394D01*
X0137220Y0170094D02*
X0138657Y0168657D01*
X0136906Y0166906D01*
X0112732Y0166906D01*
X0138657Y0168657D02*
X0139898Y0167417D01*
X0142220Y0167417D01*
X0142220Y0066709D02*
X0141512Y0066000D01*
X0140000Y0066000D01*
X0137220Y0063220D01*
X0140000Y0066000D02*
X0129000Y0066000D01*
X0116874Y0053874D01*
X0112220Y0053874D01*
X0112732Y0042220D02*
X0112732Y0027220D01*
X0134031Y0027220D01*
X0137220Y0030409D01*
X0139898Y0027732D01*
X0142220Y0027732D01*
X0101709Y0027220D02*
X0101709Y0042220D01*
X0087732Y0042220D02*
X0087732Y0027220D01*
X0076709Y0027220D02*
X0076709Y0042220D01*
X0033500Y0146000D02*
X0033500Y0151000D01*
X0038500Y0156000D01*
D35*
X0137220Y0193717D02*
X0137220Y0203220D01*
X0137220Y0063220D02*
X0137220Y0054031D01*
D36*
X0102000Y0068000D03*
X0090000Y0058000D03*
X0090000Y0199000D03*
X0106000Y0208000D03*
D37*
X0108000Y0189000D03*
X0095000Y0184000D03*
X0095000Y0179000D03*
X0085000Y0159000D03*
X0082000Y0142000D03*
X0088000Y0142000D03*
X0115000Y0129000D03*
X0129000Y0115000D03*
X0138000Y0111000D03*
X0146000Y0101000D03*
X0146000Y0093000D03*
X0159000Y0087000D03*
X0162000Y0084000D03*
X0176000Y0088000D03*
X0187000Y0073000D03*
X0154000Y0105000D03*
X0155000Y0111000D03*
X0179000Y0119000D03*
X0178000Y0141000D03*
X0185000Y0154000D03*
X0145000Y0147000D03*
X0116000Y0103000D03*
X0130000Y0089000D03*
X0123000Y0087000D03*
X0096000Y0093000D03*
X0071000Y0107000D03*
X0047000Y0105000D03*
X0071000Y0073000D03*
X0078000Y0063000D03*
X0095000Y0042000D03*
X0095000Y0037000D03*
X0095000Y0032000D03*
X0095000Y0027000D03*
X0095000Y0022000D03*
X0107000Y0050000D03*
X0150000Y0077000D03*
X0081000Y0204000D03*
D38*
X0169100Y0126400D03*
M02*
