G75*
%MOIN*%
%OFA0B0*%
%FSLAX25Y25*%
%IPPOS*%
%LPD*%
%AMOC8*
5,1,8,0,0,1.08239X$1,22.5*
%
%ADD10C,0.00000*%
%ADD11C,0.01400*%
%ADD12R,0.03937X0.04331*%
%ADD13R,0.10630X0.06299*%
%ADD14R,0.04331X0.03937*%
%ADD15R,0.09449X0.09449*%
%ADD16R,0.03937X0.05512*%
%ADD17R,0.05512X0.03937*%
%ADD18C,0.06000*%
%ADD19R,0.02756X0.03543*%
%ADD20C,0.05000*%
%ADD21R,0.07800X0.02200*%
%ADD22R,0.03543X0.02756*%
%ADD23OC8,0.06000*%
%ADD24C,0.07087*%
%ADD25R,0.10000X0.20000*%
%ADD26C,0.04800*%
%ADD27R,0.04800X0.01600*%
%ADD28C,0.01000*%
%ADD29OC8,0.02775*%
%ADD30C,0.01600*%
%ADD31OC8,0.02400*%
%ADD32OC8,0.03562*%
D10*
X0001000Y0001000D02*
X0001000Y0237220D01*
X0237220Y0237220D01*
X0237220Y0001000D01*
X0001000Y0001000D01*
X0030134Y0036433D02*
X0030136Y0036591D01*
X0030142Y0036749D01*
X0030152Y0036907D01*
X0030166Y0037065D01*
X0030184Y0037222D01*
X0030205Y0037379D01*
X0030231Y0037535D01*
X0030261Y0037691D01*
X0030294Y0037846D01*
X0030332Y0037999D01*
X0030373Y0038152D01*
X0030418Y0038304D01*
X0030467Y0038455D01*
X0030520Y0038604D01*
X0030576Y0038752D01*
X0030636Y0038898D01*
X0030700Y0039043D01*
X0030768Y0039186D01*
X0030839Y0039328D01*
X0030913Y0039468D01*
X0030991Y0039605D01*
X0031073Y0039741D01*
X0031157Y0039875D01*
X0031246Y0040006D01*
X0031337Y0040135D01*
X0031432Y0040262D01*
X0031529Y0040387D01*
X0031630Y0040509D01*
X0031734Y0040628D01*
X0031841Y0040745D01*
X0031951Y0040859D01*
X0032064Y0040970D01*
X0032179Y0041079D01*
X0032297Y0041184D01*
X0032418Y0041286D01*
X0032541Y0041386D01*
X0032667Y0041482D01*
X0032795Y0041575D01*
X0032925Y0041665D01*
X0033058Y0041751D01*
X0033193Y0041835D01*
X0033329Y0041914D01*
X0033468Y0041991D01*
X0033609Y0042063D01*
X0033751Y0042133D01*
X0033895Y0042198D01*
X0034041Y0042260D01*
X0034188Y0042318D01*
X0034337Y0042373D01*
X0034487Y0042424D01*
X0034638Y0042471D01*
X0034790Y0042514D01*
X0034943Y0042553D01*
X0035098Y0042589D01*
X0035253Y0042620D01*
X0035409Y0042648D01*
X0035565Y0042672D01*
X0035722Y0042692D01*
X0035880Y0042708D01*
X0036037Y0042720D01*
X0036196Y0042728D01*
X0036354Y0042732D01*
X0036512Y0042732D01*
X0036670Y0042728D01*
X0036829Y0042720D01*
X0036986Y0042708D01*
X0037144Y0042692D01*
X0037301Y0042672D01*
X0037457Y0042648D01*
X0037613Y0042620D01*
X0037768Y0042589D01*
X0037923Y0042553D01*
X0038076Y0042514D01*
X0038228Y0042471D01*
X0038379Y0042424D01*
X0038529Y0042373D01*
X0038678Y0042318D01*
X0038825Y0042260D01*
X0038971Y0042198D01*
X0039115Y0042133D01*
X0039257Y0042063D01*
X0039398Y0041991D01*
X0039537Y0041914D01*
X0039673Y0041835D01*
X0039808Y0041751D01*
X0039941Y0041665D01*
X0040071Y0041575D01*
X0040199Y0041482D01*
X0040325Y0041386D01*
X0040448Y0041286D01*
X0040569Y0041184D01*
X0040687Y0041079D01*
X0040802Y0040970D01*
X0040915Y0040859D01*
X0041025Y0040745D01*
X0041132Y0040628D01*
X0041236Y0040509D01*
X0041337Y0040387D01*
X0041434Y0040262D01*
X0041529Y0040135D01*
X0041620Y0040006D01*
X0041709Y0039875D01*
X0041793Y0039741D01*
X0041875Y0039605D01*
X0041953Y0039468D01*
X0042027Y0039328D01*
X0042098Y0039186D01*
X0042166Y0039043D01*
X0042230Y0038898D01*
X0042290Y0038752D01*
X0042346Y0038604D01*
X0042399Y0038455D01*
X0042448Y0038304D01*
X0042493Y0038152D01*
X0042534Y0037999D01*
X0042572Y0037846D01*
X0042605Y0037691D01*
X0042635Y0037535D01*
X0042661Y0037379D01*
X0042682Y0037222D01*
X0042700Y0037065D01*
X0042714Y0036907D01*
X0042724Y0036749D01*
X0042730Y0036591D01*
X0042732Y0036433D01*
X0042730Y0036275D01*
X0042724Y0036117D01*
X0042714Y0035959D01*
X0042700Y0035801D01*
X0042682Y0035644D01*
X0042661Y0035487D01*
X0042635Y0035331D01*
X0042605Y0035175D01*
X0042572Y0035020D01*
X0042534Y0034867D01*
X0042493Y0034714D01*
X0042448Y0034562D01*
X0042399Y0034411D01*
X0042346Y0034262D01*
X0042290Y0034114D01*
X0042230Y0033968D01*
X0042166Y0033823D01*
X0042098Y0033680D01*
X0042027Y0033538D01*
X0041953Y0033398D01*
X0041875Y0033261D01*
X0041793Y0033125D01*
X0041709Y0032991D01*
X0041620Y0032860D01*
X0041529Y0032731D01*
X0041434Y0032604D01*
X0041337Y0032479D01*
X0041236Y0032357D01*
X0041132Y0032238D01*
X0041025Y0032121D01*
X0040915Y0032007D01*
X0040802Y0031896D01*
X0040687Y0031787D01*
X0040569Y0031682D01*
X0040448Y0031580D01*
X0040325Y0031480D01*
X0040199Y0031384D01*
X0040071Y0031291D01*
X0039941Y0031201D01*
X0039808Y0031115D01*
X0039673Y0031031D01*
X0039537Y0030952D01*
X0039398Y0030875D01*
X0039257Y0030803D01*
X0039115Y0030733D01*
X0038971Y0030668D01*
X0038825Y0030606D01*
X0038678Y0030548D01*
X0038529Y0030493D01*
X0038379Y0030442D01*
X0038228Y0030395D01*
X0038076Y0030352D01*
X0037923Y0030313D01*
X0037768Y0030277D01*
X0037613Y0030246D01*
X0037457Y0030218D01*
X0037301Y0030194D01*
X0037144Y0030174D01*
X0036986Y0030158D01*
X0036829Y0030146D01*
X0036670Y0030138D01*
X0036512Y0030134D01*
X0036354Y0030134D01*
X0036196Y0030138D01*
X0036037Y0030146D01*
X0035880Y0030158D01*
X0035722Y0030174D01*
X0035565Y0030194D01*
X0035409Y0030218D01*
X0035253Y0030246D01*
X0035098Y0030277D01*
X0034943Y0030313D01*
X0034790Y0030352D01*
X0034638Y0030395D01*
X0034487Y0030442D01*
X0034337Y0030493D01*
X0034188Y0030548D01*
X0034041Y0030606D01*
X0033895Y0030668D01*
X0033751Y0030733D01*
X0033609Y0030803D01*
X0033468Y0030875D01*
X0033329Y0030952D01*
X0033193Y0031031D01*
X0033058Y0031115D01*
X0032925Y0031201D01*
X0032795Y0031291D01*
X0032667Y0031384D01*
X0032541Y0031480D01*
X0032418Y0031580D01*
X0032297Y0031682D01*
X0032179Y0031787D01*
X0032064Y0031896D01*
X0031951Y0032007D01*
X0031841Y0032121D01*
X0031734Y0032238D01*
X0031630Y0032357D01*
X0031529Y0032479D01*
X0031432Y0032604D01*
X0031337Y0032731D01*
X0031246Y0032860D01*
X0031157Y0032991D01*
X0031073Y0033125D01*
X0030991Y0033261D01*
X0030913Y0033398D01*
X0030839Y0033538D01*
X0030768Y0033680D01*
X0030700Y0033823D01*
X0030636Y0033968D01*
X0030576Y0034114D01*
X0030520Y0034262D01*
X0030467Y0034411D01*
X0030418Y0034562D01*
X0030373Y0034714D01*
X0030332Y0034867D01*
X0030294Y0035020D01*
X0030261Y0035175D01*
X0030231Y0035331D01*
X0030205Y0035487D01*
X0030184Y0035644D01*
X0030166Y0035801D01*
X0030152Y0035959D01*
X0030142Y0036117D01*
X0030136Y0036275D01*
X0030134Y0036433D01*
X0020292Y0119110D02*
X0020294Y0119268D01*
X0020300Y0119426D01*
X0020310Y0119584D01*
X0020324Y0119742D01*
X0020342Y0119899D01*
X0020363Y0120056D01*
X0020389Y0120212D01*
X0020419Y0120368D01*
X0020452Y0120523D01*
X0020490Y0120676D01*
X0020531Y0120829D01*
X0020576Y0120981D01*
X0020625Y0121132D01*
X0020678Y0121281D01*
X0020734Y0121429D01*
X0020794Y0121575D01*
X0020858Y0121720D01*
X0020926Y0121863D01*
X0020997Y0122005D01*
X0021071Y0122145D01*
X0021149Y0122282D01*
X0021231Y0122418D01*
X0021315Y0122552D01*
X0021404Y0122683D01*
X0021495Y0122812D01*
X0021590Y0122939D01*
X0021687Y0123064D01*
X0021788Y0123186D01*
X0021892Y0123305D01*
X0021999Y0123422D01*
X0022109Y0123536D01*
X0022222Y0123647D01*
X0022337Y0123756D01*
X0022455Y0123861D01*
X0022576Y0123963D01*
X0022699Y0124063D01*
X0022825Y0124159D01*
X0022953Y0124252D01*
X0023083Y0124342D01*
X0023216Y0124428D01*
X0023351Y0124512D01*
X0023487Y0124591D01*
X0023626Y0124668D01*
X0023767Y0124740D01*
X0023909Y0124810D01*
X0024053Y0124875D01*
X0024199Y0124937D01*
X0024346Y0124995D01*
X0024495Y0125050D01*
X0024645Y0125101D01*
X0024796Y0125148D01*
X0024948Y0125191D01*
X0025101Y0125230D01*
X0025256Y0125266D01*
X0025411Y0125297D01*
X0025567Y0125325D01*
X0025723Y0125349D01*
X0025880Y0125369D01*
X0026038Y0125385D01*
X0026195Y0125397D01*
X0026354Y0125405D01*
X0026512Y0125409D01*
X0026670Y0125409D01*
X0026828Y0125405D01*
X0026987Y0125397D01*
X0027144Y0125385D01*
X0027302Y0125369D01*
X0027459Y0125349D01*
X0027615Y0125325D01*
X0027771Y0125297D01*
X0027926Y0125266D01*
X0028081Y0125230D01*
X0028234Y0125191D01*
X0028386Y0125148D01*
X0028537Y0125101D01*
X0028687Y0125050D01*
X0028836Y0124995D01*
X0028983Y0124937D01*
X0029129Y0124875D01*
X0029273Y0124810D01*
X0029415Y0124740D01*
X0029556Y0124668D01*
X0029695Y0124591D01*
X0029831Y0124512D01*
X0029966Y0124428D01*
X0030099Y0124342D01*
X0030229Y0124252D01*
X0030357Y0124159D01*
X0030483Y0124063D01*
X0030606Y0123963D01*
X0030727Y0123861D01*
X0030845Y0123756D01*
X0030960Y0123647D01*
X0031073Y0123536D01*
X0031183Y0123422D01*
X0031290Y0123305D01*
X0031394Y0123186D01*
X0031495Y0123064D01*
X0031592Y0122939D01*
X0031687Y0122812D01*
X0031778Y0122683D01*
X0031867Y0122552D01*
X0031951Y0122418D01*
X0032033Y0122282D01*
X0032111Y0122145D01*
X0032185Y0122005D01*
X0032256Y0121863D01*
X0032324Y0121720D01*
X0032388Y0121575D01*
X0032448Y0121429D01*
X0032504Y0121281D01*
X0032557Y0121132D01*
X0032606Y0120981D01*
X0032651Y0120829D01*
X0032692Y0120676D01*
X0032730Y0120523D01*
X0032763Y0120368D01*
X0032793Y0120212D01*
X0032819Y0120056D01*
X0032840Y0119899D01*
X0032858Y0119742D01*
X0032872Y0119584D01*
X0032882Y0119426D01*
X0032888Y0119268D01*
X0032890Y0119110D01*
X0032888Y0118952D01*
X0032882Y0118794D01*
X0032872Y0118636D01*
X0032858Y0118478D01*
X0032840Y0118321D01*
X0032819Y0118164D01*
X0032793Y0118008D01*
X0032763Y0117852D01*
X0032730Y0117697D01*
X0032692Y0117544D01*
X0032651Y0117391D01*
X0032606Y0117239D01*
X0032557Y0117088D01*
X0032504Y0116939D01*
X0032448Y0116791D01*
X0032388Y0116645D01*
X0032324Y0116500D01*
X0032256Y0116357D01*
X0032185Y0116215D01*
X0032111Y0116075D01*
X0032033Y0115938D01*
X0031951Y0115802D01*
X0031867Y0115668D01*
X0031778Y0115537D01*
X0031687Y0115408D01*
X0031592Y0115281D01*
X0031495Y0115156D01*
X0031394Y0115034D01*
X0031290Y0114915D01*
X0031183Y0114798D01*
X0031073Y0114684D01*
X0030960Y0114573D01*
X0030845Y0114464D01*
X0030727Y0114359D01*
X0030606Y0114257D01*
X0030483Y0114157D01*
X0030357Y0114061D01*
X0030229Y0113968D01*
X0030099Y0113878D01*
X0029966Y0113792D01*
X0029831Y0113708D01*
X0029695Y0113629D01*
X0029556Y0113552D01*
X0029415Y0113480D01*
X0029273Y0113410D01*
X0029129Y0113345D01*
X0028983Y0113283D01*
X0028836Y0113225D01*
X0028687Y0113170D01*
X0028537Y0113119D01*
X0028386Y0113072D01*
X0028234Y0113029D01*
X0028081Y0112990D01*
X0027926Y0112954D01*
X0027771Y0112923D01*
X0027615Y0112895D01*
X0027459Y0112871D01*
X0027302Y0112851D01*
X0027144Y0112835D01*
X0026987Y0112823D01*
X0026828Y0112815D01*
X0026670Y0112811D01*
X0026512Y0112811D01*
X0026354Y0112815D01*
X0026195Y0112823D01*
X0026038Y0112835D01*
X0025880Y0112851D01*
X0025723Y0112871D01*
X0025567Y0112895D01*
X0025411Y0112923D01*
X0025256Y0112954D01*
X0025101Y0112990D01*
X0024948Y0113029D01*
X0024796Y0113072D01*
X0024645Y0113119D01*
X0024495Y0113170D01*
X0024346Y0113225D01*
X0024199Y0113283D01*
X0024053Y0113345D01*
X0023909Y0113410D01*
X0023767Y0113480D01*
X0023626Y0113552D01*
X0023487Y0113629D01*
X0023351Y0113708D01*
X0023216Y0113792D01*
X0023083Y0113878D01*
X0022953Y0113968D01*
X0022825Y0114061D01*
X0022699Y0114157D01*
X0022576Y0114257D01*
X0022455Y0114359D01*
X0022337Y0114464D01*
X0022222Y0114573D01*
X0022109Y0114684D01*
X0021999Y0114798D01*
X0021892Y0114915D01*
X0021788Y0115034D01*
X0021687Y0115156D01*
X0021590Y0115281D01*
X0021495Y0115408D01*
X0021404Y0115537D01*
X0021315Y0115668D01*
X0021231Y0115802D01*
X0021149Y0115938D01*
X0021071Y0116075D01*
X0020997Y0116215D01*
X0020926Y0116357D01*
X0020858Y0116500D01*
X0020794Y0116645D01*
X0020734Y0116791D01*
X0020678Y0116939D01*
X0020625Y0117088D01*
X0020576Y0117239D01*
X0020531Y0117391D01*
X0020490Y0117544D01*
X0020452Y0117697D01*
X0020419Y0117852D01*
X0020389Y0118008D01*
X0020363Y0118164D01*
X0020342Y0118321D01*
X0020324Y0118478D01*
X0020310Y0118636D01*
X0020300Y0118794D01*
X0020294Y0118952D01*
X0020292Y0119110D01*
X0051988Y0151000D02*
X0051990Y0151148D01*
X0051996Y0151296D01*
X0052006Y0151444D01*
X0052020Y0151591D01*
X0052038Y0151738D01*
X0052059Y0151884D01*
X0052085Y0152030D01*
X0052115Y0152175D01*
X0052148Y0152319D01*
X0052186Y0152462D01*
X0052227Y0152604D01*
X0052272Y0152745D01*
X0052320Y0152885D01*
X0052373Y0153024D01*
X0052429Y0153161D01*
X0052489Y0153296D01*
X0052552Y0153430D01*
X0052619Y0153562D01*
X0052690Y0153692D01*
X0052764Y0153820D01*
X0052841Y0153946D01*
X0052922Y0154070D01*
X0053006Y0154192D01*
X0053093Y0154311D01*
X0053184Y0154428D01*
X0053278Y0154543D01*
X0053374Y0154655D01*
X0053474Y0154765D01*
X0053576Y0154871D01*
X0053682Y0154975D01*
X0053790Y0155076D01*
X0053901Y0155174D01*
X0054014Y0155270D01*
X0054130Y0155362D01*
X0054248Y0155451D01*
X0054369Y0155536D01*
X0054492Y0155619D01*
X0054617Y0155698D01*
X0054744Y0155774D01*
X0054873Y0155846D01*
X0055004Y0155915D01*
X0055137Y0155980D01*
X0055272Y0156041D01*
X0055408Y0156099D01*
X0055545Y0156154D01*
X0055684Y0156204D01*
X0055825Y0156251D01*
X0055966Y0156294D01*
X0056109Y0156334D01*
X0056253Y0156369D01*
X0056397Y0156401D01*
X0056543Y0156428D01*
X0056689Y0156452D01*
X0056836Y0156472D01*
X0056983Y0156488D01*
X0057130Y0156500D01*
X0057278Y0156508D01*
X0057426Y0156512D01*
X0057574Y0156512D01*
X0057722Y0156508D01*
X0057870Y0156500D01*
X0058017Y0156488D01*
X0058164Y0156472D01*
X0058311Y0156452D01*
X0058457Y0156428D01*
X0058603Y0156401D01*
X0058747Y0156369D01*
X0058891Y0156334D01*
X0059034Y0156294D01*
X0059175Y0156251D01*
X0059316Y0156204D01*
X0059455Y0156154D01*
X0059592Y0156099D01*
X0059728Y0156041D01*
X0059863Y0155980D01*
X0059996Y0155915D01*
X0060127Y0155846D01*
X0060256Y0155774D01*
X0060383Y0155698D01*
X0060508Y0155619D01*
X0060631Y0155536D01*
X0060752Y0155451D01*
X0060870Y0155362D01*
X0060986Y0155270D01*
X0061099Y0155174D01*
X0061210Y0155076D01*
X0061318Y0154975D01*
X0061424Y0154871D01*
X0061526Y0154765D01*
X0061626Y0154655D01*
X0061722Y0154543D01*
X0061816Y0154428D01*
X0061907Y0154311D01*
X0061994Y0154192D01*
X0062078Y0154070D01*
X0062159Y0153946D01*
X0062236Y0153820D01*
X0062310Y0153692D01*
X0062381Y0153562D01*
X0062448Y0153430D01*
X0062511Y0153296D01*
X0062571Y0153161D01*
X0062627Y0153024D01*
X0062680Y0152885D01*
X0062728Y0152745D01*
X0062773Y0152604D01*
X0062814Y0152462D01*
X0062852Y0152319D01*
X0062885Y0152175D01*
X0062915Y0152030D01*
X0062941Y0151884D01*
X0062962Y0151738D01*
X0062980Y0151591D01*
X0062994Y0151444D01*
X0063004Y0151296D01*
X0063010Y0151148D01*
X0063012Y0151000D01*
X0063010Y0150852D01*
X0063004Y0150704D01*
X0062994Y0150556D01*
X0062980Y0150409D01*
X0062962Y0150262D01*
X0062941Y0150116D01*
X0062915Y0149970D01*
X0062885Y0149825D01*
X0062852Y0149681D01*
X0062814Y0149538D01*
X0062773Y0149396D01*
X0062728Y0149255D01*
X0062680Y0149115D01*
X0062627Y0148976D01*
X0062571Y0148839D01*
X0062511Y0148704D01*
X0062448Y0148570D01*
X0062381Y0148438D01*
X0062310Y0148308D01*
X0062236Y0148180D01*
X0062159Y0148054D01*
X0062078Y0147930D01*
X0061994Y0147808D01*
X0061907Y0147689D01*
X0061816Y0147572D01*
X0061722Y0147457D01*
X0061626Y0147345D01*
X0061526Y0147235D01*
X0061424Y0147129D01*
X0061318Y0147025D01*
X0061210Y0146924D01*
X0061099Y0146826D01*
X0060986Y0146730D01*
X0060870Y0146638D01*
X0060752Y0146549D01*
X0060631Y0146464D01*
X0060508Y0146381D01*
X0060383Y0146302D01*
X0060256Y0146226D01*
X0060127Y0146154D01*
X0059996Y0146085D01*
X0059863Y0146020D01*
X0059728Y0145959D01*
X0059592Y0145901D01*
X0059455Y0145846D01*
X0059316Y0145796D01*
X0059175Y0145749D01*
X0059034Y0145706D01*
X0058891Y0145666D01*
X0058747Y0145631D01*
X0058603Y0145599D01*
X0058457Y0145572D01*
X0058311Y0145548D01*
X0058164Y0145528D01*
X0058017Y0145512D01*
X0057870Y0145500D01*
X0057722Y0145492D01*
X0057574Y0145488D01*
X0057426Y0145488D01*
X0057278Y0145492D01*
X0057130Y0145500D01*
X0056983Y0145512D01*
X0056836Y0145528D01*
X0056689Y0145548D01*
X0056543Y0145572D01*
X0056397Y0145599D01*
X0056253Y0145631D01*
X0056109Y0145666D01*
X0055966Y0145706D01*
X0055825Y0145749D01*
X0055684Y0145796D01*
X0055545Y0145846D01*
X0055408Y0145901D01*
X0055272Y0145959D01*
X0055137Y0146020D01*
X0055004Y0146085D01*
X0054873Y0146154D01*
X0054744Y0146226D01*
X0054617Y0146302D01*
X0054492Y0146381D01*
X0054369Y0146464D01*
X0054248Y0146549D01*
X0054130Y0146638D01*
X0054014Y0146730D01*
X0053901Y0146826D01*
X0053790Y0146924D01*
X0053682Y0147025D01*
X0053576Y0147129D01*
X0053474Y0147235D01*
X0053374Y0147345D01*
X0053278Y0147457D01*
X0053184Y0147572D01*
X0053093Y0147689D01*
X0053006Y0147808D01*
X0052922Y0147930D01*
X0052841Y0148054D01*
X0052764Y0148180D01*
X0052690Y0148308D01*
X0052619Y0148438D01*
X0052552Y0148570D01*
X0052489Y0148704D01*
X0052429Y0148839D01*
X0052373Y0148976D01*
X0052320Y0149115D01*
X0052272Y0149255D01*
X0052227Y0149396D01*
X0052186Y0149538D01*
X0052148Y0149681D01*
X0052115Y0149825D01*
X0052085Y0149970D01*
X0052059Y0150116D01*
X0052038Y0150262D01*
X0052020Y0150409D01*
X0052006Y0150556D01*
X0051996Y0150704D01*
X0051990Y0150852D01*
X0051988Y0151000D01*
X0030134Y0201787D02*
X0030136Y0201945D01*
X0030142Y0202103D01*
X0030152Y0202261D01*
X0030166Y0202419D01*
X0030184Y0202576D01*
X0030205Y0202733D01*
X0030231Y0202889D01*
X0030261Y0203045D01*
X0030294Y0203200D01*
X0030332Y0203353D01*
X0030373Y0203506D01*
X0030418Y0203658D01*
X0030467Y0203809D01*
X0030520Y0203958D01*
X0030576Y0204106D01*
X0030636Y0204252D01*
X0030700Y0204397D01*
X0030768Y0204540D01*
X0030839Y0204682D01*
X0030913Y0204822D01*
X0030991Y0204959D01*
X0031073Y0205095D01*
X0031157Y0205229D01*
X0031246Y0205360D01*
X0031337Y0205489D01*
X0031432Y0205616D01*
X0031529Y0205741D01*
X0031630Y0205863D01*
X0031734Y0205982D01*
X0031841Y0206099D01*
X0031951Y0206213D01*
X0032064Y0206324D01*
X0032179Y0206433D01*
X0032297Y0206538D01*
X0032418Y0206640D01*
X0032541Y0206740D01*
X0032667Y0206836D01*
X0032795Y0206929D01*
X0032925Y0207019D01*
X0033058Y0207105D01*
X0033193Y0207189D01*
X0033329Y0207268D01*
X0033468Y0207345D01*
X0033609Y0207417D01*
X0033751Y0207487D01*
X0033895Y0207552D01*
X0034041Y0207614D01*
X0034188Y0207672D01*
X0034337Y0207727D01*
X0034487Y0207778D01*
X0034638Y0207825D01*
X0034790Y0207868D01*
X0034943Y0207907D01*
X0035098Y0207943D01*
X0035253Y0207974D01*
X0035409Y0208002D01*
X0035565Y0208026D01*
X0035722Y0208046D01*
X0035880Y0208062D01*
X0036037Y0208074D01*
X0036196Y0208082D01*
X0036354Y0208086D01*
X0036512Y0208086D01*
X0036670Y0208082D01*
X0036829Y0208074D01*
X0036986Y0208062D01*
X0037144Y0208046D01*
X0037301Y0208026D01*
X0037457Y0208002D01*
X0037613Y0207974D01*
X0037768Y0207943D01*
X0037923Y0207907D01*
X0038076Y0207868D01*
X0038228Y0207825D01*
X0038379Y0207778D01*
X0038529Y0207727D01*
X0038678Y0207672D01*
X0038825Y0207614D01*
X0038971Y0207552D01*
X0039115Y0207487D01*
X0039257Y0207417D01*
X0039398Y0207345D01*
X0039537Y0207268D01*
X0039673Y0207189D01*
X0039808Y0207105D01*
X0039941Y0207019D01*
X0040071Y0206929D01*
X0040199Y0206836D01*
X0040325Y0206740D01*
X0040448Y0206640D01*
X0040569Y0206538D01*
X0040687Y0206433D01*
X0040802Y0206324D01*
X0040915Y0206213D01*
X0041025Y0206099D01*
X0041132Y0205982D01*
X0041236Y0205863D01*
X0041337Y0205741D01*
X0041434Y0205616D01*
X0041529Y0205489D01*
X0041620Y0205360D01*
X0041709Y0205229D01*
X0041793Y0205095D01*
X0041875Y0204959D01*
X0041953Y0204822D01*
X0042027Y0204682D01*
X0042098Y0204540D01*
X0042166Y0204397D01*
X0042230Y0204252D01*
X0042290Y0204106D01*
X0042346Y0203958D01*
X0042399Y0203809D01*
X0042448Y0203658D01*
X0042493Y0203506D01*
X0042534Y0203353D01*
X0042572Y0203200D01*
X0042605Y0203045D01*
X0042635Y0202889D01*
X0042661Y0202733D01*
X0042682Y0202576D01*
X0042700Y0202419D01*
X0042714Y0202261D01*
X0042724Y0202103D01*
X0042730Y0201945D01*
X0042732Y0201787D01*
X0042730Y0201629D01*
X0042724Y0201471D01*
X0042714Y0201313D01*
X0042700Y0201155D01*
X0042682Y0200998D01*
X0042661Y0200841D01*
X0042635Y0200685D01*
X0042605Y0200529D01*
X0042572Y0200374D01*
X0042534Y0200221D01*
X0042493Y0200068D01*
X0042448Y0199916D01*
X0042399Y0199765D01*
X0042346Y0199616D01*
X0042290Y0199468D01*
X0042230Y0199322D01*
X0042166Y0199177D01*
X0042098Y0199034D01*
X0042027Y0198892D01*
X0041953Y0198752D01*
X0041875Y0198615D01*
X0041793Y0198479D01*
X0041709Y0198345D01*
X0041620Y0198214D01*
X0041529Y0198085D01*
X0041434Y0197958D01*
X0041337Y0197833D01*
X0041236Y0197711D01*
X0041132Y0197592D01*
X0041025Y0197475D01*
X0040915Y0197361D01*
X0040802Y0197250D01*
X0040687Y0197141D01*
X0040569Y0197036D01*
X0040448Y0196934D01*
X0040325Y0196834D01*
X0040199Y0196738D01*
X0040071Y0196645D01*
X0039941Y0196555D01*
X0039808Y0196469D01*
X0039673Y0196385D01*
X0039537Y0196306D01*
X0039398Y0196229D01*
X0039257Y0196157D01*
X0039115Y0196087D01*
X0038971Y0196022D01*
X0038825Y0195960D01*
X0038678Y0195902D01*
X0038529Y0195847D01*
X0038379Y0195796D01*
X0038228Y0195749D01*
X0038076Y0195706D01*
X0037923Y0195667D01*
X0037768Y0195631D01*
X0037613Y0195600D01*
X0037457Y0195572D01*
X0037301Y0195548D01*
X0037144Y0195528D01*
X0036986Y0195512D01*
X0036829Y0195500D01*
X0036670Y0195492D01*
X0036512Y0195488D01*
X0036354Y0195488D01*
X0036196Y0195492D01*
X0036037Y0195500D01*
X0035880Y0195512D01*
X0035722Y0195528D01*
X0035565Y0195548D01*
X0035409Y0195572D01*
X0035253Y0195600D01*
X0035098Y0195631D01*
X0034943Y0195667D01*
X0034790Y0195706D01*
X0034638Y0195749D01*
X0034487Y0195796D01*
X0034337Y0195847D01*
X0034188Y0195902D01*
X0034041Y0195960D01*
X0033895Y0196022D01*
X0033751Y0196087D01*
X0033609Y0196157D01*
X0033468Y0196229D01*
X0033329Y0196306D01*
X0033193Y0196385D01*
X0033058Y0196469D01*
X0032925Y0196555D01*
X0032795Y0196645D01*
X0032667Y0196738D01*
X0032541Y0196834D01*
X0032418Y0196934D01*
X0032297Y0197036D01*
X0032179Y0197141D01*
X0032064Y0197250D01*
X0031951Y0197361D01*
X0031841Y0197475D01*
X0031734Y0197592D01*
X0031630Y0197711D01*
X0031529Y0197833D01*
X0031432Y0197958D01*
X0031337Y0198085D01*
X0031246Y0198214D01*
X0031157Y0198345D01*
X0031073Y0198479D01*
X0030991Y0198615D01*
X0030913Y0198752D01*
X0030839Y0198892D01*
X0030768Y0199034D01*
X0030700Y0199177D01*
X0030636Y0199322D01*
X0030576Y0199468D01*
X0030520Y0199616D01*
X0030467Y0199765D01*
X0030418Y0199916D01*
X0030373Y0200068D01*
X0030332Y0200221D01*
X0030294Y0200374D01*
X0030261Y0200529D01*
X0030231Y0200685D01*
X0030205Y0200841D01*
X0030184Y0200998D01*
X0030166Y0201155D01*
X0030152Y0201313D01*
X0030142Y0201471D01*
X0030136Y0201629D01*
X0030134Y0201787D01*
X0195488Y0201787D02*
X0195490Y0201945D01*
X0195496Y0202103D01*
X0195506Y0202261D01*
X0195520Y0202419D01*
X0195538Y0202576D01*
X0195559Y0202733D01*
X0195585Y0202889D01*
X0195615Y0203045D01*
X0195648Y0203200D01*
X0195686Y0203353D01*
X0195727Y0203506D01*
X0195772Y0203658D01*
X0195821Y0203809D01*
X0195874Y0203958D01*
X0195930Y0204106D01*
X0195990Y0204252D01*
X0196054Y0204397D01*
X0196122Y0204540D01*
X0196193Y0204682D01*
X0196267Y0204822D01*
X0196345Y0204959D01*
X0196427Y0205095D01*
X0196511Y0205229D01*
X0196600Y0205360D01*
X0196691Y0205489D01*
X0196786Y0205616D01*
X0196883Y0205741D01*
X0196984Y0205863D01*
X0197088Y0205982D01*
X0197195Y0206099D01*
X0197305Y0206213D01*
X0197418Y0206324D01*
X0197533Y0206433D01*
X0197651Y0206538D01*
X0197772Y0206640D01*
X0197895Y0206740D01*
X0198021Y0206836D01*
X0198149Y0206929D01*
X0198279Y0207019D01*
X0198412Y0207105D01*
X0198547Y0207189D01*
X0198683Y0207268D01*
X0198822Y0207345D01*
X0198963Y0207417D01*
X0199105Y0207487D01*
X0199249Y0207552D01*
X0199395Y0207614D01*
X0199542Y0207672D01*
X0199691Y0207727D01*
X0199841Y0207778D01*
X0199992Y0207825D01*
X0200144Y0207868D01*
X0200297Y0207907D01*
X0200452Y0207943D01*
X0200607Y0207974D01*
X0200763Y0208002D01*
X0200919Y0208026D01*
X0201076Y0208046D01*
X0201234Y0208062D01*
X0201391Y0208074D01*
X0201550Y0208082D01*
X0201708Y0208086D01*
X0201866Y0208086D01*
X0202024Y0208082D01*
X0202183Y0208074D01*
X0202340Y0208062D01*
X0202498Y0208046D01*
X0202655Y0208026D01*
X0202811Y0208002D01*
X0202967Y0207974D01*
X0203122Y0207943D01*
X0203277Y0207907D01*
X0203430Y0207868D01*
X0203582Y0207825D01*
X0203733Y0207778D01*
X0203883Y0207727D01*
X0204032Y0207672D01*
X0204179Y0207614D01*
X0204325Y0207552D01*
X0204469Y0207487D01*
X0204611Y0207417D01*
X0204752Y0207345D01*
X0204891Y0207268D01*
X0205027Y0207189D01*
X0205162Y0207105D01*
X0205295Y0207019D01*
X0205425Y0206929D01*
X0205553Y0206836D01*
X0205679Y0206740D01*
X0205802Y0206640D01*
X0205923Y0206538D01*
X0206041Y0206433D01*
X0206156Y0206324D01*
X0206269Y0206213D01*
X0206379Y0206099D01*
X0206486Y0205982D01*
X0206590Y0205863D01*
X0206691Y0205741D01*
X0206788Y0205616D01*
X0206883Y0205489D01*
X0206974Y0205360D01*
X0207063Y0205229D01*
X0207147Y0205095D01*
X0207229Y0204959D01*
X0207307Y0204822D01*
X0207381Y0204682D01*
X0207452Y0204540D01*
X0207520Y0204397D01*
X0207584Y0204252D01*
X0207644Y0204106D01*
X0207700Y0203958D01*
X0207753Y0203809D01*
X0207802Y0203658D01*
X0207847Y0203506D01*
X0207888Y0203353D01*
X0207926Y0203200D01*
X0207959Y0203045D01*
X0207989Y0202889D01*
X0208015Y0202733D01*
X0208036Y0202576D01*
X0208054Y0202419D01*
X0208068Y0202261D01*
X0208078Y0202103D01*
X0208084Y0201945D01*
X0208086Y0201787D01*
X0208084Y0201629D01*
X0208078Y0201471D01*
X0208068Y0201313D01*
X0208054Y0201155D01*
X0208036Y0200998D01*
X0208015Y0200841D01*
X0207989Y0200685D01*
X0207959Y0200529D01*
X0207926Y0200374D01*
X0207888Y0200221D01*
X0207847Y0200068D01*
X0207802Y0199916D01*
X0207753Y0199765D01*
X0207700Y0199616D01*
X0207644Y0199468D01*
X0207584Y0199322D01*
X0207520Y0199177D01*
X0207452Y0199034D01*
X0207381Y0198892D01*
X0207307Y0198752D01*
X0207229Y0198615D01*
X0207147Y0198479D01*
X0207063Y0198345D01*
X0206974Y0198214D01*
X0206883Y0198085D01*
X0206788Y0197958D01*
X0206691Y0197833D01*
X0206590Y0197711D01*
X0206486Y0197592D01*
X0206379Y0197475D01*
X0206269Y0197361D01*
X0206156Y0197250D01*
X0206041Y0197141D01*
X0205923Y0197036D01*
X0205802Y0196934D01*
X0205679Y0196834D01*
X0205553Y0196738D01*
X0205425Y0196645D01*
X0205295Y0196555D01*
X0205162Y0196469D01*
X0205027Y0196385D01*
X0204891Y0196306D01*
X0204752Y0196229D01*
X0204611Y0196157D01*
X0204469Y0196087D01*
X0204325Y0196022D01*
X0204179Y0195960D01*
X0204032Y0195902D01*
X0203883Y0195847D01*
X0203733Y0195796D01*
X0203582Y0195749D01*
X0203430Y0195706D01*
X0203277Y0195667D01*
X0203122Y0195631D01*
X0202967Y0195600D01*
X0202811Y0195572D01*
X0202655Y0195548D01*
X0202498Y0195528D01*
X0202340Y0195512D01*
X0202183Y0195500D01*
X0202024Y0195492D01*
X0201866Y0195488D01*
X0201708Y0195488D01*
X0201550Y0195492D01*
X0201391Y0195500D01*
X0201234Y0195512D01*
X0201076Y0195528D01*
X0200919Y0195548D01*
X0200763Y0195572D01*
X0200607Y0195600D01*
X0200452Y0195631D01*
X0200297Y0195667D01*
X0200144Y0195706D01*
X0199992Y0195749D01*
X0199841Y0195796D01*
X0199691Y0195847D01*
X0199542Y0195902D01*
X0199395Y0195960D01*
X0199249Y0196022D01*
X0199105Y0196087D01*
X0198963Y0196157D01*
X0198822Y0196229D01*
X0198683Y0196306D01*
X0198547Y0196385D01*
X0198412Y0196469D01*
X0198279Y0196555D01*
X0198149Y0196645D01*
X0198021Y0196738D01*
X0197895Y0196834D01*
X0197772Y0196934D01*
X0197651Y0197036D01*
X0197533Y0197141D01*
X0197418Y0197250D01*
X0197305Y0197361D01*
X0197195Y0197475D01*
X0197088Y0197592D01*
X0196984Y0197711D01*
X0196883Y0197833D01*
X0196786Y0197958D01*
X0196691Y0198085D01*
X0196600Y0198214D01*
X0196511Y0198345D01*
X0196427Y0198479D01*
X0196345Y0198615D01*
X0196267Y0198752D01*
X0196193Y0198892D01*
X0196122Y0199034D01*
X0196054Y0199177D01*
X0195990Y0199322D01*
X0195930Y0199468D01*
X0195874Y0199616D01*
X0195821Y0199765D01*
X0195772Y0199916D01*
X0195727Y0200068D01*
X0195686Y0200221D01*
X0195648Y0200374D01*
X0195615Y0200529D01*
X0195585Y0200685D01*
X0195559Y0200841D01*
X0195538Y0200998D01*
X0195520Y0201155D01*
X0195506Y0201313D01*
X0195496Y0201471D01*
X0195490Y0201629D01*
X0195488Y0201787D01*
X0206988Y0151000D02*
X0206990Y0151148D01*
X0206996Y0151296D01*
X0207006Y0151444D01*
X0207020Y0151591D01*
X0207038Y0151738D01*
X0207059Y0151884D01*
X0207085Y0152030D01*
X0207115Y0152175D01*
X0207148Y0152319D01*
X0207186Y0152462D01*
X0207227Y0152604D01*
X0207272Y0152745D01*
X0207320Y0152885D01*
X0207373Y0153024D01*
X0207429Y0153161D01*
X0207489Y0153296D01*
X0207552Y0153430D01*
X0207619Y0153562D01*
X0207690Y0153692D01*
X0207764Y0153820D01*
X0207841Y0153946D01*
X0207922Y0154070D01*
X0208006Y0154192D01*
X0208093Y0154311D01*
X0208184Y0154428D01*
X0208278Y0154543D01*
X0208374Y0154655D01*
X0208474Y0154765D01*
X0208576Y0154871D01*
X0208682Y0154975D01*
X0208790Y0155076D01*
X0208901Y0155174D01*
X0209014Y0155270D01*
X0209130Y0155362D01*
X0209248Y0155451D01*
X0209369Y0155536D01*
X0209492Y0155619D01*
X0209617Y0155698D01*
X0209744Y0155774D01*
X0209873Y0155846D01*
X0210004Y0155915D01*
X0210137Y0155980D01*
X0210272Y0156041D01*
X0210408Y0156099D01*
X0210545Y0156154D01*
X0210684Y0156204D01*
X0210825Y0156251D01*
X0210966Y0156294D01*
X0211109Y0156334D01*
X0211253Y0156369D01*
X0211397Y0156401D01*
X0211543Y0156428D01*
X0211689Y0156452D01*
X0211836Y0156472D01*
X0211983Y0156488D01*
X0212130Y0156500D01*
X0212278Y0156508D01*
X0212426Y0156512D01*
X0212574Y0156512D01*
X0212722Y0156508D01*
X0212870Y0156500D01*
X0213017Y0156488D01*
X0213164Y0156472D01*
X0213311Y0156452D01*
X0213457Y0156428D01*
X0213603Y0156401D01*
X0213747Y0156369D01*
X0213891Y0156334D01*
X0214034Y0156294D01*
X0214175Y0156251D01*
X0214316Y0156204D01*
X0214455Y0156154D01*
X0214592Y0156099D01*
X0214728Y0156041D01*
X0214863Y0155980D01*
X0214996Y0155915D01*
X0215127Y0155846D01*
X0215256Y0155774D01*
X0215383Y0155698D01*
X0215508Y0155619D01*
X0215631Y0155536D01*
X0215752Y0155451D01*
X0215870Y0155362D01*
X0215986Y0155270D01*
X0216099Y0155174D01*
X0216210Y0155076D01*
X0216318Y0154975D01*
X0216424Y0154871D01*
X0216526Y0154765D01*
X0216626Y0154655D01*
X0216722Y0154543D01*
X0216816Y0154428D01*
X0216907Y0154311D01*
X0216994Y0154192D01*
X0217078Y0154070D01*
X0217159Y0153946D01*
X0217236Y0153820D01*
X0217310Y0153692D01*
X0217381Y0153562D01*
X0217448Y0153430D01*
X0217511Y0153296D01*
X0217571Y0153161D01*
X0217627Y0153024D01*
X0217680Y0152885D01*
X0217728Y0152745D01*
X0217773Y0152604D01*
X0217814Y0152462D01*
X0217852Y0152319D01*
X0217885Y0152175D01*
X0217915Y0152030D01*
X0217941Y0151884D01*
X0217962Y0151738D01*
X0217980Y0151591D01*
X0217994Y0151444D01*
X0218004Y0151296D01*
X0218010Y0151148D01*
X0218012Y0151000D01*
X0218010Y0150852D01*
X0218004Y0150704D01*
X0217994Y0150556D01*
X0217980Y0150409D01*
X0217962Y0150262D01*
X0217941Y0150116D01*
X0217915Y0149970D01*
X0217885Y0149825D01*
X0217852Y0149681D01*
X0217814Y0149538D01*
X0217773Y0149396D01*
X0217728Y0149255D01*
X0217680Y0149115D01*
X0217627Y0148976D01*
X0217571Y0148839D01*
X0217511Y0148704D01*
X0217448Y0148570D01*
X0217381Y0148438D01*
X0217310Y0148308D01*
X0217236Y0148180D01*
X0217159Y0148054D01*
X0217078Y0147930D01*
X0216994Y0147808D01*
X0216907Y0147689D01*
X0216816Y0147572D01*
X0216722Y0147457D01*
X0216626Y0147345D01*
X0216526Y0147235D01*
X0216424Y0147129D01*
X0216318Y0147025D01*
X0216210Y0146924D01*
X0216099Y0146826D01*
X0215986Y0146730D01*
X0215870Y0146638D01*
X0215752Y0146549D01*
X0215631Y0146464D01*
X0215508Y0146381D01*
X0215383Y0146302D01*
X0215256Y0146226D01*
X0215127Y0146154D01*
X0214996Y0146085D01*
X0214863Y0146020D01*
X0214728Y0145959D01*
X0214592Y0145901D01*
X0214455Y0145846D01*
X0214316Y0145796D01*
X0214175Y0145749D01*
X0214034Y0145706D01*
X0213891Y0145666D01*
X0213747Y0145631D01*
X0213603Y0145599D01*
X0213457Y0145572D01*
X0213311Y0145548D01*
X0213164Y0145528D01*
X0213017Y0145512D01*
X0212870Y0145500D01*
X0212722Y0145492D01*
X0212574Y0145488D01*
X0212426Y0145488D01*
X0212278Y0145492D01*
X0212130Y0145500D01*
X0211983Y0145512D01*
X0211836Y0145528D01*
X0211689Y0145548D01*
X0211543Y0145572D01*
X0211397Y0145599D01*
X0211253Y0145631D01*
X0211109Y0145666D01*
X0210966Y0145706D01*
X0210825Y0145749D01*
X0210684Y0145796D01*
X0210545Y0145846D01*
X0210408Y0145901D01*
X0210272Y0145959D01*
X0210137Y0146020D01*
X0210004Y0146085D01*
X0209873Y0146154D01*
X0209744Y0146226D01*
X0209617Y0146302D01*
X0209492Y0146381D01*
X0209369Y0146464D01*
X0209248Y0146549D01*
X0209130Y0146638D01*
X0209014Y0146730D01*
X0208901Y0146826D01*
X0208790Y0146924D01*
X0208682Y0147025D01*
X0208576Y0147129D01*
X0208474Y0147235D01*
X0208374Y0147345D01*
X0208278Y0147457D01*
X0208184Y0147572D01*
X0208093Y0147689D01*
X0208006Y0147808D01*
X0207922Y0147930D01*
X0207841Y0148054D01*
X0207764Y0148180D01*
X0207690Y0148308D01*
X0207619Y0148438D01*
X0207552Y0148570D01*
X0207489Y0148704D01*
X0207429Y0148839D01*
X0207373Y0148976D01*
X0207320Y0149115D01*
X0207272Y0149255D01*
X0207227Y0149396D01*
X0207186Y0149538D01*
X0207148Y0149681D01*
X0207115Y0149825D01*
X0207085Y0149970D01*
X0207059Y0150116D01*
X0207038Y0150262D01*
X0207020Y0150409D01*
X0207006Y0150556D01*
X0206996Y0150704D01*
X0206990Y0150852D01*
X0206988Y0151000D01*
X0205331Y0119110D02*
X0205333Y0119268D01*
X0205339Y0119426D01*
X0205349Y0119584D01*
X0205363Y0119742D01*
X0205381Y0119899D01*
X0205402Y0120056D01*
X0205428Y0120212D01*
X0205458Y0120368D01*
X0205491Y0120523D01*
X0205529Y0120676D01*
X0205570Y0120829D01*
X0205615Y0120981D01*
X0205664Y0121132D01*
X0205717Y0121281D01*
X0205773Y0121429D01*
X0205833Y0121575D01*
X0205897Y0121720D01*
X0205965Y0121863D01*
X0206036Y0122005D01*
X0206110Y0122145D01*
X0206188Y0122282D01*
X0206270Y0122418D01*
X0206354Y0122552D01*
X0206443Y0122683D01*
X0206534Y0122812D01*
X0206629Y0122939D01*
X0206726Y0123064D01*
X0206827Y0123186D01*
X0206931Y0123305D01*
X0207038Y0123422D01*
X0207148Y0123536D01*
X0207261Y0123647D01*
X0207376Y0123756D01*
X0207494Y0123861D01*
X0207615Y0123963D01*
X0207738Y0124063D01*
X0207864Y0124159D01*
X0207992Y0124252D01*
X0208122Y0124342D01*
X0208255Y0124428D01*
X0208390Y0124512D01*
X0208526Y0124591D01*
X0208665Y0124668D01*
X0208806Y0124740D01*
X0208948Y0124810D01*
X0209092Y0124875D01*
X0209238Y0124937D01*
X0209385Y0124995D01*
X0209534Y0125050D01*
X0209684Y0125101D01*
X0209835Y0125148D01*
X0209987Y0125191D01*
X0210140Y0125230D01*
X0210295Y0125266D01*
X0210450Y0125297D01*
X0210606Y0125325D01*
X0210762Y0125349D01*
X0210919Y0125369D01*
X0211077Y0125385D01*
X0211234Y0125397D01*
X0211393Y0125405D01*
X0211551Y0125409D01*
X0211709Y0125409D01*
X0211867Y0125405D01*
X0212026Y0125397D01*
X0212183Y0125385D01*
X0212341Y0125369D01*
X0212498Y0125349D01*
X0212654Y0125325D01*
X0212810Y0125297D01*
X0212965Y0125266D01*
X0213120Y0125230D01*
X0213273Y0125191D01*
X0213425Y0125148D01*
X0213576Y0125101D01*
X0213726Y0125050D01*
X0213875Y0124995D01*
X0214022Y0124937D01*
X0214168Y0124875D01*
X0214312Y0124810D01*
X0214454Y0124740D01*
X0214595Y0124668D01*
X0214734Y0124591D01*
X0214870Y0124512D01*
X0215005Y0124428D01*
X0215138Y0124342D01*
X0215268Y0124252D01*
X0215396Y0124159D01*
X0215522Y0124063D01*
X0215645Y0123963D01*
X0215766Y0123861D01*
X0215884Y0123756D01*
X0215999Y0123647D01*
X0216112Y0123536D01*
X0216222Y0123422D01*
X0216329Y0123305D01*
X0216433Y0123186D01*
X0216534Y0123064D01*
X0216631Y0122939D01*
X0216726Y0122812D01*
X0216817Y0122683D01*
X0216906Y0122552D01*
X0216990Y0122418D01*
X0217072Y0122282D01*
X0217150Y0122145D01*
X0217224Y0122005D01*
X0217295Y0121863D01*
X0217363Y0121720D01*
X0217427Y0121575D01*
X0217487Y0121429D01*
X0217543Y0121281D01*
X0217596Y0121132D01*
X0217645Y0120981D01*
X0217690Y0120829D01*
X0217731Y0120676D01*
X0217769Y0120523D01*
X0217802Y0120368D01*
X0217832Y0120212D01*
X0217858Y0120056D01*
X0217879Y0119899D01*
X0217897Y0119742D01*
X0217911Y0119584D01*
X0217921Y0119426D01*
X0217927Y0119268D01*
X0217929Y0119110D01*
X0217927Y0118952D01*
X0217921Y0118794D01*
X0217911Y0118636D01*
X0217897Y0118478D01*
X0217879Y0118321D01*
X0217858Y0118164D01*
X0217832Y0118008D01*
X0217802Y0117852D01*
X0217769Y0117697D01*
X0217731Y0117544D01*
X0217690Y0117391D01*
X0217645Y0117239D01*
X0217596Y0117088D01*
X0217543Y0116939D01*
X0217487Y0116791D01*
X0217427Y0116645D01*
X0217363Y0116500D01*
X0217295Y0116357D01*
X0217224Y0116215D01*
X0217150Y0116075D01*
X0217072Y0115938D01*
X0216990Y0115802D01*
X0216906Y0115668D01*
X0216817Y0115537D01*
X0216726Y0115408D01*
X0216631Y0115281D01*
X0216534Y0115156D01*
X0216433Y0115034D01*
X0216329Y0114915D01*
X0216222Y0114798D01*
X0216112Y0114684D01*
X0215999Y0114573D01*
X0215884Y0114464D01*
X0215766Y0114359D01*
X0215645Y0114257D01*
X0215522Y0114157D01*
X0215396Y0114061D01*
X0215268Y0113968D01*
X0215138Y0113878D01*
X0215005Y0113792D01*
X0214870Y0113708D01*
X0214734Y0113629D01*
X0214595Y0113552D01*
X0214454Y0113480D01*
X0214312Y0113410D01*
X0214168Y0113345D01*
X0214022Y0113283D01*
X0213875Y0113225D01*
X0213726Y0113170D01*
X0213576Y0113119D01*
X0213425Y0113072D01*
X0213273Y0113029D01*
X0213120Y0112990D01*
X0212965Y0112954D01*
X0212810Y0112923D01*
X0212654Y0112895D01*
X0212498Y0112871D01*
X0212341Y0112851D01*
X0212183Y0112835D01*
X0212026Y0112823D01*
X0211867Y0112815D01*
X0211709Y0112811D01*
X0211551Y0112811D01*
X0211393Y0112815D01*
X0211234Y0112823D01*
X0211077Y0112835D01*
X0210919Y0112851D01*
X0210762Y0112871D01*
X0210606Y0112895D01*
X0210450Y0112923D01*
X0210295Y0112954D01*
X0210140Y0112990D01*
X0209987Y0113029D01*
X0209835Y0113072D01*
X0209684Y0113119D01*
X0209534Y0113170D01*
X0209385Y0113225D01*
X0209238Y0113283D01*
X0209092Y0113345D01*
X0208948Y0113410D01*
X0208806Y0113480D01*
X0208665Y0113552D01*
X0208526Y0113629D01*
X0208390Y0113708D01*
X0208255Y0113792D01*
X0208122Y0113878D01*
X0207992Y0113968D01*
X0207864Y0114061D01*
X0207738Y0114157D01*
X0207615Y0114257D01*
X0207494Y0114359D01*
X0207376Y0114464D01*
X0207261Y0114573D01*
X0207148Y0114684D01*
X0207038Y0114798D01*
X0206931Y0114915D01*
X0206827Y0115034D01*
X0206726Y0115156D01*
X0206629Y0115281D01*
X0206534Y0115408D01*
X0206443Y0115537D01*
X0206354Y0115668D01*
X0206270Y0115802D01*
X0206188Y0115938D01*
X0206110Y0116075D01*
X0206036Y0116215D01*
X0205965Y0116357D01*
X0205897Y0116500D01*
X0205833Y0116645D01*
X0205773Y0116791D01*
X0205717Y0116939D01*
X0205664Y0117088D01*
X0205615Y0117239D01*
X0205570Y0117391D01*
X0205529Y0117544D01*
X0205491Y0117697D01*
X0205458Y0117852D01*
X0205428Y0118008D01*
X0205402Y0118164D01*
X0205381Y0118321D01*
X0205363Y0118478D01*
X0205349Y0118636D01*
X0205339Y0118794D01*
X0205333Y0118952D01*
X0205331Y0119110D01*
X0195488Y0036433D02*
X0195490Y0036591D01*
X0195496Y0036749D01*
X0195506Y0036907D01*
X0195520Y0037065D01*
X0195538Y0037222D01*
X0195559Y0037379D01*
X0195585Y0037535D01*
X0195615Y0037691D01*
X0195648Y0037846D01*
X0195686Y0037999D01*
X0195727Y0038152D01*
X0195772Y0038304D01*
X0195821Y0038455D01*
X0195874Y0038604D01*
X0195930Y0038752D01*
X0195990Y0038898D01*
X0196054Y0039043D01*
X0196122Y0039186D01*
X0196193Y0039328D01*
X0196267Y0039468D01*
X0196345Y0039605D01*
X0196427Y0039741D01*
X0196511Y0039875D01*
X0196600Y0040006D01*
X0196691Y0040135D01*
X0196786Y0040262D01*
X0196883Y0040387D01*
X0196984Y0040509D01*
X0197088Y0040628D01*
X0197195Y0040745D01*
X0197305Y0040859D01*
X0197418Y0040970D01*
X0197533Y0041079D01*
X0197651Y0041184D01*
X0197772Y0041286D01*
X0197895Y0041386D01*
X0198021Y0041482D01*
X0198149Y0041575D01*
X0198279Y0041665D01*
X0198412Y0041751D01*
X0198547Y0041835D01*
X0198683Y0041914D01*
X0198822Y0041991D01*
X0198963Y0042063D01*
X0199105Y0042133D01*
X0199249Y0042198D01*
X0199395Y0042260D01*
X0199542Y0042318D01*
X0199691Y0042373D01*
X0199841Y0042424D01*
X0199992Y0042471D01*
X0200144Y0042514D01*
X0200297Y0042553D01*
X0200452Y0042589D01*
X0200607Y0042620D01*
X0200763Y0042648D01*
X0200919Y0042672D01*
X0201076Y0042692D01*
X0201234Y0042708D01*
X0201391Y0042720D01*
X0201550Y0042728D01*
X0201708Y0042732D01*
X0201866Y0042732D01*
X0202024Y0042728D01*
X0202183Y0042720D01*
X0202340Y0042708D01*
X0202498Y0042692D01*
X0202655Y0042672D01*
X0202811Y0042648D01*
X0202967Y0042620D01*
X0203122Y0042589D01*
X0203277Y0042553D01*
X0203430Y0042514D01*
X0203582Y0042471D01*
X0203733Y0042424D01*
X0203883Y0042373D01*
X0204032Y0042318D01*
X0204179Y0042260D01*
X0204325Y0042198D01*
X0204469Y0042133D01*
X0204611Y0042063D01*
X0204752Y0041991D01*
X0204891Y0041914D01*
X0205027Y0041835D01*
X0205162Y0041751D01*
X0205295Y0041665D01*
X0205425Y0041575D01*
X0205553Y0041482D01*
X0205679Y0041386D01*
X0205802Y0041286D01*
X0205923Y0041184D01*
X0206041Y0041079D01*
X0206156Y0040970D01*
X0206269Y0040859D01*
X0206379Y0040745D01*
X0206486Y0040628D01*
X0206590Y0040509D01*
X0206691Y0040387D01*
X0206788Y0040262D01*
X0206883Y0040135D01*
X0206974Y0040006D01*
X0207063Y0039875D01*
X0207147Y0039741D01*
X0207229Y0039605D01*
X0207307Y0039468D01*
X0207381Y0039328D01*
X0207452Y0039186D01*
X0207520Y0039043D01*
X0207584Y0038898D01*
X0207644Y0038752D01*
X0207700Y0038604D01*
X0207753Y0038455D01*
X0207802Y0038304D01*
X0207847Y0038152D01*
X0207888Y0037999D01*
X0207926Y0037846D01*
X0207959Y0037691D01*
X0207989Y0037535D01*
X0208015Y0037379D01*
X0208036Y0037222D01*
X0208054Y0037065D01*
X0208068Y0036907D01*
X0208078Y0036749D01*
X0208084Y0036591D01*
X0208086Y0036433D01*
X0208084Y0036275D01*
X0208078Y0036117D01*
X0208068Y0035959D01*
X0208054Y0035801D01*
X0208036Y0035644D01*
X0208015Y0035487D01*
X0207989Y0035331D01*
X0207959Y0035175D01*
X0207926Y0035020D01*
X0207888Y0034867D01*
X0207847Y0034714D01*
X0207802Y0034562D01*
X0207753Y0034411D01*
X0207700Y0034262D01*
X0207644Y0034114D01*
X0207584Y0033968D01*
X0207520Y0033823D01*
X0207452Y0033680D01*
X0207381Y0033538D01*
X0207307Y0033398D01*
X0207229Y0033261D01*
X0207147Y0033125D01*
X0207063Y0032991D01*
X0206974Y0032860D01*
X0206883Y0032731D01*
X0206788Y0032604D01*
X0206691Y0032479D01*
X0206590Y0032357D01*
X0206486Y0032238D01*
X0206379Y0032121D01*
X0206269Y0032007D01*
X0206156Y0031896D01*
X0206041Y0031787D01*
X0205923Y0031682D01*
X0205802Y0031580D01*
X0205679Y0031480D01*
X0205553Y0031384D01*
X0205425Y0031291D01*
X0205295Y0031201D01*
X0205162Y0031115D01*
X0205027Y0031031D01*
X0204891Y0030952D01*
X0204752Y0030875D01*
X0204611Y0030803D01*
X0204469Y0030733D01*
X0204325Y0030668D01*
X0204179Y0030606D01*
X0204032Y0030548D01*
X0203883Y0030493D01*
X0203733Y0030442D01*
X0203582Y0030395D01*
X0203430Y0030352D01*
X0203277Y0030313D01*
X0203122Y0030277D01*
X0202967Y0030246D01*
X0202811Y0030218D01*
X0202655Y0030194D01*
X0202498Y0030174D01*
X0202340Y0030158D01*
X0202183Y0030146D01*
X0202024Y0030138D01*
X0201866Y0030134D01*
X0201708Y0030134D01*
X0201550Y0030138D01*
X0201391Y0030146D01*
X0201234Y0030158D01*
X0201076Y0030174D01*
X0200919Y0030194D01*
X0200763Y0030218D01*
X0200607Y0030246D01*
X0200452Y0030277D01*
X0200297Y0030313D01*
X0200144Y0030352D01*
X0199992Y0030395D01*
X0199841Y0030442D01*
X0199691Y0030493D01*
X0199542Y0030548D01*
X0199395Y0030606D01*
X0199249Y0030668D01*
X0199105Y0030733D01*
X0198963Y0030803D01*
X0198822Y0030875D01*
X0198683Y0030952D01*
X0198547Y0031031D01*
X0198412Y0031115D01*
X0198279Y0031201D01*
X0198149Y0031291D01*
X0198021Y0031384D01*
X0197895Y0031480D01*
X0197772Y0031580D01*
X0197651Y0031682D01*
X0197533Y0031787D01*
X0197418Y0031896D01*
X0197305Y0032007D01*
X0197195Y0032121D01*
X0197088Y0032238D01*
X0196984Y0032357D01*
X0196883Y0032479D01*
X0196786Y0032604D01*
X0196691Y0032731D01*
X0196600Y0032860D01*
X0196511Y0032991D01*
X0196427Y0033125D01*
X0196345Y0033261D01*
X0196267Y0033398D01*
X0196193Y0033538D01*
X0196122Y0033680D01*
X0196054Y0033823D01*
X0195990Y0033968D01*
X0195930Y0034114D01*
X0195874Y0034262D01*
X0195821Y0034411D01*
X0195772Y0034562D01*
X0195727Y0034714D01*
X0195686Y0034867D01*
X0195648Y0035020D01*
X0195615Y0035175D01*
X0195585Y0035331D01*
X0195559Y0035487D01*
X0195538Y0035644D01*
X0195520Y0035801D01*
X0195506Y0035959D01*
X0195496Y0036117D01*
X0195490Y0036275D01*
X0195488Y0036433D01*
D11*
X0165300Y0036871D02*
X0165300Y0033134D01*
X0164366Y0032200D01*
X0162498Y0032200D01*
X0161563Y0033134D01*
X0161563Y0036871D01*
X0162498Y0037805D01*
X0164366Y0037805D01*
X0165300Y0036871D01*
X0164366Y0042700D02*
X0162498Y0042700D01*
X0161563Y0043634D01*
X0161563Y0047371D01*
X0162498Y0048305D01*
X0164366Y0048305D01*
X0165300Y0047371D01*
X0165300Y0043634D01*
X0164366Y0042700D01*
X0164366Y0053200D02*
X0162498Y0053200D01*
X0161563Y0054134D01*
X0161563Y0057871D01*
X0162498Y0058805D01*
X0164366Y0058805D01*
X0165300Y0057871D01*
X0165300Y0054134D01*
X0164366Y0053200D01*
X0165300Y0063700D02*
X0165300Y0069305D01*
X0162498Y0069305D01*
X0161563Y0068371D01*
X0161563Y0066502D01*
X0162498Y0065568D01*
X0165300Y0065568D01*
X0163432Y0065568D02*
X0161563Y0063700D01*
X0158855Y0063700D02*
X0155118Y0063700D01*
X0156986Y0066502D02*
X0158855Y0066502D01*
X0158855Y0063700D02*
X0158855Y0069305D01*
X0155118Y0069305D01*
X0152409Y0069305D02*
X0152409Y0065568D01*
X0150541Y0063700D01*
X0148672Y0065568D01*
X0148672Y0069305D01*
X0139518Y0067437D02*
X0137650Y0069305D01*
X0137650Y0063700D01*
X0139518Y0063700D02*
X0135781Y0063700D01*
X0148672Y0056937D02*
X0148672Y0053200D01*
X0148672Y0056002D02*
X0152409Y0056002D01*
X0152409Y0056937D02*
X0150541Y0058805D01*
X0148672Y0056937D01*
X0152409Y0056937D02*
X0152409Y0053200D01*
X0152409Y0048305D02*
X0149607Y0048305D01*
X0148672Y0047371D01*
X0148672Y0046437D01*
X0149607Y0045502D01*
X0152409Y0045502D01*
X0152409Y0042700D02*
X0152409Y0048305D01*
X0149607Y0045502D02*
X0148672Y0044568D01*
X0148672Y0043634D01*
X0149607Y0042700D01*
X0152409Y0042700D01*
X0151475Y0037805D02*
X0149607Y0037805D01*
X0148672Y0036871D01*
X0151475Y0037805D02*
X0152409Y0036871D01*
X0152409Y0033134D01*
X0151475Y0032200D01*
X0149607Y0032200D01*
X0148672Y0033134D01*
X0149607Y0027305D02*
X0152409Y0027305D01*
X0152409Y0021700D01*
X0149607Y0021700D01*
X0148672Y0022634D01*
X0148672Y0026371D01*
X0149607Y0027305D01*
X0161563Y0026371D02*
X0161563Y0022634D01*
X0162498Y0021700D01*
X0164366Y0021700D01*
X0165300Y0022634D01*
X0165300Y0026371D01*
X0164366Y0027305D01*
X0162498Y0027305D01*
X0161563Y0026371D01*
X0161568Y0166581D02*
X0161568Y0169384D01*
X0162502Y0170318D01*
X0164371Y0170318D01*
X0165305Y0169384D01*
X0165305Y0166581D01*
X0159700Y0166581D01*
X0159700Y0173027D02*
X0161568Y0174895D01*
X0159700Y0176763D01*
X0165305Y0176763D01*
X0165305Y0179472D02*
X0165305Y0182275D01*
X0164371Y0183209D01*
X0162502Y0183209D01*
X0161568Y0182275D01*
X0161568Y0179472D01*
X0159700Y0179472D02*
X0165305Y0179472D01*
X0161568Y0181341D02*
X0159700Y0183209D01*
X0162502Y0185918D02*
X0162502Y0189654D01*
X0162502Y0192363D02*
X0162502Y0195166D01*
X0161568Y0196100D01*
X0160634Y0196100D01*
X0159700Y0195166D01*
X0159700Y0192363D01*
X0165305Y0192363D01*
X0165305Y0195166D01*
X0164371Y0196100D01*
X0163437Y0196100D01*
X0162502Y0195166D01*
X0161568Y0198809D02*
X0161568Y0201611D01*
X0162502Y0202545D01*
X0164371Y0202545D01*
X0165305Y0201611D01*
X0165305Y0198809D01*
X0159700Y0198809D01*
X0161568Y0200677D02*
X0159700Y0202545D01*
X0159700Y0205254D02*
X0159700Y0208057D01*
X0160634Y0208991D01*
X0164371Y0208991D01*
X0165305Y0208057D01*
X0165305Y0205254D01*
X0159700Y0205254D01*
X0159700Y0173027D02*
X0165305Y0173027D01*
X0055300Y0221700D02*
X0052498Y0221700D01*
X0051563Y0222634D01*
X0051563Y0223568D01*
X0052498Y0224502D01*
X0055300Y0224502D01*
X0055300Y0221700D02*
X0055300Y0227305D01*
X0052498Y0227305D01*
X0051563Y0226371D01*
X0051563Y0225437D01*
X0052498Y0224502D01*
X0048855Y0222634D02*
X0047920Y0221700D01*
X0046052Y0221700D01*
X0045118Y0222634D01*
X0045118Y0226371D01*
X0046052Y0227305D01*
X0047920Y0227305D01*
X0048855Y0226371D01*
X0048855Y0222634D01*
X0042409Y0227305D02*
X0038672Y0227305D01*
X0040541Y0227305D02*
X0040541Y0221700D01*
X0035964Y0227305D02*
X0032227Y0227305D01*
X0034095Y0227305D02*
X0034095Y0221700D01*
X0029518Y0222634D02*
X0029518Y0226371D01*
X0028584Y0227305D01*
X0026716Y0227305D01*
X0025781Y0226371D01*
X0025781Y0222634D01*
X0026716Y0221700D01*
X0028584Y0221700D01*
X0029518Y0222634D01*
X0023073Y0221700D02*
X0023073Y0227305D01*
X0021204Y0225437D01*
X0019336Y0227305D01*
X0019336Y0221700D01*
D12*
X0066969Y0169378D03*
X0066969Y0162685D03*
X0084780Y0163866D03*
X0084780Y0170559D03*
X0093906Y0198433D03*
X0093906Y0205126D03*
X0136654Y0116000D03*
X0143346Y0116000D03*
X0142654Y0106000D03*
X0149346Y0106000D03*
X0151000Y0099346D03*
X0151000Y0092654D03*
X0157654Y0091000D03*
X0164346Y0091000D03*
X0164346Y0101000D03*
X0157654Y0101000D03*
X0114346Y0076000D03*
X0107654Y0076000D03*
X0099346Y0076000D03*
X0092654Y0076000D03*
X0094220Y0066126D03*
X0094220Y0059433D03*
X0111654Y0050000D03*
X0118346Y0050000D03*
D13*
X0144780Y0154701D03*
X0144780Y0165724D03*
D14*
X0124567Y0145287D03*
X0117874Y0145287D03*
X0097280Y0148559D03*
X0097280Y0141866D03*
X0094780Y0163866D03*
X0094780Y0170559D03*
X0161000Y0114346D03*
X0161000Y0107654D03*
X0175000Y0099346D03*
X0175000Y0092654D03*
X0183500Y0092654D03*
X0183500Y0099346D03*
X0181000Y0107654D03*
X0181000Y0114346D03*
X0183500Y0084346D03*
X0183500Y0077654D03*
D15*
X0087988Y0149433D03*
X0070665Y0149433D03*
X0079031Y0090803D03*
X0079031Y0073480D03*
D16*
X0167260Y0115331D03*
X0174740Y0115331D03*
X0171000Y0106669D03*
D17*
X0142831Y0126000D03*
X0134169Y0122260D03*
X0134169Y0129740D03*
D18*
X0199969Y0087535D02*
X0205969Y0087535D01*
X0205969Y0077535D02*
X0199969Y0077535D01*
D19*
X0154898Y0120724D03*
X0154898Y0125724D03*
X0154898Y0130724D03*
X0154898Y0135724D03*
X0154898Y0140724D03*
X0149780Y0140724D03*
X0149780Y0135724D03*
X0149780Y0130724D03*
X0149780Y0125724D03*
X0149780Y0120724D03*
D20*
X0103500Y0146000D03*
D21*
X0105480Y0152713D03*
X0105480Y0157713D03*
X0105480Y0162713D03*
X0105480Y0167713D03*
X0124080Y0167713D03*
X0124080Y0162713D03*
X0124080Y0157713D03*
X0124080Y0152713D03*
D22*
X0086000Y0113559D03*
X0086000Y0108441D03*
X0096000Y0088559D03*
X0096000Y0083441D03*
D23*
X0095692Y0123827D03*
X0095692Y0133827D03*
X0085692Y0133827D03*
X0075692Y0133827D03*
X0065692Y0133827D03*
X0055692Y0133827D03*
X0055692Y0123827D03*
X0065692Y0123827D03*
X0075692Y0123827D03*
X0085692Y0123827D03*
D24*
X0059898Y0088008D02*
X0052811Y0088008D01*
X0052811Y0078165D02*
X0059898Y0078165D01*
X0040213Y0078165D02*
X0033126Y0078165D01*
X0033126Y0088008D02*
X0040213Y0088008D01*
D25*
X0186000Y0131000D03*
D26*
X0188500Y0146000D03*
X0198500Y0146000D03*
X0193500Y0156000D03*
X0203500Y0156000D03*
X0048500Y0156000D03*
X0038500Y0156000D03*
X0033500Y0146000D03*
X0043500Y0146000D03*
D27*
X0051700Y0108500D03*
X0051700Y0103500D03*
X0051700Y0098500D03*
X0064300Y0098500D03*
X0064300Y0103500D03*
X0064300Y0108500D03*
D28*
X0067570Y0111400D02*
X0061030Y0111400D01*
X0059800Y0110170D01*
X0059800Y0106830D01*
X0060630Y0106000D01*
X0059800Y0105170D01*
X0059800Y0101830D01*
X0060630Y0101000D01*
X0059800Y0100170D01*
X0059800Y0096830D01*
X0061030Y0095600D01*
X0067570Y0095600D01*
X0068800Y0096830D01*
X0068800Y0100170D01*
X0067970Y0101000D01*
X0068800Y0101830D01*
X0068800Y0104533D01*
X0069633Y0103700D01*
X0070199Y0103700D01*
X0075357Y0098541D01*
X0076423Y0098100D01*
X0082799Y0098100D01*
X0083271Y0097628D01*
X0073437Y0097628D01*
X0072207Y0096397D01*
X0072207Y0090908D01*
X0064805Y0090908D01*
X0064682Y0091205D01*
X0063094Y0092792D01*
X0061020Y0093651D01*
X0051688Y0093651D01*
X0049614Y0092792D01*
X0048027Y0091205D01*
X0047904Y0090908D01*
X0045120Y0090908D01*
X0044997Y0091205D01*
X0043409Y0092792D01*
X0041335Y0093651D01*
X0032003Y0093651D01*
X0029929Y0092792D01*
X0028342Y0091205D01*
X0027483Y0089130D01*
X0027483Y0086885D01*
X0028342Y0084811D01*
X0029929Y0083224D01*
X0031041Y0082763D01*
X0030483Y0082479D01*
X0029840Y0082012D01*
X0029279Y0081451D01*
X0028813Y0080809D01*
X0028452Y0080101D01*
X0028207Y0079346D01*
X0028099Y0078665D01*
X0036169Y0078665D01*
X0036169Y0077665D01*
X0037169Y0077665D01*
X0037169Y0073122D01*
X0040610Y0073122D01*
X0041394Y0073246D01*
X0042149Y0073492D01*
X0042856Y0073852D01*
X0043498Y0074319D01*
X0044059Y0074880D01*
X0044526Y0075522D01*
X0044886Y0076229D01*
X0045132Y0076984D01*
X0045240Y0077665D01*
X0037169Y0077665D01*
X0037169Y0078665D01*
X0045240Y0078665D01*
X0045132Y0079346D01*
X0044886Y0080101D01*
X0044526Y0080809D01*
X0044059Y0081451D01*
X0043498Y0082012D01*
X0042856Y0082479D01*
X0042298Y0082763D01*
X0043409Y0083224D01*
X0044997Y0084811D01*
X0045120Y0085108D01*
X0047904Y0085108D01*
X0048027Y0084811D01*
X0049614Y0083224D01*
X0050726Y0082763D01*
X0050168Y0082479D01*
X0049526Y0082012D01*
X0048964Y0081451D01*
X0048498Y0080809D01*
X0048137Y0080101D01*
X0047892Y0079346D01*
X0047784Y0078665D01*
X0055854Y0078665D01*
X0055854Y0077665D01*
X0056854Y0077665D01*
X0056854Y0073122D01*
X0060295Y0073122D01*
X0061079Y0073246D01*
X0061834Y0073492D01*
X0062541Y0073852D01*
X0063183Y0074319D01*
X0063744Y0074880D01*
X0064211Y0075522D01*
X0064571Y0076229D01*
X0064817Y0076984D01*
X0064925Y0077665D01*
X0056854Y0077665D01*
X0056854Y0078665D01*
X0064925Y0078665D01*
X0064817Y0079346D01*
X0064571Y0080101D01*
X0064211Y0080809D01*
X0063744Y0081451D01*
X0063183Y0082012D01*
X0062541Y0082479D01*
X0061983Y0082763D01*
X0063094Y0083224D01*
X0064682Y0084811D01*
X0064805Y0085108D01*
X0072308Y0085108D01*
X0073437Y0083979D01*
X0084100Y0083979D01*
X0084100Y0080305D01*
X0073437Y0080305D01*
X0072207Y0079075D01*
X0072207Y0076300D01*
X0069633Y0076300D01*
X0067700Y0074367D01*
X0067700Y0071633D01*
X0068333Y0071000D01*
X0023500Y0071000D01*
X0023500Y0098500D01*
X0046000Y0098500D01*
X0046000Y0101700D01*
X0046623Y0101700D01*
X0047027Y0101296D01*
X0047983Y0100900D01*
X0048130Y0100900D01*
X0048430Y0100600D01*
X0048552Y0100600D01*
X0048379Y0100500D01*
X0048100Y0100221D01*
X0047902Y0099879D01*
X0047800Y0099497D01*
X0047800Y0098500D01*
X0051700Y0098500D01*
X0050500Y0098500D01*
X0047000Y0095000D01*
X0029000Y0095000D01*
X0026000Y0092000D01*
X0026000Y0080000D01*
X0027835Y0078165D01*
X0036669Y0078165D01*
X0036169Y0077885D02*
X0023500Y0077885D01*
X0023500Y0076887D02*
X0028239Y0076887D01*
X0028207Y0076984D02*
X0028452Y0076229D01*
X0028813Y0075522D01*
X0029279Y0074880D01*
X0029840Y0074319D01*
X0030483Y0073852D01*
X0031190Y0073492D01*
X0031945Y0073246D01*
X0032729Y0073122D01*
X0036169Y0073122D01*
X0036169Y0077665D01*
X0028099Y0077665D01*
X0028207Y0076984D01*
X0028626Y0075888D02*
X0023500Y0075888D01*
X0023500Y0074890D02*
X0029272Y0074890D01*
X0030428Y0073891D02*
X0023500Y0073891D01*
X0023500Y0072893D02*
X0067700Y0072893D01*
X0067700Y0073891D02*
X0062595Y0073891D01*
X0063752Y0074890D02*
X0068223Y0074890D01*
X0069221Y0075888D02*
X0064398Y0075888D01*
X0064785Y0076887D02*
X0072207Y0076887D01*
X0072207Y0077885D02*
X0056854Y0077885D01*
X0056854Y0076887D02*
X0055854Y0076887D01*
X0055854Y0077665D02*
X0055854Y0073122D01*
X0052414Y0073122D01*
X0051630Y0073246D01*
X0050875Y0073492D01*
X0050168Y0073852D01*
X0049526Y0074319D01*
X0048964Y0074880D01*
X0048498Y0075522D01*
X0048137Y0076229D01*
X0047892Y0076984D01*
X0047784Y0077665D01*
X0055854Y0077665D01*
X0055854Y0077885D02*
X0037169Y0077885D01*
X0037169Y0076887D02*
X0036169Y0076887D01*
X0036169Y0075888D02*
X0037169Y0075888D01*
X0037169Y0074890D02*
X0036169Y0074890D01*
X0036169Y0073891D02*
X0037169Y0073891D01*
X0042910Y0073891D02*
X0050114Y0073891D01*
X0048957Y0074890D02*
X0044067Y0074890D01*
X0044713Y0075888D02*
X0048311Y0075888D01*
X0047924Y0076887D02*
X0045100Y0076887D01*
X0045205Y0078884D02*
X0047819Y0078884D01*
X0048066Y0079882D02*
X0044958Y0079882D01*
X0044473Y0080881D02*
X0048550Y0080881D01*
X0049393Y0081879D02*
X0043631Y0081879D01*
X0042574Y0082878D02*
X0050449Y0082878D01*
X0048962Y0083876D02*
X0044062Y0083876D01*
X0045023Y0084875D02*
X0048000Y0084875D01*
X0048687Y0091865D02*
X0044337Y0091865D01*
X0043238Y0092863D02*
X0049786Y0092863D01*
X0049103Y0096200D02*
X0051700Y0096200D01*
X0054297Y0096200D01*
X0054679Y0096302D01*
X0055021Y0096500D01*
X0055300Y0096779D01*
X0055498Y0097121D01*
X0055600Y0097503D01*
X0055600Y0098500D01*
X0055600Y0099497D01*
X0055498Y0099879D01*
X0055300Y0100221D01*
X0055021Y0100500D01*
X0054848Y0100600D01*
X0054970Y0100600D01*
X0056200Y0101830D01*
X0056200Y0105170D01*
X0055370Y0106000D01*
X0056200Y0106830D01*
X0056200Y0110170D01*
X0054970Y0111400D01*
X0048430Y0111400D01*
X0047200Y0110170D01*
X0047200Y0108300D01*
X0046000Y0108300D01*
X0046000Y0141000D01*
X0021000Y0141000D01*
X0021000Y0163500D01*
X0051899Y0163500D01*
X0048899Y0160500D01*
X0047605Y0160500D01*
X0045951Y0159815D01*
X0044685Y0158549D01*
X0044000Y0156895D01*
X0044000Y0155105D01*
X0044685Y0153451D01*
X0045951Y0152185D01*
X0047605Y0151500D01*
X0049395Y0151500D01*
X0049488Y0151539D01*
X0049488Y0149406D01*
X0050708Y0146462D01*
X0052962Y0144208D01*
X0055906Y0142988D01*
X0059094Y0142988D01*
X0062038Y0144208D01*
X0063841Y0146011D01*
X0063841Y0143839D01*
X0065071Y0142609D01*
X0073389Y0142609D01*
X0076456Y0139541D01*
X0077522Y0139100D01*
X0080233Y0139100D01*
X0080633Y0138700D01*
X0083367Y0138700D01*
X0085000Y0140333D01*
X0086633Y0138700D01*
X0089367Y0138700D01*
X0091300Y0140633D01*
X0091300Y0142609D01*
X0093582Y0142609D01*
X0093614Y0142640D01*
X0093614Y0142350D01*
X0096795Y0142350D01*
X0096795Y0141382D01*
X0093614Y0141382D01*
X0093614Y0139700D01*
X0093716Y0139319D01*
X0093914Y0138977D01*
X0094193Y0138697D01*
X0094535Y0138500D01*
X0094917Y0138398D01*
X0096795Y0138398D01*
X0096795Y0141382D01*
X0097764Y0141382D01*
X0097764Y0142350D01*
X0100644Y0142350D01*
X0100894Y0142100D01*
X0102585Y0141400D01*
X0104415Y0141400D01*
X0106106Y0142100D01*
X0107400Y0143394D01*
X0108100Y0145085D01*
X0108100Y0146728D01*
X0108380Y0147403D01*
X0108380Y0149513D01*
X0110249Y0149513D01*
X0111480Y0150743D01*
X0111480Y0154419D01*
X0112100Y0153799D01*
X0112100Y0147585D01*
X0112541Y0146519D01*
X0113609Y0145452D01*
X0113609Y0142449D01*
X0114839Y0141219D01*
X0120909Y0141219D01*
X0121689Y0141998D01*
X0121823Y0141921D01*
X0122204Y0141819D01*
X0124083Y0141819D01*
X0124083Y0144803D01*
X0125051Y0144803D01*
X0125051Y0141819D01*
X0126930Y0141819D01*
X0127311Y0141921D01*
X0127653Y0142119D01*
X0127933Y0142398D01*
X0128130Y0142740D01*
X0128232Y0143121D01*
X0128232Y0144803D01*
X0125051Y0144803D01*
X0125051Y0145772D01*
X0124083Y0145772D01*
X0124083Y0148756D01*
X0122204Y0148756D01*
X0121823Y0148654D01*
X0121689Y0148576D01*
X0120909Y0149356D01*
X0117907Y0149356D01*
X0117900Y0149363D01*
X0117900Y0155577D01*
X0117458Y0156643D01*
X0116643Y0157458D01*
X0113930Y0160171D01*
X0112864Y0160613D01*
X0111349Y0160613D01*
X0111480Y0160743D01*
X0111480Y0164682D01*
X0110949Y0165213D01*
X0111480Y0165743D01*
X0111480Y0169682D01*
X0110249Y0170913D01*
X0100710Y0170913D01*
X0100410Y0170613D01*
X0099045Y0170613D01*
X0099045Y0173397D01*
X0097815Y0174628D01*
X0091744Y0174628D01*
X0090576Y0173459D01*
X0088848Y0173459D01*
X0088848Y0173594D01*
X0087618Y0174824D01*
X0081941Y0174824D01*
X0080711Y0173594D01*
X0080711Y0173347D01*
X0079916Y0173018D01*
X0079101Y0172202D01*
X0076541Y0169643D01*
X0076100Y0168577D01*
X0076100Y0157423D01*
X0076541Y0156357D01*
X0077357Y0155541D01*
X0081164Y0151735D01*
X0081164Y0145300D01*
X0080633Y0145300D01*
X0080233Y0144900D01*
X0079300Y0144900D01*
X0077490Y0146710D01*
X0077490Y0155027D01*
X0076260Y0156257D01*
X0073565Y0156257D01*
X0073565Y0159565D01*
X0073124Y0160631D01*
X0071037Y0162718D01*
X0071037Y0163500D01*
X0073500Y0163500D01*
X0073500Y0216000D01*
X0118500Y0226000D01*
X0166000Y0213500D01*
X0166000Y0211321D01*
X0165957Y0211365D01*
X0164928Y0211791D01*
X0160077Y0211791D01*
X0159048Y0211365D01*
X0158260Y0210577D01*
X0157326Y0209643D01*
X0156900Y0208614D01*
X0156900Y0204697D01*
X0157230Y0203900D01*
X0156900Y0203102D01*
X0156900Y0201988D01*
X0157326Y0200959D01*
X0157608Y0200677D01*
X0157326Y0200395D01*
X0156900Y0199366D01*
X0156900Y0198252D01*
X0157326Y0197223D01*
X0157562Y0196987D01*
X0157326Y0196752D01*
X0156900Y0195723D01*
X0156900Y0191806D01*
X0157326Y0190777D01*
X0158114Y0189990D01*
X0159143Y0189563D01*
X0159702Y0189563D01*
X0159702Y0186009D01*
X0159143Y0186009D01*
X0158114Y0185583D01*
X0157326Y0184795D01*
X0156900Y0183766D01*
X0156900Y0182652D01*
X0157326Y0181623D01*
X0157608Y0181341D01*
X0157326Y0181059D01*
X0156900Y0180029D01*
X0156900Y0178915D01*
X0157230Y0178118D01*
X0156900Y0177320D01*
X0156900Y0176206D01*
X0157326Y0175177D01*
X0157608Y0174895D01*
X0157326Y0174613D01*
X0156900Y0173584D01*
X0156900Y0172470D01*
X0157326Y0171441D01*
X0158114Y0170653D01*
X0158924Y0170318D01*
X0158768Y0169941D01*
X0158768Y0169226D01*
X0158114Y0168955D01*
X0157326Y0168168D01*
X0156900Y0167138D01*
X0156900Y0166024D01*
X0157326Y0164995D01*
X0158114Y0164208D01*
X0159143Y0163781D01*
X0165862Y0163781D01*
X0166000Y0163839D01*
X0166000Y0163500D01*
X0218500Y0163500D01*
X0218500Y0156330D01*
X0217038Y0157792D01*
X0214094Y0159012D01*
X0210906Y0159012D01*
X0207962Y0157792D01*
X0207726Y0157556D01*
X0207315Y0158549D01*
X0206049Y0159815D01*
X0204395Y0160500D01*
X0202605Y0160500D01*
X0200951Y0159815D01*
X0199685Y0158549D01*
X0199000Y0156895D01*
X0199000Y0155105D01*
X0199685Y0153451D01*
X0200600Y0152536D01*
X0200600Y0150001D01*
X0199395Y0150500D01*
X0197605Y0150500D01*
X0195951Y0149815D01*
X0194685Y0148549D01*
X0194000Y0146895D01*
X0194000Y0145105D01*
X0194685Y0143451D01*
X0195236Y0142900D01*
X0192423Y0142900D01*
X0192173Y0142797D01*
X0191870Y0143100D01*
X0191115Y0143100D01*
X0191529Y0143514D01*
X0191956Y0144153D01*
X0192250Y0144862D01*
X0192400Y0145616D01*
X0192400Y0145700D01*
X0188800Y0145700D01*
X0188800Y0146300D01*
X0188200Y0146300D01*
X0188200Y0149900D01*
X0188116Y0149900D01*
X0187362Y0149750D01*
X0186653Y0149456D01*
X0186014Y0149029D01*
X0185471Y0148486D01*
X0185044Y0147847D01*
X0184750Y0147138D01*
X0184600Y0146384D01*
X0184600Y0146300D01*
X0188200Y0146300D01*
X0188200Y0145700D01*
X0184600Y0145700D01*
X0184600Y0145616D01*
X0184750Y0144862D01*
X0185044Y0144153D01*
X0185471Y0143514D01*
X0185885Y0143100D01*
X0180900Y0143100D01*
X0180900Y0148799D01*
X0183201Y0151100D01*
X0183233Y0151100D01*
X0183633Y0150700D01*
X0186367Y0150700D01*
X0188300Y0152633D01*
X0188300Y0155367D01*
X0186367Y0157300D01*
X0183633Y0157300D01*
X0183233Y0156900D01*
X0181423Y0156900D01*
X0180357Y0156458D01*
X0176357Y0152458D01*
X0175541Y0151643D01*
X0175100Y0150577D01*
X0175100Y0142767D01*
X0174700Y0142367D01*
X0174700Y0139633D01*
X0176633Y0137700D01*
X0178900Y0137700D01*
X0178900Y0123201D01*
X0178643Y0123458D01*
X0177577Y0123900D01*
X0171423Y0123900D01*
X0170357Y0123458D01*
X0167085Y0120187D01*
X0164421Y0120187D01*
X0163191Y0118956D01*
X0163191Y0118415D01*
X0161033Y0118415D01*
X0158376Y0121072D01*
X0158376Y0143366D01*
X0157145Y0144596D01*
X0152697Y0144596D01*
X0155643Y0147541D01*
X0156458Y0148357D01*
X0156900Y0149423D01*
X0156900Y0164577D01*
X0156458Y0165643D01*
X0153643Y0168458D01*
X0152577Y0168900D01*
X0152194Y0168900D01*
X0152194Y0169744D01*
X0150964Y0170974D01*
X0138595Y0170974D01*
X0138233Y0170613D01*
X0129149Y0170613D01*
X0128849Y0170913D01*
X0119310Y0170913D01*
X0118080Y0169682D01*
X0118080Y0165743D01*
X0118610Y0165213D01*
X0118080Y0164682D01*
X0118080Y0160743D01*
X0118610Y0160213D01*
X0118080Y0159682D01*
X0118080Y0155743D01*
X0119034Y0154788D01*
X0118979Y0154734D01*
X0118782Y0154392D01*
X0118680Y0154010D01*
X0118680Y0152763D01*
X0124029Y0152763D01*
X0124029Y0152663D01*
X0118680Y0152663D01*
X0118680Y0151415D01*
X0118782Y0151034D01*
X0118979Y0150692D01*
X0119259Y0150412D01*
X0119601Y0150215D01*
X0119982Y0150113D01*
X0124030Y0150113D01*
X0124030Y0152663D01*
X0124130Y0152663D01*
X0124130Y0152763D01*
X0129480Y0152763D01*
X0129480Y0154010D01*
X0129377Y0154392D01*
X0129180Y0154734D01*
X0129125Y0154788D01*
X0129149Y0154813D01*
X0133289Y0154813D01*
X0134355Y0155254D01*
X0135643Y0156541D01*
X0136458Y0157357D01*
X0136900Y0158423D01*
X0136900Y0164813D01*
X0137365Y0164813D01*
X0137365Y0161705D01*
X0138595Y0160475D01*
X0150964Y0160475D01*
X0151100Y0160610D01*
X0151100Y0158966D01*
X0151016Y0159051D01*
X0150673Y0159248D01*
X0150292Y0159350D01*
X0145279Y0159350D01*
X0145279Y0155201D01*
X0144280Y0155201D01*
X0144280Y0159350D01*
X0139267Y0159350D01*
X0138886Y0159248D01*
X0138544Y0159051D01*
X0138264Y0158771D01*
X0138067Y0158429D01*
X0137965Y0158048D01*
X0137965Y0155201D01*
X0144279Y0155201D01*
X0144279Y0154201D01*
X0137965Y0154201D01*
X0137965Y0151354D01*
X0138067Y0150972D01*
X0138264Y0150630D01*
X0138544Y0150351D01*
X0138886Y0150153D01*
X0139267Y0150051D01*
X0144280Y0150051D01*
X0144280Y0154201D01*
X0145279Y0154201D01*
X0145279Y0150051D01*
X0149950Y0150051D01*
X0148137Y0148238D01*
X0147321Y0147422D01*
X0146880Y0146356D01*
X0146880Y0143944D01*
X0146302Y0143366D01*
X0146302Y0136900D01*
X0130423Y0136900D01*
X0129357Y0136458D01*
X0128541Y0135643D01*
X0126541Y0133643D01*
X0126100Y0132577D01*
X0126100Y0119423D01*
X0126541Y0118357D01*
X0127116Y0117783D01*
X0125700Y0116367D01*
X0125700Y0113633D01*
X0127633Y0111700D01*
X0128623Y0111700D01*
X0130796Y0109527D01*
X0131527Y0108796D01*
X0132483Y0108400D01*
X0135933Y0108400D01*
X0136633Y0107700D01*
X0138585Y0107700D01*
X0138585Y0102965D01*
X0139815Y0101735D01*
X0142700Y0101735D01*
X0142700Y0099633D01*
X0144633Y0097700D01*
X0146931Y0097700D01*
X0146931Y0096311D01*
X0146943Y0096300D01*
X0144633Y0096300D01*
X0142700Y0094367D01*
X0142700Y0091633D01*
X0144633Y0089700D01*
X0146931Y0089700D01*
X0146931Y0089618D01*
X0148162Y0088388D01*
X0153585Y0088388D01*
X0153585Y0087965D01*
X0154650Y0086900D01*
X0132567Y0086900D01*
X0133300Y0087633D01*
X0133300Y0090367D01*
X0131367Y0092300D01*
X0130377Y0092300D01*
X0119300Y0103377D01*
X0119300Y0104367D01*
X0117367Y0106300D01*
X0114633Y0106300D01*
X0112700Y0104367D01*
X0112700Y0101633D01*
X0114633Y0099700D01*
X0115623Y0099700D01*
X0126700Y0088623D01*
X0126700Y0087633D01*
X0127433Y0086900D01*
X0127201Y0086900D01*
X0126300Y0087801D01*
X0126300Y0088367D01*
X0124367Y0090300D01*
X0121633Y0090300D01*
X0119700Y0088367D01*
X0119700Y0085633D01*
X0121433Y0083900D01*
X0109423Y0083900D01*
X0108357Y0083458D01*
X0107541Y0082643D01*
X0105195Y0080296D01*
X0105182Y0080265D01*
X0104815Y0080265D01*
X0103585Y0079035D01*
X0103585Y0078900D01*
X0103415Y0078900D01*
X0103415Y0079035D01*
X0102246Y0080204D01*
X0102246Y0080671D01*
X0101805Y0081737D01*
X0100989Y0082553D01*
X0099872Y0083670D01*
X0099872Y0085689D01*
X0099560Y0086000D01*
X0099872Y0086311D01*
X0099872Y0090807D01*
X0099173Y0091506D01*
X0099300Y0091633D01*
X0099300Y0094367D01*
X0098900Y0094767D01*
X0098900Y0099018D01*
X0098458Y0100084D01*
X0089872Y0108670D01*
X0089872Y0110689D01*
X0089560Y0111000D01*
X0089872Y0111311D01*
X0089872Y0115807D01*
X0088641Y0117037D01*
X0088592Y0117037D01*
X0088592Y0119514D01*
X0090692Y0121614D01*
X0093579Y0118727D01*
X0097804Y0118727D01*
X0100792Y0121714D01*
X0100792Y0125939D01*
X0100631Y0126100D01*
X0113233Y0126100D01*
X0113633Y0125700D01*
X0116367Y0125700D01*
X0118300Y0127633D01*
X0118300Y0130367D01*
X0116367Y0132300D01*
X0113633Y0132300D01*
X0113233Y0131900D01*
X0100129Y0131900D01*
X0100192Y0131963D01*
X0100192Y0133327D01*
X0096192Y0133327D01*
X0096192Y0134327D01*
X0095192Y0134327D01*
X0095192Y0138327D01*
X0093828Y0138327D01*
X0091192Y0135691D01*
X0091192Y0134327D01*
X0095192Y0134327D01*
X0095192Y0133327D01*
X0091192Y0133327D01*
X0091192Y0131963D01*
X0091255Y0131900D01*
X0090129Y0131900D01*
X0090192Y0131963D01*
X0090192Y0133327D01*
X0086192Y0133327D01*
X0086192Y0134327D01*
X0085192Y0134327D01*
X0085192Y0138327D01*
X0083828Y0138327D01*
X0081192Y0135691D01*
X0081192Y0134327D01*
X0085192Y0134327D01*
X0085192Y0133327D01*
X0081192Y0133327D01*
X0081192Y0131963D01*
X0081255Y0131900D01*
X0080129Y0131900D01*
X0080192Y0131963D01*
X0080192Y0133327D01*
X0076192Y0133327D01*
X0076192Y0134327D01*
X0075192Y0134327D01*
X0075192Y0138327D01*
X0073828Y0138327D01*
X0071192Y0135691D01*
X0071192Y0134327D01*
X0075192Y0134327D01*
X0075192Y0133327D01*
X0071192Y0133327D01*
X0071192Y0131963D01*
X0071255Y0131900D01*
X0070129Y0131900D01*
X0070192Y0131963D01*
X0070192Y0133327D01*
X0066192Y0133327D01*
X0066192Y0134327D01*
X0065192Y0134327D01*
X0065192Y0138327D01*
X0063828Y0138327D01*
X0061192Y0135691D01*
X0061192Y0134327D01*
X0065192Y0134327D01*
X0065192Y0133327D01*
X0061192Y0133327D01*
X0061192Y0132428D01*
X0060792Y0132828D01*
X0060792Y0135939D01*
X0057804Y0138927D01*
X0053579Y0138927D01*
X0050592Y0135939D01*
X0050592Y0131714D01*
X0053479Y0128827D01*
X0050592Y0125939D01*
X0050592Y0121714D01*
X0053579Y0118727D01*
X0057804Y0118727D01*
X0060692Y0121614D01*
X0063579Y0118727D01*
X0067804Y0118727D01*
X0070692Y0121614D01*
X0073579Y0118727D01*
X0077804Y0118727D01*
X0080692Y0121614D01*
X0082792Y0119514D01*
X0082792Y0116470D01*
X0082128Y0115807D01*
X0082128Y0111311D01*
X0082440Y0111000D01*
X0082128Y0110689D01*
X0082128Y0106193D01*
X0083358Y0104963D01*
X0085377Y0104963D01*
X0093100Y0097240D01*
X0093100Y0094767D01*
X0092700Y0094367D01*
X0092700Y0091633D01*
X0092827Y0091506D01*
X0092128Y0090807D01*
X0092128Y0086311D01*
X0092440Y0086000D01*
X0092128Y0085689D01*
X0092128Y0081193D01*
X0093056Y0080265D01*
X0089900Y0080265D01*
X0089900Y0098577D01*
X0089458Y0099643D01*
X0088643Y0100458D01*
X0085643Y0103458D01*
X0084577Y0103900D01*
X0078201Y0103900D01*
X0074300Y0107801D01*
X0074300Y0108367D01*
X0072367Y0110300D01*
X0069633Y0110300D01*
X0068800Y0109467D01*
X0068800Y0110170D01*
X0067570Y0111400D01*
X0068134Y0110836D02*
X0082276Y0110836D01*
X0082128Y0109838D02*
X0072829Y0109838D01*
X0073828Y0108839D02*
X0082128Y0108839D01*
X0082128Y0107841D02*
X0074300Y0107841D01*
X0075259Y0106842D02*
X0082128Y0106842D01*
X0082478Y0105844D02*
X0076258Y0105844D01*
X0077256Y0104845D02*
X0085495Y0104845D01*
X0084706Y0103847D02*
X0086493Y0103847D01*
X0086253Y0102848D02*
X0087492Y0102848D01*
X0087252Y0101850D02*
X0088490Y0101850D01*
X0088250Y0100851D02*
X0089489Y0100851D01*
X0088643Y0100458D02*
X0088643Y0100458D01*
X0089249Y0099853D02*
X0090487Y0099853D01*
X0089785Y0098854D02*
X0091486Y0098854D01*
X0092484Y0097856D02*
X0089900Y0097856D01*
X0089900Y0096857D02*
X0093100Y0096857D01*
X0093100Y0095859D02*
X0089900Y0095859D01*
X0089900Y0094860D02*
X0093100Y0094860D01*
X0092700Y0093862D02*
X0089900Y0093862D01*
X0089900Y0092863D02*
X0092700Y0092863D01*
X0092700Y0091865D02*
X0089900Y0091865D01*
X0089900Y0090866D02*
X0092188Y0090866D01*
X0092128Y0089868D02*
X0089900Y0089868D01*
X0089900Y0088869D02*
X0092128Y0088869D01*
X0092128Y0087870D02*
X0089900Y0087870D01*
X0089900Y0086872D02*
X0092128Y0086872D01*
X0092313Y0085873D02*
X0089900Y0085873D01*
X0089900Y0084875D02*
X0092128Y0084875D01*
X0092128Y0083876D02*
X0089900Y0083876D01*
X0089900Y0082878D02*
X0092128Y0082878D01*
X0092128Y0081879D02*
X0089900Y0081879D01*
X0089900Y0080881D02*
X0092441Y0080881D01*
X0099872Y0083876D02*
X0109366Y0083876D01*
X0107777Y0082878D02*
X0100664Y0082878D01*
X0101663Y0081879D02*
X0106778Y0081879D01*
X0105780Y0080881D02*
X0102160Y0080881D01*
X0102568Y0079882D02*
X0104432Y0079882D01*
X0099872Y0084875D02*
X0120458Y0084875D01*
X0119700Y0085873D02*
X0099687Y0085873D01*
X0099872Y0086872D02*
X0119700Y0086872D01*
X0119700Y0087870D02*
X0099872Y0087870D01*
X0099872Y0088869D02*
X0120202Y0088869D01*
X0121201Y0089868D02*
X0099872Y0089868D01*
X0099812Y0090866D02*
X0124457Y0090866D01*
X0124799Y0089868D02*
X0125456Y0089868D01*
X0125798Y0088869D02*
X0126454Y0088869D01*
X0126300Y0087870D02*
X0126700Y0087870D01*
X0130000Y0089000D02*
X0116000Y0103000D01*
X0112700Y0102848D02*
X0095694Y0102848D01*
X0096693Y0101850D02*
X0112700Y0101850D01*
X0113482Y0100851D02*
X0097691Y0100851D01*
X0098554Y0099853D02*
X0114480Y0099853D01*
X0116469Y0098854D02*
X0098900Y0098854D01*
X0098900Y0097856D02*
X0117467Y0097856D01*
X0118466Y0096857D02*
X0098900Y0096857D01*
X0098900Y0095859D02*
X0119464Y0095859D01*
X0120463Y0094860D02*
X0098900Y0094860D01*
X0099300Y0093862D02*
X0121461Y0093862D01*
X0122460Y0092863D02*
X0099300Y0092863D01*
X0099300Y0091865D02*
X0123459Y0091865D01*
X0126818Y0095859D02*
X0144192Y0095859D01*
X0143193Y0094860D02*
X0127817Y0094860D01*
X0128815Y0093862D02*
X0142700Y0093862D01*
X0142700Y0092863D02*
X0129814Y0092863D01*
X0131802Y0091865D02*
X0142700Y0091865D01*
X0143467Y0090866D02*
X0132801Y0090866D01*
X0133300Y0089868D02*
X0144466Y0089868D01*
X0147681Y0088869D02*
X0133300Y0088869D01*
X0133300Y0087870D02*
X0153679Y0087870D01*
X0159000Y0087000D02*
X0175000Y0087000D01*
X0176000Y0088000D01*
X0175000Y0092654D01*
X0175484Y0092863D02*
X0179235Y0092863D01*
X0178665Y0093138D02*
X0178665Y0094820D01*
X0178563Y0095201D01*
X0178366Y0095543D01*
X0178333Y0095576D01*
X0179204Y0096446D01*
X0179296Y0096446D01*
X0179743Y0096000D01*
X0179235Y0095492D01*
X0179235Y0089815D01*
X0180465Y0088585D01*
X0180600Y0088585D01*
X0180600Y0088415D01*
X0180465Y0088415D01*
X0179235Y0087185D01*
X0179235Y0081508D01*
X0179743Y0081000D01*
X0179296Y0080554D01*
X0175548Y0080554D01*
X0172643Y0083458D01*
X0171577Y0083900D01*
X0165300Y0083900D01*
X0165300Y0085367D01*
X0163932Y0086735D01*
X0167185Y0086735D01*
X0168415Y0087965D01*
X0168415Y0088100D01*
X0168577Y0088100D01*
X0169643Y0088541D01*
X0171388Y0090287D01*
X0171437Y0090106D01*
X0171634Y0089764D01*
X0171914Y0089485D01*
X0172256Y0089287D01*
X0172637Y0089185D01*
X0174516Y0089185D01*
X0174516Y0092169D01*
X0175484Y0092169D01*
X0175484Y0089185D01*
X0177363Y0089185D01*
X0177744Y0089287D01*
X0178086Y0089485D01*
X0178366Y0089764D01*
X0178563Y0090106D01*
X0178665Y0090488D01*
X0178665Y0092169D01*
X0175484Y0092169D01*
X0175484Y0093138D01*
X0178665Y0093138D01*
X0178665Y0093862D02*
X0179235Y0093862D01*
X0179235Y0094860D02*
X0178654Y0094860D01*
X0178616Y0095859D02*
X0179601Y0095859D01*
X0179235Y0091865D02*
X0178665Y0091865D01*
X0178665Y0090866D02*
X0179235Y0090866D01*
X0179235Y0089868D02*
X0178425Y0089868D01*
X0180181Y0088869D02*
X0169970Y0088869D01*
X0170969Y0089868D02*
X0171575Y0089868D01*
X0174516Y0089868D02*
X0175484Y0089868D01*
X0175484Y0090866D02*
X0174516Y0090866D01*
X0174516Y0091865D02*
X0175484Y0091865D01*
X0179920Y0087870D02*
X0168321Y0087870D01*
X0167322Y0086872D02*
X0179235Y0086872D01*
X0179235Y0085873D02*
X0164793Y0085873D01*
X0165300Y0084875D02*
X0179235Y0084875D01*
X0179235Y0083876D02*
X0171634Y0083876D01*
X0173223Y0082878D02*
X0179235Y0082878D01*
X0179235Y0081879D02*
X0174222Y0081879D01*
X0175220Y0080881D02*
X0179624Y0080881D01*
X0171999Y0075900D02*
X0127577Y0075900D01*
X0126423Y0075900D01*
X0125357Y0075458D01*
X0120357Y0070458D01*
X0119541Y0069643D01*
X0119100Y0068577D01*
X0119100Y0054265D01*
X0115508Y0054265D01*
X0115000Y0053757D01*
X0114492Y0054265D01*
X0108815Y0054265D01*
X0107850Y0053300D01*
X0105633Y0053300D01*
X0105233Y0052900D01*
X0092201Y0052900D01*
X0090589Y0054513D01*
X0091445Y0054513D01*
X0092100Y0055168D01*
X0097059Y0055168D01*
X0098289Y0056398D01*
X0098289Y0062468D01*
X0097509Y0063248D01*
X0097587Y0063382D01*
X0097689Y0063763D01*
X0097689Y0065642D01*
X0094705Y0065642D01*
X0094705Y0066610D01*
X0097689Y0066610D01*
X0097689Y0068489D01*
X0097587Y0068870D01*
X0097389Y0069212D01*
X0097110Y0069492D01*
X0096768Y0069689D01*
X0096386Y0069791D01*
X0094705Y0069791D01*
X0094705Y0066610D01*
X0093736Y0066610D01*
X0093736Y0065642D01*
X0090752Y0065642D01*
X0090752Y0063763D01*
X0090854Y0063382D01*
X0090931Y0063248D01*
X0090152Y0062468D01*
X0090152Y0061717D01*
X0089960Y0061637D01*
X0089810Y0061487D01*
X0088555Y0061487D01*
X0086513Y0059445D01*
X0086513Y0058589D01*
X0081300Y0063801D01*
X0081300Y0064367D01*
X0079367Y0066300D01*
X0076633Y0066300D01*
X0074700Y0064367D01*
X0074700Y0061633D01*
X0076633Y0059700D01*
X0077199Y0059700D01*
X0089357Y0047541D01*
X0090423Y0047100D01*
X0105233Y0047100D01*
X0105633Y0046700D01*
X0107850Y0046700D01*
X0108815Y0045735D01*
X0114492Y0045735D01*
X0115000Y0046243D01*
X0115508Y0045735D01*
X0121185Y0045735D01*
X0122415Y0046965D01*
X0122415Y0048314D01*
X0122458Y0048357D01*
X0124458Y0050357D01*
X0124900Y0051423D01*
X0124900Y0066799D01*
X0126000Y0067899D01*
X0126000Y0011000D01*
X0118500Y0011000D01*
X0073500Y0021000D01*
X0073500Y0066656D01*
X0084626Y0066656D01*
X0085856Y0067886D01*
X0085856Y0073100D01*
X0088585Y0073100D01*
X0088585Y0072965D01*
X0089815Y0071735D01*
X0095492Y0071735D01*
X0096000Y0072243D01*
X0096508Y0071735D01*
X0102185Y0071735D01*
X0103415Y0072965D01*
X0103415Y0073100D01*
X0103585Y0073100D01*
X0103585Y0072965D01*
X0104815Y0071735D01*
X0110492Y0071735D01*
X0111424Y0072667D01*
X0111457Y0072634D01*
X0111799Y0072437D01*
X0112180Y0072335D01*
X0113862Y0072335D01*
X0113862Y0075516D01*
X0114831Y0075516D01*
X0114831Y0076484D01*
X0117815Y0076484D01*
X0117815Y0078100D01*
X0169799Y0078100D01*
X0171888Y0076011D01*
X0171999Y0075900D01*
X0171012Y0076887D02*
X0117815Y0076887D01*
X0117815Y0077885D02*
X0170013Y0077885D01*
X0186400Y0088415D02*
X0186400Y0088585D01*
X0186535Y0088585D01*
X0187765Y0089815D01*
X0187765Y0095492D01*
X0187257Y0096000D01*
X0187765Y0096508D01*
X0187765Y0102185D01*
X0186535Y0103415D01*
X0183900Y0103415D01*
X0183900Y0103585D01*
X0184035Y0103585D01*
X0185265Y0104815D01*
X0185265Y0110492D01*
X0184757Y0111000D01*
X0185204Y0111446D01*
X0186452Y0111446D01*
X0189100Y0108799D01*
X0189100Y0091423D01*
X0189541Y0090357D01*
X0194006Y0085893D01*
X0194822Y0085077D01*
X0195600Y0084755D01*
X0195645Y0084647D01*
X0197080Y0083212D01*
X0198954Y0082435D01*
X0206983Y0082435D01*
X0208100Y0082898D01*
X0208100Y0081500D01*
X0207696Y0081706D01*
X0207022Y0081925D01*
X0206323Y0082035D01*
X0203468Y0082035D01*
X0203468Y0078035D01*
X0202469Y0078035D01*
X0202468Y0078035D02*
X0202468Y0077035D01*
X0195492Y0077035D01*
X0195579Y0076482D01*
X0195798Y0075808D01*
X0196120Y0075177D01*
X0196321Y0074900D01*
X0196201Y0074900D01*
X0194900Y0076201D01*
X0194900Y0081577D01*
X0194458Y0082643D01*
X0191112Y0085989D01*
X0190296Y0086805D01*
X0189230Y0087246D01*
X0187704Y0087246D01*
X0186535Y0088415D01*
X0186400Y0088415D01*
X0186819Y0088869D02*
X0191030Y0088869D01*
X0192028Y0087870D02*
X0187080Y0087870D01*
X0187765Y0089868D02*
X0190031Y0089868D01*
X0189331Y0090866D02*
X0187765Y0090866D01*
X0187765Y0091865D02*
X0189100Y0091865D01*
X0189100Y0092863D02*
X0187765Y0092863D01*
X0187765Y0093862D02*
X0189100Y0093862D01*
X0189100Y0094860D02*
X0187765Y0094860D01*
X0187399Y0095859D02*
X0189100Y0095859D01*
X0189100Y0096857D02*
X0187765Y0096857D01*
X0187765Y0097856D02*
X0189100Y0097856D01*
X0189100Y0098854D02*
X0187765Y0098854D01*
X0187765Y0099853D02*
X0189100Y0099853D01*
X0189100Y0100851D02*
X0187765Y0100851D01*
X0187765Y0101850D02*
X0189100Y0101850D01*
X0189100Y0102848D02*
X0187102Y0102848D01*
X0189100Y0103847D02*
X0184297Y0103847D01*
X0185265Y0104845D02*
X0189100Y0104845D01*
X0189100Y0105844D02*
X0185265Y0105844D01*
X0185265Y0106842D02*
X0189100Y0106842D01*
X0189100Y0107841D02*
X0185265Y0107841D01*
X0185265Y0108839D02*
X0189060Y0108839D01*
X0188061Y0109838D02*
X0185265Y0109838D01*
X0184921Y0110836D02*
X0187063Y0110836D01*
X0178900Y0123817D02*
X0177777Y0123817D01*
X0178900Y0124815D02*
X0158376Y0124815D01*
X0158376Y0123817D02*
X0171223Y0123817D01*
X0169717Y0122818D02*
X0158376Y0122818D01*
X0158376Y0121820D02*
X0168719Y0121820D01*
X0167720Y0120821D02*
X0158626Y0120821D01*
X0159625Y0119823D02*
X0164058Y0119823D01*
X0163191Y0118824D02*
X0160623Y0118824D01*
X0158376Y0125814D02*
X0178900Y0125814D01*
X0178900Y0126812D02*
X0158376Y0126812D01*
X0158376Y0127811D02*
X0178900Y0127811D01*
X0178900Y0128809D02*
X0158376Y0128809D01*
X0158376Y0129808D02*
X0178900Y0129808D01*
X0178900Y0130806D02*
X0158376Y0130806D01*
X0158376Y0131805D02*
X0178900Y0131805D01*
X0178900Y0132803D02*
X0158376Y0132803D01*
X0158376Y0133802D02*
X0178900Y0133802D01*
X0178900Y0134801D02*
X0158376Y0134801D01*
X0158376Y0135799D02*
X0178900Y0135799D01*
X0178900Y0136798D02*
X0158376Y0136798D01*
X0158376Y0137796D02*
X0176537Y0137796D01*
X0175539Y0138795D02*
X0158376Y0138795D01*
X0158376Y0139793D02*
X0174700Y0139793D01*
X0174700Y0140792D02*
X0158376Y0140792D01*
X0158376Y0141790D02*
X0174700Y0141790D01*
X0175100Y0142789D02*
X0158376Y0142789D01*
X0157954Y0143787D02*
X0175100Y0143787D01*
X0175100Y0144786D02*
X0152887Y0144786D01*
X0153885Y0145784D02*
X0175100Y0145784D01*
X0175100Y0146783D02*
X0154884Y0146783D01*
X0155643Y0147541D02*
X0155643Y0147541D01*
X0155882Y0147781D02*
X0175100Y0147781D01*
X0175100Y0148780D02*
X0156633Y0148780D01*
X0156900Y0149778D02*
X0175100Y0149778D01*
X0175183Y0150777D02*
X0156900Y0150777D01*
X0156900Y0151775D02*
X0175674Y0151775D01*
X0176673Y0152774D02*
X0156900Y0152774D01*
X0156900Y0153772D02*
X0177671Y0153772D01*
X0178670Y0154771D02*
X0156900Y0154771D01*
X0156900Y0155769D02*
X0179668Y0155769D01*
X0181104Y0156768D02*
X0156900Y0156768D01*
X0156900Y0157766D02*
X0189361Y0157766D01*
X0189685Y0158549D02*
X0189000Y0156895D01*
X0189000Y0155105D01*
X0189685Y0153451D01*
X0190951Y0152185D01*
X0192605Y0151500D01*
X0194395Y0151500D01*
X0196049Y0152185D01*
X0197315Y0153451D01*
X0198000Y0155105D01*
X0198000Y0156895D01*
X0197315Y0158549D01*
X0196049Y0159815D01*
X0194395Y0160500D01*
X0192605Y0160500D01*
X0190951Y0159815D01*
X0189685Y0158549D01*
X0189901Y0158765D02*
X0156900Y0158765D01*
X0156900Y0159763D02*
X0190899Y0159763D01*
X0189000Y0156768D02*
X0186899Y0156768D01*
X0187898Y0155769D02*
X0189000Y0155769D01*
X0189138Y0154771D02*
X0188300Y0154771D01*
X0188300Y0153772D02*
X0189552Y0153772D01*
X0190362Y0152774D02*
X0188300Y0152774D01*
X0187442Y0151775D02*
X0191940Y0151775D01*
X0190347Y0149456D02*
X0189638Y0149750D01*
X0188884Y0149900D01*
X0188800Y0149900D01*
X0188800Y0146300D01*
X0192400Y0146300D01*
X0192400Y0146384D01*
X0192250Y0147138D01*
X0191956Y0147847D01*
X0191529Y0148486D01*
X0190986Y0149029D01*
X0190347Y0149456D01*
X0189496Y0149778D02*
X0195914Y0149778D01*
X0194916Y0148780D02*
X0191236Y0148780D01*
X0191984Y0147781D02*
X0194367Y0147781D01*
X0194000Y0146783D02*
X0192321Y0146783D01*
X0194000Y0145784D02*
X0188800Y0145784D01*
X0188200Y0145784D02*
X0180900Y0145784D01*
X0180900Y0144786D02*
X0184782Y0144786D01*
X0185288Y0143787D02*
X0180900Y0143787D01*
X0180900Y0146783D02*
X0184679Y0146783D01*
X0185016Y0147781D02*
X0180900Y0147781D01*
X0180900Y0148780D02*
X0185764Y0148780D01*
X0187504Y0149778D02*
X0181879Y0149778D01*
X0182878Y0150777D02*
X0183556Y0150777D01*
X0186444Y0150777D02*
X0200600Y0150777D01*
X0200600Y0151775D02*
X0195060Y0151775D01*
X0196638Y0152774D02*
X0200362Y0152774D01*
X0199552Y0153772D02*
X0197448Y0153772D01*
X0197862Y0154771D02*
X0199138Y0154771D01*
X0199000Y0155769D02*
X0198000Y0155769D01*
X0198000Y0156768D02*
X0199000Y0156768D01*
X0199361Y0157766D02*
X0197639Y0157766D01*
X0197099Y0158765D02*
X0199901Y0158765D01*
X0200899Y0159763D02*
X0196101Y0159763D01*
X0206101Y0159763D02*
X0218500Y0159763D01*
X0218500Y0158765D02*
X0214690Y0158765D01*
X0217064Y0157766D02*
X0218500Y0157766D01*
X0218500Y0156768D02*
X0218063Y0156768D01*
X0218500Y0160762D02*
X0156900Y0160762D01*
X0156900Y0161760D02*
X0218500Y0161760D01*
X0218500Y0162759D02*
X0156900Y0162759D01*
X0156900Y0163757D02*
X0166000Y0163757D01*
X0157566Y0164756D02*
X0156826Y0164756D01*
X0157012Y0165754D02*
X0156347Y0165754D01*
X0156900Y0166753D02*
X0155348Y0166753D01*
X0154350Y0167751D02*
X0157154Y0167751D01*
X0157909Y0168750D02*
X0152939Y0168750D01*
X0152190Y0169748D02*
X0158768Y0169748D01*
X0158020Y0170747D02*
X0151191Y0170747D01*
X0156900Y0172744D02*
X0099045Y0172744D01*
X0099045Y0171745D02*
X0157200Y0171745D01*
X0156966Y0173742D02*
X0098700Y0173742D01*
X0099045Y0170747D02*
X0100544Y0170747D01*
X0110415Y0170747D02*
X0119144Y0170747D01*
X0118145Y0169748D02*
X0111414Y0169748D01*
X0111480Y0168750D02*
X0118080Y0168750D01*
X0118080Y0167751D02*
X0111480Y0167751D01*
X0111480Y0166753D02*
X0118080Y0166753D01*
X0118080Y0165754D02*
X0111480Y0165754D01*
X0111406Y0164756D02*
X0118153Y0164756D01*
X0118080Y0163757D02*
X0111480Y0163757D01*
X0111480Y0162759D02*
X0118080Y0162759D01*
X0118080Y0161760D02*
X0111480Y0161760D01*
X0111480Y0160762D02*
X0118080Y0160762D01*
X0118160Y0159763D02*
X0114338Y0159763D01*
X0115336Y0158765D02*
X0118080Y0158765D01*
X0118080Y0157766D02*
X0116335Y0157766D01*
X0117333Y0156768D02*
X0118080Y0156768D01*
X0118080Y0155769D02*
X0117820Y0155769D01*
X0117900Y0154771D02*
X0119016Y0154771D01*
X0118680Y0153772D02*
X0117900Y0153772D01*
X0117900Y0152774D02*
X0118680Y0152774D01*
X0118680Y0151775D02*
X0117900Y0151775D01*
X0117900Y0150777D02*
X0118930Y0150777D01*
X0117900Y0149778D02*
X0149677Y0149778D01*
X0148678Y0148780D02*
X0121485Y0148780D01*
X0124083Y0147781D02*
X0125051Y0147781D01*
X0125051Y0148756D02*
X0125051Y0145772D01*
X0128232Y0145772D01*
X0128232Y0147453D01*
X0128130Y0147835D01*
X0127933Y0148177D01*
X0127653Y0148456D01*
X0127311Y0148654D01*
X0126930Y0148756D01*
X0125051Y0148756D01*
X0124130Y0150113D02*
X0128177Y0150113D01*
X0128559Y0150215D01*
X0128901Y0150412D01*
X0129180Y0150692D01*
X0129377Y0151034D01*
X0129480Y0151415D01*
X0129480Y0152663D01*
X0124130Y0152663D01*
X0124130Y0150113D01*
X0124130Y0150777D02*
X0124030Y0150777D01*
X0124030Y0151775D02*
X0124130Y0151775D01*
X0128144Y0147781D02*
X0147680Y0147781D01*
X0147056Y0146783D02*
X0128232Y0146783D01*
X0128232Y0145784D02*
X0146880Y0145784D01*
X0146880Y0144786D02*
X0128232Y0144786D01*
X0128232Y0143787D02*
X0146723Y0143787D01*
X0146302Y0142789D02*
X0128143Y0142789D01*
X0125051Y0142789D02*
X0124083Y0142789D01*
X0124083Y0143787D02*
X0125051Y0143787D01*
X0125051Y0144786D02*
X0124083Y0144786D01*
X0124083Y0145784D02*
X0125051Y0145784D01*
X0125051Y0146783D02*
X0124083Y0146783D01*
X0121480Y0141790D02*
X0146302Y0141790D01*
X0146302Y0140792D02*
X0100945Y0140792D01*
X0100945Y0141382D02*
X0097764Y0141382D01*
X0097764Y0138398D01*
X0099642Y0138398D01*
X0100024Y0138500D01*
X0100366Y0138697D01*
X0100645Y0138977D01*
X0100843Y0139319D01*
X0100945Y0139700D01*
X0100945Y0141382D01*
X0101643Y0141790D02*
X0097764Y0141790D01*
X0096795Y0141790D02*
X0091300Y0141790D01*
X0091300Y0140792D02*
X0093614Y0140792D01*
X0093614Y0139793D02*
X0090460Y0139793D01*
X0089461Y0138795D02*
X0094096Y0138795D01*
X0093297Y0137796D02*
X0088086Y0137796D01*
X0087556Y0138327D02*
X0086192Y0138327D01*
X0086192Y0134327D01*
X0090192Y0134327D01*
X0090192Y0135691D01*
X0087556Y0138327D01*
X0086539Y0138795D02*
X0083461Y0138795D01*
X0083297Y0137796D02*
X0078086Y0137796D01*
X0077556Y0138327D02*
X0076192Y0138327D01*
X0076192Y0134327D01*
X0080192Y0134327D01*
X0080192Y0135691D01*
X0077556Y0138327D01*
X0076192Y0137796D02*
X0075192Y0137796D01*
X0075192Y0136798D02*
X0076192Y0136798D01*
X0076192Y0135799D02*
X0075192Y0135799D01*
X0075192Y0134801D02*
X0076192Y0134801D01*
X0076192Y0133802D02*
X0085192Y0133802D01*
X0085192Y0134801D02*
X0086192Y0134801D01*
X0086192Y0135799D02*
X0085192Y0135799D01*
X0085192Y0136798D02*
X0086192Y0136798D01*
X0086192Y0137796D02*
X0085192Y0137796D01*
X0085540Y0139793D02*
X0084460Y0139793D01*
X0082299Y0136798D02*
X0079085Y0136798D01*
X0080083Y0135799D02*
X0081300Y0135799D01*
X0081192Y0134801D02*
X0080192Y0134801D01*
X0080192Y0132803D02*
X0081192Y0132803D01*
X0086192Y0133802D02*
X0095192Y0133802D01*
X0095192Y0134801D02*
X0096192Y0134801D01*
X0096192Y0134327D02*
X0096192Y0138327D01*
X0097556Y0138327D01*
X0100192Y0135691D01*
X0100192Y0134327D01*
X0096192Y0134327D01*
X0096192Y0133802D02*
X0126701Y0133802D01*
X0126194Y0132803D02*
X0100192Y0132803D01*
X0100192Y0134801D02*
X0127699Y0134801D01*
X0128698Y0135799D02*
X0100083Y0135799D01*
X0099085Y0136798D02*
X0130176Y0136798D01*
X0126100Y0131805D02*
X0116862Y0131805D01*
X0117860Y0130806D02*
X0126100Y0130806D01*
X0126100Y0129808D02*
X0118300Y0129808D01*
X0118300Y0128809D02*
X0126100Y0128809D01*
X0126100Y0127811D02*
X0118300Y0127811D01*
X0117479Y0126812D02*
X0126100Y0126812D01*
X0126100Y0125814D02*
X0116481Y0125814D01*
X0113519Y0125814D02*
X0100792Y0125814D01*
X0100792Y0124815D02*
X0126100Y0124815D01*
X0126100Y0123817D02*
X0100792Y0123817D01*
X0100792Y0122818D02*
X0126100Y0122818D01*
X0126100Y0121820D02*
X0100792Y0121820D01*
X0099899Y0120821D02*
X0126100Y0120821D01*
X0126100Y0119823D02*
X0098900Y0119823D01*
X0097902Y0118824D02*
X0126348Y0118824D01*
X0127073Y0117826D02*
X0088592Y0117826D01*
X0088592Y0118824D02*
X0093482Y0118824D01*
X0092483Y0119823D02*
X0088900Y0119823D01*
X0089899Y0120821D02*
X0091485Y0120821D01*
X0088851Y0116827D02*
X0126160Y0116827D01*
X0125700Y0115829D02*
X0089850Y0115829D01*
X0089872Y0114830D02*
X0125700Y0114830D01*
X0125700Y0113832D02*
X0089872Y0113832D01*
X0089872Y0112833D02*
X0126500Y0112833D01*
X0127498Y0111835D02*
X0089872Y0111835D01*
X0089724Y0110836D02*
X0129487Y0110836D01*
X0130485Y0109838D02*
X0089872Y0109838D01*
X0089872Y0108839D02*
X0131484Y0108839D01*
X0133000Y0111000D02*
X0138000Y0111000D01*
X0136492Y0107841D02*
X0090701Y0107841D01*
X0091700Y0106842D02*
X0138585Y0106842D01*
X0138585Y0105844D02*
X0117823Y0105844D01*
X0118822Y0104845D02*
X0138585Y0104845D01*
X0138585Y0103847D02*
X0119300Y0103847D01*
X0119829Y0102848D02*
X0138702Y0102848D01*
X0139700Y0101850D02*
X0120827Y0101850D01*
X0121826Y0100851D02*
X0142700Y0100851D01*
X0142700Y0099853D02*
X0122824Y0099853D01*
X0123823Y0098854D02*
X0143479Y0098854D01*
X0144477Y0097856D02*
X0124821Y0097856D01*
X0125820Y0096857D02*
X0146931Y0096857D01*
X0146000Y0093000D02*
X0150654Y0093000D01*
X0151000Y0092654D01*
X0149346Y0101000D02*
X0146000Y0101000D01*
X0154000Y0105000D02*
X0155000Y0106000D01*
X0155000Y0111000D01*
X0133000Y0111000D02*
X0129000Y0115000D01*
X0114177Y0105844D02*
X0092698Y0105844D01*
X0093697Y0104845D02*
X0113178Y0104845D01*
X0112700Y0103847D02*
X0094695Y0103847D01*
X0083043Y0097856D02*
X0068800Y0097856D01*
X0068800Y0098854D02*
X0075045Y0098854D01*
X0074046Y0099853D02*
X0068800Y0099853D01*
X0068119Y0100851D02*
X0073048Y0100851D01*
X0072049Y0101850D02*
X0068800Y0101850D01*
X0068800Y0102848D02*
X0071051Y0102848D01*
X0069486Y0103847D02*
X0068800Y0103847D01*
X0068800Y0109838D02*
X0069171Y0109838D01*
X0067902Y0118824D02*
X0073482Y0118824D01*
X0072483Y0119823D02*
X0068900Y0119823D01*
X0069899Y0120821D02*
X0071485Y0120821D01*
X0077902Y0118824D02*
X0082792Y0118824D01*
X0082792Y0117826D02*
X0046000Y0117826D01*
X0046000Y0118824D02*
X0053482Y0118824D01*
X0052483Y0119823D02*
X0046000Y0119823D01*
X0046000Y0120821D02*
X0051485Y0120821D01*
X0050592Y0121820D02*
X0046000Y0121820D01*
X0046000Y0122818D02*
X0050592Y0122818D01*
X0050592Y0123817D02*
X0046000Y0123817D01*
X0046000Y0124815D02*
X0050592Y0124815D01*
X0050592Y0125814D02*
X0046000Y0125814D01*
X0046000Y0126812D02*
X0051465Y0126812D01*
X0052464Y0127811D02*
X0046000Y0127811D01*
X0046000Y0128809D02*
X0053462Y0128809D01*
X0052498Y0129808D02*
X0046000Y0129808D01*
X0046000Y0130806D02*
X0051500Y0130806D01*
X0050592Y0131805D02*
X0046000Y0131805D01*
X0046000Y0132803D02*
X0050592Y0132803D01*
X0050592Y0133802D02*
X0046000Y0133802D01*
X0046000Y0134801D02*
X0050592Y0134801D01*
X0050592Y0135799D02*
X0046000Y0135799D01*
X0046000Y0136798D02*
X0051450Y0136798D01*
X0052449Y0137796D02*
X0046000Y0137796D01*
X0046000Y0138795D02*
X0053447Y0138795D01*
X0057936Y0138795D02*
X0080539Y0138795D01*
X0076204Y0139793D02*
X0046000Y0139793D01*
X0046000Y0140792D02*
X0075206Y0140792D01*
X0074207Y0141790D02*
X0045095Y0141790D01*
X0044395Y0141500D02*
X0046049Y0142185D01*
X0047315Y0143451D01*
X0048000Y0145105D01*
X0048000Y0146895D01*
X0047315Y0148549D01*
X0046049Y0149815D01*
X0044395Y0150500D01*
X0042605Y0150500D01*
X0040951Y0149815D01*
X0039685Y0148549D01*
X0039000Y0146895D01*
X0039000Y0145105D01*
X0039685Y0143451D01*
X0040951Y0142185D01*
X0042605Y0141500D01*
X0044395Y0141500D01*
X0041905Y0141790D02*
X0021000Y0141790D01*
X0021000Y0142789D02*
X0031286Y0142789D01*
X0031014Y0142971D02*
X0031653Y0142544D01*
X0032362Y0142250D01*
X0033116Y0142100D01*
X0033200Y0142100D01*
X0033200Y0145700D01*
X0033800Y0145700D01*
X0033800Y0146300D01*
X0037400Y0146300D01*
X0037400Y0146384D01*
X0037250Y0147138D01*
X0036956Y0147847D01*
X0036529Y0148486D01*
X0035986Y0149029D01*
X0035347Y0149456D01*
X0034638Y0149750D01*
X0033884Y0149900D01*
X0033800Y0149900D01*
X0033800Y0146300D01*
X0033200Y0146300D01*
X0033200Y0149900D01*
X0033116Y0149900D01*
X0032362Y0149750D01*
X0031653Y0149456D01*
X0031014Y0149029D01*
X0030471Y0148486D01*
X0030044Y0147847D01*
X0029750Y0147138D01*
X0029600Y0146384D01*
X0029600Y0146300D01*
X0033200Y0146300D01*
X0033200Y0145700D01*
X0029600Y0145700D01*
X0029600Y0145616D01*
X0029750Y0144862D01*
X0030044Y0144153D01*
X0030471Y0143514D01*
X0031014Y0142971D01*
X0030288Y0143787D02*
X0021000Y0143787D01*
X0021000Y0144786D02*
X0029782Y0144786D01*
X0029679Y0146783D02*
X0021000Y0146783D01*
X0021000Y0147781D02*
X0030016Y0147781D01*
X0030764Y0148780D02*
X0021000Y0148780D01*
X0021000Y0149778D02*
X0032504Y0149778D01*
X0033200Y0149778D02*
X0033800Y0149778D01*
X0034496Y0149778D02*
X0040914Y0149778D01*
X0039916Y0148780D02*
X0036236Y0148780D01*
X0036984Y0147781D02*
X0039367Y0147781D01*
X0039000Y0146783D02*
X0037321Y0146783D01*
X0037400Y0145700D02*
X0033800Y0145700D01*
X0033800Y0142100D01*
X0033884Y0142100D01*
X0034638Y0142250D01*
X0035347Y0142544D01*
X0035986Y0142971D01*
X0036529Y0143514D01*
X0036956Y0144153D01*
X0037250Y0144862D01*
X0037400Y0145616D01*
X0037400Y0145700D01*
X0037218Y0144786D02*
X0039132Y0144786D01*
X0039000Y0145784D02*
X0033800Y0145784D01*
X0033200Y0145784D02*
X0021000Y0145784D01*
X0021000Y0150777D02*
X0049488Y0150777D01*
X0049488Y0149778D02*
X0046086Y0149778D01*
X0047084Y0148780D02*
X0049748Y0148780D01*
X0050161Y0147781D02*
X0047633Y0147781D01*
X0048000Y0146783D02*
X0050575Y0146783D01*
X0051385Y0145784D02*
X0048000Y0145784D01*
X0047868Y0144786D02*
X0052384Y0144786D01*
X0053978Y0143787D02*
X0047454Y0143787D01*
X0046653Y0142789D02*
X0064891Y0142789D01*
X0063893Y0143787D02*
X0061022Y0143787D01*
X0062616Y0144786D02*
X0063841Y0144786D01*
X0063841Y0145784D02*
X0063615Y0145784D01*
X0066192Y0138327D02*
X0066192Y0134327D01*
X0070192Y0134327D01*
X0070192Y0135691D01*
X0067556Y0138327D01*
X0066192Y0138327D01*
X0066192Y0137796D02*
X0065192Y0137796D01*
X0065192Y0136798D02*
X0066192Y0136798D01*
X0066192Y0135799D02*
X0065192Y0135799D01*
X0065192Y0134801D02*
X0066192Y0134801D01*
X0066192Y0133802D02*
X0075192Y0133802D01*
X0072299Y0136798D02*
X0069085Y0136798D01*
X0068086Y0137796D02*
X0073297Y0137796D01*
X0071300Y0135799D02*
X0070083Y0135799D01*
X0070192Y0134801D02*
X0071192Y0134801D01*
X0071192Y0132803D02*
X0070192Y0132803D01*
X0065192Y0133802D02*
X0060792Y0133802D01*
X0060792Y0134801D02*
X0061192Y0134801D01*
X0061300Y0135799D02*
X0060792Y0135799D01*
X0059933Y0136798D02*
X0062299Y0136798D01*
X0063297Y0137796D02*
X0058935Y0137796D01*
X0060816Y0132803D02*
X0061192Y0132803D01*
X0061485Y0120821D02*
X0059899Y0120821D01*
X0058900Y0119823D02*
X0062483Y0119823D01*
X0063482Y0118824D02*
X0057902Y0118824D01*
X0055534Y0110836D02*
X0060466Y0110836D01*
X0059800Y0109838D02*
X0056200Y0109838D01*
X0056200Y0108839D02*
X0059800Y0108839D01*
X0059800Y0107841D02*
X0056200Y0107841D01*
X0056200Y0106842D02*
X0059800Y0106842D01*
X0060474Y0105844D02*
X0055526Y0105844D01*
X0056200Y0104845D02*
X0059800Y0104845D01*
X0059800Y0103847D02*
X0056200Y0103847D01*
X0056200Y0102848D02*
X0059800Y0102848D01*
X0059800Y0101850D02*
X0056200Y0101850D01*
X0055221Y0100851D02*
X0060481Y0100851D01*
X0059800Y0099853D02*
X0055505Y0099853D01*
X0055600Y0098854D02*
X0059800Y0098854D01*
X0059800Y0097856D02*
X0055600Y0097856D01*
X0055600Y0098500D02*
X0051700Y0098500D01*
X0055600Y0098500D01*
X0055345Y0096857D02*
X0059800Y0096857D01*
X0060772Y0095859D02*
X0023500Y0095859D01*
X0023500Y0096857D02*
X0048055Y0096857D01*
X0048100Y0096779D02*
X0048379Y0096500D01*
X0048721Y0096302D01*
X0049103Y0096200D01*
X0048100Y0096779D02*
X0047902Y0097121D01*
X0047800Y0097503D01*
X0047800Y0098500D01*
X0051700Y0098500D01*
X0051700Y0098500D01*
X0051700Y0096200D01*
X0051700Y0098500D01*
X0051700Y0098500D01*
X0051700Y0098500D01*
X0051700Y0097856D02*
X0051700Y0097856D01*
X0051700Y0096857D02*
X0051700Y0096857D01*
X0047800Y0097856D02*
X0023500Y0097856D01*
X0023500Y0094860D02*
X0072207Y0094860D01*
X0072207Y0093862D02*
X0023500Y0093862D01*
X0023500Y0092863D02*
X0030101Y0092863D01*
X0029002Y0091865D02*
X0023500Y0091865D01*
X0023500Y0090866D02*
X0028202Y0090866D01*
X0027788Y0089868D02*
X0023500Y0089868D01*
X0023500Y0088869D02*
X0027483Y0088869D01*
X0027483Y0087870D02*
X0023500Y0087870D01*
X0023500Y0086872D02*
X0027488Y0086872D01*
X0027902Y0085873D02*
X0023500Y0085873D01*
X0023500Y0084875D02*
X0028315Y0084875D01*
X0029277Y0083876D02*
X0023500Y0083876D01*
X0023500Y0082878D02*
X0030764Y0082878D01*
X0029708Y0081879D02*
X0023500Y0081879D01*
X0023500Y0080881D02*
X0028865Y0080881D01*
X0028381Y0079882D02*
X0023500Y0079882D01*
X0023500Y0078884D02*
X0028134Y0078884D01*
X0023500Y0071894D02*
X0067700Y0071894D01*
X0064890Y0078884D02*
X0072207Y0078884D01*
X0073015Y0079882D02*
X0064643Y0079882D01*
X0064159Y0080881D02*
X0084100Y0080881D01*
X0084100Y0081879D02*
X0063316Y0081879D01*
X0062260Y0082878D02*
X0084100Y0082878D01*
X0084100Y0083876D02*
X0063747Y0083876D01*
X0064708Y0084875D02*
X0072541Y0084875D01*
X0072207Y0091865D02*
X0064022Y0091865D01*
X0062923Y0092863D02*
X0072207Y0092863D01*
X0072207Y0095859D02*
X0067828Y0095859D01*
X0068800Y0096857D02*
X0072667Y0096857D01*
X0082128Y0111835D02*
X0046000Y0111835D01*
X0046000Y0112833D02*
X0082128Y0112833D01*
X0082128Y0113832D02*
X0046000Y0113832D01*
X0046000Y0114830D02*
X0082128Y0114830D01*
X0082150Y0115829D02*
X0046000Y0115829D01*
X0046000Y0116827D02*
X0082792Y0116827D01*
X0082483Y0119823D02*
X0078900Y0119823D01*
X0079899Y0120821D02*
X0081485Y0120821D01*
X0090192Y0132803D02*
X0091192Y0132803D01*
X0091192Y0134801D02*
X0090192Y0134801D01*
X0090083Y0135799D02*
X0091300Y0135799D01*
X0092299Y0136798D02*
X0089085Y0136798D01*
X0095192Y0136798D02*
X0096192Y0136798D01*
X0096192Y0137796D02*
X0095192Y0137796D01*
X0096795Y0138795D02*
X0097764Y0138795D01*
X0097764Y0139793D02*
X0096795Y0139793D01*
X0096795Y0140792D02*
X0097764Y0140792D01*
X0100945Y0139793D02*
X0146302Y0139793D01*
X0146302Y0138795D02*
X0100463Y0138795D01*
X0098086Y0137796D02*
X0146302Y0137796D01*
X0145000Y0147000D02*
X0144780Y0147220D01*
X0144780Y0154701D01*
X0144279Y0154771D02*
X0129143Y0154771D01*
X0129480Y0153772D02*
X0137965Y0153772D01*
X0137965Y0152774D02*
X0129480Y0152774D01*
X0129480Y0151775D02*
X0137965Y0151775D01*
X0138180Y0150777D02*
X0129229Y0150777D01*
X0134870Y0155769D02*
X0137965Y0155769D01*
X0137965Y0156768D02*
X0135869Y0156768D01*
X0136628Y0157766D02*
X0137965Y0157766D01*
X0138260Y0158765D02*
X0136900Y0158765D01*
X0136900Y0159763D02*
X0151100Y0159763D01*
X0145279Y0158765D02*
X0144280Y0158765D01*
X0144280Y0157766D02*
X0145279Y0157766D01*
X0145279Y0156768D02*
X0144280Y0156768D01*
X0144280Y0155769D02*
X0145279Y0155769D01*
X0145279Y0153772D02*
X0144280Y0153772D01*
X0144280Y0152774D02*
X0145279Y0152774D01*
X0145279Y0151775D02*
X0144280Y0151775D01*
X0144280Y0150777D02*
X0145279Y0150777D01*
X0138308Y0160762D02*
X0136900Y0160762D01*
X0136900Y0161760D02*
X0137365Y0161760D01*
X0137365Y0162759D02*
X0136900Y0162759D01*
X0136900Y0163757D02*
X0137365Y0163757D01*
X0137365Y0164756D02*
X0136900Y0164756D01*
X0138368Y0170747D02*
X0129015Y0170747D01*
X0112100Y0153772D02*
X0111480Y0153772D01*
X0111480Y0152774D02*
X0112100Y0152774D01*
X0112100Y0151775D02*
X0111480Y0151775D01*
X0111480Y0150777D02*
X0112100Y0150777D01*
X0112100Y0149778D02*
X0110515Y0149778D01*
X0112100Y0148780D02*
X0108380Y0148780D01*
X0108380Y0147781D02*
X0112100Y0147781D01*
X0112432Y0146783D02*
X0108123Y0146783D01*
X0108100Y0145784D02*
X0113276Y0145784D01*
X0113609Y0144786D02*
X0107976Y0144786D01*
X0107562Y0143787D02*
X0113609Y0143787D01*
X0113609Y0142789D02*
X0106794Y0142789D01*
X0105357Y0141790D02*
X0114268Y0141790D01*
X0096192Y0135799D02*
X0095192Y0135799D01*
X0081164Y0145784D02*
X0078415Y0145784D01*
X0077490Y0146783D02*
X0081164Y0146783D01*
X0081164Y0147781D02*
X0077490Y0147781D01*
X0077490Y0148780D02*
X0081164Y0148780D01*
X0081164Y0149778D02*
X0077490Y0149778D01*
X0077490Y0150777D02*
X0081164Y0150777D01*
X0081124Y0151775D02*
X0077490Y0151775D01*
X0077490Y0152774D02*
X0080125Y0152774D01*
X0079127Y0153772D02*
X0077490Y0153772D01*
X0077490Y0154771D02*
X0078128Y0154771D01*
X0077130Y0155769D02*
X0076748Y0155769D01*
X0076371Y0156768D02*
X0073565Y0156768D01*
X0073565Y0157766D02*
X0076100Y0157766D01*
X0076100Y0158765D02*
X0073565Y0158765D01*
X0073483Y0159763D02*
X0076100Y0159763D01*
X0076100Y0160762D02*
X0072993Y0160762D01*
X0071994Y0161760D02*
X0076100Y0161760D01*
X0076100Y0162759D02*
X0071037Y0162759D01*
X0073500Y0163757D02*
X0076100Y0163757D01*
X0076100Y0164756D02*
X0073500Y0164756D01*
X0073500Y0165754D02*
X0076100Y0165754D01*
X0076100Y0166753D02*
X0073500Y0166753D01*
X0073500Y0167751D02*
X0076100Y0167751D01*
X0076172Y0168750D02*
X0073500Y0168750D01*
X0073500Y0169748D02*
X0076647Y0169748D01*
X0077646Y0170747D02*
X0073500Y0170747D01*
X0073500Y0171745D02*
X0078644Y0171745D01*
X0079643Y0172744D02*
X0073500Y0172744D01*
X0073500Y0173742D02*
X0080859Y0173742D01*
X0081858Y0174741D02*
X0073500Y0174741D01*
X0073500Y0175739D02*
X0157093Y0175739D01*
X0156900Y0176738D02*
X0073500Y0176738D01*
X0073500Y0177737D02*
X0157072Y0177737D01*
X0156975Y0178735D02*
X0073500Y0178735D01*
X0073500Y0179734D02*
X0156900Y0179734D01*
X0157191Y0180732D02*
X0073500Y0180732D01*
X0073500Y0181731D02*
X0157282Y0181731D01*
X0156900Y0182729D02*
X0073500Y0182729D01*
X0073500Y0183728D02*
X0156900Y0183728D01*
X0157298Y0184726D02*
X0073500Y0184726D01*
X0073500Y0185725D02*
X0106609Y0185725D01*
X0106633Y0185700D02*
X0109367Y0185700D01*
X0111300Y0187633D01*
X0111300Y0190367D01*
X0109367Y0192300D01*
X0106633Y0192300D01*
X0106233Y0191900D01*
X0096201Y0191900D01*
X0093933Y0194168D01*
X0096744Y0194168D01*
X0097974Y0195398D01*
X0097974Y0201468D01*
X0097194Y0202248D01*
X0097272Y0202382D01*
X0097374Y0202763D01*
X0097374Y0204642D01*
X0094390Y0204642D01*
X0094390Y0205610D01*
X0097374Y0205610D01*
X0097374Y0207489D01*
X0097272Y0207870D01*
X0097074Y0208212D01*
X0096795Y0208492D01*
X0096453Y0208689D01*
X0096071Y0208791D01*
X0094390Y0208791D01*
X0094390Y0205610D01*
X0093421Y0205610D01*
X0093421Y0204642D01*
X0090437Y0204642D01*
X0090437Y0202763D01*
X0090511Y0202487D01*
X0088555Y0202487D01*
X0087085Y0201017D01*
X0084300Y0203801D01*
X0084300Y0205367D01*
X0082367Y0207300D01*
X0079633Y0207300D01*
X0077700Y0205367D01*
X0077700Y0202633D01*
X0078234Y0202099D01*
X0078541Y0201357D01*
X0079357Y0200541D01*
X0093357Y0186541D01*
X0094423Y0186100D01*
X0106233Y0186100D01*
X0106633Y0185700D01*
X0109391Y0185725D02*
X0158457Y0185725D01*
X0159702Y0186723D02*
X0110390Y0186723D01*
X0111300Y0187722D02*
X0159702Y0187722D01*
X0159702Y0188720D02*
X0111300Y0188720D01*
X0111300Y0189719D02*
X0158768Y0189719D01*
X0157386Y0190717D02*
X0110950Y0190717D01*
X0109951Y0191716D02*
X0156938Y0191716D01*
X0156900Y0192714D02*
X0095387Y0192714D01*
X0094389Y0193713D02*
X0156900Y0193713D01*
X0156900Y0194711D02*
X0097287Y0194711D01*
X0097974Y0195710D02*
X0156900Y0195710D01*
X0157308Y0196708D02*
X0097974Y0196708D01*
X0097974Y0197707D02*
X0157126Y0197707D01*
X0156900Y0198705D02*
X0097974Y0198705D01*
X0097974Y0199704D02*
X0157040Y0199704D01*
X0157583Y0200702D02*
X0097974Y0200702D01*
X0097741Y0201701D02*
X0157019Y0201701D01*
X0156900Y0202699D02*
X0097357Y0202699D01*
X0097374Y0203698D02*
X0157147Y0203698D01*
X0156900Y0204696D02*
X0094390Y0204696D01*
X0093906Y0205126D02*
X0103126Y0205126D01*
X0106000Y0208000D01*
X0097320Y0207692D02*
X0156900Y0207692D01*
X0156900Y0206693D02*
X0097374Y0206693D01*
X0097374Y0205695D02*
X0156900Y0205695D01*
X0156932Y0208690D02*
X0096448Y0208690D01*
X0094390Y0208690D02*
X0093421Y0208690D01*
X0093421Y0208791D02*
X0091740Y0208791D01*
X0091358Y0208689D01*
X0091016Y0208492D01*
X0090737Y0208212D01*
X0090539Y0207870D01*
X0090437Y0207489D01*
X0090437Y0205610D01*
X0093421Y0205610D01*
X0093421Y0208791D01*
X0093421Y0207692D02*
X0094390Y0207692D01*
X0094390Y0206693D02*
X0093421Y0206693D01*
X0093421Y0205695D02*
X0094390Y0205695D01*
X0093421Y0204696D02*
X0084300Y0204696D01*
X0084403Y0203698D02*
X0090437Y0203698D01*
X0090454Y0202699D02*
X0085402Y0202699D01*
X0086400Y0201701D02*
X0087769Y0201701D01*
X0090000Y0199000D02*
X0090567Y0198433D01*
X0093906Y0198433D01*
X0090437Y0205695D02*
X0083972Y0205695D01*
X0082974Y0206693D02*
X0090437Y0206693D01*
X0090491Y0207692D02*
X0073500Y0207692D01*
X0073500Y0208690D02*
X0091363Y0208690D01*
X0085540Y0218675D02*
X0146333Y0218675D01*
X0142539Y0219674D02*
X0090033Y0219674D01*
X0094526Y0220672D02*
X0138745Y0220672D01*
X0134950Y0221671D02*
X0099020Y0221671D01*
X0103513Y0222670D02*
X0131156Y0222670D01*
X0127362Y0223668D02*
X0108006Y0223668D01*
X0112499Y0224667D02*
X0123567Y0224667D01*
X0119773Y0225665D02*
X0116993Y0225665D01*
X0086186Y0193713D02*
X0073500Y0193713D01*
X0073500Y0194711D02*
X0085188Y0194711D01*
X0084189Y0195710D02*
X0073500Y0195710D01*
X0073500Y0196708D02*
X0083191Y0196708D01*
X0082192Y0197707D02*
X0073500Y0197707D01*
X0073500Y0198705D02*
X0081194Y0198705D01*
X0080195Y0199704D02*
X0073500Y0199704D01*
X0073500Y0200702D02*
X0079197Y0200702D01*
X0078399Y0201701D02*
X0073500Y0201701D01*
X0073500Y0202699D02*
X0077700Y0202699D01*
X0077700Y0203698D02*
X0073500Y0203698D01*
X0073500Y0204696D02*
X0077700Y0204696D01*
X0078028Y0205695D02*
X0073500Y0205695D01*
X0073500Y0206693D02*
X0079026Y0206693D01*
X0073500Y0209689D02*
X0157372Y0209689D01*
X0158371Y0210687D02*
X0073500Y0210687D01*
X0073500Y0211686D02*
X0159824Y0211686D01*
X0161511Y0214681D02*
X0073500Y0214681D01*
X0073500Y0213683D02*
X0165305Y0213683D01*
X0166000Y0212684D02*
X0073500Y0212684D01*
X0073500Y0215680D02*
X0157716Y0215680D01*
X0153922Y0216678D02*
X0076553Y0216678D01*
X0081046Y0217677D02*
X0150128Y0217677D01*
X0165181Y0211686D02*
X0166000Y0211686D01*
X0157454Y0174741D02*
X0087701Y0174741D01*
X0088700Y0173742D02*
X0090859Y0173742D01*
X0090576Y0167659D02*
X0088848Y0167659D01*
X0088848Y0167524D01*
X0088068Y0166744D01*
X0088146Y0166610D01*
X0088248Y0166229D01*
X0088248Y0164350D01*
X0085264Y0164350D01*
X0085264Y0163382D01*
X0088248Y0163382D01*
X0088248Y0161503D01*
X0088146Y0161122D01*
X0087948Y0160780D01*
X0087669Y0160500D01*
X0087327Y0160303D01*
X0086946Y0160201D01*
X0085264Y0160201D01*
X0085264Y0163382D01*
X0084295Y0163382D01*
X0084295Y0160201D01*
X0082614Y0160201D01*
X0082232Y0160303D01*
X0081900Y0160495D01*
X0081900Y0159201D01*
X0084844Y0156257D01*
X0093582Y0156257D01*
X0094380Y0155460D01*
X0094380Y0159798D01*
X0091744Y0159798D01*
X0090514Y0161028D01*
X0090514Y0166704D01*
X0091022Y0167213D01*
X0090576Y0167659D01*
X0090563Y0166753D02*
X0088077Y0166753D01*
X0088248Y0165754D02*
X0090514Y0165754D01*
X0090514Y0164756D02*
X0088248Y0164756D01*
X0088248Y0162759D02*
X0090514Y0162759D01*
X0090514Y0163757D02*
X0085264Y0163757D01*
X0085264Y0162759D02*
X0084295Y0162759D01*
X0084295Y0161760D02*
X0085264Y0161760D01*
X0085264Y0160762D02*
X0084295Y0160762D01*
X0081900Y0159763D02*
X0094380Y0159763D01*
X0094380Y0158765D02*
X0082336Y0158765D01*
X0083335Y0157766D02*
X0094380Y0157766D01*
X0094380Y0156768D02*
X0084333Y0156768D01*
X0087930Y0160762D02*
X0090780Y0160762D01*
X0090514Y0161760D02*
X0088248Y0161760D01*
X0094071Y0155769D02*
X0094380Y0155769D01*
X0093176Y0186723D02*
X0073500Y0186723D01*
X0073500Y0187722D02*
X0092177Y0187722D01*
X0091179Y0188720D02*
X0073500Y0188720D01*
X0073500Y0189719D02*
X0090180Y0189719D01*
X0089182Y0190717D02*
X0073500Y0190717D01*
X0073500Y0191716D02*
X0088183Y0191716D01*
X0087185Y0192714D02*
X0073500Y0192714D01*
X0051158Y0162759D02*
X0021000Y0162759D01*
X0021000Y0161760D02*
X0050159Y0161760D01*
X0049161Y0160762D02*
X0021000Y0160762D01*
X0021000Y0159763D02*
X0037429Y0159763D01*
X0037362Y0159750D02*
X0036653Y0159456D01*
X0036014Y0159029D01*
X0035471Y0158486D01*
X0035044Y0157847D01*
X0034750Y0157138D01*
X0034600Y0156384D01*
X0034600Y0156300D01*
X0038200Y0156300D01*
X0038200Y0159900D01*
X0038116Y0159900D01*
X0037362Y0159750D01*
X0038200Y0159763D02*
X0038800Y0159763D01*
X0038800Y0159900D02*
X0038884Y0159900D01*
X0039638Y0159750D01*
X0040347Y0159456D01*
X0040986Y0159029D01*
X0041529Y0158486D01*
X0041956Y0157847D01*
X0042250Y0157138D01*
X0042400Y0156384D01*
X0042400Y0156300D01*
X0038800Y0156300D01*
X0038800Y0155700D01*
X0042400Y0155700D01*
X0042400Y0155616D01*
X0042250Y0154862D01*
X0041956Y0154153D01*
X0041529Y0153514D01*
X0040986Y0152971D01*
X0040347Y0152544D01*
X0039638Y0152250D01*
X0038884Y0152100D01*
X0038800Y0152100D01*
X0038800Y0155700D01*
X0038200Y0155700D01*
X0038200Y0152100D01*
X0038116Y0152100D01*
X0037362Y0152250D01*
X0036653Y0152544D01*
X0036014Y0152971D01*
X0035471Y0153514D01*
X0035044Y0154153D01*
X0034750Y0154862D01*
X0034600Y0155616D01*
X0034600Y0155700D01*
X0038200Y0155700D01*
X0038200Y0156300D01*
X0038800Y0156300D01*
X0038800Y0159900D01*
X0039571Y0159763D02*
X0045899Y0159763D01*
X0044901Y0158765D02*
X0041251Y0158765D01*
X0041990Y0157766D02*
X0044361Y0157766D01*
X0044000Y0156768D02*
X0042324Y0156768D01*
X0044000Y0155769D02*
X0038800Y0155769D01*
X0038200Y0155769D02*
X0021000Y0155769D01*
X0021000Y0154771D02*
X0034788Y0154771D01*
X0035298Y0153772D02*
X0021000Y0153772D01*
X0021000Y0152774D02*
X0036309Y0152774D01*
X0038200Y0152774D02*
X0038800Y0152774D01*
X0038800Y0153772D02*
X0038200Y0153772D01*
X0038200Y0154771D02*
X0038800Y0154771D01*
X0038800Y0156768D02*
X0038200Y0156768D01*
X0038200Y0157766D02*
X0038800Y0157766D01*
X0038800Y0158765D02*
X0038200Y0158765D01*
X0035749Y0158765D02*
X0021000Y0158765D01*
X0021000Y0157766D02*
X0035010Y0157766D01*
X0034676Y0156768D02*
X0021000Y0156768D01*
X0021000Y0151775D02*
X0046940Y0151775D01*
X0045362Y0152774D02*
X0040691Y0152774D01*
X0041702Y0153772D02*
X0044552Y0153772D01*
X0044138Y0154771D02*
X0042212Y0154771D01*
X0033800Y0148780D02*
X0033200Y0148780D01*
X0033200Y0147781D02*
X0033800Y0147781D01*
X0033800Y0146783D02*
X0033200Y0146783D01*
X0033200Y0144786D02*
X0033800Y0144786D01*
X0033800Y0143787D02*
X0033200Y0143787D01*
X0033200Y0142789D02*
X0033800Y0142789D01*
X0035714Y0142789D02*
X0040347Y0142789D01*
X0039546Y0143787D02*
X0036712Y0143787D01*
X0046000Y0110836D02*
X0047866Y0110836D01*
X0047200Y0109838D02*
X0046000Y0109838D01*
X0046000Y0108839D02*
X0047200Y0108839D01*
X0047000Y0105000D02*
X0048500Y0103500D01*
X0051700Y0103500D01*
X0048179Y0100851D02*
X0046000Y0100851D01*
X0046000Y0099853D02*
X0047895Y0099853D01*
X0047800Y0098854D02*
X0046000Y0098854D01*
X0055854Y0075888D02*
X0056854Y0075888D01*
X0056854Y0074890D02*
X0055854Y0074890D01*
X0055854Y0073891D02*
X0056854Y0073891D01*
X0073500Y0065903D02*
X0076236Y0065903D01*
X0075238Y0064905D02*
X0073500Y0064905D01*
X0073500Y0063906D02*
X0074700Y0063906D01*
X0074700Y0062908D02*
X0073500Y0062908D01*
X0073500Y0061909D02*
X0074700Y0061909D01*
X0075422Y0060911D02*
X0073500Y0060911D01*
X0073500Y0059912D02*
X0076421Y0059912D01*
X0077985Y0058914D02*
X0073500Y0058914D01*
X0073500Y0057915D02*
X0078984Y0057915D01*
X0079982Y0056917D02*
X0073500Y0056917D01*
X0073500Y0055918D02*
X0080981Y0055918D01*
X0081979Y0054920D02*
X0073500Y0054920D01*
X0073500Y0053921D02*
X0082978Y0053921D01*
X0083976Y0052923D02*
X0073500Y0052923D01*
X0073500Y0051924D02*
X0084975Y0051924D01*
X0085973Y0050926D02*
X0073500Y0050926D01*
X0073500Y0049927D02*
X0086972Y0049927D01*
X0087970Y0048929D02*
X0073500Y0048929D01*
X0073500Y0047930D02*
X0088969Y0047930D01*
X0092179Y0052923D02*
X0105256Y0052923D01*
X0108471Y0053921D02*
X0091180Y0053921D01*
X0091852Y0054920D02*
X0119100Y0054920D01*
X0119100Y0055918D02*
X0097809Y0055918D01*
X0098289Y0056917D02*
X0119100Y0056917D01*
X0119100Y0057915D02*
X0098289Y0057915D01*
X0098289Y0058914D02*
X0119100Y0058914D01*
X0119100Y0059912D02*
X0098289Y0059912D01*
X0098289Y0060911D02*
X0119100Y0060911D01*
X0119100Y0061909D02*
X0098289Y0061909D01*
X0097850Y0062908D02*
X0119100Y0062908D01*
X0119100Y0063906D02*
X0097689Y0063906D01*
X0097689Y0064905D02*
X0119100Y0064905D01*
X0119100Y0065903D02*
X0094705Y0065903D01*
X0094220Y0066126D02*
X0096094Y0068000D01*
X0102000Y0068000D01*
X0106346Y0068000D01*
X0114346Y0076000D01*
X0115346Y0077000D01*
X0150000Y0077000D01*
X0126395Y0075888D02*
X0114831Y0075888D01*
X0114831Y0075516D02*
X0117815Y0075516D01*
X0117815Y0073637D01*
X0117713Y0073256D01*
X0117515Y0072914D01*
X0117236Y0072634D01*
X0116894Y0072437D01*
X0116512Y0072335D01*
X0114831Y0072335D01*
X0114831Y0075516D01*
X0114831Y0074890D02*
X0113862Y0074890D01*
X0113862Y0073891D02*
X0114831Y0073891D01*
X0114831Y0072893D02*
X0113862Y0072893D01*
X0110652Y0071894D02*
X0121793Y0071894D01*
X0120795Y0070896D02*
X0085856Y0070896D01*
X0085856Y0071894D02*
X0089656Y0071894D01*
X0088657Y0072893D02*
X0085856Y0072893D01*
X0085856Y0069897D02*
X0119796Y0069897D01*
X0119233Y0068899D02*
X0097570Y0068899D01*
X0097689Y0067900D02*
X0119100Y0067900D01*
X0119100Y0066902D02*
X0097689Y0066902D01*
X0094705Y0066902D02*
X0093736Y0066902D01*
X0093736Y0066610D02*
X0093736Y0069791D01*
X0092054Y0069791D01*
X0091673Y0069689D01*
X0091331Y0069492D01*
X0091052Y0069212D01*
X0090854Y0068870D01*
X0090752Y0068489D01*
X0090752Y0066610D01*
X0093736Y0066610D01*
X0093736Y0065903D02*
X0079764Y0065903D01*
X0080762Y0064905D02*
X0090752Y0064905D01*
X0090752Y0063906D02*
X0081300Y0063906D01*
X0082194Y0062908D02*
X0090591Y0062908D01*
X0090152Y0061909D02*
X0083192Y0061909D01*
X0084191Y0060911D02*
X0087979Y0060911D01*
X0086980Y0059912D02*
X0085189Y0059912D01*
X0086188Y0058914D02*
X0086513Y0058914D01*
X0090000Y0058000D02*
X0091433Y0059433D01*
X0094220Y0059433D01*
X0090752Y0066902D02*
X0084872Y0066902D01*
X0085856Y0067900D02*
X0090752Y0067900D01*
X0090871Y0068899D02*
X0085856Y0068899D01*
X0093736Y0068899D02*
X0094705Y0068899D01*
X0094705Y0067900D02*
X0093736Y0067900D01*
X0095652Y0071894D02*
X0096348Y0071894D01*
X0102344Y0071894D02*
X0104656Y0071894D01*
X0103657Y0072893D02*
X0103343Y0072893D01*
X0117494Y0072893D02*
X0122792Y0072893D01*
X0123790Y0073891D02*
X0117815Y0073891D01*
X0117815Y0074890D02*
X0124789Y0074890D01*
X0125003Y0066902D02*
X0126000Y0066902D01*
X0126000Y0065903D02*
X0124900Y0065903D01*
X0124900Y0064905D02*
X0126000Y0064905D01*
X0126000Y0063906D02*
X0124900Y0063906D01*
X0124900Y0062908D02*
X0126000Y0062908D01*
X0126000Y0061909D02*
X0124900Y0061909D01*
X0124900Y0060911D02*
X0126000Y0060911D01*
X0126000Y0059912D02*
X0124900Y0059912D01*
X0124900Y0058914D02*
X0126000Y0058914D01*
X0126000Y0057915D02*
X0124900Y0057915D01*
X0124900Y0056917D02*
X0126000Y0056917D01*
X0126000Y0055918D02*
X0124900Y0055918D01*
X0124900Y0054920D02*
X0126000Y0054920D01*
X0126000Y0053921D02*
X0124900Y0053921D01*
X0124900Y0052923D02*
X0126000Y0052923D01*
X0126000Y0051924D02*
X0124900Y0051924D01*
X0124694Y0050926D02*
X0126000Y0050926D01*
X0126000Y0049927D02*
X0124028Y0049927D01*
X0123030Y0048929D02*
X0126000Y0048929D01*
X0126000Y0047930D02*
X0122415Y0047930D01*
X0122382Y0046932D02*
X0126000Y0046932D01*
X0126000Y0045933D02*
X0121383Y0045933D01*
X0126000Y0044934D02*
X0073500Y0044934D01*
X0073500Y0043936D02*
X0126000Y0043936D01*
X0126000Y0042937D02*
X0073500Y0042937D01*
X0073500Y0041939D02*
X0126000Y0041939D01*
X0126000Y0040940D02*
X0073500Y0040940D01*
X0073500Y0039942D02*
X0126000Y0039942D01*
X0126000Y0038943D02*
X0073500Y0038943D01*
X0073500Y0037945D02*
X0126000Y0037945D01*
X0126000Y0036946D02*
X0073500Y0036946D01*
X0073500Y0035948D02*
X0126000Y0035948D01*
X0126000Y0034949D02*
X0073500Y0034949D01*
X0073500Y0033951D02*
X0126000Y0033951D01*
X0126000Y0032952D02*
X0073500Y0032952D01*
X0073500Y0031954D02*
X0126000Y0031954D01*
X0126000Y0030955D02*
X0073500Y0030955D01*
X0073500Y0029957D02*
X0126000Y0029957D01*
X0126000Y0028958D02*
X0073500Y0028958D01*
X0073500Y0027960D02*
X0126000Y0027960D01*
X0126000Y0026961D02*
X0073500Y0026961D01*
X0073500Y0025963D02*
X0126000Y0025963D01*
X0126000Y0024964D02*
X0073500Y0024964D01*
X0073500Y0023966D02*
X0126000Y0023966D01*
X0126000Y0022967D02*
X0073500Y0022967D01*
X0073500Y0021969D02*
X0126000Y0021969D01*
X0126000Y0020970D02*
X0073634Y0020970D01*
X0078127Y0019972D02*
X0126000Y0019972D01*
X0126000Y0018973D02*
X0082621Y0018973D01*
X0087114Y0017975D02*
X0126000Y0017975D01*
X0126000Y0016976D02*
X0091607Y0016976D01*
X0096100Y0015978D02*
X0126000Y0015978D01*
X0126000Y0014979D02*
X0100594Y0014979D01*
X0105087Y0013981D02*
X0126000Y0013981D01*
X0126000Y0012982D02*
X0109580Y0012982D01*
X0114074Y0011984D02*
X0126000Y0011984D01*
X0115310Y0045933D02*
X0114690Y0045933D01*
X0108617Y0045933D02*
X0073500Y0045933D01*
X0073500Y0046932D02*
X0105402Y0046932D01*
X0114836Y0053921D02*
X0115164Y0053921D01*
X0190134Y0086872D02*
X0193027Y0086872D01*
X0194025Y0085873D02*
X0191228Y0085873D01*
X0192226Y0084875D02*
X0195309Y0084875D01*
X0196415Y0083876D02*
X0193225Y0083876D01*
X0194223Y0082878D02*
X0197886Y0082878D01*
X0198241Y0081706D02*
X0197610Y0081384D01*
X0197037Y0080968D01*
X0196536Y0080467D01*
X0196120Y0079894D01*
X0195798Y0079263D01*
X0195579Y0078589D01*
X0195492Y0078035D01*
X0202468Y0078035D01*
X0202469Y0078035D02*
X0202469Y0082035D01*
X0199614Y0082035D01*
X0198915Y0081925D01*
X0198241Y0081706D01*
X0198776Y0081879D02*
X0194775Y0081879D01*
X0194900Y0080881D02*
X0196950Y0080881D01*
X0196114Y0079882D02*
X0194900Y0079882D01*
X0194900Y0078884D02*
X0195675Y0078884D01*
X0194900Y0077885D02*
X0202468Y0077885D01*
X0202469Y0078884D02*
X0203468Y0078884D01*
X0203468Y0079882D02*
X0202469Y0079882D01*
X0202469Y0080881D02*
X0203468Y0080881D01*
X0203468Y0081879D02*
X0202469Y0081879D01*
X0207161Y0081879D02*
X0208100Y0081879D01*
X0208100Y0082878D02*
X0208051Y0082878D01*
X0195515Y0076887D02*
X0194900Y0076887D01*
X0195213Y0075888D02*
X0195772Y0075888D01*
X0194546Y0143787D02*
X0191712Y0143787D01*
X0192218Y0144786D02*
X0194132Y0144786D01*
X0188800Y0146783D02*
X0188200Y0146783D01*
X0188200Y0147781D02*
X0188800Y0147781D01*
X0188800Y0148780D02*
X0188200Y0148780D01*
X0188200Y0149778D02*
X0188800Y0149778D01*
X0207099Y0158765D02*
X0210310Y0158765D01*
X0207936Y0157766D02*
X0207639Y0157766D01*
D29*
X0106000Y0208000D03*
X0090000Y0199000D03*
X0102000Y0068000D03*
X0090000Y0058000D03*
D30*
X0091000Y0050000D02*
X0078000Y0063000D01*
X0078551Y0073000D02*
X0071000Y0073000D01*
X0078551Y0073000D02*
X0079031Y0073480D01*
X0081551Y0076000D01*
X0087000Y0076000D01*
X0087000Y0098000D01*
X0084000Y0101000D01*
X0077000Y0101000D01*
X0071000Y0107000D01*
X0085692Y0113867D02*
X0086000Y0113559D01*
X0085692Y0113867D02*
X0085692Y0123827D01*
X0085692Y0133827D02*
X0075692Y0133827D01*
X0065692Y0133827D01*
X0065692Y0136308D01*
X0062000Y0140000D01*
X0036000Y0140000D01*
X0033500Y0142500D01*
X0033500Y0146000D01*
X0048500Y0156000D02*
X0055185Y0162685D01*
X0066969Y0162685D01*
X0070665Y0158988D01*
X0070665Y0149433D01*
X0078098Y0142000D01*
X0082000Y0142000D01*
X0088000Y0142000D02*
X0088000Y0149421D01*
X0087988Y0149433D01*
X0087567Y0149433D01*
X0079000Y0158000D01*
X0079000Y0168000D01*
X0081559Y0170559D01*
X0084780Y0170559D01*
X0094780Y0170559D01*
X0097626Y0167713D01*
X0105480Y0167713D01*
X0105480Y0162713D02*
X0095933Y0162713D01*
X0094780Y0163866D01*
X0097280Y0161366D01*
X0097280Y0148559D01*
X0097280Y0141866D02*
X0095692Y0140278D01*
X0095692Y0133827D01*
X0085692Y0133827D01*
X0097280Y0141720D02*
X0102000Y0137000D01*
X0123000Y0137000D01*
X0125000Y0139000D01*
X0125000Y0144854D01*
X0124567Y0145287D01*
X0132287Y0145287D01*
X0134000Y0147000D01*
X0134000Y0152713D01*
X0142791Y0152713D01*
X0144780Y0154701D01*
X0149780Y0145780D02*
X0149780Y0140724D01*
X0149780Y0120724D01*
X0149780Y0125724D01*
X0149780Y0130724D01*
X0149780Y0135724D01*
X0148055Y0134000D01*
X0131000Y0134000D01*
X0129000Y0132000D01*
X0129000Y0120000D01*
X0130000Y0119000D01*
X0135000Y0119000D01*
X0137654Y0116346D01*
X0136654Y0116000D01*
X0134169Y0119484D01*
X0134169Y0122260D01*
X0142831Y0126000D02*
X0144346Y0124484D01*
X0143346Y0123484D01*
X0143346Y0116000D01*
X0142654Y0114307D01*
X0142654Y0106000D01*
X0149346Y0106000D02*
X0149346Y0101000D01*
X0151000Y0099346D01*
X0151000Y0092654D02*
X0156000Y0092654D01*
X0157654Y0091000D01*
X0157654Y0101000D01*
X0164346Y0101000D02*
X0164346Y0107307D01*
X0164000Y0107654D01*
X0170016Y0107654D01*
X0171000Y0106669D01*
X0164000Y0107654D02*
X0161000Y0107654D01*
X0161000Y0114346D02*
X0154898Y0120449D01*
X0154898Y0120724D01*
X0154898Y0125724D01*
X0154898Y0130724D01*
X0154898Y0135724D01*
X0149780Y0135724D02*
X0149780Y0139780D01*
X0149780Y0145780D02*
X0154000Y0150000D01*
X0154000Y0164000D01*
X0152000Y0166000D01*
X0145055Y0166000D01*
X0144780Y0165724D01*
X0142791Y0167713D01*
X0135000Y0167713D01*
X0134000Y0166713D01*
X0134000Y0163000D01*
X0133713Y0162713D01*
X0124080Y0162713D01*
X0124080Y0167713D02*
X0135000Y0167713D01*
X0134000Y0163000D02*
X0134000Y0159000D01*
X0132713Y0157713D01*
X0124080Y0157713D01*
X0124080Y0152713D02*
X0134000Y0152713D01*
X0117874Y0145287D02*
X0115000Y0148161D01*
X0115000Y0155000D01*
X0112287Y0157713D01*
X0105480Y0157713D01*
X0105480Y0152713D02*
X0105480Y0147980D01*
X0103500Y0146000D01*
X0097280Y0141866D02*
X0097280Y0141720D01*
X0085000Y0159000D02*
X0084780Y0159220D01*
X0084780Y0163866D01*
X0095000Y0179000D02*
X0071000Y0179000D01*
X0066969Y0174969D01*
X0066969Y0169378D01*
X0095000Y0189000D02*
X0081000Y0203000D01*
X0081000Y0204000D01*
X0095000Y0189000D02*
X0108000Y0189000D01*
X0055692Y0133827D02*
X0060519Y0129000D01*
X0115000Y0129000D01*
X0086000Y0108441D02*
X0096000Y0098441D01*
X0096000Y0093000D01*
X0096000Y0088559D01*
X0096000Y0083441D02*
X0099346Y0080094D01*
X0099346Y0076000D01*
X0107654Y0076000D01*
X0107654Y0078654D01*
X0110000Y0081000D01*
X0171000Y0081000D01*
X0174346Y0077654D01*
X0183500Y0077654D01*
X0187000Y0073000D02*
X0127000Y0073000D01*
X0122000Y0068000D01*
X0122000Y0052000D01*
X0120000Y0050000D01*
X0118346Y0050000D01*
X0111654Y0050000D02*
X0107000Y0050000D01*
X0091000Y0050000D01*
X0092654Y0076000D02*
X0087000Y0076000D01*
X0076236Y0088008D02*
X0056354Y0088008D01*
X0036669Y0088008D01*
X0076236Y0088008D02*
X0079031Y0090803D01*
X0123000Y0087000D02*
X0126000Y0084000D01*
X0162000Y0084000D01*
X0164346Y0091000D02*
X0168000Y0091000D01*
X0170000Y0093000D01*
X0170000Y0097000D01*
X0172000Y0099000D01*
X0175654Y0099000D01*
X0175000Y0099346D01*
X0183500Y0099346D01*
X0181000Y0101846D01*
X0181000Y0107654D01*
X0181000Y0114346D02*
X0187654Y0114346D01*
X0192000Y0110000D01*
X0192000Y0092000D01*
X0196465Y0087535D01*
X0202969Y0087535D01*
X0207000Y0095000D02*
X0198000Y0095000D01*
X0195000Y0098000D01*
X0195000Y0112000D01*
X0186000Y0121000D01*
X0186000Y0131000D01*
X0186000Y0133000D01*
X0193000Y0140000D01*
X0201000Y0140000D01*
X0203500Y0142500D01*
X0203500Y0156000D01*
X0185000Y0154000D02*
X0182000Y0154000D01*
X0178000Y0150000D01*
X0178000Y0141000D01*
X0177000Y0121000D02*
X0172000Y0121000D01*
X0167260Y0116260D01*
X0167260Y0115331D01*
X0166276Y0114346D01*
X0161000Y0114346D01*
X0177000Y0121000D02*
X0179000Y0119000D01*
X0181000Y0117000D01*
X0181000Y0114346D01*
X0183500Y0092654D02*
X0183500Y0084346D01*
X0188654Y0084346D01*
X0192000Y0081000D01*
X0192000Y0075000D01*
X0195000Y0072000D01*
X0208000Y0072000D01*
X0211000Y0075000D01*
X0211000Y0091000D01*
X0207000Y0095000D01*
D31*
X0187000Y0073000D03*
X0176000Y0088000D03*
X0162000Y0084000D03*
X0159000Y0087000D03*
X0150000Y0077000D03*
X0146000Y0093000D03*
X0146000Y0101000D03*
X0154000Y0105000D03*
X0155000Y0111000D03*
X0138000Y0111000D03*
X0129000Y0115000D03*
X0116000Y0103000D03*
X0130000Y0089000D03*
X0123000Y0087000D03*
X0096000Y0093000D03*
X0071000Y0107000D03*
X0047000Y0105000D03*
X0071000Y0073000D03*
X0078000Y0063000D03*
X0095000Y0042000D03*
X0095000Y0037000D03*
X0095000Y0032000D03*
X0095000Y0027000D03*
X0095000Y0022000D03*
X0107000Y0050000D03*
X0179000Y0119000D03*
X0178000Y0141000D03*
X0185000Y0154000D03*
X0145000Y0147000D03*
X0115000Y0129000D03*
X0088000Y0142000D03*
X0082000Y0142000D03*
X0085000Y0159000D03*
X0095000Y0179000D03*
X0095000Y0184000D03*
X0108000Y0189000D03*
X0081000Y0204000D03*
D32*
X0169100Y0126400D03*
M02*
